<svg width="40" height="40" viewBox="0 0 40 40" fill="none" xmlns="http://www.w3.org/2000/svg">
<rect x="0.5" y="0.5" width="39" height="39" rx="7.5" stroke="#DDDDDD"/>
<path fill-rule="evenodd" clip-rule="evenodd" d="M24.5462 11.4538C23.941 10.8487 22.96 10.8487 22.3548 11.4538L15.1238 18.6848C14.5187 19.29 14.5187 20.271 15.1238 20.8762L18.7393 24.4917C19.3445 25.0968 20.3255 25.0968 20.9307 24.4917C21.5358 23.8865 21.5358 22.9055 20.9307 22.3003L18.4108 19.7805L24.5462 13.6452C25.1513 13.04 25.1513 12.059 24.5462 11.4538ZM21.451 25.012C20.8458 25.6171 20.8458 26.5982 21.451 27.2033L22.3548 28.1072C22.96 28.7123 23.941 28.7123 24.5462 28.1072C25.1513 27.502 25.1513 26.521 24.5462 25.9158L23.6423 25.012C23.0372 24.4068 22.0561 24.4068 21.451 25.012Z" fill="#B8B8B8"/>
</svg>
