<svg width="50" height="26" viewBox="0 0 50 26" fill="none" xmlns="http://www.w3.org/2000/svg">
<g filter="url(#filter0_i_127_1119)">
<path d="M49.9978 14.0697C49.9826 14.5808 49.7657 15.065 49.3946 15.416C49.0236 15.767 48.5288 15.9561 48.0188 15.9419H24.2453C22.888 21.55 18.4414 25.261 12.4099 25.261C5.27097 25.261 0 20.1202 0 13.021C0 5.92178 5.17659 0.739258 12.3517 0.739258C17.7253 0.739258 22.2385 3.70468 23.915 8.11664C23.9924 8.32548 24.0186 8.54991 23.9914 8.77101C23.9642 8.99212 23.8844 9.20344 23.7587 9.3872C23.633 9.57095 23.4652 9.72177 23.2692 9.82694C23.0732 9.93212 22.8549 9.98858 22.6327 9.99158H18.5358C18.3054 9.99301 18.0785 9.93552 17.8764 9.82453C17.6744 9.71355 17.5039 9.55274 17.3811 9.35733C16.3958 7.75778 14.5167 6.76189 12.4099 6.76189C8.92095 6.76189 6.58107 9.29056 6.58107 13.021C6.58107 16.7514 8.88209 19.2411 12.4099 19.2411C13.1161 19.243 13.8185 19.1399 14.4945 18.9351C15.9822 18.4761 15.6047 16.2534 14.0587 16.2534H13.2787C12.913 16.2535 12.5621 16.1088 12.3023 15.851C12.0424 15.5931 11.8946 15.2429 11.8909 14.8764C11.8909 14.166 12.1725 13.4846 12.6738 12.9822C13.1751 12.4798 13.8549 12.1976 14.5639 12.1976H48.0188C48.5288 12.1833 49.0236 12.3725 49.3946 12.7235C49.7657 13.0744 49.9826 13.5586 49.9978 14.0697Z" fill="#003173"/>
<path d="M50 10.2142C50 8.41988 48.2375 6.96777 46.0641 6.96777H36.6075V10.2142H50Z" fill="#003173"/>
<path d="M50 17.9253C50 19.7196 48.2375 21.1717 46.0641 21.1717H36.6075V17.9253H50Z" fill="#003173"/>
</g>
<defs>
<filter id="filter0_i_127_1119" x="0" y="0.739258" width="50" height="26.0091" filterUnits="userSpaceOnUse" color-interpolation-filters="sRGB">
<feFlood flood-opacity="0" result="BackgroundImageFix"/>
<feBlend mode="normal" in="SourceGraphic" in2="BackgroundImageFix" result="shape"/>
<feColorMatrix in="SourceAlpha" type="matrix" values="0 0 0 0 0 0 0 0 0 0 0 0 0 0 0 0 0 0 127 0" result="hardAlpha"/>
<feOffset dy="1.48738"/>
<feGaussianBlur stdDeviation="0.743691"/>
<feComposite in2="hardAlpha" operator="arithmetic" k2="-1" k3="1"/>
<feColorMatrix type="matrix" values="0 0 0 0 1 0 0 0 0 1 0 0 0 0 1 0 0 0 0.25 0"/>
<feBlend mode="normal" in2="shape" result="effect1_innerShadow_127_1119"/>
</filter>
</defs>
</svg>
