<svg width="350" height="147" viewBox="0 0 350 147" fill="none" xmlns="http://www.w3.org/2000/svg">
<g clip-path="url(#clip0_123_847)">
<rect width="350" height="147" rx="8" fill="url(#paint0_linear_123_847)"/>
<g opacity="0.2">
<path d="M141.332 201.897C183.105 221.801 250.837 221.801 292.611 201.897C334.384 181.994 334.384 149.719 292.611 129.815C250.837 109.912 183.105 109.912 141.332 129.815C99.5587 149.719 99.5533 181.994 141.332 201.897Z" fill="#F5F5F5"/>
<path d="M314 99.3872C314 99.3872 314.364 90.9424 318.068 84.1485C321.771 77.3547 327.218 72.8961 332.53 72.0923C337.841 71.2886 342.501 75.8938 337.026 79.6953C331.552 83.4969 321.636 87.6351 317.85 100.587L314 99.3872Z" fill="#FFC100"/>
<path opacity="0.2" d="M314 99.3872C314 99.3872 314.364 90.9424 318.068 84.1485C321.771 77.3547 327.218 72.8961 332.53 72.0923C337.841 71.2886 342.501 75.8938 337.026 79.6953C331.552 83.4969 321.636 87.6351 317.85 100.587L314 99.3872Z" fill="black"/>
<path d="M315.412 97.101H315.352C315.28 97.0763 315.221 97.0241 315.188 96.956C315.154 96.8878 315.149 96.8091 315.173 96.7371C319.827 82.4597 330.151 75.9048 334.963 74.4331C335.035 74.4126 335.112 74.421 335.178 74.4565C335.244 74.492 335.293 74.5518 335.316 74.6231C335.327 74.6591 335.332 74.6971 335.328 74.7348C335.325 74.7725 335.314 74.8092 335.297 74.8426C335.279 74.876 335.255 74.9056 335.225 74.9294C335.196 74.9533 335.162 74.971 335.126 74.9815C330.417 76.4207 320.3 82.8616 315.716 96.9163C315.693 96.9767 315.651 97.0278 315.596 97.0613C315.541 97.0947 315.476 97.1087 315.412 97.101Z" fill="white"/>
<path d="M344.097 95.2436C343.668 96.4384 342.441 97.1281 341.3 97.6874C340.16 98.2468 338.911 98.8442 338.357 99.9846C337.227 102.287 339.552 105.252 338.357 107.506C338.066 107.96 337.686 108.35 337.24 108.652C336.793 108.955 336.29 109.164 335.761 109.266C334.887 109.453 334.005 109.595 333.116 109.689C332.693 109.714 332.269 109.714 331.845 109.689C330.613 109.597 329.282 109.63 328.207 110.336C326.518 111.449 326.132 113.708 325.187 115.495C324.599 116.553 323.788 117.472 322.81 118.186C321.832 118.901 320.71 119.394 319.523 119.633C318.741 119.791 317.28 120.04 316.444 119.633C316.381 119.608 316.321 119.577 316.265 119.541C316.145 119.421 315.993 119.275 315.928 119.193C315.912 119.177 315.899 119.159 315.89 119.139C315.499 118.015 315.922 116.782 315.89 115.598V115.381C315.743 114.007 315.608 112.665 315.477 111.264C315.235 108.73 315.032 106.196 314.869 103.661C314.766 102.032 314.44 100.229 315.032 98.6324C315.678 96.8728 317.595 96.7044 318.198 94.9775C318.442 94.2932 318.546 93.5655 318.779 92.8758C319.144 91.858 319.782 90.9601 320.623 90.2802C321.464 89.6002 322.476 89.1643 323.547 89.0199C326.882 88.6126 330.064 91.1108 333.399 90.6492C334.251 90.4693 335.094 90.2463 335.924 89.9812C338.601 89.2806 341.784 89.8346 343.473 92.0177C343.83 92.4645 344.074 92.9916 344.183 93.5536C344.292 94.1155 344.262 94.6955 344.097 95.2436Z" fill="#FFC100"/>
<g opacity="0.07">
<path d="M344.097 95.2436C343.668 96.4384 342.441 97.1281 341.3 97.6874C340.16 98.2468 338.911 98.8442 338.357 99.9846C337.227 102.287 339.552 105.252 338.357 107.506C338.066 107.96 337.686 108.35 337.24 108.652C336.793 108.955 336.29 109.164 335.761 109.266C334.896 109.494 334.01 109.636 333.116 109.689C332.693 109.714 332.269 109.714 331.845 109.689C330.613 109.597 329.282 109.63 328.207 110.336C326.518 111.449 326.132 113.708 325.187 115.495C324.599 116.553 323.788 117.472 322.81 118.186C321.832 118.901 320.71 119.394 319.523 119.633C318.741 119.791 317.28 120.04 316.444 119.633C316.381 119.608 316.321 119.577 316.265 119.541C316.215 119.509 316.168 119.475 316.123 119.438C316.047 119.366 315.981 119.284 315.928 119.193C315.912 119.177 315.899 119.159 315.89 119.139C315.374 118.226 315.89 116.63 315.89 115.598V115.381C315.743 114.007 315.608 112.665 315.477 111.264C315.235 108.73 315.032 106.196 314.869 103.661C314.766 102.032 314.44 100.229 315.032 98.6324C315.678 96.8728 317.595 96.7044 318.198 94.9775C318.442 94.2932 318.546 93.5655 318.779 92.8758C319.144 91.858 319.782 90.9601 320.623 90.2802C321.464 89.6002 322.476 89.1643 323.547 89.0199C326.882 88.6126 330.064 91.1108 333.399 90.6492C334.251 90.4693 335.094 90.2463 335.924 89.9812C338.601 89.2806 341.784 89.8346 343.473 92.0177C343.83 92.4645 344.074 92.9916 344.183 93.5536C344.292 94.1155 344.262 94.6955 344.097 95.2436Z" fill="#263238"/>
</g>
<path d="M315.211 113.904C315.137 113.888 315.072 113.844 315.031 113.781C314.989 113.718 314.974 113.641 314.988 113.567C318.388 95.9007 336.478 92.1101 340.779 92.1155C340.854 92.1169 340.926 92.1479 340.979 92.2017C341.032 92.2555 341.061 92.3279 341.061 92.4033C341.061 92.4409 341.054 92.478 341.039 92.5126C341.025 92.5473 341.004 92.5786 340.977 92.6049C340.95 92.6312 340.918 92.6519 340.883 92.6658C340.848 92.6797 340.811 92.6864 340.774 92.6857C336.57 92.6857 318.877 96.3895 315.548 113.676C315.533 113.75 315.49 113.816 315.427 113.859C315.363 113.902 315.286 113.918 315.211 113.904Z" fill="white"/>
<path d="M334.892 103.667C334.833 103.663 334.777 103.638 334.735 103.596C332.944 102.252 330.879 101.321 328.687 100.867C326.495 100.414 324.23 100.45 322.054 100.973C321.99 100.971 321.929 100.948 321.879 100.908C321.83 100.868 321.796 100.812 321.781 100.75C321.767 100.688 321.774 100.623 321.8 100.565C321.827 100.507 321.872 100.459 321.929 100.43C324.193 99.8895 326.549 99.8561 328.827 100.332C331.106 100.808 333.251 101.782 335.109 103.183C335.166 103.234 335.2 103.305 335.205 103.381C335.21 103.458 335.186 103.533 335.136 103.591C335.104 103.621 335.066 103.644 335.023 103.657C334.981 103.671 334.936 103.674 334.892 103.667Z" fill="white"/>
<path d="M319.247 98.3872C319.247 98.3872 318.884 89.9424 315.18 83.1485C311.476 76.3547 306.029 71.8961 300.718 71.0923C295.406 70.2886 290.747 74.8938 296.221 78.6953C301.695 82.4969 311.612 86.6351 315.397 99.5874L319.247 98.3872Z" fill="#FFC100"/>
<path opacity="0.2" d="M319.247 98.3872C319.247 98.3872 318.884 89.9424 315.18 83.1485C311.476 76.3547 306.029 71.8961 300.718 71.0923C295.406 70.2886 290.747 74.8938 296.221 78.6953C301.695 82.4969 311.612 86.6351 315.397 99.5874L319.247 98.3872Z" fill="black"/>
<path d="M317.835 96.101H317.895C317.967 96.0763 318.026 96.0241 318.06 95.956C318.093 95.8878 318.099 95.8091 318.074 95.7371C313.42 81.4597 303.096 74.9048 298.285 73.4331C298.213 73.4126 298.136 73.421 298.07 73.4565C298.004 73.492 297.954 73.5518 297.932 73.6231C297.92 73.6591 297.916 73.6971 297.919 73.7348C297.922 73.7725 297.933 73.8092 297.951 73.8426C297.969 73.876 297.993 73.9056 298.022 73.9294C298.052 73.9533 298.085 73.971 298.122 73.9815C302.83 75.4207 312.948 81.8616 317.531 95.9163C317.554 95.9767 317.596 96.0278 317.651 96.0613C317.707 96.0947 317.771 96.1087 317.835 96.101Z" fill="white"/>
<path d="M289.15 94.2436C289.579 95.4384 290.807 96.1281 291.947 96.6874C293.088 97.2468 294.337 97.8442 294.891 98.9846C296.02 101.287 293.696 104.252 294.891 106.506C295.182 106.96 295.562 107.35 296.008 107.652C296.454 107.955 296.957 108.164 297.486 108.266C298.36 108.453 299.243 108.595 300.131 108.689C300.554 108.714 300.979 108.714 301.402 108.689C302.635 108.597 303.965 108.63 305.041 109.336C306.73 110.449 307.115 112.708 308.06 114.495C308.649 115.553 309.46 116.472 310.438 117.186C311.416 117.901 312.537 118.394 313.724 118.633C314.506 118.791 315.967 119.04 316.804 118.633C316.866 118.608 316.926 118.577 316.983 118.541C317.102 118.421 317.254 118.275 317.32 118.193C317.335 118.177 317.348 118.159 317.358 118.139C317.749 117.015 317.325 115.782 317.358 114.598V114.381C317.504 113.007 317.64 111.665 317.77 110.264C318.013 107.73 318.216 105.196 318.379 102.661C318.482 101.032 318.808 99.229 318.216 97.6324C317.569 95.8728 315.652 95.7044 315.049 93.9775C314.805 93.2932 314.702 92.5655 314.468 91.8758C314.103 90.858 313.465 89.9601 312.624 89.2802C311.783 88.6002 310.772 88.1643 309.7 88.0199C306.366 87.6126 303.183 90.1108 299.849 89.6492C298.996 89.4693 298.153 89.2463 297.324 88.9812C294.646 88.2806 291.464 88.8346 289.775 91.0177C289.417 91.4645 289.173 91.9916 289.064 92.5536C288.956 93.1155 288.985 93.6955 289.15 94.2436Z" fill="#FFC100"/>
<g opacity="0.07">
<path d="M289.15 94.2436C289.579 95.4384 290.807 96.1281 291.947 96.6874C293.088 97.2468 294.337 97.8442 294.891 98.9846C296.02 101.287 293.696 104.252 294.891 106.506C295.182 106.96 295.562 107.35 296.008 107.652C296.454 107.955 296.957 108.164 297.486 108.266C298.352 108.494 299.238 108.636 300.131 108.689C300.554 108.714 300.979 108.714 301.402 108.689C302.635 108.597 303.965 108.63 305.041 109.336C306.73 110.449 307.115 112.708 308.06 114.495C308.649 115.553 309.46 116.472 310.438 117.186C311.416 117.901 312.537 118.394 313.724 118.633C314.506 118.791 315.967 119.04 316.804 118.633C316.866 118.608 316.926 118.577 316.983 118.541C317.032 118.509 317.079 118.475 317.124 118.438C317.201 118.366 317.267 118.284 317.32 118.193C317.335 118.177 317.348 118.159 317.358 118.139C317.873 117.226 317.358 115.63 317.358 114.598V114.381C317.504 113.007 317.64 111.665 317.77 110.264C318.013 107.73 318.216 105.196 318.379 102.661C318.482 101.032 318.808 99.229 318.216 97.6324C317.569 95.8728 315.652 95.7044 315.049 93.9775C314.805 93.2932 314.702 92.5655 314.468 91.8758C314.103 90.858 313.465 89.9601 312.624 89.2802C311.783 88.6002 310.772 88.1643 309.7 88.0199C306.366 87.6126 303.183 90.1108 299.849 89.6492C298.996 89.4693 298.153 89.2463 297.324 88.9812C294.646 88.2806 291.464 88.8346 289.775 91.0177C289.417 91.4645 289.173 91.9916 289.064 92.5536C288.956 93.1155 288.985 93.6955 289.15 94.2436Z" fill="#263238"/>
</g>
<path d="M318.036 112.904C318.11 112.888 318.175 112.844 318.217 112.781C318.258 112.718 318.274 112.641 318.259 112.567C314.859 94.9007 296.77 91.1101 292.468 91.1155C292.393 91.1169 292.321 91.1479 292.268 91.2017C292.216 91.2555 292.186 91.3279 292.186 91.4033C292.186 91.4409 292.194 91.478 292.208 91.5126C292.223 91.5473 292.244 91.5786 292.271 91.6049C292.297 91.6312 292.329 91.6519 292.364 91.6658C292.399 91.6797 292.436 91.6864 292.474 91.6857C296.677 91.6857 314.371 95.3895 317.7 112.676C317.714 112.75 317.758 112.816 317.821 112.859C317.884 112.902 317.962 112.918 318.036 112.904Z" fill="white"/>
<path d="M298.355 102.667C298.415 102.663 298.47 102.638 298.513 102.596C300.303 101.252 302.368 100.321 304.56 99.8673C306.752 99.4138 309.017 99.45 311.194 99.973C311.257 99.9713 311.319 99.9484 311.368 99.908C311.417 99.8676 311.452 99.812 311.466 99.7498C311.481 99.6877 311.474 99.6225 311.447 99.5646C311.42 99.5068 311.375 99.4594 311.319 99.43C309.054 98.8895 306.699 98.8561 304.42 99.3321C302.142 99.8081 299.997 100.782 298.138 102.183C298.082 102.234 298.047 102.305 298.042 102.381C298.037 102.458 298.062 102.533 298.111 102.591C298.143 102.621 298.182 102.644 298.224 102.657C298.267 102.671 298.312 102.674 298.355 102.667Z" fill="white"/>
<path d="M8.92633 124.444V192.035C8.90665 192.207 8.84736 192.372 8.75312 192.517C8.65889 192.662 8.53229 192.784 8.38326 192.872L7.05272 193.621C6.90111 193.697 6.73372 193.737 6.56395 193.737C6.39419 193.737 6.22679 193.697 6.07519 193.621L4.6469 192.872C4.48898 192.786 4.35173 192.666 4.24479 192.522C4.13784 192.377 4.06377 192.211 4.02779 192.035V124.444C4.02779 124.14 4.53285 123.787 4.8424 123.787H8.27463C8.44114 123.808 8.59587 123.884 8.71403 124.003C8.83219 124.122 8.90695 124.278 8.92633 124.444Z" fill="#FFC100"/>
<path opacity="0.1" d="M8.92633 124.444V192.035C8.90665 192.207 8.84736 192.372 8.75312 192.517C8.65889 192.662 8.53229 192.784 8.38326 192.872L7.05272 193.621C6.90111 193.697 6.73372 193.737 6.56395 193.737C6.39419 193.737 6.22679 193.697 6.07519 193.621L4.6469 192.872C4.48898 192.786 4.35173 192.666 4.24479 192.522C4.13784 192.377 4.06377 192.211 4.02779 192.035V124.444C4.02779 124.14 4.53285 123.787 4.8424 123.787H8.27463C8.44114 123.808 8.59587 123.884 8.71403 124.003C8.83219 124.122 8.90695 124.278 8.92633 124.444Z" fill="black"/>
<path d="M4.85327 123.787H5.99915C6.3087 123.787 6.75403 124.14 6.75403 124.444V193.344C6.7533 193.411 6.73377 193.477 6.69768 193.533C6.66158 193.59 6.61036 193.635 6.54983 193.664C6.4893 193.693 6.4219 193.704 6.35527 193.696C6.28865 193.689 6.22548 193.663 6.17294 193.621L4.70121 192.872C4.4351 192.72 4.03866 192.328 4.03866 192.035V124.444C4.03866 124.14 4.54372 123.787 4.85327 123.787Z" fill="#FFC100"/>
<path d="M28.477 135.702V203.293C28.467 203.46 28.4187 203.622 28.3358 203.767C28.2529 203.912 28.1377 204.036 27.9991 204.129L26.7011 204.879C26.5516 204.953 26.3872 204.991 26.2205 204.991C26.0538 204.991 25.8894 204.953 25.7399 204.879L24.5288 204.129C24.3992 204.033 24.2952 203.907 24.226 203.761C24.1569 203.615 24.1247 203.454 24.1324 203.293V135.702C24.1324 135.393 24.2084 135.192 24.518 135.192H27.9285C27.9986 135.186 28.0691 135.196 28.1355 135.219C28.2019 135.242 28.2628 135.279 28.3143 135.327C28.3658 135.375 28.4068 135.433 28.4348 135.498C28.4628 135.562 28.4772 135.632 28.477 135.702Z" fill="#FFC100"/>
<path opacity="0.1" d="M28.477 135.702V203.293C28.467 203.46 28.4187 203.622 28.3358 203.767C28.2529 203.912 28.1377 204.036 27.9991 204.129L26.7011 204.879C26.5516 204.953 26.3872 204.991 26.2205 204.991C26.0538 204.991 25.8894 204.953 25.7399 204.879L24.5288 204.129C24.3992 204.033 24.2952 203.907 24.226 203.761C24.1569 203.615 24.1247 203.454 24.1324 203.293V135.702C24.1324 135.393 24.2084 135.192 24.518 135.192H27.9285C27.9986 135.186 28.0691 135.196 28.1355 135.219C28.2019 135.242 28.2628 135.279 28.3143 135.327C28.3658 135.375 28.4068 135.433 28.4348 135.498C28.4628 135.562 28.4772 135.632 28.477 135.702Z" fill="black"/>
<path d="M24.518 135.192H25.653C25.9571 135.192 26.2884 135.393 26.2884 135.702V204.602C26.2884 204.906 26.0331 205.031 25.7453 204.879L24.5125 204.129C24.3802 204.034 24.2731 203.909 24.2002 203.763C24.1274 203.617 24.091 203.456 24.0944 203.293V135.702C24.1324 135.409 24.2084 135.192 24.518 135.192Z" fill="#FFC100"/>
<path d="M54.0015 124.65V188.521C53.9964 188.689 53.9526 188.853 53.8735 189.001C53.7943 189.149 53.682 189.277 53.5453 189.374L52.2636 190.124C52.1141 190.197 51.9497 190.236 51.783 190.236C51.6163 190.236 51.4519 190.197 51.3024 190.124L50.075 189.374C49.9428 189.279 49.8356 189.153 49.7627 189.008C49.6899 188.862 49.6536 188.701 49.6569 188.538V124.667C49.6569 124.357 49.7763 124.33 50.0859 124.33H53.4964C53.8059 124.33 54.0015 124.357 54.0015 124.65Z" fill="#FFC100"/>
<path opacity="0.1" d="M54.0015 124.65V188.521C53.9964 188.689 53.9526 188.853 53.8735 189.001C53.7943 189.149 53.682 189.277 53.5453 189.374L52.2636 190.124C52.1141 190.197 51.9497 190.236 51.783 190.236C51.6163 190.236 51.4519 190.197 51.3024 190.124L50.075 189.374C49.9428 189.279 49.8356 189.153 49.7627 189.008C49.6899 188.862 49.6536 188.701 49.6569 188.538V124.667C49.6569 124.357 49.7763 124.33 50.0859 124.33H53.4964C53.8059 124.33 54.0015 124.357 54.0015 124.65Z" fill="black"/>
<path d="M50.0913 124.33H51.2426C51.5468 124.33 51.8346 124.357 51.8346 124.667V189.836C51.8346 190.145 51.6011 190.27 51.335 190.118L50.0913 189.369C49.9584 189.273 49.8501 189.148 49.7755 189.002C49.7008 188.857 49.662 188.696 49.6623 188.532V124.667C49.6569 124.357 49.7763 124.33 50.0913 124.33Z" fill="#FFC100"/>
<path d="M20.1842 90.9039C20.1746 91.0702 20.191 91.237 20.2331 91.3981C21.8297 97.372 22.6335 105.784 22.7747 113.746L26.7391 111.812C26.5002 104.122 25.653 96.1935 24.1432 90.3554C23.8174 89.1172 22.6661 88.7642 21.5039 89.329C21.1658 89.4539 20.8662 89.6649 20.6348 89.9411C20.4033 90.2173 20.248 90.5492 20.1842 90.9039Z" fill="#455A64"/>
<path d="M22.438 92.8264C23.8016 96.0498 24.4839 99.5203 24.442 103.02L5.24431 114.131L1.51881 104.899L22.438 92.8264Z" fill="#FFC100"/>
<path opacity="0.2" d="M22.438 92.8264C23.8016 96.0498 24.4839 99.5203 24.442 103.02L5.24431 114.131L1.51881 104.899L22.438 92.8264Z" fill="black"/>
<path d="M-0.267941 104.573L20.6459 92.4951L22.438 92.8264L1.51878 104.904L-0.267941 104.573Z" fill="#FFC100"/>
<path opacity="0.4" d="M-0.267941 104.573L20.6459 92.4951L22.438 92.8264L1.51878 104.904L-0.267941 104.573Z" fill="white"/>
<path d="M-1.38665 103.699C1.37379 110.514 3.28177 117.644 4.29392 124.927L8.00854 122.576C6.94101 115.56 5.04887 108.696 2.37143 102.124C2.2615 101.857 2.09627 101.617 1.88665 101.418C1.67703 101.22 1.42777 101.068 1.1553 100.974C0.88283 100.879 0.59334 100.843 0.305901 100.868C0.0184612 100.893 -0.260392 100.978 -0.51229 101.119C-0.950806 101.365 -1.28275 101.765 -1.44417 102.241C-1.6056 102.718 -1.58512 103.237 -1.38665 103.699Z" fill="#37474F"/>
<path d="M4.03865 127.806V128.305C4.08879 128.768 4.2326 129.216 4.46136 129.621C4.69011 130.026 4.99899 130.38 5.36918 130.662L24.9579 145.043C25.3309 145.281 25.7594 145.418 26.2012 145.439C26.6431 145.461 27.083 145.368 27.4777 145.168L53.3498 130.201C53.7129 129.953 54.011 129.621 54.2189 129.233C54.4268 128.846 54.5385 128.414 54.5446 127.974V127.458C54.5441 127.029 54.4291 126.607 54.2114 126.237C53.9938 125.866 53.6814 125.561 53.3063 125.351L28.0697 113.974C27.6523 113.804 27.2032 113.728 26.7532 113.748C26.3033 113.769 25.8631 113.886 25.4629 114.093L5.43978 125.59C5.05175 125.827 4.7235 126.15 4.48052 126.534C4.23753 126.919 4.08634 127.354 4.03865 127.806Z" fill="#37474F"/>
<path d="M26.1961 140.025L36.2104 122.375L39.8761 119.291L53.252 125.346C53.62 125.559 53.924 125.867 54.1323 126.237C54.3406 126.608 54.4454 127.028 54.4359 127.453V127.969C54.4383 128.404 54.3359 128.834 54.1374 129.221C53.9389 129.609 53.6502 129.943 53.2955 130.195L27.4506 145.184C27.0678 145.395 26.6318 145.489 26.1961 145.456V140.025Z" fill="#263238"/>
<path d="M54.5446 123.945V124.488C54.5426 124.926 54.4344 125.358 54.2292 125.746C54.0239 126.134 53.7278 126.466 53.3661 126.714L27.456 141.692C27.096 141.891 26.6883 141.987 26.2775 141.969C25.8239 141.962 25.3823 141.822 25.0067 141.567L5.36376 127.187C4.99341 126.905 4.68472 126.551 4.4568 126.146C4.22888 125.74 4.08656 125.292 4.03865 124.83V124.33C4.08815 123.875 4.24174 123.438 4.48755 123.051C4.73335 122.665 5.06475 122.341 5.45607 122.104L11.0443 118.91L25.4521 110.607C25.8615 110.401 26.3096 110.284 26.7671 110.264C27.2247 110.243 27.6815 110.319 28.1077 110.487L53.2955 121.832C53.6733 122.041 53.9885 122.346 54.2081 122.718C54.4278 123.089 54.544 123.513 54.5446 123.945Z" fill="#FFC100"/>
<path opacity="0.1" d="M26.3047 138.455V141.926C25.846 141.918 25.3991 141.778 25.0176 141.524L5.36917 127.143C4.99805 126.862 4.68852 126.508 4.45967 126.103C4.23083 125.697 4.08753 125.249 4.03864 124.786V124.287C4.08814 123.832 4.24173 123.394 4.48753 123.008C4.73334 122.622 5.06474 122.297 5.45606 122.06L11.0443 118.867L5.55925 122.076C5.39753 122.138 5.25722 122.245 5.15547 122.385C5.05372 122.525 4.99493 122.691 4.98629 122.864C4.97765 123.037 5.01953 123.209 5.10681 123.358C5.19409 123.507 5.32301 123.628 5.47779 123.705L24.9959 138.07C25.3854 138.323 25.8402 138.457 26.3047 138.455Z" fill="black"/>
<path opacity="0.3" d="M5.55924 122.076L25.4901 110.58C25.8952 110.373 26.3398 110.255 26.7941 110.235C27.2484 110.214 27.7018 110.291 28.124 110.46L53.4149 121.832C54.159 122.174 54.1861 122.788 53.4747 123.201L27.5103 138.179C27.12 138.377 26.6846 138.47 26.2473 138.448C25.81 138.426 25.3861 138.29 25.0176 138.054L5.49951 123.684C5.35024 123.606 5.22611 123.487 5.14153 123.342C5.05695 123.196 5.01537 123.03 5.02162 122.861C5.02787 122.693 5.08171 122.53 5.17686 122.391C5.27202 122.252 5.4046 122.143 5.55924 122.076Z" fill="white"/>
<path d="M9.36078 112.306C8.12257 121.045 9.20872 122.761 18.4627 130.06C23.2363 133.828 32.1373 142.284 32.1373 142.284C32.1373 142.284 30.91 144.945 30.8502 151.201C30.8014 156.714 30.7905 174.945 30.7905 174.945C33.7299 176.015 36.9256 176.165 39.9521 175.374C39.9521 175.374 44.0958 142.349 43.4224 136.555C43.2106 134.725 32.8922 125.547 30.9317 122.554L46.5614 136.033C45.5314 138.775 44.9537 141.665 44.8507 144.592C44.552 152.07 43.2215 167.325 43.2215 167.325C44.297 168.245 45.558 168.922 46.9186 169.311C48.2793 169.7 49.7078 169.791 51.1069 169.579C51.1069 169.579 59.0901 135.284 59.0901 132.607C59.0901 128.528 42.1516 112.187 38.8008 109.358C36.8892 107.728 34.7604 106.012 34.7604 106.012L9.36078 112.306Z" fill="#455A64"/>
<path d="M30.9425 122.554C32.36 120.884 33.4209 118.942 34.0598 116.846C33.9616 118.345 33.7473 119.834 33.4189 121.3C32.9356 123.244 46.5722 136.033 46.5722 136.033L30.9425 122.554Z" fill="#37474F"/>
<path d="M37.3509 76.496C32.7673 71.6789 31.0838 70.3538 28.2978 70.3755L32.045 85.1471C32.045 85.1471 40.3866 92.1256 45.9151 96.2638L49.1736 89.117C49.1736 89.117 41.9453 81.313 37.3509 76.496Z" fill="#FFA8A7"/>
<path d="M28.2978 70.3757C28.2978 70.3757 31.491 69.6371 35.3577 73.8079C39.2244 77.9788 47.2239 86.3747 47.2239 86.3747C47.4086 88.1397 45.2037 94.3307 42.8087 95.1345L33.6253 87.0752C33.6253 87.0752 29.2047 83.4747 28.2978 80.8788C27.3908 78.2829 28.2978 70.3757 28.2978 70.3757Z" fill="#FFC100"/>
<path d="M49.1573 89.117L57.3523 71.6843L62.0118 73.6014C62.0118 73.6014 55.1908 94.2382 54.2079 96.4974C53.6268 97.8225 51.7803 99.43 49.103 98.1266C48.511 97.8388 47.3597 97.1545 45.9151 96.2639" fill="#FFA8A7"/>
<path d="M60.2903 78.7987C60.8334 77.088 62.6635 75.2796 62.9242 74.5518C63.1675 73.9821 63.2483 73.3562 63.1577 72.7434L61.0452 72.9552L60.2903 78.7987Z" fill="#FFA8A7"/>
<path d="M55.924 74.731C56.2715 73.9436 56.3313 71.1793 55.8968 69.5881C55.4623 67.9969 56.4725 66.0038 56.2172 64.8851C55.962 63.7663 56.6897 63.4242 57.3414 63.7989C57.7428 64.0499 58.0755 64.3967 58.3096 64.8081C58.5437 65.2195 58.672 65.6826 58.6828 66.1559C58.7154 67.3181 58.7914 70.2669 58.3189 71.7061C57.8464 73.1452 55.924 74.731 55.924 74.731Z" fill="#FFA8A7"/>
<path d="M57.021 72.0156C57.1459 72.3795 57.6238 72.8737 59.1661 72.6076L62.0118 73.6014L63.1686 73.5362C62.549 73.9744 61.7912 74.1719 61.0366 74.0919C60.282 74.012 59.5823 73.66 59.0684 73.1018C59.0684 73.1018 56.9775 73.3624 57.021 72.0156Z" fill="#F28F8F"/>
<path d="M60.7519 62.5118C60.8116 61.8655 61.3493 61.165 62.3811 60.5296C65.2126 59.0018 68.499 58.5431 71.6405 59.2371C72.8136 59.5629 73.525 60.0843 73.7585 60.6871H73.7965C74.8121 64.7601 74.7469 69.6532 73.6445 72.5098C73.6445 72.5098 73.6445 72.5478 73.6445 72.5695V72.613C73.4172 73.1344 73.0555 73.5861 72.5964 73.9218C71.5844 74.6257 70.4209 75.0815 69.2 75.2523C67.9792 75.423 66.7353 75.304 65.569 74.9048C65.0352 74.7096 64.5642 74.3737 64.2059 73.9327V73.8946L64.1624 73.8403C62.3214 71.3965 60.904 66.7043 60.7682 62.5118H60.7519Z" fill="#FFC100"/>
<g opacity="0.3">
<path d="M62.392 60.5296C59.9916 62.0013 60.2197 63.788 62.935 64.5538C66.0772 65.2486 69.3645 64.7878 72.1945 63.2558C74.5949 61.7895 74.3668 59.9974 71.6514 59.2371C68.5098 58.5431 65.2234 59.0018 62.392 60.5296Z" fill="white"/>
</g>
<path d="M63.3804 61.1052C61.4199 62.1208 61.5882 63.2775 63.7497 63.7337C66.2895 64.1169 68.886 63.7527 71.2224 62.6856C73.1829 61.67 73.0145 60.5133 70.8531 60.0571C68.3133 59.6742 65.7169 60.0384 63.3804 61.1052Z" fill="#FFC100"/>
<g opacity="0.1">
<path d="M63.3804 61.1052C61.4199 62.1208 61.5882 63.2775 63.7497 63.7337C66.2895 64.1169 68.886 63.7527 71.2224 62.6856C73.1829 61.67 73.0145 60.5133 70.8531 60.0571C68.3133 59.6742 65.7169 60.0384 63.3804 61.1052Z" fill="black"/>
</g>
<path d="M63.6031 62.6911C63.2507 62.8638 62.9266 63.0891 62.6418 63.3591C62.9845 63.5344 63.3501 63.6605 63.728 63.7338C66.2678 64.117 68.8643 63.7528 71.2007 62.6857C71.5519 62.511 71.8757 62.286 72.1619 62.0177C71.8193 61.8424 71.4536 61.7163 71.0758 61.643C68.5359 61.2598 65.9395 61.624 63.6031 62.6911Z" fill="#37474F"/>
<path d="M62.2074 73.7591C61.6646 73.8416 61.1108 73.8158 60.5781 73.683C59.8287 73.4821 59.1281 72.7652 58.433 71.5107C57.8465 70.4246 56.8472 68.0459 57.2762 66.7263C57.8193 65.0482 59.7581 64.8092 61.0778 64.6517L61.5177 64.5974L61.8055 66.6285L61.3221 66.6882C60.5998 66.7751 59.3834 66.9272 59.2476 67.3562C59.0575 68.1817 60.4478 71.3804 61.1592 71.7334C61.8001 71.8243 62.4535 71.7182 63.0328 71.4293L63.9615 73.2594C63.4068 73.5174 62.8147 73.686 62.2074 73.7591Z" fill="#FFC100"/>
<path d="M68.1268 56.9508C70.5109 55.3922 71.5862 52.704 70.033 49.8909C68.4798 47.0777 67.1873 44.2538 69.0989 42C68.3261 42.1164 67.6034 42.4536 67.0177 42.9709C66.4319 43.4883 66.0081 44.1638 65.7971 44.9163C64.9119 47.6317 66.275 50.0864 67.6164 51.8785C68.9577 53.6707 69.2021 55.7181 68.1268 56.9508Z" fill="#F0F0F0"/>
<path d="M63.7279 58.9004C65.8731 57.4993 66.8397 55.0989 65.444 52.5302C64.0483 49.9614 62.8862 47.4905 64.6077 45.4702C63.9135 45.5758 63.2645 45.8795 62.7385 46.3447C62.2126 46.81 61.832 47.4171 61.6425 48.0933C60.8496 50.5371 62.0715 52.742 63.2717 54.3495C64.4719 55.957 64.7 57.798 63.7279 58.9004Z" fill="#F0F0F0"/>
<path d="M59.7744 67.3127C58.509 67.3127 54.789 68.7899 54.7075 70.1313C54.626 71.4727 57.1568 71.3695 57.1568 71.3695C57.0385 71.5692 56.9939 71.8039 57.0306 72.0331C57.0673 72.2622 57.183 72.4713 57.3577 72.624C57.9822 73.1671 62.7613 71.5379 62.7613 71.5379C62.5958 70.9903 62.3427 70.4731 62.0119 70.0064C61.7743 69.7045 61.4266 69.5091 61.0452 69.4633C61.0452 69.4633 61.6589 67.3127 59.7744 67.3127Z" fill="#FFA8A7"/>
<path d="M12.7605 72.7488C11.0217 75.589 10.0835 78.8466 10.0451 82.1765V93.7929L9.00237 113.447C13.1569 117.971 31.6214 117.069 36.2321 107.212C36.2321 107.212 35.7977 85.5273 35.1786 80.9546C34.3314 74.7419 32.7673 70.2561 26.7772 70.1257L19.0764 71.1793L12.7605 72.7488Z" fill="#F0F0F0"/>
<path d="M29.8618 133.155H29.8455" stroke="black" stroke-width="0.332403" stroke-miterlimit="10"/>
<path d="M31.8766 127.035C32.474 128.995 32.1047 131.499 31.0512 132.623C30.7362 132.955 30.3032 133.15 29.8456 133.166C29.4703 133.133 29.1085 133.011 28.7909 132.808C28.4732 132.606 28.209 132.33 28.0208 132.004C27.6826 131.504 27.4242 130.954 27.2551 130.375L29.9053 130.456C30.0164 130.454 30.1258 130.429 30.2261 130.381C30.3264 130.333 30.4152 130.264 30.4864 130.179C30.7146 129.848 30.8636 129.47 30.922 129.072C30.9804 128.675 30.9466 128.269 30.8231 127.887L28.7757 128.11C28.7354 127.289 28.9853 126.479 29.4817 125.824C29.6647 125.616 29.9075 125.47 30.1768 125.405H30.2257C30.8828 125.302 31.5345 125.905 31.8766 127.035Z" fill="#EBEBEB"/>
<path d="M30.8285 127.882C30.952 128.264 30.9858 128.67 30.9275 129.067C30.8691 129.464 30.72 129.843 30.4918 130.174C30.4206 130.259 30.3318 130.328 30.2315 130.376C30.1313 130.423 30.0218 130.449 29.9107 130.451C29.536 130.451 29.1667 130.054 28.9658 129.397C28.8459 128.979 28.7855 128.545 28.7866 128.11L30.8285 127.882Z" fill="#E0E0E0"/>
<path d="M30.1823 125.4C29.9129 125.464 29.6701 125.61 29.4871 125.818C28.9907 126.474 28.7408 127.283 28.7811 128.104C28.7801 128.54 28.8404 128.973 28.9603 129.391C29.1613 130.049 29.5306 130.429 29.9053 130.445L27.2551 130.364C26.7983 128.882 26.8288 127.292 27.342 125.829L30.1823 125.4Z" fill="#F5F5F5"/>
<path d="M-4.91666 134.866C-5.50875 133.922 -5.86992 132.852 -5.97089 131.742C-6.07185 130.632 -5.90974 129.514 -5.49773 128.479C-5.04155 127.496 -4.36271 126.997 -3.65128 126.986L10.599 126.796L13.613 126.53L29.0038 124.129C28.658 124.256 28.3412 124.451 28.0725 124.703C27.8038 124.955 27.5886 125.259 27.4397 125.595C27.4017 125.671 27.3691 125.748 27.3365 125.829C26.8233 127.292 26.7929 128.882 27.2496 130.364C27.4188 130.943 27.6771 131.493 28.0154 131.993C28.2036 132.319 28.4677 132.595 28.7854 132.797C29.1031 133 29.4649 133.122 29.8401 133.155L14.2756 133.389L11.2452 133.66L-2.83125 136.012C-3.53182 136.137 -4.29212 135.767 -4.91666 134.866Z" fill="#FAFAFA"/>
<path d="M25.3326 125.851C25.3326 125.851 23.7034 129.288 26.5599 133.204L24.0618 133.242C23.3209 132.274 22.8249 131.141 22.6159 129.94C22.4069 128.74 22.4912 127.506 22.8616 126.345L25.3326 125.851Z" fill="#E0E0E0"/>
<path d="M21.2759 126.866L13.8575 128.126C13.8575 128.126 12.8799 131.053 14.243 133.383L22.1774 133.269C22.1774 133.269 20.3255 130.179 21.2759 126.866Z" fill="#F0F0F0"/>
<path d="M13.8574 128.126L16.79 127.626L18.6365 130.782L16.9584 132.471L17.5666 133.334L14.243 133.383C12.8799 131.064 13.8574 128.126 13.8574 128.126Z" fill="#E0E0E0"/>
<path d="M19.777 129.533C19.9339 129.421 20.0467 129.258 20.0959 129.071C20.1451 128.885 20.1275 128.687 20.0463 128.513C19.965 128.338 19.8252 128.197 19.6511 128.115C19.4769 128.032 19.2794 128.013 19.0927 128.061C18.9358 128.173 18.823 128.336 18.7738 128.522C18.7246 128.709 18.7421 128.906 18.8234 129.081C18.9046 129.256 19.0444 129.397 19.2186 129.479C19.3928 129.562 19.5903 129.581 19.777 129.533Z" fill="#FAFAFA"/>
<path d="M3.93007 128.18C3.93007 128.18 2.84392 131.053 4.94562 134.697L4.16903 134.828C2.9522 132.831 2.55336 130.442 3.05573 128.159L3.93007 128.18Z" fill="#E0E0E0"/>
<path d="M1.83921 128.294C1.51192 129.432 1.43958 130.628 1.62732 131.796C1.81506 132.965 2.25826 134.078 2.92535 135.056L2.14333 135.186C1.47562 134.184 1.02739 133.052 0.828035 131.864C0.62868 130.676 0.682706 129.46 0.986575 128.294H1.83921Z" fill="#E0E0E0"/>
<path d="M-0.246176 128.414C-0.601328 129.59 -0.682715 130.832 -0.484102 132.044C-0.285489 133.257 0.187867 134.408 0.899719 135.409L0.117691 135.545C-0.615203 134.53 -1.10425 133.359 -1.31146 132.124C-1.51867 130.89 -1.43846 129.624 -1.07708 128.425L-0.246176 128.414Z" fill="#E0E0E0"/>
<path d="M8.00855 96.2639L3.88662 104.562C3.88662 104.562 10.0016 121.968 11.3865 123.613C12.7713 125.259 14.2973 125.031 15.1608 126.258C14.3553 126.48 13.5252 126.6 12.6898 126.616C11.6309 127.92 12.2662 131.558 13.9552 133.421C13.9552 133.421 13.5207 135.137 10.4741 135.745C9.50742 135.935 7.62839 135.794 6.67257 135.121C4.79354 133.769 3.38155 129.777 3.70196 127.366C3.9572 125.476 3.93006 124.151 3.13174 122.402C-0.631766 114.131 -2.29901 110.384 -4.64509 106.012C-4.10201 102.124 0.877983 90.3552 0.877983 90.3552L8.00855 96.2639Z" fill="#FFA8A7"/>
<path d="M12.7604 72.7488C8.08457 74.4432 5.70047 79.1136 3.05027 84.3977C0.400066 89.6818 -1.98404 95.357 -1.98404 95.357C-1.98404 95.357 0.731346 99.1585 6.61827 100.332L12.2608 89.8176C12.2608 89.8176 17.9902 80.7048 12.7604 72.7488Z" fill="#FFC100"/>
<path d="M21.1484 54.9198C20.0805 50.3952 22.8827 45.8615 27.4073 44.7936C31.9319 43.7257 36.4656 46.5279 37.5335 51.0526C38.6014 55.5772 35.7992 60.1108 31.2745 61.1787C26.7499 62.2466 22.2163 59.4444 21.1484 54.9198Z" fill="#263238"/>
<path d="M15.5573 58.0151C15.5573 58.0151 16.8498 64.0813 17.3657 65.0751C17.7121 65.6906 18.2818 66.1494 18.9569 66.3568L18.8646 62.0882L15.5573 58.0151Z" fill="#263238"/>
<path d="M17.181 49.3259C16.7294 49.2731 16.2716 49.3239 15.8425 49.4744C15.4134 49.625 15.0242 49.8714 14.7046 50.1949C13.6185 51.281 14.2376 54.6807 15.5573 58.0151L17.9902 58.2921L17.181 49.3259Z" fill="#263238"/>
<path d="M18.718 58.2921C18.2347 58.58 17.5395 57.6459 16.9367 57.0159C16.3339 56.3859 14.3734 55.5279 13.3904 57.5916C12.4075 59.6552 14.2593 62.4792 15.8017 62.9571C18.4627 63.7935 18.8646 62.0828 18.8646 62.0828L19.0656 71.6898C21.3628 74.2531 29.2102 73.6394 27.7547 71.4345V68.5128C28.9414 68.7013 30.1447 68.7632 31.3445 68.6974C33.2995 68.3933 34.5323 66.8455 35.146 64.7276C36.0964 61.3225 36.4602 58.5745 35.651 51.8784C34.7658 44.5361 26.2287 44.46 21.618 47.36C17.0073 50.2601 18.718 58.2921 18.718 58.2921Z" fill="#FFA8A7"/>
<path d="M18.718 59.1176C18.4736 59.1176 17.5449 57.5752 16.9367 57.0213C16.0949 56.2556 17.1811 49.3259 17.1811 49.3259C16.9528 48.7242 16.9078 48.0684 17.0519 47.4411C17.1959 46.8139 17.5224 46.2433 17.9903 45.8014C19.1416 44.5306 21.0695 44.3894 24.3551 43.8735C26.0821 43.6019 28.6997 43.1186 30.4158 42.7873C32.474 42.4072 34.1739 41.9999 35.6293 43.2652C36.0017 43.5497 36.3105 43.9088 36.5359 44.3196C36.7614 44.7304 36.8984 45.1838 36.9383 45.6506C36.9782 46.1175 36.92 46.5876 36.7675 47.0307C36.6151 47.4737 36.3717 47.88 36.0529 48.2235C35.6597 48.6899 35.1473 49.0409 34.5703 49.2391C34.5703 49.2391 33.6742 50.0374 30.557 50.4175C27.4397 50.7977 22.5792 50.3415 21.9112 50.2546C21.0097 50.1297 20.8251 51.004 20.3255 53.399C19.9019 55.5333 19.5435 59.1013 18.718 59.1176Z" fill="#263238"/>
<path d="M17.1865 49.8636L14.2484 48.2833C14.343 48.0851 14.4767 47.9081 14.6414 47.7628C14.8061 47.6176 14.9985 47.5072 15.207 47.4382C15.4155 47.3692 15.6358 47.3431 15.8546 47.3614C16.0735 47.3797 16.2863 47.442 16.4805 47.5447C16.874 47.7661 17.167 48.1307 17.2985 48.5626C17.43 48.9945 17.3899 49.4605 17.1865 49.8636Z" fill="#263238"/>
<path d="M27.7275 68.5184C27.7275 68.5184 23.3558 67.6386 21.8243 66.824C20.927 66.3539 20.1911 65.6256 19.7118 64.7332C19.943 65.627 20.3511 66.4653 20.9119 67.1987C22.0307 68.6107 27.7275 69.6969 27.7275 69.6969V68.5184Z" fill="#F28F8F"/>
<path d="M26.674 57.2061C26.6769 57.3232 26.6565 57.4398 26.6139 57.549C26.5714 57.6582 26.5077 57.7579 26.4263 57.8422C26.345 57.9266 26.2477 57.994 26.1401 58.0405C26.0325 58.0869 25.9168 58.1116 25.7996 58.113C25.6175 58.1206 25.4373 58.0735 25.2822 57.9777C25.1272 57.8819 25.0043 57.7419 24.9296 57.5757C24.8548 57.4095 24.8315 57.2247 24.8628 57.0451C24.894 56.8655 24.9783 56.6994 25.1048 56.5682C25.2313 56.437 25.3942 56.3467 25.5725 56.3089C25.7508 56.2711 25.9364 56.2876 26.1052 56.3562C26.2741 56.4249 26.4185 56.5425 26.5199 56.694C26.6212 56.8454 26.6749 57.0238 26.674 57.2061Z" fill="#263238"/>
<path d="M25.2675 53.5729L23.3938 54.6102C23.2598 54.3532 23.2302 54.0544 23.3111 53.7762C23.3921 53.4979 23.5774 53.2616 23.8283 53.1167C23.952 53.0487 24.0882 53.0066 24.2287 52.9928C24.3692 52.979 24.511 52.9939 24.6456 53.0365C24.7802 53.0792 24.9047 53.1487 25.0115 53.2409C25.1184 53.3331 25.2055 53.446 25.2675 53.5729Z" fill="#263238"/>
<path d="M27.3311 63.2559L29.3296 64.0053C29.2863 64.1396 29.2163 64.2637 29.1239 64.3702C29.0315 64.4768 28.9185 64.5636 28.7918 64.6255C28.665 64.6874 28.527 64.723 28.3862 64.7303C28.2453 64.7376 28.1044 64.7163 27.9719 64.6679C27.7025 64.562 27.4849 64.3554 27.3653 64.0918C27.2456 63.8282 27.2334 63.5283 27.3311 63.2559Z" fill="#F28F8F"/>
<path d="M34.7115 54.3441L33.0008 53.0298C33.0811 52.9141 33.1842 52.816 33.3037 52.7414C33.4231 52.6668 33.5566 52.6173 33.6958 52.596C33.835 52.5746 33.9771 52.5819 34.1135 52.6172C34.2498 52.6526 34.3775 52.7154 34.4888 52.8017C34.7169 52.9811 34.8672 53.2412 34.9087 53.5284C34.9501 53.8155 34.8795 54.1076 34.7115 54.3441Z" fill="#263238"/>
<path d="M33.9621 56.9509C33.965 57.0683 33.9446 57.1851 33.9021 57.2946C33.8597 57.4041 33.796 57.5042 33.7147 57.589C33.6335 57.6738 33.5362 57.7417 33.4286 57.7887C33.321 57.8358 33.2052 57.8611 33.0877 57.8632C32.8496 57.8575 32.6234 57.7578 32.4585 57.5858C32.2937 57.4138 32.2036 57.1836 32.2079 56.9454C32.1984 56.8244 32.214 56.7028 32.2538 56.5881C32.2935 56.4735 32.3566 56.3683 32.4389 56.2792C32.5213 56.1901 32.6212 56.119 32.7324 56.0703C32.8436 56.0217 32.9637 55.9966 33.085 55.9966C33.2064 55.9966 33.3264 56.0217 33.4376 56.0703C33.5488 56.119 33.6487 56.1901 33.7311 56.2792C33.8134 56.3683 33.8765 56.4735 33.9162 56.5881C33.956 56.7028 33.9716 56.8244 33.9621 56.9454V56.9509Z" fill="#263238"/>
<path d="M29.6338 56.2502L29.7315 61.5615L32.8759 60.8718L29.6338 56.2502Z" fill="#F28F8F"/>
<path d="M161.386 41.9799C167.234 41.9799 171.976 37.2387 171.976 31.39C171.976 25.5413 167.234 20.8 161.386 20.8C155.537 20.8 150.796 25.5413 150.796 31.39C150.796 37.2387 155.537 41.9799 161.386 41.9799Z" fill="#FFC100"/>
<path d="M161.386 17.7426C161.255 17.7426 161.125 17.7167 161.004 17.6664C160.883 17.6161 160.773 17.5424 160.681 17.4496C160.589 17.3567 160.515 17.2465 160.466 17.1253C160.416 17.0041 160.391 16.8743 160.392 16.7433V12.0729C160.382 11.9358 160.4 11.7982 160.445 11.6685C160.491 11.5388 160.563 11.4199 160.656 11.3192C160.75 11.2185 160.863 11.1382 160.989 11.0833C161.115 11.0283 161.251 11 161.388 11C161.526 11 161.662 11.0283 161.788 11.0833C161.914 11.1382 162.027 11.2185 162.12 11.3192C162.214 11.4199 162.286 11.5388 162.331 11.6685C162.377 11.7982 162.395 11.9358 162.385 12.0729V16.7433C162.385 17.0083 162.28 17.2625 162.092 17.4499C161.905 17.6373 161.651 17.7426 161.386 17.7426Z" fill="#FFC100"/>
<path d="M152.778 20.5394C152.62 20.5399 152.464 20.5027 152.323 20.4309C152.183 20.3591 152.061 20.2548 151.969 20.1267L149.221 16.3252C149.144 16.2182 149.089 16.0971 149.058 15.9688C149.028 15.8405 149.023 15.7075 149.045 15.5774C149.066 15.4473 149.112 15.3226 149.182 15.2105C149.251 15.0984 149.342 15.0011 149.449 14.924C149.556 14.847 149.677 14.7918 149.805 14.7616C149.934 14.7314 150.067 14.7267 150.197 14.7479C150.327 14.7691 150.451 14.8157 150.564 14.885C150.676 14.9544 150.773 15.0452 150.85 15.1521L153.598 18.9537C153.752 19.1679 153.815 19.4342 153.773 19.6947C153.731 19.9551 153.588 20.1885 153.375 20.3439C153.203 20.4727 152.993 20.5414 152.778 20.5394Z" fill="#FFC100"/>
<path d="M147.461 27.86C147.356 27.8597 147.252 27.8432 147.152 27.8111L142.704 26.3665C142.579 26.3266 142.464 26.2625 142.364 26.178C142.265 26.0935 142.183 25.9901 142.123 25.8739C142.063 25.7577 142.027 25.6308 142.016 25.5005C142.005 25.3703 142.02 25.2392 142.06 25.1147C142.1 24.9903 142.164 24.8749 142.249 24.7752C142.333 24.6755 142.437 24.5935 142.553 24.5337C142.669 24.4739 142.796 24.4377 142.926 24.4269C143.057 24.4162 143.188 24.4312 143.312 24.4712L147.76 25.9158C147.989 25.9857 148.185 26.1358 148.312 26.3387C148.439 26.5415 148.488 26.7834 148.451 27.0198C148.414 27.2563 148.293 27.4715 148.11 27.6258C147.928 27.7801 147.695 27.8633 147.456 27.86H147.461Z" fill="#FFC100"/>
<path d="M143.013 38.3576C142.774 38.3623 142.54 38.2802 142.356 38.1263C142.172 37.9724 142.05 37.7571 142.012 37.5203C141.975 37.2834 142.024 37.0409 142.151 36.8374C142.278 36.634 142.474 36.4834 142.704 36.4134L147.152 34.9688C147.403 34.8875 147.676 34.9093 147.912 35.0294C148.147 35.1496 148.325 35.3583 148.406 35.6097C148.487 35.861 148.466 36.1344 148.346 36.3696C148.225 36.6049 148.017 36.7828 147.765 36.8642L143.312 38.3088C143.216 38.3403 143.115 38.3568 143.013 38.3576Z" fill="#FFC100"/>
<path d="M150.03 48.0189C149.819 48.0175 149.615 47.9511 149.443 47.8289C149.23 47.6724 149.087 47.4381 149.045 47.1768C149.003 46.9155 149.067 46.6482 149.221 46.4332L151.969 42.6316C152.124 42.4156 152.359 42.2702 152.622 42.2274C152.885 42.1846 153.154 42.248 153.37 42.4035C153.586 42.5591 153.731 42.7941 153.774 43.0569C153.817 43.3196 153.753 43.5886 153.598 43.8047L150.85 47.6062C150.756 47.7352 150.632 47.8399 150.49 47.9117C150.347 47.9835 150.19 48.0202 150.03 48.0189Z" fill="#FFC100"/>
<path d="M161.386 51.7064C161.255 51.7064 161.126 51.6807 161.005 51.6308C160.885 51.5808 160.775 51.5076 160.683 51.4154C160.591 51.3231 160.517 51.2135 160.467 51.0929C160.417 50.9723 160.392 50.8431 160.392 50.7126V46.0367C160.382 45.8997 160.4 45.762 160.445 45.6323C160.491 45.5027 160.563 45.3838 160.656 45.2831C160.75 45.1824 160.863 45.1021 160.989 45.0471C161.115 44.9922 161.251 44.9639 161.388 44.9639C161.526 44.9639 161.662 44.9922 161.788 45.0471C161.914 45.1021 162.027 45.1824 162.12 45.2831C162.214 45.3838 162.286 45.5027 162.331 45.6323C162.377 45.762 162.395 45.8997 162.385 46.0367V50.7126C162.383 50.9767 162.277 51.2295 162.09 51.4157C161.903 51.6019 161.65 51.7064 161.386 51.7064Z" fill="#FFC100"/>
<path d="M172.741 48.0189C172.584 48.0177 172.43 47.9797 172.29 47.908C172.151 47.8363 172.03 47.733 171.938 47.6062L169.19 43.8047C169.113 43.6977 169.057 43.5766 169.027 43.4483C168.997 43.32 168.992 43.187 169.013 43.0569C169.035 42.9268 169.081 42.8021 169.151 42.69C169.22 42.5779 169.311 42.4806 169.418 42.4035C169.525 42.3265 169.646 42.2713 169.774 42.2411C169.902 42.2109 170.035 42.2062 170.165 42.2274C170.296 42.2486 170.42 42.2952 170.532 42.3645C170.644 42.4339 170.742 42.5247 170.819 42.6316L173.567 46.4331C173.721 46.6482 173.784 46.9154 173.742 47.1768C173.701 47.4381 173.558 47.6724 173.344 47.8288C173.168 47.9544 172.957 48.0209 172.741 48.0189Z" fill="#FFC100"/>
<path d="M179.758 38.3577C179.654 38.357 179.552 38.3405 179.454 38.3088L175.006 36.8643C174.873 36.8307 174.749 36.7702 174.64 36.6865C174.532 36.6028 174.442 36.4978 174.376 36.3778C174.31 36.2579 174.269 36.1256 174.256 35.9893C174.243 35.8529 174.258 35.7154 174.301 35.5852C174.343 35.455 174.412 35.335 174.503 35.2325C174.594 35.1301 174.705 35.0474 174.829 34.9896C174.953 34.9318 175.088 34.9001 175.225 34.8966C175.362 34.893 175.498 34.9177 175.625 34.9689L180.067 36.4135C180.297 36.4835 180.493 36.6341 180.62 36.8375C180.747 37.041 180.796 37.2835 180.759 37.5204C180.721 37.7572 180.599 37.9725 180.415 38.1264C180.231 38.2803 179.998 38.3624 179.758 38.3577Z" fill="#FFC100"/>
<path d="M175.315 27.8601C175.076 27.8648 174.842 27.7826 174.658 27.6287C174.474 27.4748 174.352 27.2596 174.314 27.0227C174.277 26.7858 174.326 26.5433 174.453 26.3399C174.58 26.1365 174.776 25.9859 175.006 25.9159L179.454 24.4713C179.705 24.3899 179.978 24.4117 180.214 24.5319C180.449 24.6521 180.627 24.8608 180.708 25.1121C180.79 25.3635 180.768 25.6368 180.648 25.8721C180.527 26.1074 180.319 26.2852 180.067 26.3666L175.625 27.8112C175.525 27.8433 175.421 27.8598 175.315 27.8601Z" fill="#FFC100"/>
<path d="M169.993 20.5394C169.81 20.5396 169.63 20.489 169.473 20.3931C169.316 20.2972 169.189 20.1598 169.106 19.9961C169.023 19.8324 168.987 19.6488 169.001 19.4657C169.016 19.2827 169.081 19.1073 169.19 18.959L171.938 15.1575C172.093 14.9415 172.328 14.7961 172.591 14.7533C172.854 14.7105 173.123 14.7739 173.339 14.9294C173.555 15.085 173.7 15.32 173.743 15.5827C173.786 15.8455 173.722 16.1145 173.567 16.3306L170.819 20.1321C170.724 20.2615 170.6 20.3661 170.456 20.4371C170.312 20.508 170.154 20.5431 169.993 20.5394Z" fill="#FFC100"/>
</g>
<g opacity="0.52">
<circle cx="63" cy="58" r="41" fill="#FFF4E6"/>
<circle cx="71.0392" cy="66.0392" r="32.9608" fill="#FFDEB0"/>
<circle cx="79.8824" cy="74.8823" r="24.1176" fill="#FFEFD9"/>
</g>
<rect x="222" y="88" width="118" height="40" rx="8" fill="#006EFF"/>
<path d="M250.952 108.114C250.952 107.162 251.171 106.308 251.61 105.552C252.058 104.796 252.66 104.208 253.416 103.788C254.181 103.359 255.016 103.144 255.922 103.144C256.958 103.144 257.877 103.401 258.68 103.914C259.492 104.418 260.08 105.137 260.444 106.07H258.526C258.274 105.557 257.924 105.174 257.476 104.922C257.028 104.67 256.51 104.544 255.922 104.544C255.278 104.544 254.704 104.689 254.2 104.978C253.696 105.267 253.299 105.683 253.01 106.224C252.73 106.765 252.59 107.395 252.59 108.114C252.59 108.833 252.73 109.463 253.01 110.004C253.299 110.545 253.696 110.965 254.2 111.264C254.704 111.553 255.278 111.698 255.922 111.698C256.51 111.698 257.028 111.572 257.476 111.32C257.924 111.068 258.274 110.685 258.526 110.172H260.444C260.08 111.105 259.492 111.824 258.68 112.328C257.877 112.832 256.958 113.084 255.922 113.084C255.007 113.084 254.172 112.874 253.416 112.454C252.66 112.025 252.058 111.432 251.61 110.676C251.171 109.92 250.952 109.066 250.952 108.114ZM263.908 102.64V113H262.312V102.64H263.908ZM269.349 113.126C268.621 113.126 267.963 112.963 267.375 112.636C266.787 112.3 266.325 111.833 265.989 111.236C265.653 110.629 265.485 109.929 265.485 109.136C265.485 108.352 265.658 107.657 266.003 107.05C266.348 106.443 266.82 105.977 267.417 105.65C268.014 105.323 268.682 105.16 269.419 105.16C270.156 105.16 270.824 105.323 271.421 105.65C272.018 105.977 272.49 106.443 272.835 107.05C273.18 107.657 273.353 108.352 273.353 109.136C273.353 109.92 273.176 110.615 272.821 111.222C272.466 111.829 271.981 112.3 271.365 112.636C270.758 112.963 270.086 113.126 269.349 113.126ZM269.349 111.74C269.76 111.74 270.142 111.642 270.497 111.446C270.861 111.25 271.155 110.956 271.379 110.564C271.603 110.172 271.715 109.696 271.715 109.136C271.715 108.576 271.608 108.105 271.393 107.722C271.178 107.33 270.894 107.036 270.539 106.84C270.184 106.644 269.802 106.546 269.391 106.546C268.98 106.546 268.598 106.644 268.243 106.84C267.898 107.036 267.622 107.33 267.417 107.722C267.212 108.105 267.109 108.576 267.109 109.136C267.109 109.967 267.319 110.611 267.739 111.068C268.168 111.516 268.705 111.74 269.349 111.74ZM274.399 109.136C274.399 108.343 274.558 107.647 274.875 107.05C275.202 106.443 275.65 105.977 276.219 105.65C276.788 105.323 277.442 105.16 278.179 105.16C279.112 105.16 279.882 105.384 280.489 105.832C281.105 106.271 281.52 106.901 281.735 107.722H280.013C279.873 107.339 279.649 107.041 279.341 106.826C279.033 106.611 278.646 106.504 278.179 106.504C277.526 106.504 277.003 106.737 276.611 107.204C276.228 107.661 276.037 108.305 276.037 109.136C276.037 109.967 276.228 110.615 276.611 111.082C277.003 111.549 277.526 111.782 278.179 111.782C279.103 111.782 279.714 111.376 280.013 110.564H281.735C281.511 111.348 281.091 111.973 280.475 112.44C279.859 112.897 279.094 113.126 278.179 113.126C277.442 113.126 276.788 112.963 276.219 112.636C275.65 112.3 275.202 111.833 274.875 111.236C274.558 110.629 274.399 109.929 274.399 109.136ZM286.377 109.15L289.933 113H287.777L284.921 109.682V113H283.325V102.64H284.921V108.66L287.721 105.286H289.933L286.377 109.15ZM296.999 107.26V108.604H291.245V107.26H296.999ZM300.863 103.27V113H299.267V103.27H300.863ZM306.85 105.16C307.457 105.16 307.998 105.286 308.474 105.538C308.96 105.79 309.338 106.163 309.608 106.658C309.879 107.153 310.014 107.75 310.014 108.45V113H308.432V108.688C308.432 107.997 308.26 107.47 307.914 107.106C307.569 106.733 307.098 106.546 306.5 106.546C305.903 106.546 305.427 106.733 305.072 107.106C304.727 107.47 304.554 107.997 304.554 108.688V113H302.958V105.286H304.554V106.168C304.816 105.851 305.147 105.603 305.548 105.426C305.959 105.249 306.393 105.16 306.85 105.16Z" fill="#F8FBF8"/>
<path d="M43.3369 79.772C43.3369 77.2347 43.7916 75.2473 44.7009 73.81C45.6249 72.3727 47.1502 71.654 49.2769 71.654C51.4036 71.654 52.9216 72.3727 53.8309 73.81C54.7549 75.2473 55.2169 77.2347 55.2169 79.772C55.2169 82.324 54.7549 84.326 53.8309 85.778C52.9216 87.23 51.4036 87.956 49.2769 87.956C47.1502 87.956 45.6249 87.23 44.7009 85.778C43.7916 84.326 43.3369 82.324 43.3369 79.772ZM52.1809 79.772C52.1809 78.6867 52.1076 77.7773 51.9609 77.044C51.8289 76.296 51.5502 75.6873 51.1249 75.218C50.7142 74.7487 50.0982 74.514 49.2769 74.514C48.4556 74.514 47.8322 74.7487 47.4069 75.218C46.9962 75.6873 46.7176 76.296 46.5709 77.044C46.4389 77.7773 46.3729 78.6867 46.3729 79.772C46.3729 80.8867 46.4389 81.8253 46.5709 82.588C46.7029 83.336 46.9816 83.9447 47.4069 84.414C47.8322 84.8687 48.4556 85.096 49.2769 85.096C50.0982 85.096 50.7216 84.8687 51.1469 84.414C51.5722 83.9447 51.8509 83.336 51.9829 82.588C52.1149 81.8253 52.1809 80.8867 52.1809 79.772ZM67.7676 74.294L61.9156 88H58.7916L64.6876 74.646H57.1636V72.006H67.7676V74.294ZM71.3283 88.154C70.771 88.154 70.309 87.9853 69.9423 87.648C69.5903 87.296 69.4143 86.8633 69.4143 86.35C69.4143 85.8367 69.5903 85.4113 69.9423 85.074C70.309 84.722 70.771 84.546 71.3283 84.546C71.871 84.546 72.3183 84.722 72.6703 85.074C73.0223 85.4113 73.1983 85.8367 73.1983 86.35C73.1983 86.8633 73.0223 87.296 72.6703 87.648C72.3183 87.9853 71.871 88.154 71.3283 88.154ZM71.3283 79.046C70.771 79.046 70.309 78.8773 69.9423 78.54C69.5903 78.188 69.4143 77.7553 69.4143 77.242C69.4143 76.7287 69.5903 76.3033 69.9423 75.966C70.309 75.614 70.771 75.438 71.3283 75.438C71.871 75.438 72.3183 75.614 72.6703 75.966C73.0223 76.3033 73.1983 76.7287 73.1983 77.242C73.1983 77.7553 73.0223 78.188 72.6703 78.54C72.3183 78.8773 71.871 79.046 71.3283 79.046ZM75.0176 74.8V71.962H80.3196V88H77.1516V74.8H75.0176ZM84.3303 84.524C85.7383 83.3507 86.8603 82.3753 87.6963 81.598C88.5323 80.806 89.229 79.9847 89.7863 79.134C90.3436 78.2833 90.6223 77.4473 90.6223 76.626C90.6223 75.878 90.4463 75.2913 90.0943 74.866C89.7423 74.4407 89.1996 74.228 88.4663 74.228C87.733 74.228 87.1683 74.4773 86.7723 74.976C86.3763 75.46 86.171 76.1273 86.1563 76.978H83.1643C83.223 75.218 83.7436 73.8833 84.7263 72.974C85.7236 72.0647 86.985 71.61 88.5103 71.61C90.1823 71.61 91.4656 72.0573 92.3603 72.952C93.255 73.832 93.7023 74.998 93.7023 76.45C93.7023 77.594 93.3943 78.6867 92.7783 79.728C92.1623 80.7693 91.4583 81.6787 90.6663 82.456C89.8743 83.2187 88.8403 84.1427 87.5643 85.228H94.0543V87.78H83.1863V85.492L84.3303 84.524Z" fill="#1A1A1A"/>
<path d="M203.809 22.242V23.278H199.567V26.568H203.011V27.604H199.567V32H198.293V22.242H203.809ZM206.622 25.574C206.846 25.1353 207.163 24.7947 207.574 24.552C207.994 24.3093 208.502 24.188 209.1 24.188V25.504H208.764C207.336 25.504 206.622 26.2787 206.622 27.828V32H205.348V24.328H206.622V25.574ZM211.228 23.082C210.986 23.082 210.78 22.998 210.612 22.83C210.444 22.662 210.36 22.4567 210.36 22.214C210.36 21.9713 210.444 21.766 210.612 21.598C210.78 21.43 210.986 21.346 211.228 21.346C211.462 21.346 211.658 21.43 211.816 21.598C211.984 21.766 212.068 21.9713 212.068 22.214C212.068 22.4567 211.984 22.662 211.816 22.83C211.658 22.998 211.462 23.082 211.228 23.082ZM211.844 24.328V32H210.57V24.328H211.844ZM213.54 28.136C213.54 27.352 213.698 26.666 214.016 26.078C214.333 25.4807 214.767 25.0187 215.318 24.692C215.878 24.3653 216.503 24.202 217.194 24.202C217.791 24.202 218.346 24.342 218.86 24.622C219.373 24.8927 219.765 25.252 220.036 25.7V21.64H221.324V32H220.036V30.558C219.784 31.0153 219.41 31.3933 218.916 31.692C218.421 31.9813 217.842 32.126 217.18 32.126C216.498 32.126 215.878 31.958 215.318 31.622C214.767 31.286 214.333 30.8147 214.016 30.208C213.698 29.6013 213.54 28.9107 213.54 28.136ZM220.036 28.15C220.036 27.5713 219.919 27.0673 219.686 26.638C219.452 26.2087 219.135 25.882 218.734 25.658C218.342 25.4247 217.908 25.308 217.432 25.308C216.956 25.308 216.522 25.42 216.13 25.644C215.738 25.868 215.425 26.1947 215.192 26.624C214.958 27.0533 214.842 27.5573 214.842 28.136C214.842 28.724 214.958 29.2373 215.192 29.676C215.425 30.1053 215.738 30.4367 216.13 30.67C216.522 30.894 216.956 31.006 217.432 31.006C217.908 31.006 218.342 30.894 218.734 30.67C219.135 30.4367 219.452 30.1053 219.686 29.676C219.919 29.2373 220.036 28.7287 220.036 28.15ZM223 28.136C223 27.352 223.159 26.666 223.476 26.078C223.794 25.4807 224.228 25.0187 224.778 24.692C225.338 24.3653 225.959 24.202 226.64 24.202C227.312 24.202 227.896 24.3467 228.39 24.636C228.885 24.9253 229.254 25.2893 229.496 25.728V24.328H230.784V32H229.496V30.572C229.244 31.02 228.866 31.3933 228.362 31.692C227.868 31.9813 227.289 32.126 226.626 32.126C225.945 32.126 225.329 31.958 224.778 31.622C224.228 31.286 223.794 30.8147 223.476 30.208C223.159 29.6013 223 28.9107 223 28.136ZM229.496 28.15C229.496 27.5713 229.38 27.0673 229.146 26.638C228.913 26.2087 228.596 25.882 228.194 25.658C227.802 25.4247 227.368 25.308 226.892 25.308C226.416 25.308 225.982 25.42 225.59 25.644C225.198 25.868 224.886 26.1947 224.652 26.624C224.419 27.0533 224.302 27.5573 224.302 28.136C224.302 28.724 224.419 29.2373 224.652 29.676C224.886 30.1053 225.198 30.4367 225.59 30.67C225.982 30.894 226.416 31.006 226.892 31.006C227.368 31.006 227.802 30.894 228.194 30.67C228.596 30.4367 228.913 30.1053 229.146 29.676C229.38 29.2373 229.496 28.7287 229.496 28.15ZM239.545 24.328L234.925 35.612H233.609L235.121 31.916L232.027 24.328H233.441L235.849 30.544L238.229 24.328H239.545ZM246.154 33.484H244.88V20.87H246.154V33.484ZM259.757 25.07C259.486 24.5007 259.094 24.062 258.581 23.754C258.068 23.4367 257.47 23.278 256.789 23.278C256.108 23.278 255.492 23.4367 254.941 23.754C254.4 24.062 253.97 24.51 253.653 25.098C253.345 25.6767 253.191 26.3487 253.191 27.114C253.191 27.8793 253.345 28.5513 253.653 29.13C253.97 29.7087 254.4 30.1567 254.941 30.474C255.492 30.782 256.108 30.936 256.789 30.936C257.741 30.936 258.525 30.6513 259.141 30.082C259.757 29.5127 260.116 28.7427 260.219 27.772H256.327V26.736H261.577V27.716C261.502 28.5187 261.25 29.256 260.821 29.928C260.392 30.5907 259.827 31.118 259.127 31.51C258.427 31.8927 257.648 32.084 256.789 32.084C255.884 32.084 255.058 31.874 254.311 31.454C253.564 31.0247 252.972 30.432 252.533 29.676C252.104 28.92 251.889 28.066 251.889 27.114C251.889 26.162 252.104 25.308 252.533 24.552C252.972 23.7867 253.564 23.194 254.311 22.774C255.058 22.3447 255.884 22.13 256.789 22.13C257.825 22.13 258.74 22.3867 259.533 22.9C260.336 23.4133 260.919 24.1367 261.283 25.07H259.757ZM270.262 27.87C270.262 28.1127 270.248 28.3693 270.22 28.64H264.088C264.134 29.396 264.391 29.9887 264.858 30.418C265.334 30.838 265.908 31.048 266.58 31.048C267.13 31.048 267.588 30.922 267.952 30.67C268.325 30.4087 268.586 30.0633 268.736 29.634H270.108C269.902 30.3713 269.492 30.9733 268.876 31.44C268.26 31.8973 267.494 32.126 266.58 32.126C265.852 32.126 265.198 31.9627 264.62 31.636C264.05 31.3093 263.602 30.8473 263.276 30.25C262.949 29.6433 262.786 28.9433 262.786 28.15C262.786 27.3567 262.944 26.6613 263.262 26.064C263.579 25.4667 264.022 25.0093 264.592 24.692C265.17 24.3653 265.833 24.202 266.58 24.202C267.308 24.202 267.952 24.3607 268.512 24.678C269.072 24.9953 269.501 25.434 269.8 25.994C270.108 26.5447 270.262 27.17 270.262 27.87ZM268.946 27.604C268.946 27.1187 268.838 26.7033 268.624 26.358C268.409 26.0033 268.115 25.7373 267.742 25.56C267.378 25.3733 266.972 25.28 266.524 25.28C265.88 25.28 265.329 25.4853 264.872 25.896C264.424 26.3067 264.167 26.876 264.102 27.604H268.946ZM275.681 24.188C276.615 24.188 277.371 24.4727 277.949 25.042C278.528 25.602 278.817 26.414 278.817 27.478V32H277.557V27.66C277.557 26.8947 277.366 26.3113 276.983 25.91C276.601 25.4993 276.078 25.294 275.415 25.294C274.743 25.294 274.207 25.504 273.805 25.924C273.413 26.344 273.217 26.9553 273.217 27.758V32H271.943V24.328H273.217V25.42C273.469 25.028 273.81 24.7247 274.239 24.51C274.678 24.2953 275.159 24.188 275.681 24.188ZM287.898 27.87C287.898 28.1127 287.884 28.3693 287.856 28.64H281.724C281.771 29.396 282.028 29.9887 282.494 30.418C282.97 30.838 283.544 31.048 284.216 31.048C284.767 31.048 285.224 30.922 285.588 30.67C285.962 30.4087 286.223 30.0633 286.372 29.634H287.744C287.539 30.3713 287.128 30.9733 286.512 31.44C285.896 31.8973 285.131 32.126 284.216 32.126C283.488 32.126 282.835 31.9627 282.256 31.636C281.687 31.3093 281.239 30.8473 280.912 30.25C280.586 29.6433 280.422 28.9433 280.422 28.15C280.422 27.3567 280.581 26.6613 280.898 26.064C281.216 25.4667 281.659 25.0093 282.228 24.692C282.807 24.3653 283.47 24.202 284.216 24.202C284.944 24.202 285.588 24.3607 286.148 24.678C286.708 24.9953 287.138 25.434 287.436 25.994C287.744 26.5447 287.898 27.17 287.898 27.87ZM286.582 27.604C286.582 27.1187 286.475 26.7033 286.26 26.358C286.046 26.0033 285.752 25.7373 285.378 25.56C285.014 25.3733 284.608 25.28 284.16 25.28C283.516 25.28 282.966 25.4853 282.508 25.896C282.06 26.3067 281.804 26.876 281.738 27.604H286.582ZM290.854 25.574C291.078 25.1353 291.395 24.7947 291.806 24.552C292.226 24.3093 292.735 24.188 293.332 24.188V25.504H292.996C291.568 25.504 290.854 26.2787 290.854 27.828V32H289.58V24.328H290.854V25.574ZM294.327 28.136C294.327 27.352 294.485 26.666 294.803 26.078C295.12 25.4807 295.554 25.0187 296.105 24.692C296.665 24.3653 297.285 24.202 297.967 24.202C298.639 24.202 299.222 24.3467 299.717 24.636C300.211 24.9253 300.58 25.2893 300.823 25.728V24.328H302.111V32H300.823V30.572C300.571 31.02 300.193 31.3933 299.689 31.692C299.194 31.9813 298.615 32.126 297.953 32.126C297.271 32.126 296.655 31.958 296.105 31.622C295.554 31.286 295.12 30.8147 294.803 30.208C294.485 29.6013 294.327 28.9107 294.327 28.136ZM300.823 28.15C300.823 27.5713 300.706 27.0673 300.473 26.638C300.239 26.2087 299.922 25.882 299.521 25.658C299.129 25.4247 298.695 25.308 298.219 25.308C297.743 25.308 297.309 25.42 296.917 25.644C296.525 25.868 296.212 26.1947 295.979 26.624C295.745 27.0533 295.629 27.5573 295.629 28.136C295.629 28.724 295.745 29.2373 295.979 29.676C296.212 30.1053 296.525 30.4367 296.917 30.67C297.309 30.894 297.743 31.006 298.219 31.006C298.695 31.006 299.129 30.894 299.521 30.67C299.922 30.4367 300.239 30.1053 300.473 29.676C300.706 29.2373 300.823 28.7287 300.823 28.15ZM305.538 21.64V32H304.264V21.64H305.538ZM314.157 32.126C313.569 32.126 313.042 32.028 312.575 31.832C312.109 31.6267 311.74 31.3467 311.469 30.992C311.199 30.628 311.049 30.2127 311.021 29.746H312.337C312.375 30.1287 312.552 30.4413 312.869 30.684C313.196 30.9267 313.621 31.048 314.143 31.048C314.629 31.048 315.011 30.9407 315.291 30.726C315.571 30.5113 315.711 30.2407 315.711 29.914C315.711 29.578 315.562 29.3307 315.263 29.172C314.965 29.004 314.503 28.8407 313.877 28.682C313.308 28.5327 312.841 28.3833 312.477 28.234C312.123 28.0753 311.815 27.8467 311.553 27.548C311.301 27.24 311.175 26.8387 311.175 26.344C311.175 25.952 311.292 25.5927 311.525 25.266C311.759 24.9393 312.09 24.6827 312.519 24.496C312.949 24.3 313.439 24.202 313.989 24.202C314.839 24.202 315.525 24.4167 316.047 24.846C316.57 25.2753 316.85 25.8633 316.887 26.61H315.613C315.585 26.2087 315.422 25.8867 315.123 25.644C314.834 25.4013 314.442 25.28 313.947 25.28C313.49 25.28 313.126 25.378 312.855 25.574C312.585 25.77 312.449 26.0267 312.449 26.344C312.449 26.596 312.529 26.806 312.687 26.974C312.855 27.1327 313.061 27.2633 313.303 27.366C313.555 27.4593 313.901 27.5667 314.339 27.688C314.89 27.8373 315.338 27.9867 315.683 28.136C316.029 28.276 316.323 28.4907 316.565 28.78C316.817 29.0693 316.948 29.4473 316.957 29.914C316.957 30.334 316.841 30.712 316.607 31.048C316.374 31.384 316.043 31.65 315.613 31.846C315.193 32.0327 314.708 32.126 314.157 32.126ZM322.564 24.188C323.142 24.188 323.665 24.314 324.132 24.566C324.598 24.8087 324.962 25.1773 325.224 25.672C325.494 26.1667 325.63 26.7687 325.63 27.478V32H324.37V27.66C324.37 26.8947 324.178 26.3113 323.796 25.91C323.413 25.4993 322.89 25.294 322.228 25.294C321.556 25.294 321.019 25.504 320.618 25.924C320.226 26.344 320.03 26.9553 320.03 27.758V32H318.756V21.64H320.03V25.42C320.282 25.028 320.627 24.7247 321.066 24.51C321.514 24.2953 322.013 24.188 322.564 24.188ZM328.369 23.082C328.126 23.082 327.921 22.998 327.753 22.83C327.585 22.662 327.501 22.4567 327.501 22.214C327.501 21.9713 327.585 21.766 327.753 21.598C327.921 21.43 328.126 21.346 328.369 21.346C328.602 21.346 328.798 21.43 328.957 21.598C329.125 21.766 329.209 21.9713 329.209 22.214C329.209 22.4567 329.125 22.662 328.957 22.83C328.798 22.998 328.602 23.082 328.369 23.082ZM328.985 24.328V32H327.711V24.328H328.985ZM334.278 25.378H332.668V32H331.394V25.378H330.4V24.328H331.394V23.782C331.394 22.9233 331.613 22.298 332.052 21.906C332.5 21.5047 333.214 21.304 334.194 21.304V22.368C333.634 22.368 333.237 22.48 333.004 22.704C332.78 22.9187 332.668 23.278 332.668 23.782V24.328H334.278V25.378ZM337.318 25.378V29.9C337.318 30.2733 337.397 30.5393 337.556 30.698C337.714 30.8473 337.99 30.922 338.382 30.922H339.32V32H338.172C337.462 32 336.93 31.8367 336.576 31.51C336.221 31.1833 336.044 30.6467 336.044 29.9V25.378H335.05V24.328H336.044V22.396H337.318V24.328H339.32V25.378H337.318Z" fill="#1A1A1A"/>
<path d="M255.005 51.978C256.19 51.026 257.119 50.2467 257.791 49.64C258.463 49.024 259.028 48.3847 259.485 47.722C259.952 47.05 260.185 46.392 260.185 45.748C260.185 45.1413 260.036 44.6653 259.737 44.32C259.448 43.9653 258.976 43.788 258.323 43.788C257.688 43.788 257.194 43.9887 256.839 44.39C256.494 44.782 256.307 45.3093 256.279 45.972H255.047C255.084 44.9267 255.402 44.1193 255.999 43.55C256.596 42.9807 257.366 42.696 258.309 42.696C259.27 42.696 260.031 42.962 260.591 43.494C261.16 44.026 261.445 44.7587 261.445 45.692C261.445 46.4667 261.212 47.2227 260.745 47.96C260.288 48.688 259.765 49.332 259.177 49.892C258.589 50.4427 257.838 51.0867 256.923 51.824H261.739V52.888H255.005V51.978ZM269.666 43.984H264.752V47.176C264.966 46.8773 265.284 46.6347 265.704 46.448C266.124 46.252 266.576 46.154 267.062 46.154C267.836 46.154 268.466 46.3173 268.952 46.644C269.437 46.9613 269.782 47.3767 269.988 47.89C270.202 48.394 270.31 48.9307 270.31 49.5C270.31 50.172 270.184 50.774 269.932 51.306C269.68 51.838 269.292 52.258 268.77 52.566C268.256 52.874 267.617 53.028 266.852 53.028C265.872 53.028 265.078 52.776 264.472 52.272C263.865 51.768 263.496 51.096 263.366 50.256H264.612C264.733 50.788 264.99 51.2033 265.382 51.502C265.774 51.8007 266.268 51.95 266.866 51.95C267.603 51.95 268.158 51.7307 268.532 51.292C268.905 50.844 269.092 50.256 269.092 49.528C269.092 48.8 268.905 48.24 268.532 47.848C268.158 47.4467 267.608 47.246 266.88 47.246C266.385 47.246 265.951 47.3673 265.578 47.61C265.214 47.8433 264.948 48.1653 264.78 48.576H263.576V42.864H269.666V43.984ZM280.859 43.242V50.452C280.859 51.2547 280.612 51.8987 280.117 52.384C279.623 52.86 278.969 53.098 278.157 53.098C277.336 53.098 276.678 52.8553 276.183 52.37C275.689 51.8753 275.441 51.2033 275.441 50.354H276.715C276.725 50.83 276.846 51.2173 277.079 51.516C277.322 51.8147 277.681 51.964 278.157 51.964C278.633 51.964 278.988 51.824 279.221 51.544C279.455 51.2547 279.571 50.8907 279.571 50.452V43.242H280.859ZM290.173 45.328V53H288.899V51.866C288.656 52.258 288.316 52.566 287.877 52.79C287.448 53.0047 286.972 53.112 286.449 53.112C285.852 53.112 285.315 52.9907 284.839 52.748C284.363 52.496 283.985 52.1227 283.705 51.628C283.434 51.1333 283.299 50.5313 283.299 49.822V45.328H284.559V49.654C284.559 50.41 284.75 50.9933 285.133 51.404C285.516 51.8053 286.038 52.006 286.701 52.006C287.382 52.006 287.919 51.796 288.311 51.376C288.703 50.956 288.899 50.3447 288.899 49.542V45.328H290.173ZM293.598 42.64V53H292.324V42.64H293.598ZM302.377 45.328L297.757 56.612H296.441L297.953 52.916L294.859 45.328H296.273L298.681 51.544L301.061 45.328H302.377ZM307.027 51.978C308.212 51.026 309.141 50.2467 309.812 49.64C310.485 49.024 311.049 48.3847 311.507 47.722C311.973 47.05 312.207 46.392 312.207 45.748C312.207 45.1413 312.057 44.6653 311.759 44.32C311.469 43.9653 310.998 43.788 310.345 43.788C309.71 43.788 309.215 43.9887 308.861 44.39C308.515 44.782 308.329 45.3093 308.301 45.972H307.069C307.106 44.9267 307.423 44.1193 308.021 43.55C308.618 42.9807 309.388 42.696 310.331 42.696C311.292 42.696 312.053 42.962 312.613 43.494C313.182 44.026 313.467 44.7587 313.467 45.692C313.467 46.4667 313.233 47.2227 312.767 47.96C312.309 48.688 311.787 49.332 311.199 49.892C310.611 50.4427 309.859 51.0867 308.945 51.824H313.761V52.888H307.027V51.978ZM315.233 47.834C315.233 46.2287 315.495 44.978 316.017 44.082C316.54 43.1767 317.455 42.724 318.761 42.724C320.059 42.724 320.969 43.1767 321.491 44.082C322.014 44.978 322.275 46.2287 322.275 47.834C322.275 49.4673 322.014 50.7367 321.491 51.642C320.969 52.5473 320.059 53 318.761 53C317.455 53 316.54 52.5473 316.017 51.642C315.495 50.7367 315.233 49.4673 315.233 47.834ZM321.015 47.834C321.015 47.022 320.959 46.336 320.847 45.776C320.745 45.2067 320.525 44.7493 320.189 44.404C319.863 44.0587 319.387 43.886 318.761 43.886C318.127 43.886 317.641 44.0587 317.305 44.404C316.979 44.7493 316.759 45.2067 316.647 45.776C316.545 46.336 316.493 47.022 316.493 47.834C316.493 48.674 316.545 49.3787 316.647 49.948C316.759 50.5173 316.979 50.9747 317.305 51.32C317.641 51.6653 318.127 51.838 318.761 51.838C319.387 51.838 319.863 51.6653 320.189 51.32C320.525 50.9747 320.745 50.5173 320.847 49.948C320.959 49.3787 321.015 48.674 321.015 47.834ZM323.87 51.978C325.056 51.026 325.984 50.2467 326.656 49.64C327.328 49.024 327.893 48.3847 328.35 47.722C328.817 47.05 329.05 46.392 329.05 45.748C329.05 45.1413 328.901 44.6653 328.602 44.32C328.313 43.9653 327.842 43.788 327.188 43.788C326.554 43.788 326.059 43.9887 325.704 44.39C325.359 44.782 325.172 45.3093 325.144 45.972H323.912C323.95 44.9267 324.267 44.1193 324.864 43.55C325.462 42.9807 326.232 42.696 327.174 42.696C328.136 42.696 328.896 42.962 329.456 43.494C330.026 44.026 330.31 44.7587 330.31 45.692C330.31 46.4667 330.077 47.2227 329.61 47.96C329.153 48.688 328.63 49.332 328.042 49.892C327.454 50.4427 326.703 51.0867 325.788 51.824H330.604V52.888H323.87V51.978ZM338.531 43.984H333.617V47.176C333.832 46.8773 334.149 46.6347 334.569 46.448C334.989 46.252 335.442 46.154 335.927 46.154C336.702 46.154 337.332 46.3173 337.817 46.644C338.302 46.9613 338.648 47.3767 338.853 47.89C339.068 48.394 339.175 48.9307 339.175 49.5C339.175 50.172 339.049 50.774 338.797 51.306C338.545 51.838 338.158 52.258 337.635 52.566C337.122 52.874 336.482 53.028 335.717 53.028C334.737 53.028 333.944 52.776 333.337 52.272C332.73 51.768 332.362 51.096 332.231 50.256H333.477C333.598 50.788 333.855 51.2033 334.247 51.502C334.639 51.8007 335.134 51.95 335.731 51.95C336.468 51.95 337.024 51.7307 337.397 51.292C337.77 50.844 337.957 50.256 337.957 49.528C337.957 48.8 337.77 48.24 337.397 47.848C337.024 47.4467 336.473 47.246 335.745 47.246C335.25 47.246 334.816 47.3673 334.443 47.61C334.079 47.8433 333.813 48.1653 333.645 48.576H332.441V42.864H338.531V43.984Z" fill="#707170"/>
</g>
<defs>
<linearGradient id="paint0_linear_123_847" x1="20.5" y1="24" x2="584" y2="255.5" gradientUnits="userSpaceOnUse">
<stop stop-color="#FFFFF7"/>
<stop offset="1" stop-color="#FFF3C1"/>
</linearGradient>
<clipPath id="clip0_123_847">
<rect width="350" height="147" rx="8" fill="white"/>
</clipPath>
</defs>
</svg>
