<svg width="25" height="25" viewBox="0 0 25 25" fill="none" xmlns="http://www.w3.org/2000/svg">
<path fill-rule="evenodd" clip-rule="evenodd" d="M1.85046 2.92871C1.85046 2.5145 2.18625 2.17871 2.60046 2.17871H14.6005C15.0147 2.17871 15.3505 2.5145 15.3505 2.92871V4.42871H13.8505V3.67871H3.35046V18.1787H8.10046V19.6787H2.60046C2.18625 19.6787 1.85046 19.3429 1.85046 18.9287V2.92871Z" fill="#707170"/>
<path fill-rule="evenodd" clip-rule="evenodd" d="M9.85046 6.92871C9.85046 6.5145 10.1863 6.17871 10.6005 6.17871H22.6005C23.0147 6.17871 23.3505 6.5145 23.3505 6.92871V22.9287C23.3505 23.3429 23.0147 23.6787 22.6005 23.6787H10.6005C10.1863 23.6787 9.85046 23.3429 9.85046 22.9287V12.9287C9.85046 12.5145 10.1863 12.1787 10.6005 12.1787C11.0147 12.1787 11.3505 12.5145 11.3505 12.9287V22.1787H21.8505V7.67871H11.3505V8.92871C11.3505 9.34292 11.0147 9.67871 10.6005 9.67871C10.1863 9.67871 9.85046 9.34292 9.85046 8.92871V6.92871Z" fill="#707170"/>
<path fill-rule="evenodd" clip-rule="evenodd" d="M17.6005 12.6787H13.6005V11.1787H17.6005V12.6787Z" fill="#707170"/>
<path fill-rule="evenodd" clip-rule="evenodd" d="M19.6005 15.6787H13.6005V14.1787H19.6005V15.6787Z" fill="#707170"/>
<path fill-rule="evenodd" clip-rule="evenodd" d="M16.6005 18.6787H13.6005V17.1787H16.6005V18.6787Z" fill="#707170"/>
</svg>
