<svg width="20" height="21" viewBox="0 0 20 21" fill="none" xmlns="http://www.w3.org/2000/svg">
<path fill-rule="evenodd" clip-rule="evenodd" d="M11.1173 8.63385C11.3721 8.40107 11.7675 8.41898 12.0002 8.67386C12.4396 9.15491 12.7084 9.79672 12.7084 10.4999C12.7084 11.9956 11.4958 13.2082 10 13.2082C9.26979 13.2082 8.60595 12.9184 8.11941 12.4488C7.87104 12.2091 7.86401 11.8134 8.10372 11.565C8.34343 11.3167 8.7391 11.3097 8.98747 11.5494C9.25038 11.8031 9.60645 11.9582 10 11.9582C10.8055 11.9582 11.4584 11.3053 11.4584 10.4999C11.4584 10.1207 11.3145 9.77657 11.0773 9.51683C10.8445 9.26195 10.8624 8.86663 11.1173 8.63385Z" fill="#959795"/>
<path fill-rule="evenodd" clip-rule="evenodd" d="M16.2753 4.22468C16.5194 4.46876 16.5194 4.86449 16.2753 5.10857L4.60863 16.7752C4.36455 17.0193 3.96882 17.0193 3.72475 16.7752C3.48067 16.5312 3.48067 16.1354 3.72475 15.8914L15.3914 4.22468C15.6355 3.98061 16.0312 3.98061 16.2753 4.22468Z" fill="#959795"/>
<path fill-rule="evenodd" clip-rule="evenodd" d="M11.1096 6.1708C10.7975 6.12623 10.4283 6.125 10 6.125C9.34533 6.125 8.58228 6.38323 7.76971 6.82916C6.96563 7.27044 6.16436 7.8669 5.44642 8.47645C4.73058 9.0842 4.1106 9.6938 3.66904 10.1523C3.56652 10.2588 3.47382 10.3568 3.39198 10.4446L5.40863 12.1869C5.66983 12.4126 5.69864 12.8072 5.47298 13.0684C5.24732 13.3296 4.85264 13.3584 4.59144 13.1328L2.10098 10.9812L2.09704 10.9778L2.09632 10.9772L2.09567 10.9766L2.09489 10.9759L2.09421 10.9753L2.0935 10.9747L2.09282 10.9741L2.09217 10.9736L2.09153 10.973C1.83121 10.7481 1.80149 10.3551 2.02515 10.0937L2.50003 10.5C2.02515 10.0937 2.02504 10.0938 2.02515 10.0937L2.02653 10.0921L2.02946 10.0886L2.03996 10.0765L2.07901 10.0317C2.1129 9.99307 2.16233 9.93722 2.22599 9.86662C2.35327 9.72547 2.53765 9.5251 2.76868 9.2852C3.22999 8.8062 3.88095 8.1658 4.6374 7.52356C5.39175 6.8831 6.26412 6.22956 7.16833 5.73334C8.06404 5.24177 9.04391 4.875 10 4.875L10.0241 4.875C10.4234 4.87498 10.8774 4.87495 11.2863 4.93337C11.6954 4.9918 12.1728 5.12219 12.5253 5.47473C12.7694 5.7188 12.7694 6.11453 12.5253 6.35861C12.2812 6.60269 11.8855 6.60269 11.6414 6.35861C11.5773 6.29448 11.4297 6.21654 11.1096 6.1708ZM13.1399 6.56176C13.3374 6.27864 13.727 6.2092 14.0101 6.40667C15.1048 7.17021 16.0971 8.09518 16.8102 8.82131C17.1683 9.18593 17.4594 9.50389 17.6616 9.73148C17.7627 9.84534 17.8418 9.93676 17.8961 10.0003C17.9233 10.0321 17.9442 10.0569 17.9586 10.0741L17.9753 10.0941L17.9799 10.0996L17.9813 10.1012L17.9819 10.102C17.982 10.102 17.982 10.1021 17.5 10.5C17.9749 10.9063 17.9749 10.9064 17.9748 10.9065L17.9731 10.9084L17.9692 10.913L17.9551 10.9293C17.9429 10.9434 17.9252 10.9637 17.9022 10.9897C17.8563 11.0419 17.7893 11.117 17.7034 11.2113C17.5317 11.3998 17.2839 11.6651 16.9769 11.9755C16.3645 12.5946 15.5088 13.4008 14.5456 14.1352C14.2712 14.3445 13.879 14.2916 13.6697 14.0171C13.4604 13.7426 13.5133 13.3505 13.7878 13.1412C14.6891 12.454 15.5 11.6911 16.0882 11.0965C16.319 10.8632 16.5142 10.657 16.6659 10.4931C16.479 10.2846 16.2246 10.009 15.9184 9.69716C15.233 8.99933 14.3015 8.13394 13.295 7.43193C13.0119 7.23446 12.9425 6.84488 13.1399 6.56176ZM17.5 10.5L17.9748 10.9065C18.1723 10.6757 18.1752 10.3362 17.9819 10.102L17.5 10.5ZM6.1586 13.6381C6.3596 13.3575 6.75003 13.293 7.03065 13.494C7.57063 13.8808 8.10594 14.2316 8.6229 14.4849C9.14372 14.7401 9.60377 14.875 10 14.875C10.4304 14.875 10.9125 14.7633 11.4326 14.5532C11.7526 14.4239 12.1169 14.5785 12.2462 14.8985C12.3755 15.2186 12.2209 15.5829 11.9008 15.7122C11.2841 15.9614 10.6388 16.125 10 16.125C9.33623 16.125 8.67903 15.9044 8.07289 15.6074C7.46291 15.3086 6.86158 14.9105 6.30275 14.5102C6.02213 14.3092 5.9576 13.9187 6.1586 13.6381Z" fill="#959795"/>
</svg>
