<svg width="225" height="110" viewBox="0 0 225 110" fill="none" xmlns="http://www.w3.org/2000/svg">
<g filter="url(#filter0_i_13_2011)">
<path d="M224.281 59.7981C224.213 62.0908 223.24 64.2627 221.575 65.8372C219.911 67.4117 217.691 68.2601 215.404 68.1963H108.76C102.672 93.3534 82.725 110 55.6688 110C23.6446 110 0 86.9393 0 55.0936C0 23.2479 23.2213 0 55.4073 0C79.5126 0 99.7581 13.3023 107.279 33.0936C107.626 34.0305 107.743 35.0372 107.621 36.029C107.499 37.0209 107.141 37.9688 106.577 38.7931C106.014 39.6174 105.26 40.2939 104.381 40.7657C103.502 41.2375 102.523 41.4908 101.526 41.5043H83.1483C82.1148 41.5107 81.0967 41.2528 80.1903 40.7549C79.284 40.257 78.5193 39.5357 77.9687 38.6591C73.5485 31.4838 65.1192 27.0165 55.6688 27.0165C40.0178 27.0165 29.5215 38.3596 29.5215 55.0936C29.5215 71.8276 39.8435 82.996 55.6688 82.996C58.8363 83.0045 61.9875 82.5419 65.0195 81.6234C71.6933 79.5644 70 69.5939 63.0647 69.5939H59.566C57.9256 69.594 56.3515 68.9452 55.1857 67.7885C54.02 66.6319 53.3568 65.0609 53.3404 63.4169C53.3404 60.2298 54.6037 57.1732 56.8523 54.9196C59.101 52.666 62.1508 51.3999 65.3308 51.3999H215.404C217.691 51.3361 219.911 52.1845 221.575 53.7589C223.24 55.3334 224.213 57.5053 224.281 59.7981Z" fill="white"/>
<path d="M224.291 42.5025C224.291 34.4537 216.385 27.9398 206.635 27.9398H164.215V42.5025H224.291Z" fill="white"/>
<path d="M224.291 77.0933C224.291 85.1421 216.385 91.656 206.635 91.656H164.215V77.0933H224.291Z" fill="white"/>
</g>
<defs>
<filter id="filter0_i_13_2011" x="0" y="0" width="224.291" height="113.7" filterUnits="userSpaceOnUse" color-interpolation-filters="sRGB">
<feFlood flood-opacity="0" result="BackgroundImageFix"/>
<feBlend mode="normal" in="SourceGraphic" in2="BackgroundImageFix" result="shape"/>
<feColorMatrix in="SourceAlpha" type="matrix" values="0 0 0 0 0 0 0 0 0 0 0 0 0 0 0 0 0 0 127 0" result="hardAlpha"/>
<feOffset dy="3.7"/>
<feGaussianBlur stdDeviation="1.85"/>
<feComposite in2="hardAlpha" operator="arithmetic" k2="-1" k3="1"/>
<feColorMatrix type="matrix" values="0 0 0 0 0 0 0 0 0 0 0 0 0 0 0 0 0 0 0.25 0"/>
<feBlend mode="normal" in2="shape" result="effect1_innerShadow_13_2011"/>
</filter>
</defs>
</svg>
