<svg width="303" height="302" viewBox="0 0 303 302" fill="none" xmlns="http://www.w3.org/2000/svg">
<path d="M42.525 239.39H17.5021V247.354H42.525V239.39Z" fill="#EBEBEB"/>
<path d="M57.5559 146.508H32.533V154.472H57.5559V146.508Z" fill="#EBEBEB"/>
<path d="M28.5688 257.424C24.3983 257.495 13.8867 257.673 9.85857 257.716H3.54591H3.22565V257.424V249.461V249.105H3.58149L16.0929 249.154C19.203 249.154 25.4872 249.247 28.6044 249.29H28.7752V249.461L28.5688 257.424ZM28.5688 257.424L28.398 249.461L28.5688 249.631C25.4445 249.674 19.1746 249.738 16.0574 249.767L3.54591 249.816L3.90175 249.461V257.424L3.57437 257.097H9.77317C13.7373 257.147 24.4909 257.325 28.5973 257.396L28.5688 257.424Z" fill="#EBEBEB"/>
<path d="M170.145 116.339C165.974 116.411 155.463 116.589 151.434 116.631H145.122H144.794V116.304V108.34V107.984H145.15L157.662 108.034C160.772 108.034 167.056 108.127 170.173 108.169H170.344V108.34L170.18 116.304L170.145 116.339ZM170.145 116.339L169.967 108.376L170.138 108.539C167.013 108.589 160.743 108.653 157.626 108.682L145.115 108.732L145.471 108.376L145.435 116.339L145.115 116.012H151.313C155.278 116.062 166.031 116.24 170.138 116.311L170.145 116.339Z" fill="#EBEBEB"/>
<path d="M156.181 126.381C152.018 126.453 141.506 126.63 137.471 126.673H131.166H130.824V126.353V118.389V118.033H131.187L143.691 118.083C146.809 118.083 153.093 118.176 156.203 118.218H156.381V118.389L156.21 126.353L156.181 126.381ZM156.181 126.381L156.018 118.418L156.181 118.581C153.064 118.631 146.794 118.695 143.67 118.724L131.166 118.773L131.521 118.418V126.381L131.201 126.054H137.4C141.364 126.104 152.118 126.282 156.217 126.353L156.181 126.381Z" fill="#EBEBEB"/>
<path d="M142.282 108.376H117.259V116.339H142.282V108.376Z" fill="#EBEBEB"/>
<path d="M297.957 249.432H272.934V257.396H297.957V249.432Z" fill="#EBEBEB"/>
<path d="M284 3.50861H258.978V11.4724H284V3.50861Z" fill="#EBEBEB"/>
<path d="M297.957 21.5143C293.786 21.5855 283.274 21.7634 279.246 21.8061H272.934H272.613V21.4858L272.578 13.522V13.1662H272.934L285.445 13.216C288.562 13.216 294.839 13.3085 297.957 13.3512H298.127V13.522L297.957 21.4858V21.5143ZM297.957 21.5143L297.786 13.5505L297.957 13.7142C294.832 13.764 288.569 13.8281 285.445 13.8565L272.934 13.9064L273.29 13.5505V21.5143L272.962 21.1869H279.161C283.132 21.2367 293.886 21.4147 297.985 21.4858L297.957 21.5143Z" fill="#EBEBEB"/>
<path d="M42.5251 11.4724C38.3546 11.5436 27.843 11.7215 23.8148 11.7642H17.5021H17.1819V11.4368V3.47303V3.11719H17.5377L30.0492 3.16701C33.1664 3.16701 39.4435 3.25953 42.5606 3.30223H42.7314V3.47303L42.5606 11.4368L42.5251 11.4724ZM42.5251 11.4724L42.3543 3.50862L42.5251 3.67231C39.4008 3.72212 33.1308 3.78618 30.0136 3.81464L17.5021 3.86446L17.858 3.50862V11.4724L17.5021 11.1806H23.7009C27.665 11.2304 38.4186 11.4083 42.5251 11.4795V11.4724Z" fill="#EBEBEB"/>
<path d="M186.812 275.715C182.642 275.786 172.13 275.964 168.102 276.006H161.79H161.469V275.679V267.715V267.388H161.825L174.337 267.438C177.454 267.438 183.731 267.53 186.848 267.573H187.019V267.744L186.855 275.708L186.812 275.715ZM186.812 275.715L186.642 267.751L186.812 267.922C183.688 267.964 177.418 268.028 174.301 268.057L161.79 268.107L162.145 267.751V275.715L161.818 275.387H168.017C171.981 275.437 182.734 275.615 186.841 275.686L186.812 275.715Z" fill="#EBEBEB"/>
<path d="M50.6098 55.0988C49.8942 59.9189 47.8095 64.4321 44.6035 68.1018C41.3975 71.7715 37.2051 74.4434 32.5248 75.7998C27.8444 77.1561 22.873 77.1399 18.2016 75.7531C13.5302 74.3662 9.35538 71.667 6.17339 67.9765C2.99141 64.2859 0.936164 59.7592 0.25202 54.9346C-0.432124 50.1099 0.28361 45.1903 2.31412 40.7606C4.34464 36.3309 7.60452 32.5774 11.7062 29.9466C15.8078 27.3157 20.5787 25.918 25.4517 25.9196V51.3625L50.6098 55.0988Z" fill="#EBEBEB"/>
<path d="M56.0969 46.1885C56.0983 47.4368 56.0056 48.6834 55.8193 49.9177L30.6612 46.1885V20.7457C34.0028 20.7429 37.3122 21.3991 40.4 22.6768C43.4877 23.9545 46.2931 25.8286 48.6557 28.1919C51.0183 30.5551 52.8916 33.3611 54.1685 36.4492C55.4453 39.5372 56.1006 42.8468 56.0969 46.1885Z" fill="#DBDBDB"/>
<path d="M55.2571 60.4009H28.2059V61.1126H55.2571V60.4009Z" fill="#C7C7C7"/>
<path d="M57.1573 63.0057C56.7105 63.0071 56.2734 62.8758 55.9013 62.6284C55.5292 62.381 55.2389 62.0288 55.0673 61.6162C54.8956 61.2037 54.8503 60.7495 54.9372 60.3112C55.024 59.8729 55.239 59.4703 55.5549 59.1543C55.8709 58.8384 56.2735 58.6234 56.7118 58.5366C57.1501 58.4497 57.6043 58.495 58.0168 58.6667C58.4294 58.8383 58.7816 59.1286 59.029 59.5006C59.2764 59.8727 59.4077 60.3099 59.4063 60.7567C59.4044 61.3526 59.1668 61.9235 58.7455 62.3449C58.3241 62.7662 57.7532 63.0038 57.1573 63.0057ZM57.1573 59.2124C56.8516 59.2109 56.5523 59.3003 56.2974 59.4692C56.0425 59.638 55.8434 59.8787 55.7255 60.1608C55.6075 60.4428 55.5759 60.7536 55.6347 61.0536C55.6934 61.3537 55.84 61.6295 56.0557 61.8462C56.2714 62.0629 56.5465 62.2107 56.8463 62.2709C57.1461 62.331 57.4569 62.3009 57.7396 62.1842C58.0222 62.0675 58.2638 61.8696 58.4338 61.6155C58.6038 61.3613 58.6946 61.0625 58.6946 60.7567C58.6946 60.3484 58.5328 59.9566 58.2447 59.6672C57.9567 59.3778 57.5657 59.2142 57.1573 59.2124Z" fill="#C7C7C7"/>
<path d="M85.0483 59.3333H64.0322V60.2799H85.0483V59.3333Z" fill="#C7C7C7"/>
<path d="M75.9245 61.2264H64.0322V62.173H75.9245V61.2264Z" fill="#C7C7C7"/>
<path d="M138.752 151.895H132.041V199.65H138.752V151.895Z" fill="#EBEBEB"/>
<path d="M150.289 163.453H143.577V199.65H150.289V163.453Z" fill="#EBEBEB"/>
<path d="M161.818 181.551H155.107V199.65H161.818V181.551Z" fill="#EBEBEB"/>
<path d="M173.354 171.211H166.643V199.642H173.354V171.211Z" fill="#EBEBEB"/>
<path d="M184.891 160.357H178.18V199.65H184.891V160.357Z" fill="#EBEBEB"/>
<path d="M196.42 153.974H189.709V199.65H196.42V153.974Z" fill="#EBEBEB"/>
<path d="M128.148 145.818L128.226 159.276L128.262 172.734L128.319 199.65L128.148 199.479C134.316 199.479 140.484 199.479 146.652 199.479L165.156 199.521L183.66 199.557L202.164 199.657L183.66 199.756L165.156 199.792L146.652 199.827C140.484 199.827 134.316 199.827 128.148 199.827H127.977V199.664L128.034 172.748V159.29L128.148 145.818Z" fill="#EBEBEB"/>
<path d="M126.668 148.536C127.638 148.28 128.658 148.28 129.628 148.536C128.657 148.783 127.639 148.783 126.668 148.536Z" fill="#EBEBEB"/>
<path d="M126.668 152.607C127.639 152.36 128.657 152.36 129.628 152.607C129.147 152.744 128.648 152.809 128.148 152.799C127.648 152.805 127.15 152.741 126.668 152.607Z" fill="#EBEBEB"/>
<path d="M126.668 156.699C127.639 156.452 128.657 156.452 129.628 156.699C128.658 156.955 127.638 156.955 126.668 156.699Z" fill="#EBEBEB"/>
<path d="M126.668 160.791C127.638 160.535 128.658 160.535 129.628 160.791C128.658 161.048 127.638 161.048 126.668 160.791Z" fill="#EBEBEB"/>
<path d="M126.668 164.905C127.638 164.649 128.658 164.649 129.628 164.905C128.658 165.161 127.638 165.161 126.668 164.905Z" fill="#EBEBEB"/>
<path d="M126.668 168.976C127.638 168.72 128.658 168.72 129.628 168.976C128.657 169.223 127.639 169.223 126.668 168.976Z" fill="#EBEBEB"/>
<path d="M126.668 173.061C127.639 172.814 128.657 172.814 129.628 173.061C128.658 173.317 127.638 173.317 126.668 173.061Z" fill="#EBEBEB"/>
<path d="M126.668 177.153C127.639 176.906 128.657 176.906 129.628 177.153C128.658 177.409 127.638 177.409 126.668 177.153Z" fill="#EBEBEB"/>
<path d="M126.668 181.274C127.638 181.018 128.658 181.018 129.628 181.274C128.658 181.53 127.638 181.53 126.668 181.274Z" fill="#EBEBEB"/>
<path d="M126.668 185.338C127.638 185.081 128.658 185.081 129.628 185.338C128.658 185.594 127.638 185.594 126.668 185.338Z" fill="#EBEBEB"/>
<path d="M126.668 189.43C127.638 189.174 128.658 189.174 129.628 189.43C128.657 189.676 127.639 189.676 126.668 189.43Z" fill="#EBEBEB"/>
<path d="M126.668 193.522C127.15 193.388 127.648 193.323 128.148 193.33C128.648 193.32 129.147 193.385 129.628 193.522C128.657 193.769 127.639 193.769 126.668 193.522Z" fill="#EBEBEB"/>
<path d="M2.35742 292.119C97.4246 291.685 204.078 291.685 299.131 292.119C204.064 292.56 97.4103 292.553 2.35742 292.119Z" fill="#263238"/>
<path d="M290.242 0H173.589C172.025 0.013953 170.479 0.335997 169.039 0.947731C167.6 1.55947 166.295 2.4489 165.199 3.5652C164.103 4.68151 163.238 6.0028 162.653 7.45358C162.068 8.90436 161.775 10.4562 161.79 12.0204V252.094C161.763 255.252 162.991 258.291 165.203 260.545C167.415 262.798 170.431 264.082 173.589 264.114H290.242C293.402 264.084 296.42 262.801 298.635 260.548C300.85 258.294 302.081 255.254 302.056 252.094V12.0204C302.082 8.86 300.853 5.81842 298.638 3.56434C296.422 1.31026 293.402 0.0281916 290.242 0ZM294.669 244.671C294.669 250.991 289.936 256.108 284.1 256.108H179.738C173.888 256.108 169.155 250.991 169.155 244.671V21.1442C169.155 8.2698 173.888 7.62217 179.738 7.62217H200.641C201.858 7.62217 202.847 9.00284 202.847 10.7109V11.4226C202.847 15.4294 205.046 15.4436 207.736 15.4436H256.081C258.8 15.4436 260.977 15.4436 260.977 11.4226V10.7109C260.977 9.00284 261.959 7.62217 263.191 7.62217H284.086C289.922 7.62217 294.654 9.33733 294.654 21.1442L294.669 244.671Z" fill="#263238"/>
<path d="M294.64 21.1442V244.671C294.64 250.991 289.907 256.108 284.072 256.108H179.738C173.888 256.108 169.155 250.991 169.155 244.671V21.1442C169.155 8.2698 173.888 7.62216 179.738 7.62216H200.641C201.857 7.62216 202.847 9.00283 202.847 10.7109V11.4226C202.847 15.4294 205.046 15.4436 207.736 15.4436H256.081C258.8 15.4436 260.977 15.4436 260.977 11.4226V10.7109C260.977 9.00283 261.959 7.62216 263.191 7.62216H284.086C289.907 7.62216 294.64 9.33021 294.64 21.1442Z" fill="white"/>
<path d="M197.011 12.6396C196.947 12.7036 196.876 12.7677 196.812 12.8388L196.698 12.9527C196.181 12.4369 195.481 12.1471 194.751 12.1471C194.021 12.1471 193.321 12.4369 192.805 12.9527L192.691 12.8388L192.492 12.6396L192.741 12.419C193.139 12.0964 193.611 11.8765 194.114 11.7784C194.25 11.7784 194.378 11.7428 194.506 11.7215H194.876H195.146C195.39 11.7527 195.629 11.8124 195.858 11.8994C196.025 11.9597 196.187 12.0335 196.342 12.12C196.504 12.2168 196.659 12.3263 196.805 12.4474L197.018 12.6396H197.011Z" fill="#C7C7C7"/>
<path d="M193.452 13.5861L193.132 13.273C193.48 12.9184 193.936 12.6884 194.427 12.6182C194.782 12.5664 195.143 12.5979 195.483 12.7103C195.822 12.8228 196.131 13.013 196.385 13.2659L196.064 13.5861C195.718 13.2406 195.248 13.0466 194.758 13.0466C194.269 13.0466 193.799 13.2406 193.452 13.5861Z" fill="#C7C7C7"/>
<path d="M195.758 13.9064L195.438 14.2266C195.352 14.1371 195.247 14.0663 195.132 14.0185C195.017 13.9708 194.894 13.9471 194.769 13.9491C194.645 13.9476 194.521 13.9714 194.406 14.0191C194.291 14.0668 194.187 14.1374 194.1 14.2266L193.787 13.9064C194.052 13.6519 194.405 13.5099 194.773 13.5099C195.14 13.5099 195.493 13.6519 195.758 13.9064Z" fill="#C7C7C7"/>
<path d="M195.061 14.5113C195.062 14.5693 195.046 14.6264 195.015 14.6753C194.984 14.7242 194.939 14.7627 194.886 14.7859C194.833 14.8091 194.774 14.8159 194.717 14.8055C194.66 14.795 194.607 14.7678 194.565 14.7273C194.524 14.6868 194.495 14.6348 194.484 14.578C194.472 14.5212 194.477 14.4622 194.499 14.4085C194.521 14.3548 194.558 14.3088 194.606 14.2764C194.654 14.244 194.711 14.2267 194.769 14.2267C194.807 14.2257 194.845 14.2324 194.88 14.2462C194.916 14.2601 194.948 14.2809 194.975 14.3075C195.002 14.334 195.024 14.3657 195.039 14.4007C195.053 14.4357 195.061 14.4733 195.061 14.5113Z" fill="#C7C7C7"/>
<path d="M177.34 13.2445C177.34 13.0798 177.389 12.9188 177.48 12.7819C177.572 12.6449 177.702 12.5382 177.854 12.4752C178.006 12.4122 178.174 12.3957 178.335 12.4278C178.497 12.4599 178.645 12.5392 178.761 12.6557C178.878 12.7721 178.957 12.9205 178.989 13.082C179.021 13.2436 179.005 13.411 178.942 13.5631C178.879 13.7153 178.772 13.8453 178.635 13.9368C178.498 14.0283 178.337 14.0772 178.173 14.0772C178.063 14.0772 177.955 14.0556 177.854 14.0138C177.753 13.9719 177.661 13.9106 177.584 13.8333C177.506 13.7559 177.445 13.6642 177.403 13.5631C177.361 13.4621 177.34 13.3538 177.34 13.2445Z" fill="#C7C7C7"/>
<path d="M179.93 13.2445C179.93 13.0798 179.979 12.9188 180.071 12.7819C180.162 12.6449 180.292 12.5382 180.444 12.4752C180.597 12.4122 180.764 12.3957 180.926 12.4278C181.087 12.4599 181.235 12.5392 181.352 12.6557C181.468 12.7721 181.548 12.9205 181.58 13.082C181.612 13.2436 181.595 13.411 181.532 13.5631C181.469 13.7153 181.363 13.8453 181.226 13.9368C181.089 14.0283 180.928 14.0772 180.763 14.0772C180.654 14.0772 180.545 14.0556 180.444 14.0138C180.343 13.9719 180.252 13.9106 180.174 13.8333C180.097 13.7559 180.036 13.6642 179.994 13.5631C179.952 13.4621 179.93 13.3538 179.93 13.2445Z" fill="#C7C7C7"/>
<path d="M182.578 13.2445C182.578 13.0798 182.627 12.9188 182.718 12.7819C182.81 12.6449 182.94 12.5382 183.092 12.4752C183.244 12.4122 183.411 12.3957 183.573 12.4278C183.735 12.4599 183.883 12.5392 183.999 12.6557C184.116 12.7721 184.195 12.9205 184.227 13.082C184.259 13.2436 184.243 13.411 184.18 13.5631C184.117 13.7153 184.01 13.8453 183.873 13.9368C183.736 14.0283 183.575 14.0772 183.411 14.0772C183.301 14.0772 183.193 14.0556 183.092 14.0138C182.991 13.9719 182.899 13.9106 182.822 13.8333C182.744 13.7559 182.683 13.6642 182.641 13.5631C182.599 13.4621 182.578 13.3538 182.578 13.2445Z" fill="#C7C7C7"/>
<path d="M185.204 13.2445C185.204 13.0795 185.253 12.9182 185.345 12.7811C185.437 12.6441 185.567 12.5373 185.72 12.4745C185.872 12.4117 186.04 12.3957 186.202 12.4284C186.363 12.4611 186.512 12.5411 186.628 12.6583C186.744 12.7754 186.823 12.9245 186.854 13.0864C186.886 13.2484 186.868 13.4161 186.804 13.5681C186.74 13.7201 186.632 13.8497 186.494 13.9403C186.356 14.0309 186.195 14.0786 186.03 14.0772C185.921 14.0772 185.813 14.0556 185.712 14.0136C185.611 13.9717 185.52 13.9103 185.443 13.8328C185.367 13.7554 185.306 13.6636 185.265 13.5626C185.224 13.4616 185.203 13.3535 185.204 13.2445Z" fill="#C7C7C7"/>
<path d="M187.823 13.2445C187.823 13.0795 187.872 12.9182 187.964 12.7811C188.056 12.6441 188.186 12.5373 188.339 12.4745C188.491 12.4117 188.659 12.3957 188.821 12.4284C188.983 12.4611 189.131 12.5411 189.247 12.6583C189.363 12.7754 189.442 12.9245 189.473 13.0864C189.505 13.2484 189.487 13.4161 189.423 13.5681C189.359 13.7201 189.251 13.8497 189.113 13.9403C188.975 14.0309 188.814 14.0786 188.649 14.0772C188.54 14.0772 188.432 14.0556 188.331 14.0136C188.23 13.9717 188.139 13.9103 188.062 13.8328C187.986 13.7554 187.925 13.6636 187.884 13.5626C187.843 13.4616 187.822 13.3535 187.823 13.2445Z" fill="#C7C7C7"/>
<path d="M285.26 15.0664H278.492V11.9279H285.26V15.0664ZM278.855 14.7177H284.94V12.2695H278.855V14.7177Z" fill="#C7C7C7"/>
<path d="M283.388 12.4616H279.026V14.5326H283.388V12.4616Z" fill="#C7C7C7"/>
<path d="M285.844 12.6538H285.239V14.3334H285.844V12.6538Z" fill="#C7C7C7"/>
<path d="M238.495 10.4689H225.315C225.098 10.4689 224.889 10.3827 224.736 10.2292C224.583 10.0757 224.496 9.86753 224.496 9.65046C224.498 9.43464 224.585 9.22829 224.739 9.07634C224.892 8.92439 225.099 8.83913 225.315 8.83914H238.495C238.711 8.83913 238.918 8.92439 239.071 9.07634C239.225 9.22829 239.312 9.43464 239.314 9.65046C239.314 9.86753 239.227 10.0757 239.074 10.2292C238.92 10.3827 238.712 10.4689 238.495 10.4689Z" fill="white"/>
<path d="M185.474 242.949H184.862V245.767H183.709V244.336H181.681V245.767H180.535V242.949H179.923L182.699 240.08L185.474 242.949Z" fill="#EBEBEB"/>
<path d="M284.876 240.08H278.186V241.034H284.876V240.08Z" fill="#EBEBEB"/>
<path d="M284.876 242.45H278.186V243.404H284.876V242.45Z" fill="#EBEBEB"/>
<path d="M284.876 244.813H278.186V245.767H284.876V244.813Z" fill="#EBEBEB"/>
<path d="M234.367 243.027L232.467 245.055L230.56 243.027L230.901 242.707L232.467 244.379L234.033 242.707L234.367 243.027Z" fill="#EBEBEB"/>
<path d="M232.467 247.155C231.783 247.156 231.113 246.954 230.544 246.575C229.974 246.196 229.529 245.656 229.267 245.024C229.004 244.393 228.934 243.697 229.067 243.025C229.2 242.354 229.528 241.737 230.012 241.253C230.495 240.768 231.112 240.438 231.783 240.304C232.454 240.17 233.15 240.238 233.782 240.5C234.414 240.761 234.955 241.205 235.335 241.774C235.716 242.342 235.919 243.011 235.919 243.696C235.917 244.611 235.553 245.489 234.906 246.137C234.26 246.785 233.383 247.151 232.467 247.155ZM232.467 240.7C231.873 240.698 231.291 240.873 230.796 241.203C230.301 241.532 229.915 242.001 229.687 242.55C229.459 243.099 229.398 243.704 229.514 244.287C229.63 244.87 229.916 245.406 230.336 245.827C230.757 246.247 231.293 246.533 231.876 246.649C232.459 246.765 233.064 246.705 233.613 246.476C234.162 246.248 234.631 245.862 234.96 245.367C235.29 244.872 235.465 244.29 235.463 243.696C235.461 242.902 235.145 242.141 234.584 241.579C234.022 241.018 233.261 240.702 232.467 240.7Z" fill="#EBEBEB"/>
<path d="M288.007 24.2756H175.803V57.0275H288.007V24.2756Z" fill="#407BFF"/>
<path d="M182.186 34.8015L178.479 31.3213L182.186 27.8483L182.763 28.4603L179.71 31.3213L182.763 34.1823L182.186 34.8015Z" fill="white"/>
<path d="M285.338 29.1578C285.338 29.2986 285.297 29.4362 285.218 29.5532C285.14 29.6702 285.029 29.7615 284.899 29.8153C284.769 29.8692 284.626 29.8833 284.488 29.8558C284.35 29.8284 284.223 29.7606 284.123 29.6611C284.024 29.5615 283.956 29.4347 283.929 29.2967C283.901 29.1586 283.915 29.0155 283.969 28.8855C284.023 28.7554 284.114 28.6443 284.231 28.5661C284.348 28.4879 284.486 28.4461 284.627 28.4461C284.815 28.4461 284.996 28.5211 285.13 28.6546C285.263 28.7881 285.338 28.9691 285.338 29.1578Z" fill="white"/>
<path d="M285.338 31.7555C285.338 31.8962 285.297 32.0338 285.218 32.1509C285.14 32.2679 285.029 32.3591 284.899 32.413C284.769 32.4669 284.626 32.4809 284.488 32.4535C284.35 32.426 284.223 32.3582 284.123 32.2587C284.024 32.1592 283.956 32.0324 283.929 31.8943C283.901 31.7563 283.915 31.6132 283.969 31.4831C284.023 31.3531 284.114 31.2419 284.231 31.1637C284.348 31.0855 284.486 31.0438 284.627 31.0438C284.815 31.0438 284.996 31.1188 285.13 31.2522C285.263 31.3857 285.338 31.5667 285.338 31.7555Z" fill="white"/>
<path d="M285.338 34.346C285.338 34.4868 285.297 34.6244 285.218 34.7414C285.14 34.8584 285.029 34.9497 284.899 35.0035C284.769 35.0574 284.626 35.0715 284.488 35.044C284.35 35.0166 284.223 34.9488 284.123 34.8493C284.024 34.7497 283.956 34.6229 283.929 34.4849C283.901 34.3468 283.915 34.2037 283.969 34.0737C284.023 33.9436 284.114 33.8325 284.231 33.7543C284.348 33.6761 284.486 33.6343 284.627 33.6343C284.815 33.6343 284.996 33.7093 285.13 33.8428C285.263 33.9763 285.338 34.1573 285.338 34.346Z" fill="white"/>
<path d="M187.823 31.3213C200.733 30.8445 213.736 30.8445 226.653 31.3213C213.736 31.7982 200.733 31.7982 187.823 31.3213Z" fill="white"/>
<path d="M187.823 34.8015C196.541 34.5667 206.135 34.5667 214.867 34.8015C206.149 35.0364 196.555 35.0292 187.823 34.8015Z" fill="white"/>
<path d="M200.662 46.765C220.675 46.5443 243.128 46.5443 263.134 46.765C243.128 46.9856 220.675 46.9856 200.662 46.765Z" fill="white"/>
<path d="M180.913 83.9364C198.619 83.8083 216.333 83.8368 234.04 83.7869C251.747 83.7371 269.461 83.7869 287.175 83.9364C269.461 84.0574 251.754 84.0289 234.04 84.0787C216.326 84.1285 198.619 84.0574 180.913 83.9364Z" fill="#455A64"/>
<path d="M180.913 95.8713C198.619 95.7503 216.333 95.7788 234.04 95.729C251.747 95.6792 269.461 95.729 287.175 95.8713C269.461 95.9994 251.754 95.971 234.04 96.0208C216.326 96.0706 198.619 96.0279 180.913 95.8713Z" fill="#455A64"/>
<path d="M180.913 107.87C198.619 107.749 216.333 107.778 234.04 107.728C251.747 107.678 269.461 107.728 287.175 107.87C269.461 107.999 251.754 107.97 234.04 108.02C216.326 108.07 198.619 107.97 180.913 107.87Z" fill="#455A64"/>
<path d="M180.913 119.841C198.619 119.72 216.333 119.748 234.04 119.699C251.747 119.649 269.461 119.699 287.175 119.841C269.461 119.969 251.754 119.933 234.04 119.99C216.333 119.933 198.619 119.969 180.913 119.841Z" fill="#455A64"/>
<path d="M180.913 131.812C198.619 131.683 216.333 131.719 234.04 131.669C251.747 131.619 269.461 131.669 287.175 131.812C269.461 131.94 251.754 131.904 234.04 131.961C216.333 131.904 198.619 131.94 180.913 131.812Z" fill="#455A64"/>
<path d="M202.306 76.1505C202.462 87.3382 202.42 98.5188 202.491 109.707C202.427 120.887 202.491 132.075 202.306 143.255C202.149 132.075 202.192 120.887 202.128 109.707C202.192 98.5188 202.149 87.3311 202.306 76.1505Z" fill="#455A64"/>
<path d="M220.682 76.1505C220.838 87.3382 220.795 98.5188 220.867 109.707C220.795 120.887 220.867 132.075 220.682 143.255C220.525 132.075 220.568 120.887 220.504 109.707C220.568 98.5188 220.497 87.3311 220.682 76.1505Z" fill="#455A64"/>
<path d="M239.057 76.1505C239.214 87.3382 239.171 98.5188 239.235 109.707C239.171 120.887 239.235 132.075 239.057 143.255C238.901 132.075 238.944 120.887 238.872 109.707C238.944 98.5188 238.901 87.3311 239.057 76.1505Z" fill="#455A64"/>
<path d="M257.433 76.1505C257.59 87.3382 257.547 98.5188 257.611 109.707C257.547 120.887 257.611 132.075 257.433 143.255C257.277 132.075 257.312 120.887 257.248 109.707C257.319 98.5188 257.277 87.3311 257.433 76.1505Z" fill="#455A64"/>
<path d="M275.809 76.1505C275.965 87.3382 275.923 98.5188 275.987 109.707C275.923 120.887 275.987 132.075 275.809 143.255C275.652 132.075 275.688 120.887 275.624 109.707C275.688 98.5188 275.652 87.3311 275.809 76.1505Z" fill="#455A64"/>
<path opacity="0.5" d="M183.589 123.129C186.834 123.129 188.77 110.973 193.36 110.973C197.95 110.973 198.441 119.841 202.306 119.841C206.17 119.841 206.056 104.262 211.252 104.262C216.447 104.262 215.244 110.582 220.682 110.582C226.119 110.582 224.055 95.8713 229.749 95.8713C235.442 95.8713 233.136 116.097 239.057 116.097C242.808 116.097 244.253 109.692 248.729 109.692C251.69 109.692 253.433 112.902 257.305 112.902C261.177 112.902 262.023 100.547 266.863 100.547C271.702 100.547 272.25 107.856 275.809 107.856C279.367 107.856 280.641 95.8856 287.196 95.8856V143.241H183.589V123.129Z" fill="#407BFF"/>
<path opacity="0.3" d="M183.589 123.129C186.834 123.129 188.77 110.973 193.36 110.973C197.95 110.973 198.441 119.841 202.306 119.841C206.17 119.841 206.056 104.262 211.252 104.262C216.447 104.262 215.244 110.582 220.682 110.582C226.119 110.582 224.055 95.8713 229.749 95.8713C235.442 95.8713 233.136 116.097 239.057 116.097C242.808 116.097 244.253 109.692 248.729 109.692C251.69 109.692 253.433 112.902 257.305 112.902C261.177 112.902 262.023 100.547 266.863 100.547C271.702 100.547 272.25 107.856 275.809 107.856C279.367 107.856 280.641 95.8856 287.196 95.8856V143.241H183.589V123.129Z" fill="#407BFF"/>
<path d="M183.589 123.713V122.545C184.571 122.545 185.923 119.699 186.912 117.635C188.606 114.076 190.364 110.39 193.36 110.39C196.207 110.39 197.666 113.087 198.925 115.464C199.915 117.329 200.932 119.257 202.306 119.257C203.516 119.257 204.562 115.514 205.331 112.781C206.583 108.305 207.878 103.679 211.252 103.679C214.262 103.679 215.444 105.493 216.483 107.095C217.522 108.696 218.369 109.998 220.682 109.998C222.774 109.998 223.592 106.568 224.382 103.252C225.315 99.3515 226.275 95.3162 229.749 95.3162C233.222 95.3162 234.076 100.398 235.008 105.778C235.762 110.126 236.695 115.542 239.057 115.542C240.481 115.542 241.619 114.204 242.844 112.795C244.324 111.073 246.011 109.116 248.729 109.116C250.359 109.116 251.633 109.913 252.864 110.689C254.095 111.464 255.49 112.333 257.305 112.333C258.65 112.333 259.874 109.393 260.863 107.031C262.287 103.565 263.803 99.9778 266.87 99.9778C269.937 99.9778 271.411 102.312 272.734 104.369C273.702 105.871 274.613 107.287 275.816 107.287C276.841 107.287 277.994 105.017 279.019 103.017C280.762 99.5863 282.933 95.3233 287.182 95.3233V96.4976C283.908 96.4976 282.029 100.198 280.364 103.458C278.94 106.255 277.816 108.44 275.816 108.44C273.816 108.44 272.621 106.71 271.446 104.881C270.272 103.052 269.027 101.131 266.87 101.131C264.849 101.131 263.468 104.454 262.244 107.386C260.878 110.653 259.703 113.478 257.312 113.478C254.921 113.478 253.398 112.475 251.982 111.593C250.85 110.881 249.847 110.269 248.736 110.269C246.779 110.269 245.391 111.877 244.039 113.443C242.687 115.009 241.235 116.688 239.057 116.688C235.435 116.688 234.524 111.457 233.563 105.92C232.851 101.707 231.926 96.4692 229.749 96.4692C227.571 96.4692 226.589 100.177 225.813 103.451C224.866 107.408 223.977 111.144 220.682 111.144C217.387 111.144 216.269 109.272 215.194 107.586C214.227 106.091 213.38 104.796 211.252 104.796C209.124 104.796 207.772 109.336 206.747 112.995C205.594 117.115 204.676 120.375 202.306 120.375C199.936 120.375 198.819 118.19 197.587 115.87C196.449 113.735 195.274 111.507 193.36 111.507C191.446 111.507 189.652 115.108 188.271 117.998C186.763 121.215 185.574 123.713 183.589 123.713Z" fill="#407BFF"/>
<path opacity="0.5" d="M239.057 116.126V143.255H220.682V110.582C226.119 110.582 224.055 95.8713 229.749 95.8713C235.442 95.8713 233.136 116.126 239.057 116.126Z" fill="#407BFF"/>
<path d="M229.741 98.4335C231.349 98.4335 232.652 97.1302 232.652 95.5226C232.652 93.9151 231.349 92.6118 229.741 92.6118C228.134 92.6118 226.831 93.9151 226.831 95.5226C226.831 97.1302 228.134 98.4335 229.741 98.4335Z" fill="#263238"/>
<path d="M231.407 95.5226C231.407 95.852 231.309 96.174 231.126 96.4479C230.943 96.7217 230.683 96.9352 230.379 97.0612C230.074 97.1873 229.74 97.2203 229.417 97.156C229.093 97.0917 228.797 96.9331 228.564 96.7002C228.331 96.4673 228.172 96.1706 228.108 95.8475C228.044 95.5245 228.077 95.1896 228.203 94.8853C228.329 94.581 228.542 94.321 228.816 94.138C229.09 93.955 229.412 93.8573 229.741 93.8573C230.183 93.8573 230.607 94.0328 230.919 94.3451C231.231 94.6574 231.407 95.081 231.407 95.5226Z" fill="#407BFF"/>
<path d="M234.987 83.6588H224.425V89.5516H234.987V83.6588Z" fill="#407BFF"/>
<path d="M228.311 89.5516H231.094L229.706 91.5514L228.311 89.5516Z" fill="#407BFF"/>
<path d="M226.396 85.8366C228.625 85.7156 230.858 85.7156 233.086 85.8366C230.858 85.9504 228.625 85.9504 226.396 85.8366Z" fill="white"/>
<path d="M226.396 86.9753C228.625 86.8543 230.858 86.8543 233.086 86.9753C230.858 87.0927 228.625 87.0927 226.396 86.9753Z" fill="white"/>
<path d="M183.589 76.8764C183.709 87.9432 183.809 99.0028 183.816 110.07L183.93 143.255L183.589 142.985L235.378 143.049L261.276 143.106L287.175 143.255L261.276 143.405L235.378 143.462L183.589 143.533H183.247V143.255L183.361 110.07C183.368 99.0028 183.489 87.9432 183.589 76.8764Z" fill="#455A64"/>
<path d="M189.133 148.223C191.579 147.853 194.067 147.853 196.513 148.223C194.066 148.586 191.579 148.586 189.133 148.223Z" fill="#DBDBDB"/>
<path d="M175.803 83.9363C176.892 83.5665 178.073 83.5665 179.162 83.9363C178.072 84.2994 176.893 84.2994 175.803 83.9363Z" fill="#DBDBDB"/>
<path d="M175.803 95.8713C176.893 95.5083 178.072 95.5083 179.162 95.8713C178.073 96.2412 176.892 96.2412 175.803 95.8713Z" fill="#DBDBDB"/>
<path d="M175.803 107.87C176.893 107.507 178.072 107.507 179.162 107.87C178.073 108.24 176.892 108.24 175.803 107.87Z" fill="#DBDBDB"/>
<path d="M175.803 119.841C176.893 119.478 178.072 119.478 179.162 119.841C178.073 120.211 176.892 120.211 175.803 119.841Z" fill="#DBDBDB"/>
<path d="M175.803 131.812C176.892 131.445 178.072 131.445 179.162 131.812C178.072 132.178 176.892 132.178 175.803 131.812Z" fill="#DBDBDB"/>
<path d="M207.238 148.223C209.682 147.853 212.167 147.853 214.611 148.223C212.167 148.586 209.682 148.586 207.238 148.223Z" fill="#DBDBDB"/>
<path d="M225.336 148.223C227.782 147.853 230.27 147.853 232.716 148.223C230.27 148.586 227.783 148.586 225.336 148.223Z" fill="#DBDBDB"/>
<path d="M243.434 148.223C245.88 147.853 248.368 147.853 250.814 148.223C248.368 148.586 245.881 148.586 243.434 148.223Z" fill="#DBDBDB"/>
<path d="M261.532 148.223C263.979 147.853 266.467 147.853 268.913 148.223C266.466 148.586 263.979 148.586 261.532 148.223Z" fill="#DBDBDB"/>
<path d="M279.638 148.223C282.084 147.853 284.572 147.853 287.018 148.223C284.571 148.586 282.084 148.586 279.638 148.223Z" fill="#DBDBDB"/>
<path d="M175.895 65.3756C186.314 64.8916 196.812 64.8916 207.209 65.3756C196.783 65.8595 186.286 65.8595 175.895 65.3756Z" fill="#DBDBDB"/>
<path d="M175.895 68.6707C182.588 68.1795 189.308 68.1795 196 68.6707C189.307 69.1546 182.588 69.1546 175.895 68.6707Z" fill="#DBDBDB"/>
<path d="M267.069 68.6707C273.766 68.3077 280.478 68.3077 287.175 68.6707C280.478 69.0265 273.766 69.0265 267.069 68.6707Z" fill="#407BFF"/>
<path d="M176.593 159.211C187.126 158.728 197.751 158.728 208.291 159.211C197.744 159.695 187.126 159.695 176.593 159.211Z" fill="#263238"/>
<path d="M263.233 159.211C271.209 158.856 279.189 158.856 287.175 159.211C279.199 159.572 271.218 159.572 263.233 159.211Z" fill="#407BFF"/>
<path d="M198.171 169.175C206.467 168.688 214.784 168.688 223.08 169.175C214.784 169.658 206.467 169.658 198.171 169.175Z" fill="#263238"/>
<path d="M198.171 172.826C205.128 172.342 212.109 172.342 219.066 172.826C212.109 173.31 205.128 173.31 198.171 172.826Z" fill="#263238"/>
<path d="M287.175 184.562C286.925 184.32 176.094 185.273 176.351 184.562V165.118V164.848H176.621L231.884 164.905C250.338 164.948 268.792 164.905 287.253 165.019C287.253 165.083 287.146 184.462 287.175 184.54V184.562ZM287.175 184.562L287.096 165.118C269.169 165.446 250.167 165.183 231.884 165.304C232.133 165.111 175.319 165.823 176.856 165.118V184.562C175.347 183.9 287.538 184.768 287.203 184.562H287.175Z" fill="#DBDBDB"/>
<path d="M193.545 167.915H179.454V182.007H193.545V167.915Z" fill="#407BFF"/>
<path d="M283.936 174.961C283.937 176.672 283.315 178.324 282.187 179.609C281.059 180.895 279.501 181.726 277.805 181.948C276.109 182.17 274.391 181.768 272.97 180.816C271.549 179.864 270.522 178.428 270.082 176.775C269.642 175.122 269.818 173.366 270.578 171.833C271.337 170.301 272.629 169.097 274.21 168.446C275.792 167.796 277.557 167.743 279.175 168.297C280.793 168.851 282.154 169.976 283.004 171.46C283.615 172.526 283.936 173.733 283.936 174.961Z" fill="#455A64"/>
<path d="M283.004 171.46L276.891 174.961V167.915C278.131 167.916 279.35 168.244 280.423 168.867C281.497 169.489 282.387 170.383 283.004 171.46Z" fill="#407BFF"/>
<path d="M276.891 179.836C279.583 179.836 281.766 177.654 281.766 174.961C281.766 172.269 279.583 170.086 276.891 170.086C274.198 170.086 272.016 172.269 272.016 174.961C272.016 177.654 274.198 179.836 276.891 179.836Z" fill="white"/>
<path d="M198.171 194.162C206.467 193.679 214.784 193.679 223.08 194.162C214.784 194.646 206.467 194.646 198.171 194.162Z" fill="#263238"/>
<path d="M198.171 197.828C205.128 197.344 212.109 197.344 219.066 197.828C212.109 198.312 205.128 198.312 198.171 197.828Z" fill="#263238"/>
<path d="M287.175 209.563C286.925 209.321 176.094 210.275 176.351 209.563V190.12V189.85H176.621L231.912 189.928C250.366 189.971 268.82 189.928 287.281 190.042C287.281 190.106 287.175 209.485 287.203 209.563H287.175ZM287.175 209.563L287.096 190.12C269.169 190.447 250.167 190.184 231.884 190.305C232.133 190.113 175.319 190.825 176.856 190.12V209.563C175.347 208.901 287.538 209.77 287.203 209.563H287.175Z" fill="#DBDBDB"/>
<path d="M193.545 192.917H179.454V207.008H193.545V192.917Z" fill="#455A64"/>
<path d="M283.936 199.963C283.937 201.673 283.315 203.325 282.187 204.611C281.059 205.896 279.501 206.728 277.805 206.95C276.109 207.172 274.391 206.769 272.97 205.818C271.549 204.866 270.522 203.429 270.082 201.777C269.642 200.124 269.818 198.367 270.578 196.835C271.337 195.302 272.629 194.099 274.21 193.448C275.792 192.797 277.557 192.744 279.175 193.299C280.793 193.853 282.154 194.977 283.004 196.461C283.615 197.527 283.936 198.734 283.936 199.963Z" fill="#455A64"/>
<path d="M283.936 199.963C283.936 200.308 283.909 200.653 283.858 200.995L276.891 199.963V192.917C278.759 192.917 280.551 193.659 281.873 194.981C283.194 196.302 283.936 198.094 283.936 199.963Z" fill="#407BFF"/>
<path d="M281.759 199.963C281.76 200.927 281.475 201.871 280.94 202.674C280.405 203.477 279.644 204.103 278.752 204.472C277.861 204.842 276.881 204.939 275.934 204.752C274.988 204.564 274.119 204.099 273.436 203.417C272.754 202.735 272.29 201.865 272.102 200.919C271.914 199.973 272.011 198.992 272.381 198.101C272.751 197.21 273.377 196.448 274.18 195.913C274.982 195.378 275.926 195.093 276.891 195.095C278.181 195.097 279.418 195.61 280.331 196.523C281.243 197.435 281.757 198.672 281.759 199.963Z" fill="white"/>
<path d="M198.171 219.164C206.467 218.681 214.784 218.681 223.08 219.164C214.784 219.647 206.467 219.647 198.171 219.164Z" fill="#263238"/>
<path d="M198.171 222.829C205.128 222.345 212.109 222.345 219.066 222.829C212.109 223.313 205.128 223.313 198.171 222.829Z" fill="#263238"/>
<path d="M287.175 234.565C286.925 234.323 176.094 235.277 176.351 234.565V215.122V214.851H176.621L231.912 214.929C250.366 214.972 268.82 214.929 287.281 215.043C287.281 215.107 287.175 234.487 287.203 234.565H287.175ZM287.175 234.565L287.096 215.122C269.169 215.449 250.167 215.186 231.884 215.307C232.133 215.115 175.319 215.826 176.856 215.122V234.565C175.347 233.903 287.538 234.771 287.203 234.565H287.175Z" fill="#DBDBDB"/>
<path d="M193.545 217.919H179.454V232.01H193.545V217.919Z" fill="#407BFF"/>
<path d="M283.936 224.964C283.937 226.389 283.506 227.78 282.699 228.954C281.892 230.129 280.747 231.03 279.417 231.54C278.611 231.852 277.755 232.012 276.891 232.01C275.497 232.01 274.135 231.597 272.976 230.823C271.818 230.048 270.915 228.948 270.381 227.66C269.848 226.373 269.708 224.956 269.98 223.59C270.252 222.223 270.923 220.968 271.909 219.982C272.894 218.997 274.149 218.326 275.516 218.054C276.883 217.782 278.299 217.922 279.587 218.455C280.874 218.988 281.975 219.891 282.749 221.05C283.523 222.208 283.936 223.571 283.936 224.964Z" fill="#455A64"/>
<path d="M283.936 224.964C283.937 226.389 283.506 227.78 282.699 228.954C281.892 230.129 280.747 231.03 279.417 231.54L276.891 224.964V217.919C278.759 217.919 280.551 218.661 281.873 219.982C283.194 221.303 283.936 223.096 283.936 224.964Z" fill="#407BFF"/>
<path d="M281.759 224.964C281.76 225.929 281.475 226.873 280.94 227.675C280.405 228.478 279.644 229.104 278.752 229.474C277.861 229.844 276.881 229.941 275.934 229.753C274.988 229.565 274.119 229.101 273.436 228.419C272.754 227.736 272.29 226.867 272.102 225.921C271.914 224.974 272.011 223.994 272.381 223.102C272.751 222.211 273.377 221.45 274.18 220.915C274.982 220.38 275.926 220.095 276.891 220.096C278.181 220.098 279.418 220.612 280.331 221.524C281.243 222.437 281.757 223.674 281.759 224.964Z" fill="white"/>
<path d="M298.07 227.726C289.274 239.646 280.093 253.474 277.859 268.427C277.853 268.453 277.853 268.479 277.858 268.505C277.864 268.531 277.874 268.555 277.888 268.577C277.903 268.599 277.921 268.617 277.943 268.632C277.965 268.646 277.989 268.657 278.015 268.662C278.041 268.667 278.067 268.667 278.093 268.662C278.119 268.657 278.143 268.647 278.165 268.632C278.187 268.618 278.206 268.599 278.22 268.577C278.235 268.555 278.245 268.531 278.25 268.505C279.26 264.428 280.559 260.428 282.136 256.535C287.922 254.94 293.608 253.631 296.64 247.888C299.743 241.988 299.351 234.287 298.775 227.854C298.697 227.533 298.227 227.533 298.07 227.726Z" fill="#407BFF"/>
<path d="M282.207 256.421C286.157 247.546 291.238 238.629 297.686 231.341C297.729 231.291 297.8 231.341 297.757 231.412C293.53 236.607 290.32 242.272 287.189 248.03C290.107 245.069 293.295 242.422 296.056 239.283C296.113 239.219 296.199 239.283 296.149 239.369C293.402 242.657 290.413 246.237 286.84 248.671C285.879 250.435 284.918 252.229 283.936 253.98C284.178 253.844 284.427 253.723 284.648 253.602C284.691 253.602 284.733 253.645 284.691 253.667C284.413 253.809 284.143 253.951 283.865 254.072C283.403 254.912 282.94 255.752 282.442 256.584C282.413 256.77 282.122 256.606 282.207 256.421Z" fill="#263238"/>
<path d="M285.146 253.325C287.512 252.001 289.771 250.492 291.9 248.813C291.957 248.77 292.042 248.848 291.986 248.898C289.923 250.682 287.661 252.222 285.246 253.489C285.235 253.495 285.223 253.5 285.211 253.502C285.198 253.503 285.186 253.503 285.173 253.5C285.161 253.497 285.15 253.492 285.139 253.484C285.129 253.477 285.121 253.467 285.114 253.457C285.108 253.446 285.103 253.434 285.101 253.422C285.099 253.409 285.1 253.396 285.103 253.384C285.106 253.372 285.111 253.36 285.119 253.35C285.126 253.34 285.135 253.332 285.146 253.325Z" fill="#263238"/>
<path d="M276.82 266.206C276.82 266.384 277.147 266.384 277.14 266.206C277.19 261.282 277.14 256.335 277.218 251.389C278.478 248.848 281.189 247.439 283.068 245.397C284.423 243.909 285.601 242.268 286.577 240.507C288.849 236.307 290.237 231.686 290.655 226.928C291.174 221.662 289.174 204.29 286.954 204.866C285.801 205.172 282.079 213.784 281.09 216.63C279.488 221.335 278.316 226.175 277.588 231.092C275.788 242.65 275.937 254.578 276.82 266.206Z" fill="#407BFF"/>
<path d="M276.784 244.97C277.054 238.743 278.456 232.451 279.773 226.409C281.196 219.904 282.84 213.777 286.178 207.969C286.235 207.862 286.399 207.969 286.342 208.069C284.109 212.583 282.381 217.331 281.189 222.224C281.41 221.868 281.68 221.513 281.901 221.207C281.993 221.078 282.207 221.207 282.122 221.335C281.82 221.86 281.468 222.353 281.068 222.808C281.062 222.811 281.054 222.813 281.047 222.813C281.039 222.813 281.032 222.811 281.026 222.808C279.873 227.462 279.047 232.216 278.342 236.963C278.392 236.906 278.442 236.842 278.499 236.785C278.556 236.728 278.592 236.785 278.57 236.835C278.485 236.999 278.385 237.148 278.286 237.312C277.93 239.718 277.574 242.123 277.268 244.507C281.538 240.842 285.217 236.515 287.288 231.192C287.288 231.192 287.338 231.192 287.324 231.192C285.303 236.714 282.114 241.625 277.197 244.977C277.111 245.617 277.019 246.258 276.926 246.898C276.926 247.027 276.698 246.998 276.698 246.863C276.698 246.301 276.698 245.731 276.748 245.162C276.738 245.147 276.73 245.13 276.726 245.112C276.722 245.095 276.722 245.076 276.725 245.058C276.728 245.04 276.735 245.023 276.745 245.008C276.756 244.993 276.769 244.98 276.784 244.97Z" fill="#263238"/>
<path d="M278.805 235.946C282.086 231.049 285.146 226.302 287.545 220.893C287.55 220.879 287.561 220.868 287.575 220.862C287.589 220.856 287.605 220.856 287.619 220.861C287.633 220.867 287.645 220.878 287.651 220.892C287.657 220.906 287.657 220.922 287.651 220.936C285.63 226.309 282.798 231.754 278.969 236.074C278.95 236.089 278.927 236.097 278.903 236.097C278.879 236.097 278.855 236.089 278.836 236.074C278.817 236.06 278.804 236.039 278.798 236.015C278.793 235.992 278.795 235.967 278.805 235.946Z" fill="#263238"/>
<path d="M283.161 219.705C284.52 217.299 285.95 214.965 287.231 212.517C287.267 212.446 287.36 212.517 287.331 212.574C286.282 215.13 284.953 217.563 283.367 219.826C283.349 219.848 283.323 219.864 283.295 219.869C283.266 219.874 283.237 219.869 283.212 219.854C283.187 219.839 283.168 219.816 283.159 219.789C283.149 219.762 283.15 219.732 283.161 219.705Z" fill="#263238"/>
<path d="M282.627 220.73V220.773C282.627 220.773 282.605 220.73 282.627 220.73Z" fill="#263238"/>
<path d="M273.489 251.966C273.421 255.238 273.035 258.497 272.336 261.694C272.386 262.043 272.435 262.406 272.492 262.755C273.497 259.233 274.077 255.604 274.222 251.944C274.252 251.894 274.268 251.836 274.268 251.777C274.268 251.718 274.252 251.66 274.222 251.61C274.373 246.692 274.017 241.772 273.161 236.928C271.638 227.875 268.308 219.192 261.995 212.417C261.943 212.369 261.88 212.334 261.812 212.315C261.744 212.296 261.672 212.293 261.603 212.307C261.533 212.321 261.468 212.351 261.413 212.395C261.357 212.439 261.313 212.495 261.283 212.56C258.736 219.036 259.625 226.793 261.796 233.198C262.968 236.696 264.646 240.002 266.778 243.013C268.97 246.073 271.738 248.642 273.489 251.966Z" fill="#407BFF"/>
<path d="M262.735 215.435C268.713 225.142 272.877 236.65 273.41 248.115C273.41 248.315 273.076 248.372 273.048 248.158C272.905 247.133 272.749 246.108 272.585 245.091C270.108 242.721 267.568 240.223 265.795 237.262C265.795 237.205 265.845 237.148 265.881 237.191C267.928 239.711 270.121 242.109 272.45 244.372C272.023 241.838 271.513 239.343 270.92 236.885C270.756 236.707 270.599 236.515 270.443 236.33C270.286 236.145 270.514 236.031 270.621 236.152L270.763 236.316C269.923 232.946 268.88 229.631 267.639 226.388C266.116 224.573 264.415 223 263.305 220.815C263.305 220.765 263.347 220.723 263.383 220.765C264.272 222.018 265.141 223.278 266.151 224.438C266.55 224.9 266.998 225.334 267.411 225.783C266.024 222.264 264.378 218.852 262.486 215.577C262.415 215.435 262.643 215.3 262.735 215.435Z" fill="#263238"/>
<path d="M263.945 227.42C265.874 230.017 268.08 232.501 269.873 235.191C269.923 235.262 269.816 235.341 269.752 235.284C267.439 233.149 265.482 230.16 263.81 227.491C263.76 227.405 263.909 227.341 263.945 227.42Z" fill="#263238"/>
<path d="M270.144 235.789L270.229 235.874C270.286 235.931 270.194 236.017 270.137 235.96L270.058 235.881C270.002 235.825 270.087 235.732 270.144 235.789Z" fill="#263238"/>
<path d="M253.362 234.102C254.071 239.522 256.255 244.642 259.675 248.905C261.083 250.579 262.826 251.939 264.792 252.898C267.005 253.994 269.325 255.261 271.624 256.157C272.71 258.934 273.519 261.811 274.037 264.748C274.115 264.498 274.186 264.235 274.257 263.986C272.791 251.346 264.607 240.5 254.145 233.604C254.063 233.552 253.968 233.524 253.87 233.524C253.773 233.524 253.678 233.552 253.595 233.604C253.513 233.657 253.448 233.731 253.406 233.819C253.365 233.908 253.35 234.006 253.362 234.102Z" fill="#407BFF"/>
<path d="M256.978 237.839C256.906 237.767 256.978 237.639 257.084 237.696C262.835 241.972 267.421 247.622 270.421 254.129C270.493 254.3 270.258 254.457 270.158 254.279C269.674 253.432 269.176 252.599 268.671 251.788C266.287 251.339 264.023 249.653 262.265 248.058C262.216 248.016 262.265 247.945 262.337 247.987C263.248 248.824 264.262 249.541 265.354 250.122C266.329 250.613 267.375 250.927 268.393 251.318C267.503 249.895 266.585 248.571 265.625 247.261C263.035 246.271 260.607 244.898 258.422 243.191C258.351 243.141 258.422 243.034 258.486 243.077C260.648 244.378 262.877 245.566 265.162 246.635C263.701 244.712 262.128 242.878 260.451 241.141C259.639 240.714 258.814 240.287 258.031 239.824C258.023 239.821 258.016 239.816 258.01 239.81C258.004 239.804 257.999 239.797 257.995 239.789C257.992 239.781 257.99 239.772 257.99 239.764C257.99 239.755 257.992 239.747 257.995 239.739C257.999 239.731 258.003 239.724 258.009 239.718C258.016 239.712 258.023 239.707 258.031 239.703C258.039 239.7 258.047 239.698 258.056 239.698C258.064 239.698 258.073 239.7 258.081 239.703C258.734 239.933 259.357 240.239 259.938 240.614C258.992 239.696 258.024 238.757 256.978 237.839Z" fill="#263238"/>
<path d="M257.205 242.201C257.345 242.286 257.479 242.381 257.604 242.486C257.647 242.522 257.604 242.571 257.554 242.557C257.409 242.486 257.269 242.405 257.134 242.315C257.063 242.272 257.127 242.151 257.205 242.201Z" fill="#263238"/>
<path d="M290.591 292.119H261.917L264.23 266.007L264.742 260.25H287.765L288.278 266.007L290.591 292.119Z" fill="#455A64"/>
<path d="M288.278 266.007H264.23L264.742 260.25H287.765L288.278 266.007Z" fill="#263238"/>
<path d="M289.139 256.229H263.369V261.929H289.139V256.229Z" fill="#455A64"/>
<path d="M156.722 40.6587C156.726 45.2044 155.466 49.6617 153.081 53.532C150.697 57.4023 147.283 60.5332 143.222 62.5744C139.16 64.6155 134.611 65.4866 130.082 65.0902C125.554 64.6938 121.225 63.0455 117.58 60.3297L105.573 63.3971L110.555 52.2165C108.795 48.9308 107.808 45.2871 107.669 41.5626C107.529 37.838 108.241 34.1306 109.75 30.7225C111.258 27.3143 113.525 24.2951 116.376 21.8946C119.227 19.4941 122.588 17.7754 126.204 16.8693C129.819 15.9632 133.593 15.8936 137.24 16.6658C140.886 17.4379 144.308 19.0314 147.246 21.3252C150.184 23.619 152.56 26.5525 154.193 29.9027C155.827 33.2529 156.675 36.9315 156.672 40.6587H156.722Z" fill="white"/>
<path d="M156.722 40.6587C156.721 45.2175 155.456 49.6868 153.069 53.5704C150.681 57.4539 147.264 60.5999 143.197 62.659C139.129 64.7181 134.571 65.6097 130.028 65.235C125.484 64.8603 121.134 63.2338 117.459 60.5361L117.672 60.5788L105.68 63.696L105.054 63.8597L105.317 63.269L110.299 52.0741V52.3802C108.504 49.0558 107.505 45.36 107.381 41.5839C106.869 30.1115 115.003 19.2867 126.205 16.7175C141.514 12.8033 156.858 24.8877 156.722 40.6587ZM156.722 40.6587C156.772 24.9375 141.521 13.0096 126.305 17.0947C115.452 19.7208 107.488 30.4317 108.05 41.5554C108.196 45.2243 109.169 48.8128 110.897 52.0528L110.975 52.2022L110.911 52.3588L105.915 63.5252L105.559 63.0911L117.58 60.0877H117.693C121.305 62.8231 125.608 64.4967 130.119 64.9205C134.63 65.3442 139.17 64.5011 143.228 62.4862C147.286 60.4712 150.701 57.3642 153.09 53.5145C155.479 49.6648 156.747 45.225 156.751 40.6943L156.722 40.6587Z" fill="#263238"/>
<path d="M128.241 55.2411L117.259 44.1175L120.946 40.4736L127.365 46.9713L140.695 26.0691L145.065 28.8589L128.241 55.2411Z" fill="#407BFF"/>
<path d="M119.437 132.523C121.223 132.262 122.897 131.497 124.263 130.317C125.629 129.138 126.629 127.593 127.147 125.864C127.665 124.135 127.679 122.294 127.187 120.558C126.695 118.822 125.717 117.262 124.369 116.062C128.141 115.137 131.344 112.454 131.571 108.233C131.813 103.856 128.653 100.533 124.526 99.6931C124.526 99.6931 124.483 99.7358 124.526 99.7501C128.191 100.931 131.166 104.141 130.888 108.176C130.653 111.628 128.447 113.742 125.636 114.895C126.73 113.963 127.622 112.817 128.255 111.526C128.887 110.236 129.248 108.829 129.315 107.394C129.34 105.789 128.888 104.212 128.016 102.864C127.144 101.517 125.892 100.457 124.419 99.8212C125.885 96.4621 126.283 92.3628 124.362 89.089C123.582 87.7175 122.42 86.6027 121.017 85.8811C119.614 85.1594 118.031 84.862 116.462 85.0253C116.881 83.2999 116.785 81.4896 116.185 79.8184C115.586 78.1473 114.509 76.6888 113.088 75.6236C111.668 74.5584 109.966 73.9334 108.194 73.8259C106.422 73.7184 104.657 74.1332 103.118 75.0189C103.295 73.7501 103.148 72.4573 102.692 71.26C102.237 70.0628 101.486 68.9999 100.511 68.1697C99.5349 67.3395 98.3656 66.7689 97.1109 66.5106C95.8561 66.2524 94.5565 66.3148 93.3323 66.6922C93.2777 65.7115 92.942 64.7673 92.3652 63.9723C91.7885 63.1772 90.9952 62.565 90.0799 62.2086C87.9449 61.2976 85.5963 61.7958 83.5111 62.6427C82.9269 61.8 82.1406 61.1173 81.2243 60.6573C80.3079 60.1972 79.2907 59.9745 78.2659 60.0095C76.9477 60.1001 75.7048 60.6568 74.7595 61.58C73.8142 62.5032 73.2281 63.7325 73.1062 65.0482C69.5477 64.1871 65.5623 63.7529 62.2316 65.5464C59.4916 67.0267 57.4348 69.9944 57.8049 73.1543C56.2559 72.9901 54.6897 73.1563 53.2096 73.6419C51.7296 74.1274 50.3693 74.9213 49.2186 75.9712C48.0679 77.021 47.1528 78.3029 46.5339 79.7324C45.915 81.1618 45.6062 82.7062 45.628 84.2638C44.2963 84.5256 43.0569 85.1329 42.0339 86.0248C41.0109 86.9166 40.2403 88.0617 39.7992 89.3452C39.1171 91.0861 38.8727 92.9678 39.0876 94.8252C37.9111 95.145 36.8654 95.8273 36.0988 96.7753C35.3323 97.7232 34.8839 98.8886 34.8174 100.106C34.668 102.54 35.8565 104.49 37.4934 106.091C37.6404 106.735 37.6404 107.404 37.4934 108.048C37.143 109.678 37.2028 111.37 37.6674 112.971C38.1319 114.572 38.9867 116.033 40.1551 117.222C39.6886 118.081 39.4105 119.029 39.3393 120.003C39.2681 120.978 39.4055 121.956 39.7422 122.873C40.0789 123.791 40.6073 124.625 41.2921 125.322C41.9769 126.019 42.8024 126.562 43.7135 126.915C43.3261 128.907 43.7374 130.971 44.8585 132.662C45.9796 134.353 47.7207 135.535 49.7059 135.954C49.5135 137.557 49.6681 139.183 50.1593 140.722C50.6505 142.261 51.4667 143.676 52.5527 144.871C54.2678 146.707 56.9651 148.017 59.3706 147.077C59.3279 149.056 61.342 150.458 63.2564 150.636C63.9846 150.677 64.7151 150.637 65.4342 150.515C66.2811 150.387 67.3415 150.002 68.1955 150.187C69.0496 150.372 69.7114 151.219 70.4018 151.739C70.9007 152.112 71.4374 152.432 72.0031 152.692C74.1345 153.626 76.5206 153.806 78.7678 153.202C81.0151 152.598 82.9894 151.246 84.3651 149.369C87.041 151.362 90.6137 150.621 93.375 149.042C94.2551 148.505 95.0884 147.896 95.8659 147.22C96.5249 146.573 97.3675 146.145 98.2786 145.995C98.8764 145.924 99.4955 145.995 100.1 145.924C102.15 145.704 103.538 144.287 104.741 142.743C112.114 147.775 120.384 140.651 119.437 132.523ZM35.6145 101.266C35.4973 100.001 35.777 98.73 36.4146 97.6307C37.0523 96.5313 38.0163 95.6578 39.173 95.1312C39.173 95.3234 39.2441 95.4444 39.2441 95.4444C39.2441 95.4444 38.6107 96.0066 38.3332 96.3126C37.8368 96.8779 37.4267 97.5134 37.1162 98.1986C36.4523 99.6314 36.2293 101.229 36.4757 102.789C36.601 103.477 36.8113 104.146 37.1019 104.782C37.1019 104.867 37.1589 104.945 37.1945 105.024C36.3298 103.942 35.7828 102.641 35.6145 101.266ZM79.4473 61.7104C78.2419 61.6245 77.0392 61.9109 76.0019 62.5308C74.9645 63.1507 74.1426 64.0741 73.6471 65.1763L73.4549 65.1265C74.1168 62.6925 75.3907 60.65 78.3086 60.5219C79.2094 60.4918 80.1022 60.6988 80.8978 61.1222C81.6934 61.5456 82.3639 62.1705 82.8421 62.9345H82.8065C81.8238 62.2193 80.6597 61.7951 79.4473 61.7104ZM104.983 142.416C105.001 142.393 105.018 142.369 105.032 142.345C107.644 143.254 110.507 143.11 113.014 141.943C115.522 140.777 117.476 138.679 118.462 136.096C116.683 141.96 111.751 145.995 104.983 142.416Z" fill="#263238"/>
<path d="M82.5004 175.445C96.9192 206.297 121.359 248.037 132.575 249.795C139.35 250.848 150.808 251.766 159.512 243.561C178.514 225.662 191.538 200.091 198.755 186.96C202.028 180.996 165.398 154.465 160.793 160.094C149.997 173.26 137.82 198.781 135.82 198.703C128.433 198.404 117.473 180.42 99.5738 163.745C78.0168 143.647 76.3444 162.265 82.5004 175.445Z" fill="#AD6359"/>
<path d="M193.531 195.308C202.583 185.651 214.469 171.26 214.497 165.204C214.497 158.856 213.736 136.509 211.878 131.377C210.021 126.246 200.078 113.009 195.509 111.265C191.858 109.842 189.908 114.382 194.15 122.581C198.897 131.748 197.445 135.448 197.666 138.388C197.893 141.434 192.791 154.386 188.513 155.468C185.987 156.116 180.749 156.087 179.56 151.532C178.372 146.978 179.56 142.864 177.802 134.922C176.422 128.744 171.262 124.908 169.134 125.99C167.006 127.072 168.771 130.765 167.369 140.017C166.494 145.789 165.64 149.931 158.758 158.365C152.737 165.745 152.353 175.965 152.353 175.965L193.531 195.308Z" fill="#AD6359"/>
<path d="M214.917 150.963C214.668 147.483 217.052 136.936 216.226 132.338C215.401 127.741 210.006 110.817 204.839 109.436C198.37 107.707 200.292 121.464 201.665 127.364C203.039 133.263 199.267 143.896 199.267 143.896L208.17 147.682L214.917 150.963Z" fill="#AD6359"/>
<path d="M197.993 146.323C199.587 140.971 201.551 135.534 201.644 129.911C201.366 125.883 200.562 121.919 200.37 117.862C200.313 115.457 200.164 112.831 201.381 110.653C201.588 110.296 201.873 109.99 202.216 109.759C202.559 109.529 202.95 109.379 203.359 109.322C202.971 109.412 202.607 109.587 202.294 109.833C201.98 110.078 201.724 110.39 201.544 110.746C200.527 112.938 200.769 115.464 200.918 117.827C201.189 121.029 201.715 124.232 202.128 127.442C202.961 133.968 200.313 140.352 197.993 146.323Z" fill="#263238"/>
<path d="M214.618 153.995C215.33 150.607 220.518 141.241 221.023 136.615C221.528 131.989 221.066 114.304 216.554 111.493C210.86 107.934 208.91 121.634 208.59 127.662C208.27 133.69 201.729 142.722 201.729 142.722L209.145 148.913L214.618 153.995Z" fill="#AD6359"/>
<path d="M199.815 144.657C202.818 140.017 206.22 135.406 207.821 130.054C208.675 126.147 209.003 122.147 209.956 118.233C210.569 115.927 211.145 113.379 212.91 111.649C213.206 111.365 213.563 111.153 213.955 111.029C214.346 110.906 214.761 110.874 215.166 110.938C214.77 110.907 214.373 110.966 214.003 111.11C213.634 111.255 213.301 111.48 213.031 111.77C211.458 113.578 210.988 116.041 210.476 118.332C209.85 121.464 209.473 124.638 208.974 127.819C207.978 134.26 203.679 139.626 199.815 144.643V144.657Z" fill="#263238"/>
<path d="M201.032 152.806C196.876 156.251 191.068 157.532 185.802 157.881C181.777 158.025 177.832 159.04 174.237 160.855C173.035 161.46 171.868 162.133 170.743 162.87C174.998 159.402 180.261 157.404 185.745 157.176C191.033 156.806 196.527 155.753 201.025 152.799L201.032 152.806Z" fill="#263238"/>
<path d="M214.177 113.108L195.346 164.122C195.075 164.817 194.574 165.399 193.926 165.769C193.279 166.14 192.524 166.277 191.787 166.158L166.202 161.062C165.873 161.003 165.561 160.87 165.29 160.673C165.019 160.476 164.797 160.221 164.639 159.926C164.481 159.631 164.391 159.304 164.377 158.969C164.363 158.635 164.425 158.302 164.558 157.995L183.389 106.988C183.655 106.289 184.155 105.703 184.804 105.331C185.452 104.959 186.21 104.822 186.948 104.945L212.533 110.041C212.862 110.1 213.174 110.233 213.445 110.43C213.715 110.627 213.938 110.882 214.096 111.177C214.254 111.472 214.344 111.799 214.358 112.134C214.372 112.468 214.31 112.801 214.177 113.108Z" fill="#37474F"/>
<path d="M210.96 109.728L185.339 104.639C184.602 104.516 183.845 104.651 183.197 105.022C182.548 105.393 182.048 105.977 181.781 106.675L162.95 157.681C162.817 157.989 162.755 158.322 162.769 158.656C162.783 158.991 162.872 159.317 163.03 159.612C163.188 159.907 163.411 160.163 163.682 160.36C163.952 160.556 164.264 160.689 164.594 160.749L190.214 165.844C190.951 165.966 191.707 165.831 192.356 165.46C193.004 165.089 193.504 164.506 193.773 163.809L212.604 112.802C212.738 112.495 212.801 112.161 212.788 111.826C212.775 111.49 212.685 111.163 212.527 110.867C212.369 110.571 212.146 110.315 211.874 110.117C211.603 109.92 211.29 109.787 210.96 109.728ZM192.741 161.909C192.512 162.554 192.068 163.102 191.484 163.459C190.9 163.817 190.21 163.963 189.531 163.873L166.636 159.318C166.334 159.253 166.05 159.12 165.806 158.929C165.562 158.738 165.364 158.495 165.227 158.217C165.09 157.939 165.018 157.634 165.015 157.325C165.013 157.015 165.08 156.709 165.213 156.429L182.777 108.931C183.788 106.191 184.912 106.269 186.158 106.525L190.741 107.436C191.011 107.486 191.118 107.828 190.983 108.191L190.926 108.347C190.613 109.194 191.09 109.294 191.68 109.415L202.285 111.55C202.882 111.664 203.359 111.756 203.708 110.909L203.765 110.753C203.9 110.383 204.22 110.134 204.477 110.191L209.06 111.101C210.341 111.358 211.245 111.927 210.319 114.432L192.741 161.909Z" fill="#263238"/>
<path d="M210.277 114.411L192.741 161.909C192.512 162.554 192.068 163.102 191.484 163.459C190.9 163.817 190.21 163.963 189.531 163.873L166.636 159.318C166.334 159.253 166.05 159.12 165.806 158.929C165.562 158.738 165.364 158.495 165.227 158.217C165.09 157.939 165.018 157.634 165.015 157.325C165.013 157.015 165.08 156.709 165.213 156.429L182.777 108.931C183.788 106.191 184.912 106.269 186.158 106.525L190.741 107.436C191.011 107.486 191.118 107.828 190.983 108.191L190.926 108.347C190.613 109.194 191.09 109.294 191.68 109.415L202.285 111.55C202.882 111.664 203.359 111.756 203.708 110.909L203.765 110.753C203.9 110.383 204.22 110.134 204.477 110.191L209.06 111.101C210.298 111.336 211.202 111.906 210.277 114.411Z" fill="white"/>
<path d="M189.531 108.347H189.467C189.43 108.279 189.379 108.221 189.316 108.176C189.253 108.132 189.18 108.103 189.104 108.091C188.935 108.064 188.762 108.094 188.613 108.176V108.127L188.684 108.084L188.848 108.034C188.912 108.027 188.976 108.027 189.04 108.034H189.204H189.261C189.311 108.048 189.359 108.07 189.403 108.098L189.495 108.169C189.523 108.197 189.547 108.228 189.567 108.262L189.602 108.312L189.531 108.347Z" fill="#C7C7C7"/>
<path d="M188.67 108.39L188.627 108.312C188.727 108.25 188.844 108.22 188.962 108.226C189.039 108.229 189.114 108.252 189.18 108.291C189.246 108.331 189.3 108.387 189.339 108.454L189.246 108.504C189.22 108.459 189.184 108.42 189.141 108.39C189.098 108.361 189.049 108.341 188.997 108.333C188.885 108.313 188.769 108.334 188.67 108.39Z" fill="#C7C7C7"/>
<path d="M189.182 108.561L189.09 108.611C189.076 108.589 189.059 108.57 189.038 108.556C189.017 108.541 188.994 108.531 188.969 108.525C188.914 108.504 188.853 108.504 188.798 108.525L188.755 108.447C188.79 108.424 188.83 108.409 188.871 108.403C188.912 108.397 188.954 108.399 188.994 108.41C189.034 108.42 189.072 108.439 189.104 108.465C189.137 108.491 189.163 108.524 189.182 108.561Z" fill="#C7C7C7"/>
<path d="M188.948 108.682C188.941 108.698 188.928 108.711 188.913 108.718C188.897 108.726 188.879 108.729 188.862 108.725C188.855 108.724 188.847 108.72 188.841 108.716C188.835 108.711 188.829 108.705 188.825 108.699C188.821 108.692 188.819 108.685 188.818 108.677C188.817 108.669 188.817 108.661 188.819 108.654C188.827 108.637 188.839 108.624 188.854 108.615C188.87 108.606 188.888 108.602 188.905 108.603C188.914 108.605 188.922 108.608 188.929 108.613C188.936 108.618 188.942 108.625 188.946 108.632C188.95 108.64 188.952 108.648 188.953 108.657C188.953 108.666 188.952 108.674 188.948 108.682Z" fill="#C7C7C7"/>
<path d="M185.161 107.614C185.181 107.566 185.217 107.526 185.262 107.501C185.307 107.475 185.359 107.465 185.41 107.472C185.433 107.476 185.454 107.486 185.473 107.5C185.492 107.514 185.507 107.531 185.518 107.552C185.529 107.572 185.535 107.595 185.536 107.618C185.537 107.641 185.533 107.664 185.524 107.685C185.507 107.735 185.472 107.776 185.426 107.803C185.38 107.829 185.327 107.838 185.275 107.828C185.252 107.823 185.231 107.814 185.213 107.8C185.194 107.786 185.179 107.768 185.168 107.748C185.157 107.727 185.151 107.705 185.15 107.682C185.148 107.659 185.152 107.636 185.161 107.614Z" fill="#C7C7C7"/>
<path d="M185.738 107.728C185.757 107.679 185.792 107.639 185.837 107.613C185.882 107.587 185.935 107.577 185.987 107.586C186.01 107.59 186.031 107.6 186.05 107.614C186.068 107.627 186.083 107.645 186.094 107.666C186.105 107.686 186.111 107.709 186.113 107.732C186.114 107.755 186.11 107.778 186.101 107.799C186.082 107.848 186.047 107.889 186.001 107.915C185.956 107.94 185.903 107.95 185.852 107.942C185.829 107.937 185.808 107.927 185.789 107.914C185.77 107.9 185.755 107.882 185.744 107.862C185.733 107.841 185.727 107.819 185.726 107.796C185.725 107.773 185.729 107.749 185.738 107.728Z" fill="#C7C7C7"/>
<path d="M186.336 107.842C186.355 107.795 186.389 107.756 186.433 107.731C186.477 107.705 186.527 107.694 186.578 107.7C186.601 107.703 186.623 107.712 186.642 107.726C186.662 107.739 186.678 107.757 186.69 107.777C186.701 107.798 186.708 107.821 186.71 107.844C186.711 107.868 186.707 107.891 186.699 107.913C186.68 107.962 186.645 108.003 186.599 108.028C186.554 108.054 186.501 108.064 186.449 108.055C186.426 108.052 186.404 108.043 186.384 108.03C186.365 108.016 186.349 107.999 186.338 107.978C186.327 107.957 186.321 107.934 186.321 107.91C186.32 107.887 186.325 107.863 186.336 107.842Z" fill="#C7C7C7"/>
<path d="M186.884 107.97C186.904 107.923 186.939 107.884 186.985 107.859C187.03 107.834 187.082 107.826 187.133 107.835C187.156 107.838 187.178 107.847 187.198 107.861C187.217 107.874 187.233 107.892 187.245 107.912C187.256 107.933 187.263 107.956 187.265 107.979C187.266 108.003 187.263 108.026 187.254 108.048C187.233 108.095 187.197 108.133 187.152 108.158C187.107 108.182 187.055 108.191 187.005 108.184C186.981 108.18 186.959 108.171 186.94 108.158C186.92 108.144 186.904 108.127 186.892 108.106C186.881 108.085 186.874 108.063 186.872 108.039C186.871 108.015 186.875 107.992 186.884 107.97Z" fill="#C7C7C7"/>
<path d="M187.46 108.07C187.48 108.022 187.516 107.983 187.561 107.959C187.606 107.934 187.658 107.926 187.709 107.934C187.733 107.938 187.755 107.946 187.774 107.96C187.794 107.973 187.809 107.991 187.821 108.012C187.832 108.033 187.838 108.056 187.838 108.08C187.839 108.103 187.833 108.127 187.823 108.148C187.803 108.195 187.767 108.234 187.722 108.259C187.677 108.284 187.625 108.292 187.574 108.283C187.551 108.279 187.53 108.269 187.511 108.255C187.493 108.242 187.477 108.224 187.467 108.203C187.456 108.183 187.449 108.16 187.448 108.137C187.447 108.114 187.451 108.091 187.46 108.07Z" fill="#C7C7C7"/>
<path d="M208.69 112.717L207.202 112.418L207.451 111.749L208.932 112.048L208.69 112.717ZM207.309 112.361L208.64 112.624L208.832 112.105L207.494 111.842L207.309 112.361Z" fill="#C7C7C7"/>
<path d="M208.49 112.084L207.53 111.891L207.366 112.333L208.327 112.518L208.49 112.084Z" fill="#C7C7C7"/>
<path d="M208.882 112.589L208.747 112.56L208.875 112.205L209.01 112.226L208.882 112.589Z" fill="#C7C7C7"/>
<path d="M198.797 109.692L195.901 109.116C195.878 109.112 195.857 109.104 195.838 109.091C195.82 109.078 195.804 109.06 195.793 109.04C195.782 109.021 195.776 108.998 195.775 108.976C195.774 108.953 195.778 108.93 195.787 108.909C195.807 108.863 195.841 108.825 195.885 108.801C195.929 108.776 195.979 108.767 196.029 108.774L198.925 109.351C198.948 109.354 198.969 109.363 198.988 109.376C199.006 109.389 199.022 109.406 199.033 109.426C199.044 109.446 199.05 109.468 199.051 109.491C199.052 109.514 199.048 109.536 199.039 109.557C199.02 109.604 198.986 109.643 198.942 109.667C198.898 109.692 198.847 109.701 198.797 109.692Z" fill="white"/>
<path d="M168.928 156.77L168.793 156.749L168.572 157.347L168.323 157.297L168.437 156.991L167.988 156.899L167.874 157.205L167.625 157.155L167.846 156.557L167.711 156.528L168.543 156.044L168.928 156.77Z" fill="#EBEBEB"/>
<path d="M190.883 160.713L189.417 160.414L189.495 160.215L190.962 160.507L190.883 160.713Z" fill="#EBEBEB"/>
<path d="M190.698 161.211L189.232 160.92L189.31 160.72L190.777 161.005L190.698 161.211Z" fill="#EBEBEB"/>
<path d="M190.513 161.717L189.047 161.425L189.125 161.218L190.591 161.51L190.513 161.717Z" fill="#EBEBEB"/>
<path d="M179.653 158.927L179.076 159.276L178.813 158.756L178.913 158.706L179.126 159.126L179.603 158.841L179.653 158.927Z" fill="#EBEBEB"/>
<path d="M178.906 159.717C178.81 159.701 178.719 159.663 178.64 159.607C178.561 159.551 178.496 159.478 178.449 159.393C178.403 159.308 178.376 159.214 178.371 159.117C178.367 159.02 178.384 158.923 178.422 158.834C178.5 158.633 178.646 158.465 178.834 158.359C179.022 158.253 179.241 158.215 179.454 158.251C179.549 158.267 179.64 158.304 179.719 158.36C179.798 158.416 179.863 158.49 179.91 158.575C179.956 158.66 179.983 158.754 179.988 158.851C179.993 158.947 179.975 159.044 179.938 159.133C179.859 159.334 179.713 159.502 179.525 159.608C179.337 159.715 179.118 159.753 178.906 159.717ZM179.411 158.35C179.227 158.318 179.038 158.351 178.875 158.443C178.713 158.536 178.588 158.681 178.521 158.856C178.489 158.933 178.475 159.017 178.479 159.101C178.484 159.185 178.507 159.267 178.547 159.34C178.588 159.414 178.644 159.478 178.712 159.527C178.78 159.576 178.858 159.609 178.941 159.624C179.127 159.655 179.317 159.621 179.481 159.527C179.644 159.434 179.77 159.287 179.838 159.112C179.87 159.034 179.884 158.95 179.879 158.866C179.875 158.782 179.851 158.701 179.809 158.627C179.768 158.554 179.711 158.491 179.642 158.443C179.573 158.395 179.494 158.363 179.411 158.35Z" fill="#EBEBEB"/>
<path d="M184.535 112.404L183.994 111.507L185.083 110.931L185.161 111.08L184.265 111.557L184.706 112.297L184.535 112.404Z" fill="#DBDBDB"/>
<path d="M207.608 115.713C207.591 115.756 207.559 115.791 207.519 115.813C207.479 115.835 207.432 115.842 207.387 115.834C207.367 115.832 207.347 115.825 207.33 115.813C207.313 115.801 207.299 115.786 207.289 115.768C207.279 115.749 207.274 115.729 207.274 115.709C207.274 115.688 207.278 115.668 207.288 115.649C207.304 115.607 207.334 115.572 207.373 115.55C207.412 115.528 207.457 115.52 207.501 115.528C207.522 115.531 207.541 115.538 207.558 115.55C207.575 115.561 207.59 115.577 207.6 115.595C207.61 115.612 207.616 115.632 207.618 115.653C207.619 115.673 207.616 115.694 207.608 115.713Z" fill="#DBDBDB"/>
<path d="M207.402 116.261C207.386 116.304 207.356 116.339 207.317 116.363C207.278 116.386 207.233 116.395 207.188 116.389C207.167 116.386 207.148 116.377 207.131 116.365C207.114 116.353 207.1 116.337 207.089 116.318C207.079 116.3 207.073 116.28 207.072 116.259C207.07 116.238 207.074 116.217 207.081 116.197C207.1 116.155 207.131 116.121 207.171 116.099C207.211 116.077 207.257 116.069 207.302 116.076C207.322 116.08 207.34 116.088 207.357 116.1C207.373 116.112 207.386 116.127 207.396 116.145C207.405 116.163 207.411 116.182 207.412 116.202C207.413 116.223 207.409 116.243 207.402 116.261Z" fill="#DBDBDB"/>
<path d="M207.195 116.816C207.179 116.858 207.149 116.893 207.11 116.915C207.071 116.937 207.026 116.945 206.982 116.937C206.961 116.934 206.942 116.927 206.925 116.916C206.908 116.904 206.893 116.889 206.883 116.871C206.873 116.853 206.867 116.833 206.865 116.813C206.864 116.792 206.867 116.771 206.875 116.752C206.892 116.71 206.924 116.675 206.964 116.653C207.004 116.631 207.05 116.623 207.096 116.631C207.116 116.634 207.136 116.641 207.153 116.653C207.17 116.664 207.184 116.68 207.194 116.698C207.203 116.716 207.209 116.736 207.209 116.757C207.209 116.777 207.204 116.798 207.195 116.816Z" fill="#DBDBDB"/>
<path d="M190.926 112.952C194.129 113.471 197.331 114.105 200.434 114.845C197.232 114.333 194.029 113.699 190.926 112.952Z" fill="#DBDBDB"/>
<path d="M181.966 115.35C184.279 115.688 186.574 116.144 188.841 116.717C186.527 116.379 184.233 115.923 181.966 115.35Z" fill="#DBDBDB"/>
<path d="M200.05 121.649C201.625 121.841 203.183 122.153 204.711 122.581C203.136 122.391 201.577 122.079 200.05 121.649Z" fill="#DBDBDB"/>
<path d="M199.858 122.154C201.433 122.344 202.992 122.656 204.519 123.086C202.944 122.894 201.386 122.583 199.858 122.154Z" fill="#DBDBDB"/>
<path d="M181.71 116.048C183.199 116.224 184.672 116.519 186.115 116.93C184.625 116.754 183.152 116.459 181.71 116.048Z" fill="#DBDBDB"/>
<path d="M191.374 120.069L187.047 126.225L184.542 133.007C183.657 132.859 182.816 132.512 182.084 131.992C181.352 131.473 180.747 130.794 180.315 130.007C179.883 129.22 179.635 128.345 179.589 127.449C179.543 126.552 179.701 125.657 180.051 124.83C180.778 122.979 182.118 121.433 183.847 120.451C185.576 119.469 187.59 119.11 189.552 119.435C190.187 119.558 190.801 119.771 191.374 120.069Z" fill="#407BFF"/>
<path d="M189.182 132.509C187.717 133.123 186.104 133.296 184.542 133.007L187.047 126.225L189.182 132.509Z" fill="#263238"/>
<path d="M194.043 127.613C193.613 128.72 192.958 129.727 192.12 130.569C191.283 131.412 190.28 132.072 189.175 132.509L187.04 126.225L194.065 123.044C194.627 124.516 194.62 126.146 194.043 127.613Z" fill="#37474F"/>
<path d="M195.011 122.702L186.948 126.353L191.929 119.3C193.328 120.032 194.42 121.238 195.011 122.702Z" fill="#C7C7C7"/>
<path d="M190.542 126.915C190.178 127.841 189.508 128.615 188.642 129.106C187.777 129.597 186.769 129.776 185.788 129.612C185.345 129.538 184.926 129.364 184.56 129.105C184.194 128.845 183.892 128.506 183.676 128.114C183.459 127.721 183.335 127.284 183.311 126.836C183.287 126.388 183.365 125.941 183.539 125.527C183.902 124.601 184.572 123.828 185.438 123.337C186.303 122.846 187.311 122.667 188.293 122.83C188.736 122.902 189.158 123.074 189.525 123.333C189.892 123.592 190.196 123.931 190.412 124.325C190.629 124.718 190.753 125.156 190.776 125.605C190.798 126.054 190.718 126.502 190.542 126.915Z" fill="white"/>
<path d="M199.11 122.125L198.363 121.976L198.626 121.25L199.381 121.4L199.11 122.125Z" fill="#407BFF"/>
<path d="M199.345 123.563C200.921 123.753 202.479 124.065 204.007 124.495C202.431 124.303 200.873 123.992 199.345 123.563Z" fill="#DBDBDB"/>
<path d="M199.146 124.068C200.721 124.259 202.279 124.569 203.807 124.994C202.232 124.804 200.674 124.495 199.146 124.068Z" fill="#DBDBDB"/>
<path d="M198.406 124.04L197.651 123.89L197.922 123.157L198.676 123.314L198.406 124.04Z" fill="#263238"/>
<path d="M198.634 125.478C200.212 125.667 201.773 125.978 203.302 126.41C201.725 126.217 200.164 125.906 198.634 125.478Z" fill="#DBDBDB"/>
<path d="M198.434 125.983C200.009 126.172 201.568 126.482 203.096 126.908C201.521 126.717 199.963 126.408 198.434 125.983Z" fill="#DBDBDB"/>
<path d="M197.701 125.954L196.947 125.805L197.217 125.072L197.972 125.221L197.701 125.954Z" fill="#37474F"/>
<path d="M197.929 127.392C199.504 127.582 201.062 127.891 202.59 128.317C201.016 128.126 199.457 127.817 197.929 127.392Z" fill="#DBDBDB"/>
<path d="M197.723 127.897C199.298 128.087 200.856 128.396 202.384 128.822C200.809 128.632 199.251 128.322 197.723 127.897Z" fill="#DBDBDB"/>
<path d="M196.997 127.869L196.242 127.719L196.513 126.986L197.267 127.136L196.997 127.869Z" fill="#C7C7C7"/>
<path d="M183.197 157.688L181.546 157.361L187.325 141.718L188.969 142.046L183.197 157.688Z" fill="#EBEBEB"/>
<path d="M175.304 133.826C179.745 134.587 184.386 135.512 188.748 136.502C184.307 135.733 179.66 134.815 175.304 133.826Z" fill="#263238"/>
<path d="M174.984 134.694C177.511 135.078 180.016 135.576 182.457 136.181C179.93 135.804 177.425 135.306 174.984 134.694Z" fill="#263238"/>
<path d="M194.314 137.612C196.081 137.871 197.834 138.221 199.566 138.658C197.799 138.397 196.046 138.048 194.314 137.612Z" fill="#407BFF"/>
<path d="M172.13 148.308L171.597 148.202L174.735 139.69L175.276 139.797L172.13 148.308Z" fill="#407BFF"/>
<path d="M169.839 154.522L169.298 154.408L171.319 148.935L171.86 149.049L169.839 154.522Z" fill="#455A64"/>
<path d="M176.023 145.312L175.49 145.198L177.333 140.209L177.874 140.316L176.023 145.312Z" fill="#407BFF"/>
<path d="M172.436 155.034L171.895 154.927L175.219 145.939L175.753 146.045L172.436 155.034Z" fill="#455A64"/>
<path d="M179.617 143.127L179.076 143.021L179.93 140.722L180.464 140.829L179.617 143.127Z" fill="#407BFF"/>
<path d="M175.034 155.553L174.493 155.447L178.806 143.754L179.347 143.868L175.034 155.553Z" fill="#455A64"/>
<path d="M180.728 147.675L180.187 147.568L182.521 141.241L183.062 141.348L180.728 147.675Z" fill="#407BFF"/>
<path d="M177.625 156.066L177.091 155.959L179.916 148.308L180.457 148.415L177.625 156.066Z" fill="#455A64"/>
<path d="M183.816 146.857L183.275 146.75L185.119 141.754L185.66 141.868L183.816 146.857Z" fill="#407BFF"/>
<path d="M180.222 156.585L179.681 156.479L183.005 147.49L183.539 147.597L180.222 156.585Z" fill="#455A64"/>
<path d="M184.229 153.276L183.695 153.169L187.716 142.273L188.25 142.38L184.229 153.276Z" fill="#407BFF"/>
<path d="M182.82 157.105L182.279 156.998L183.418 153.902L183.959 154.009L182.82 157.105Z" fill="#455A64"/>
<path d="M189.14 147.526L188.599 147.419L190.307 142.793L190.848 142.9L189.14 147.526Z" fill="#407BFF"/>
<path d="M185.41 157.617L184.877 157.511L188.328 148.152L188.869 148.259L185.41 157.617Z" fill="#455A64"/>
<path d="M188.62 156.472L188.079 156.365L192.904 143.305L193.445 143.419L188.62 156.472Z" fill="#407BFF"/>
<path d="M188.008 158.137L187.467 158.03L187.809 157.105L188.35 157.212L188.008 158.137Z" fill="#455A64"/>
<path d="M195.004 146.729L194.47 146.622L195.502 143.825L196.036 143.932L195.004 146.729Z" fill="#407BFF"/>
<path d="M190.606 158.656L190.065 158.543L194.193 147.355L194.733 147.469L190.606 158.656Z" fill="#455A64"/>
<path d="M177.198 137.263C178.775 137.456 180.336 137.767 181.866 138.195C180.288 138.006 178.727 137.695 177.198 137.263Z" fill="#DBDBDB"/>
<path d="M177.013 137.768C178.588 137.957 180.147 138.269 181.674 138.701C180.099 138.507 178.541 138.196 177.013 137.768Z" fill="#DBDBDB"/>
<path d="M176.265 137.74L175.511 137.59L175.781 136.865L176.536 137.014L176.265 137.74Z" fill="#407BFF"/>
<path d="M184.983 138.815C186.561 139.004 188.122 139.315 189.652 139.747C188.074 139.558 186.513 139.246 184.983 138.815Z" fill="#DBDBDB"/>
<path d="M184.798 139.32C186.373 139.509 187.932 139.819 189.46 140.245C187.885 140.054 186.327 139.745 184.798 139.32Z" fill="#DBDBDB"/>
<path d="M184.051 139.291L183.297 139.142L183.567 138.416L184.322 138.565L184.051 139.291Z" fill="#455A64"/>
<path d="M213.145 169.41C214.568 166.343 219.493 154.272 219.771 149.162C220.048 144.053 218.525 124.559 213.365 121.627C206.839 117.941 205.43 133.085 205.423 139.733C205.416 146.38 199.48 153.433 199.48 153.433L209.003 161.852L213.145 169.41Z" fill="#AD6359"/>
<path d="M206.263 129.321C206.343 131.532 206.31 133.746 206.163 135.954C206.173 138.054 206.026 140.152 205.722 142.231C205.262 144.245 204.471 146.169 203.38 147.924C202.861 148.8 202.299 149.639 201.701 150.465C201.103 151.29 200.313 152.216 199.687 153.127C199.623 153.219 199.459 153.127 199.523 153.027C200.605 151.309 201.573 149.521 202.42 147.675C203.335 145.78 204.011 143.779 204.434 141.718C205.259 137.619 205.188 133.377 205.978 129.271C205.992 129.107 206.263 129.157 206.263 129.321Z" fill="#263238"/>
<path d="M205.701 142.224C205.629 137.569 204.412 118.233 212.761 121.094C217.415 123.798 218.682 133.904 219.223 138.886C218.326 134.231 216.718 124.14 212.469 121.677C205.274 119.336 206.135 137.961 205.701 142.195V142.224Z" fill="#263238"/>
<path d="M151.99 170.598L193.267 204.631C193.267 204.631 171.298 238.187 156.402 247.66C149.371 252.122 135.108 252.144 130.354 250.364C125.913 248.713 100.99 223.847 82.3439 179.082C67.8895 144.266 90.9695 152.806 99.6165 161.823C108.94 171.538 133.536 196.454 134.888 196.048C136.24 195.643 151.99 170.598 151.99 170.598Z" fill="#407BFF"/>
<path d="M146.623 182.896C152.851 187.75 158.921 192.789 164.956 197.842C167.917 200.326 179.29 210.652 182.571 213.563C182.699 213.684 182.393 214.019 182.25 213.912C179.027 211.428 166.999 201.308 164.081 198.774C158.139 193.607 152.232 188.405 146.481 183.025C146.381 182.953 146.517 182.811 146.623 182.896Z" fill="#263238"/>
<path opacity="0.1" d="M152.175 249.596C144.723 252.08 134.304 251.838 130.383 250.364C125.942 248.706 101.019 223.84 82.3653 179.089C74.4229 160.023 77.7749 153.966 83.8598 153.895C92.6492 166.108 129.209 217.2 152.175 249.596Z" fill="black"/>
<path d="M124.988 292.098H15.9506C21.2883 266.271 44.5462 173.246 63.5127 159.489C75.1772 151.02 90.5568 156.891 93.2042 160.507C103.958 175.353 121.864 268.342 124.988 292.098Z" fill="#EBEBEB"/>
<path d="M94.9977 163.261C94.9977 163.211 94.9123 163.225 94.9123 163.261C95.446 167.802 96.3356 178.342 88.0374 178.206C84.6996 178.157 81.5824 176.555 78.9705 174.954C76.3418 173.326 73.8982 171.417 71.6828 169.261C69.1768 166.971 66.8742 164.468 64.8008 161.781C64.7154 161.667 64.5161 161.781 64.6015 161.916C66.6868 164.578 68.4517 167.367 70.843 169.844C73.1636 172.307 75.8123 174.438 78.7143 176.178C81.5041 177.815 84.8134 179.402 88.3434 179.302C89.81 179.327 91.2449 178.875 92.4322 178.014C93.6195 177.152 94.4949 175.929 94.9265 174.527C96.0581 170.94 95.809 166.827 94.9977 163.261Z" fill="#263238"/>
<path d="M66.9928 155.859C66.9928 155.859 74.2236 194.447 75.59 208.773C76.9564 223.1 72.608 292.098 72.608 292.098H14.1074C14.1074 292.098 31.8284 207.25 49.2149 174.385C58.9436 156.045 66.9928 155.859 66.9928 155.859Z" fill="#407BFF"/>
<path d="M91.9303 158.5C91.9303 158.5 103.609 202.148 104.378 206.788C105.146 211.428 109.025 292.475 109.025 292.475L128.134 292.34C128.134 292.34 108.05 170.171 91.9303 158.5Z" fill="#407BFF"/>
<path d="M48.6953 171.467C24.0709 204.617 -3.43575 270.946 5.04044 282.397C14.4916 295.208 48.738 248.735 48.247 246.379C47.8769 244.593 56.7089 205.421 63.5767 176.861C70.4445 148.301 54.7802 163.268 48.6953 171.467Z" fill="#AD6359"/>
<path d="M48.5245 246.386C49.1864 242.237 61.4274 190.497 64.7154 174.214C68.0034 157.93 62.2601 153.852 48.6242 170.257C34.9883 186.661 7.42462 238.92 3.1545 265.253C-0.96617 290.575 11.5239 288.817 26.4338 275.309C38.6392 264.228 48.5245 246.386 48.5245 246.386Z" fill="#407BFF"/>
<path d="M48.5245 246.386C52.0687 226.302 56.5761 206.422 62.0466 186.747C58.5119 206.826 54.0045 226.706 48.5245 246.386Z" fill="#263238"/>
<path d="M62.7085 189.686C62.5368 192.398 61.4933 194.981 59.7336 197.052C60.5734 194.554 61.641 192.106 62.7085 189.686Z" fill="#263238"/>
<path d="M5.04048 282.397C12.805 290.738 30.6612 290.02 75.7466 292.446C81.9881 292.781 96.2005 249.375 89.5533 248.678C81.1839 247.795 48.5103 246.187 46.1404 246.365C25.8289 247.916 -0.226008 276.747 5.04048 282.397Z" fill="#AD6359"/>
<path d="M81.6678 250.229C81.6678 250.229 98.2643 244.87 107.858 244.749C120.704 244.593 131.856 249.731 136.397 252.186C145.883 257.282 165.291 276.163 160.829 282.703C156.793 288.618 137.927 268.32 137.927 268.32C137.927 268.32 160.58 285.842 154.402 292.076C148.225 298.311 127.671 273.501 127.671 273.501C127.671 273.501 150.538 292.005 143.158 297.45C137.578 301.542 117.686 280.12 117.686 280.12C117.686 280.12 137.229 296.183 131.678 300.638C125.536 305.57 105.943 286.945 105.943 286.945C89.9091 295.905 78.6075 293.606 70.7648 291.023C68.8646 290.397 81.6678 250.229 81.6678 250.229Z" fill="#AD6359"/>
<path d="M130.482 261.759C133.215 263.723 135.998 265.687 138.553 267.886C141.108 270.085 143.577 272.377 145.912 274.804C151.641 280.753 154.295 285.372 154.103 285.109C149.484 278.775 140.475 270.761 137.92 268.562C135.365 266.363 132.938 264.05 130.397 261.851C130.333 261.794 130.418 261.694 130.482 261.759Z" fill="#263238"/>
<path d="M122.376 270.825C125.757 273.48 129.216 275.992 132.482 278.803C135.749 281.615 138.574 284.497 141.627 287.543C141.862 287.771 141.627 287.82 141.414 287.6C138.247 284.71 135.094 282.291 131.892 279.444C128.689 276.597 125.6 273.622 122.305 270.904C122.284 270.861 122.326 270.783 122.376 270.825Z" fill="#263238"/>
<path d="M114.021 277.352C119.401 281.145 124.07 285.927 128.54 290.731C128.767 290.966 128.497 291.002 128.255 290.774C123.515 286.233 119.821 282.639 113.886 277.537C113.793 277.465 113.907 277.28 114.021 277.352Z" fill="#263238"/>
<path d="M84.3722 247.361L51.9478 295.592C51.9478 295.592 11.8086 292.14 4.67753 282.974C-0.019599 276.939 25.5157 246.229 48.0477 246.222L84.3722 247.361Z" fill="#407BFF"/>
<path d="M22.6476 256.898C25.8431 253.809 35.031 246.379 48.0548 246.18C48.1687 246.18 48.1972 246.365 48.0548 246.379C38.3688 247.461 26.0566 254.336 22.7259 257.054C22.6832 257.111 22.5836 256.976 22.6476 256.898Z" fill="#263238"/>
<path d="M40.4398 289.906C43.7207 284.411 47.2933 279.095 50.8802 273.793C54.4671 268.491 58.0469 263.168 61.7691 257.951C63.9041 255.005 65.9538 252.044 68.1742 249.169C68.2312 249.09 68.3735 249.169 68.3237 249.254C65.0499 254.741 61.4915 260.079 57.9473 265.395C54.4031 270.712 50.7806 276.021 47.1225 281.287C45.0586 284.255 42.9307 287.194 40.7174 290.069C40.5964 290.212 40.3259 290.062 40.4398 289.906Z" fill="#263238"/>
<path d="M84.3651 246.799C81.903 246.423 79.4183 246.213 76.928 246.173C74.4371 246.059 71.9462 245.987 69.4552 245.938C64.4734 245.845 54.0045 245.077 45.0515 246.358C44.9519 246.358 45.5283 246.785 45.628 246.763C49.8554 245.931 81.255 247.71 83.7886 247.539C83.7073 247.716 83.6407 247.899 83.5894 248.087C83.5894 248.215 83.7032 248.357 83.8242 248.251C84.1089 247.994 84.2939 247.703 84.5359 247.425C84.5861 247.38 84.6228 247.322 84.6419 247.257C84.6609 247.193 84.6617 247.124 84.6439 247.059C84.6262 246.994 84.5907 246.935 84.5415 246.889C84.4922 246.843 84.4312 246.812 84.3651 246.799Z" fill="#263238"/>
<path d="M14.819 288.739C18.7902 289.564 24.3556 291.18 28.3411 292.219C23.6549 291.92 19.0673 290.739 14.819 288.739Z" fill="#263238"/>
<path d="M87.2617 174.449C81.3547 175.16 70.11 167.047 66.9217 158.365C66.7011 157.767 68.4162 152.095 70.1741 145.099C71.2203 140.829 72.3091 136.096 72.9497 131.691C73.0849 130.787 99.5952 142.551 99.5952 142.551C99.5952 142.551 95.4888 151.39 94.3857 159.083C94.3016 159.692 94.273 160.306 94.3003 160.92C94.3003 161.005 94.3003 161.105 94.3003 161.226C94.343 164.741 93.5815 173.673 87.2617 174.449Z" fill="#AD6359"/>
<path d="M94.3073 160.92C94.3073 161.005 94.3073 161.119 94.3073 161.226C93.3529 161.204 92.4013 161.111 91.4606 160.948C75.2413 158.144 74.0029 137.135 73.946 131.847C78.757 133.271 99.6165 142.522 99.6165 142.522C99.6165 142.522 95.5101 151.369 94.3999 159.062C94.3151 159.677 94.2841 160.299 94.3073 160.92Z" fill="#263238"/>
<path d="M72.9639 96.5831C68.8005 106.077 70.658 135.135 76.9137 142.295C85.9806 152.685 102.499 155.518 111.744 144.238C120.711 133.299 117.622 95.4728 110.484 88.7901C99.9581 78.9617 79.1128 82.5771 72.9639 96.5831Z" fill="#AD6359"/>
<path d="M98.5276 118.261C98.5276 118.19 98.3782 118.361 98.3853 118.446C98.5134 120.403 98.3355 122.666 96.5847 123.378C96.5278 123.378 96.542 123.499 96.5847 123.485C98.7554 123.108 98.9689 120.069 98.5276 118.261Z" fill="#263238"/>
<path d="M96.7058 116.283C93.5459 116.154 93.5245 122.481 96.4495 122.602C99.3746 122.723 99.3532 116.389 96.7058 116.283Z" fill="#263238"/>
<path d="M109.879 118.645C109.879 118.567 110.028 118.738 110.028 118.816C109.957 120.773 110.206 123.036 111.979 123.691C112.035 123.691 112.028 123.812 111.979 123.798C109.801 123.471 109.473 120.474 109.879 118.645Z" fill="#263238"/>
<path d="M111.608 116.589C114.761 116.361 114.989 122.688 112.064 122.894C109.139 123.101 108.989 116.774 111.608 116.589Z" fill="#263238"/>
<path d="M94.222 113.372C95.0507 113.135 95.8657 112.852 96.6631 112.525C97.5954 112.183 98.3782 112.012 98.9974 111.173C99.1461 110.917 99.2065 110.62 99.1692 110.326C99.1319 110.033 98.999 109.76 98.791 109.55C97.8445 108.71 96.5919 108.838 95.4461 109.194C94.2669 109.511 93.2504 110.261 92.5993 111.294C92.4584 111.539 92.3939 111.821 92.4139 112.103C92.434 112.385 92.5377 112.655 92.7118 112.878C92.886 113.101 93.1227 113.267 93.3917 113.355C93.6606 113.443 93.9497 113.449 94.222 113.372Z" fill="#263238"/>
<path d="M114.099 113.407C113.25 113.235 112.411 113.014 111.587 112.745C110.619 112.482 109.829 112.368 109.146 111.585C108.978 111.341 108.895 111.048 108.911 110.752C108.926 110.456 109.039 110.174 109.231 109.949C110.114 109.038 111.366 109.066 112.541 109.336C113.729 109.574 114.786 110.243 115.508 111.215C115.661 111.446 115.743 111.715 115.745 111.992C115.747 112.268 115.669 112.539 115.519 112.771C115.37 113.004 115.156 113.187 114.904 113.3C114.652 113.413 114.372 113.451 114.099 113.407Z" fill="#263238"/>
<path d="M96.6631 136.438C97.1328 136.9 97.6025 137.534 98.3142 137.59C99.0526 137.587 99.7813 137.421 100.449 137.107C100.513 137.107 100.577 137.149 100.535 137.206C100.253 137.591 99.8734 137.892 99.435 138.079C98.9966 138.265 98.5159 138.33 98.0437 138.267C97.6464 138.156 97.2898 137.932 97.017 137.622C96.7442 137.313 96.5669 136.931 96.5065 136.523C96.4282 136.438 96.5776 136.388 96.6631 136.438Z" fill="#263238"/>
<path d="M98.7269 130.595C99.2229 131.372 99.8739 132.039 100.639 132.553C101.405 133.067 102.268 133.418 103.175 133.584C103.965 133.736 104.773 133.774 105.573 133.698C105.729 133.699 105.884 133.683 106.036 133.648C106.18 133.636 106.322 133.614 106.463 133.584C106.567 133.564 106.663 133.511 106.735 133.433C106.806 133.355 106.851 133.255 106.861 133.15C106.865 133.083 106.865 133.017 106.861 132.95V132.758C106.904 131.249 106.769 128.958 106.769 128.958C107.317 129.235 110.128 130.509 110.085 129.719C109.722 123.186 109.317 115.927 107.573 109.5C107.567 109.453 107.541 109.41 107.503 109.382C107.465 109.353 107.418 109.341 107.37 109.347C107.323 109.354 107.281 109.379 107.252 109.417C107.223 109.455 107.211 109.503 107.217 109.55C107.317 115.841 108.527 122.076 108.726 128.388C107.727 127.923 106.669 127.597 105.58 127.42C105.367 127.485 105.922 131.854 105.851 132.53C105.854 132.554 105.854 132.578 105.851 132.602C103.31 132.922 101.403 132.146 98.9475 130.431C98.7981 130.303 98.613 130.438 98.7269 130.595Z" fill="#263238"/>
<path d="M104.691 132.929C103.858 134.004 102.762 134.847 101.51 135.377C100.817 135.645 100.058 135.69 99.339 135.505C97.7733 135.085 97.7448 133.648 98.0366 132.424C98.1991 131.772 98.4379 131.141 98.7483 130.545C100.424 131.953 102.506 132.788 104.691 132.929Z" fill="#263238"/>
<path d="M101.51 135.377C100.817 135.645 100.058 135.69 99.339 135.505C97.7733 135.085 97.7448 133.648 98.0366 132.424C99.7162 132.602 101.367 133.747 101.51 135.377Z" fill="#FF9BBC"/>
<path d="M116.448 99.7501C115.594 97.2947 114.455 96.7966 114.455 96.7966C114.455 96.7966 114.455 93.9142 111.879 90.2206C109.16 86.3561 106.185 85.8508 106.185 85.8508C106.185 85.8508 103.723 83.061 98.0864 82.0006C96.7912 81.7586 92.8698 81.6946 91.6812 82.1856C90.2579 82.7479 88.8345 82.0077 87.3471 81.9792C85.994 81.954 84.6507 82.2135 83.4043 82.7407C82.3491 83.1787 81.3729 83.787 80.5149 84.5413C80.0098 85.0043 79.5344 85.4988 79.0915 86.0216C78.4372 86.7637 77.5613 87.2752 76.5935 87.4806C75.4721 87.8288 74.4374 88.4111 73.5578 89.1889C72.6781 89.9667 71.9736 90.9224 71.4907 91.9927C70.8704 93.3324 70.5359 94.7867 70.5086 96.2628C70.4374 98.1061 68.5087 98.9672 67.7828 100.533C67.2332 101.778 67.063 103.158 67.2934 104.5C67.5238 105.842 68.1445 107.086 69.0781 108.077C66.6726 109.799 65.7758 113.649 67.064 116.688C68.0604 119.037 70.1456 120.083 72.2522 120.659C72.6405 120.765 73.0389 120.829 73.4407 120.852C77.7535 121.563 81.9809 116.823 80.4508 111.699V111.657C82.8166 110.917 84.8871 109.447 86.3649 107.458C88.0018 105.323 88.5356 102.476 88.5569 99.6291C93.9729 103.045 101.481 99.6789 102.442 92.7257C103.986 94.4195 108.413 97.2805 110.456 96.64C111.338 102.889 115.437 105.18 116.519 105.18C116.661 105.223 117.416 102.554 116.448 99.7501ZM77.7535 119.037C79.0061 117.734 79.9526 115.891 80.401 111.984C80.6794 113.29 80.5781 114.648 80.1089 115.898C79.6397 117.147 78.8224 118.237 77.7535 119.037ZM94.834 99.9778C96.4907 99.4606 97.9981 98.5513 99.2284 97.3272C100.459 96.1032 101.375 94.6003 101.901 92.9463C100.933 97.2022 98.1718 99.4298 94.8554 99.9778H94.834Z" fill="#263238"/>
<path d="M95.9513 127.314C94.4788 127.136 93.0857 126.549 91.9305 125.619C90.7753 124.689 89.9045 123.453 89.4172 122.052C88.9299 120.651 88.8457 119.142 89.1741 117.695C89.5026 116.249 90.2305 114.924 91.275 113.871C92.3195 112.818 93.6387 112.079 95.0823 111.739C96.526 111.399 98.0361 111.471 99.4408 111.947C100.845 112.423 102.088 113.284 103.028 114.432C103.967 115.58 104.566 116.968 104.755 118.439C104.909 119.635 104.788 120.85 104.401 121.992C104.014 123.134 103.371 124.172 102.522 125.028C101.673 125.884 100.64 126.535 99.5011 126.931C98.3624 127.327 97.1483 127.458 95.9513 127.314ZM97.7377 112.646C97.1708 112.571 96.5965 112.571 96.0296 112.646C94.2996 112.863 92.7174 113.732 91.6053 115.074C90.4931 116.417 89.9346 118.134 90.0435 119.874C90.1523 121.614 90.9204 123.247 92.1912 124.441C93.462 125.635 95.14 126.3 96.8837 126.3C98.6273 126.3 100.305 125.635 101.576 124.441C102.847 123.247 103.615 121.614 103.724 119.874C103.833 118.134 103.274 116.417 102.162 115.074C101.05 113.732 99.4677 112.863 97.7377 112.646Z" fill="#407BFF"/>
<path d="M114.099 127.299C111.089 126.929 108.74 123.52 108.755 119.385C108.729 117.411 109.321 115.477 110.448 113.856C110.889 113.129 111.508 112.529 112.248 112.112C112.988 111.696 113.823 111.477 114.672 111.477C115.521 111.477 116.356 111.696 117.096 112.112C117.836 112.529 118.456 113.129 118.896 113.856C120.012 115.486 120.587 117.425 120.54 119.4C120.54 123.762 117.864 127.307 114.619 127.292C114.455 127.328 114.27 127.314 114.099 127.299ZM115.081 112.575C114.946 112.568 114.811 112.568 114.676 112.575C114 112.602 113.341 112.792 112.754 113.128C112.167 113.463 111.669 113.935 111.302 114.503C110.306 115.945 109.786 117.662 109.815 119.414C109.815 123.193 111.95 126.282 114.619 126.289C117.288 126.296 119.465 123.236 119.487 119.457C119.538 117.707 119.04 115.985 118.063 114.532C117.732 114.014 117.296 113.572 116.782 113.235C116.268 112.897 115.688 112.672 115.081 112.575Z" fill="#407BFF"/>
<path d="M104.492 119.357L103.78 118.546C104.99 117.542 107.772 116.197 109.694 118.275L108.918 118.987C107.203 117.129 104.577 119.265 104.492 119.357Z" fill="#407BFF"/>
<path d="M69.1777 121.243L68.2454 120.752C68.4731 120.318 70.5441 116.482 72.9069 116.098C75.1202 115.756 89.2757 117.144 89.9091 117.201L89.8024 118.254C85.7386 117.855 74.7858 116.873 73.0777 117.144C71.512 117.386 69.7328 120.19 69.1777 121.243Z" fill="#407BFF"/>
<path d="M77.3977 120.951C77.3977 120.951 71.8465 111.101 67.434 112.995C63.0216 114.888 66.5729 128.716 71.3056 131.022C71.8919 131.359 72.5405 131.575 73.2123 131.655C73.8841 131.736 74.5653 131.68 75.2148 131.49C75.8644 131.301 76.4689 130.982 76.992 130.553C77.5151 130.124 77.946 129.593 78.2588 128.993L77.3977 120.951Z" fill="#AD6359"/>
<path d="M68.5585 116.937C68.5436 116.937 68.529 116.942 68.5169 116.951C68.5048 116.959 68.4957 116.972 68.491 116.986C68.4863 117 68.4862 117.015 68.4906 117.03C68.4951 117.044 68.5039 117.056 68.5158 117.065C71.8252 118.795 73.3268 122.161 74.2734 125.606C73.3766 124.232 72.0458 123.392 70.2239 124.446C70.1242 124.503 70.2239 124.652 70.295 124.638C70.9219 124.508 71.5738 124.574 72.1612 124.829C72.7486 125.084 73.2427 125.514 73.5759 126.061C74.1305 126.975 74.5839 127.946 74.9281 128.958C75.0562 129.278 75.6398 129.171 75.5473 128.801V128.723C76.0241 124.339 73.2272 117.834 68.5585 116.937Z" fill="#263238"/>
</svg>
