<svg width="337" height="341" viewBox="0 0 337 341" fill="none" xmlns="http://www.w3.org/2000/svg">
<path d="M126.526 13.1762C126.925 10.3177 122.878 7.96496 119.844 7.71973C118.395 7.59711 116.893 7.81935 115.521 7.34421C112.555 6.30962 111.368 2.47015 108.463 1.21332C106.294 0.301354 103.804 1.1137 101.704 2.17127C99.6039 3.22885 97.5194 4.56232 95.1744 4.71559C93.1358 4.84587 90.9134 4.08718 89.1278 5.08345C87.7943 5.84981 87.0969 7.38253 85.8707 8.26384C84.5947 9.05284 83.1173 9.45481 81.6174 9.42105C80.1219 9.38051 78.6321 9.6223 77.2262 10.1338C75.8697 10.7545 74.7508 12.1953 75.0344 13.659L126.526 13.1762Z" fill="#F5F5F5"/>
<path d="M330.003 182.32C330.662 177.561 323.941 173.644 318.89 173.238C316.484 173.039 313.986 173.407 311.702 172.61C306.767 170.893 304.805 164.509 299.969 162.471C296.367 160.938 292.213 162.31 288.719 164.065C285.224 165.82 281.776 168.035 277.867 168.288C274.472 168.502 270.786 167.245 267.812 168.908C265.598 170.142 264.44 172.694 262.402 174.196C260.363 175.698 257.804 175.982 255.321 176.12C252.838 176.258 250.278 176.273 248.025 177.308C245.772 178.342 243.902 180.726 244.369 183.163L330.003 182.32Z" fill="#EBEBEB"/>
<path d="M74.4979 66.1701C74.9961 62.5299 69.8538 59.5334 65.9913 59.2192C64.1521 59.0736 62.2438 59.3571 60.4965 58.744C56.7183 57.4259 55.2086 52.5442 51.5148 50.9885C48.7635 49.8236 45.5831 50.8658 42.9085 52.207C40.2339 53.5481 37.5977 55.2724 34.6088 55.441C32.0109 55.6019 29.1907 54.6747 26.9452 55.9085C25.2516 56.8588 24.3703 58.8053 22.8069 59.9549C21.2435 61.1044 19.2893 61.3267 17.3887 61.4263C15.4881 61.5259 13.5569 61.5489 11.8096 62.3383C10.0623 63.1276 8.65987 64.9516 9.0124 66.8138L74.4979 66.1701Z" fill="#F5F5F5"/>
<path d="M277.944 264.543L260.892 338.573L268.104 338.55L285.186 265.24L277.944 264.543Z" fill="#E0E0E0"/>
<path d="M309.043 264.543L326.155 338.573H333.007L316.453 264.543H309.043Z" fill="#E0E0E0"/>
<path d="M266.433 208.943L276.143 259.914H287.171L276.802 208.943H266.433Z" fill="#E0E0E0"/>
<path d="M97.3508 264.543L83.4414 338.573H90.5225L105.053 264.543H97.3508Z" fill="#E0E0E0"/>
<path d="M126.595 264.543L142.489 338.167H149.486L134.136 264.543H126.595Z" fill="#E0E0E0"/>
<path d="M85.8401 208.943L95.5498 259.914H106.578L96.2089 208.943H85.8401Z" fill="#E0E0E0"/>
<path d="M63.9988 204.314L65.9837 213.58H287.5L284.918 204.314H63.9988Z" fill="#EBEBEB"/>
<path d="M68.2291 222.308L70.5742 231.574H290.589L288.588 222.308H68.2291Z" fill="#EBEBEB"/>
<path d="M72.605 240.939L74.7815 250.204H294.122L292.045 240.939H72.605Z" fill="#EBEBEB"/>
<path d="M325.895 259.914H89.373V269.179H325.895V259.914Z" fill="#EBEBEB"/>
<path d="M230.054 145.159C228.226 145.16 226.431 144.68 224.847 143.767C223.264 142.855 221.948 141.542 221.032 139.961C220.115 138.379 219.631 136.585 219.628 134.757C219.624 132.93 220.101 131.133 221.011 129.548L250.899 77.4356C251.8 75.841 253.111 74.5155 254.695 73.5955C256.279 72.6755 258.079 72.1943 259.911 72.2013C261.737 72.1905 263.534 72.6643 265.117 73.5744C266.7 74.4845 268.014 75.7984 268.924 77.3819L299.118 129.318C300.036 130.901 300.522 132.696 300.527 134.526C300.531 136.355 300.055 138.154 299.145 139.741C298.235 141.328 296.924 142.647 295.342 143.568C293.761 144.488 291.966 144.976 290.137 144.983L230.062 145.167L230.054 145.159ZM259.942 75.3051C258.656 75.3011 257.393 75.6399 256.282 76.2864C255.17 76.933 254.251 77.864 253.619 78.9836L223.731 131.096C223.093 132.208 222.759 133.467 222.761 134.749C222.763 136.031 223.102 137.289 223.744 138.398C224.386 139.508 225.308 140.429 226.418 141.069C227.529 141.71 228.788 142.047 230.069 142.047L290.144 141.864C291.423 141.856 292.678 141.513 293.782 140.869C294.887 140.225 295.804 139.302 296.441 138.193C297.077 137.084 297.412 135.827 297.411 134.548C297.41 133.269 297.074 132.013 296.436 130.905L266.241 78.976C265.61 77.86 264.693 76.932 263.585 76.287C262.476 75.642 261.217 75.3031 259.934 75.3051H259.942Z" fill="#EBEBEB"/>
<path d="M254.072 97.8514L255.474 117.294C255.527 118.061 255.86 118.782 256.41 119.32C256.959 119.858 257.687 120.176 258.455 120.214C259.263 120.255 260.056 119.985 260.671 119.459C261.286 118.933 261.675 118.191 261.758 117.386L263.751 97.8208C263.785 97.4714 263.746 97.1187 263.634 96.7859C263.523 96.453 263.342 96.1476 263.103 95.8898C262.865 95.632 262.575 95.4276 262.252 95.2902C261.929 95.1527 261.58 95.0854 261.229 95.0925L256.486 95.1998C256.15 95.2073 255.82 95.2828 255.515 95.4217C255.21 95.5607 254.936 95.7602 254.71 96.0081C254.484 96.2561 254.311 96.5474 254.202 96.8642C254.092 97.1811 254.048 97.5169 254.072 97.8514Z" fill="#EBEBEB"/>
<path d="M263.705 131.111C263.416 132.004 262.87 132.79 262.134 133.372C261.399 133.954 260.507 134.304 259.573 134.38C258.638 134.455 257.702 134.252 256.883 133.795C256.064 133.339 255.398 132.65 254.97 131.816C254.542 130.982 254.371 130.039 254.479 129.108C254.586 128.176 254.967 127.297 255.574 126.582C256.181 125.867 256.986 125.348 257.887 125.09C258.789 124.832 259.746 124.848 260.639 125.134C261.234 125.324 261.784 125.63 262.26 126.034C262.736 126.438 263.128 126.931 263.412 127.487C263.697 128.042 263.87 128.648 263.92 129.27C263.97 129.892 263.897 130.518 263.705 131.111Z" fill="#EBEBEB"/>
<path d="M336.908 338.481C336.908 338.588 261.482 338.68 168.461 338.68C75.4406 338.68 0 338.588 0 338.481C0 338.374 75.4099 338.282 168.461 338.282C261.513 338.282 336.908 338.366 336.908 338.481Z" fill="#263238"/>
<path d="M220.198 256.266L142.796 256.212C133.492 256.212 125.936 248.28 125.936 238.502V34.6497C125.936 24.8709 133.492 16.9391 142.796 16.9467L220.16 16.9927C229.471 16.9927 237.02 24.9245 237.02 34.7033L236.982 238.555C237.058 248.342 229.51 256.266 220.198 256.266Z" fill="#263238"/>
<path d="M220.175 24.2118H205.17C204.158 24.2615 203.206 24.7103 202.524 25.4601C201.841 26.2099 201.484 27.1995 201.53 28.2122V31.0708C201.576 32.0847 201.217 33.0754 200.533 33.8254C199.849 34.5755 198.896 35.0235 197.882 35.0712H168.645C167.631 35.0215 166.679 34.5716 165.996 33.8201C165.314 33.0687 164.957 32.0771 165.005 31.0631V28.2122C165.051 27.1995 164.694 26.2099 164.011 25.4601C163.329 24.7103 162.377 24.2615 161.365 24.2118H142.972C136.451 24.2118 131.163 29.7679 131.163 36.6192V235.582C131.163 242.425 136.443 247.982 142.957 247.989L220.175 248.035C226.697 248.035 231.985 242.487 231.985 235.635L231.97 36.6422C231.97 29.7449 226.697 24.2118 220.175 24.2118Z" fill="white"/>
<path d="M152.207 229.206V234.072C152.206 234.167 152.18 234.261 152.132 234.343C152.083 234.425 152.013 234.493 151.929 234.539C151.846 234.585 151.752 234.608 151.656 234.605C151.561 234.603 151.468 234.575 151.387 234.524L147.555 232.087C147.479 232.039 147.417 231.972 147.373 231.893C147.33 231.814 147.307 231.725 147.307 231.635C147.307 231.545 147.33 231.456 147.373 231.377C147.417 231.298 147.479 231.231 147.555 231.183L151.387 228.746C151.468 228.695 151.562 228.667 151.658 228.665C151.754 228.663 151.849 228.686 151.933 228.733C152.017 228.78 152.086 228.849 152.134 228.932C152.183 229.015 152.208 229.11 152.207 229.206Z" fill="#E0E0E0"/>
<path d="M183.674 231.589C183.672 232.253 183.474 232.901 183.104 233.452C182.734 234.003 182.21 234.432 181.596 234.685C180.983 234.938 180.308 235.003 179.657 234.873C179.007 234.742 178.409 234.422 177.941 233.952C177.472 233.482 177.153 232.884 177.024 232.233C176.895 231.582 176.962 230.908 177.217 230.295C177.471 229.682 177.901 229.158 178.453 228.79C179.005 228.421 179.653 228.225 180.317 228.225C181.208 228.227 182.062 228.582 182.691 229.213C183.32 229.844 183.674 230.698 183.674 231.589Z" fill="#E0E0E0"/>
<path d="M212.542 228.662H209.216C208.425 228.662 207.783 229.303 207.783 230.095V233.436C207.783 234.227 208.425 234.869 209.216 234.869H212.542C213.334 234.869 213.976 234.227 213.976 233.436V230.095C213.976 229.303 213.334 228.662 212.542 228.662Z" fill="#E0E0E0"/>
<path d="M218.88 121.065C223.823 100.601 211.241 80.0048 190.777 75.0616C170.313 70.1184 149.717 82.7004 144.774 103.164C139.831 123.628 152.413 144.225 172.877 149.168C193.34 154.111 213.937 141.529 218.88 121.065Z" fill="#F5F5F5"/>
<path d="M183.528 128.897C183.527 129.52 183.34 130.129 182.992 130.646C182.645 131.163 182.151 131.566 181.575 131.803C180.998 132.039 180.364 132.1 179.753 131.976C179.143 131.853 178.582 131.55 178.143 131.108C177.704 130.666 177.406 130.103 177.287 129.491C177.168 128.879 177.233 128.246 177.473 127.671C177.714 127.096 178.121 126.606 178.64 126.262C179.16 125.918 179.77 125.736 180.394 125.739C181.227 125.745 182.024 126.081 182.611 126.672C183.199 127.264 183.528 128.063 183.528 128.897Z" fill="#455A64"/>
<path d="M174.087 124.85C174.89 123.985 175.861 123.292 176.94 122.813C178.019 122.334 179.185 122.079 180.365 122.063C181.546 122.047 182.718 122.271 183.809 122.721C184.901 123.171 185.89 123.838 186.716 124.682C188.325 126.306 190.839 123.816 189.23 122.191C188.073 121.025 186.695 120.102 185.176 119.477C183.657 118.852 182.028 118.537 180.386 118.55C178.744 118.564 177.12 118.906 175.612 119.556C174.104 120.206 172.741 121.152 171.604 122.337C170.032 123.984 172.523 126.506 174.102 124.85H174.087Z" fill="#455A64"/>
<path d="M163.388 110.213C168.178 106.074 173.895 103.469 180.294 103.454C186.682 103.362 192.864 105.714 197.575 110.029C199.231 111.562 201.752 109.102 200.089 107.538C194.718 102.564 187.653 99.8231 180.332 99.8746C172.968 99.8746 166.423 102.94 160.913 107.669C159.188 109.163 161.679 111.669 163.411 110.182L163.388 110.213Z" fill="#455A64"/>
<path d="M167.611 118.313C169.208 116.531 171.157 115.099 173.334 114.108C175.512 113.116 177.872 112.587 180.265 112.553C182.658 112.519 185.031 112.982 187.237 113.911C189.442 114.841 191.43 116.217 193.077 117.953C194.671 119.585 197.185 117.095 195.591 115.455C193.615 113.39 191.236 111.753 188.602 110.645C185.968 109.537 183.134 108.983 180.277 109.015C177.419 109.047 174.599 109.666 171.99 110.833C169.382 112 167.041 113.691 165.112 115.8C163.58 117.47 166.055 119.992 167.611 118.313Z" fill="#455A64"/>
<path d="M210.138 103.536C211.068 98.2804 207.561 93.2663 202.305 92.3368C197.049 91.4072 192.035 94.9142 191.106 100.17C190.176 105.425 193.683 110.439 198.939 111.369C204.195 112.299 209.209 108.792 210.138 103.536Z" fill="#407BFF"/>
<path d="M204.605 99.1507L203.234 97.7797L197.094 103.919L198.465 105.29L204.605 99.1507Z" fill="white"/>
<path d="M198.469 97.7726L197.098 99.1436L203.237 105.283L204.608 103.912L198.469 97.7726Z" fill="white"/>
<path d="M179.267 45.4937C179.747 45.2054 180.262 44.9813 180.8 44.8269L181.114 43.2942L183.666 43.2482L184.034 44.781C184.57 44.9168 185.085 45.1229 185.567 45.394L186.846 44.5357L188.686 46.3137L187.881 47.6318C188.169 48.1114 188.393 48.6267 188.548 49.1645L190.08 49.4787L190.126 52.0384L188.594 52.3986C188.461 52.934 188.257 53.4494 187.988 53.9313L188.831 55.2188L187.061 57.058L185.743 56.2917C185.263 56.577 184.747 56.7986 184.21 56.9508L183.896 58.4835L181.344 58.5295L180.976 56.9967C180.441 56.8595 179.926 56.6534 179.443 56.3837L178.148 57.2266L176.309 55.4564L177.114 54.1382C176.824 53.6591 176.6 53.1437 176.447 52.6055L174.914 52.2913L174.868 49.7393L176.401 49.3715C176.535 48.8365 176.739 48.3213 177.006 47.8387L176.163 46.5436L177.941 44.712L179.259 45.4783L179.267 45.4937ZM180.624 48.904C180.247 49.2943 179.994 49.7878 179.897 50.3218C179.801 50.8559 179.865 51.4066 180.081 51.9043C180.298 52.402 180.657 52.8243 181.113 53.1178C181.57 53.4113 182.103 53.5628 182.646 53.5531C183.188 53.5435 183.716 53.3731 184.162 53.0635C184.608 52.754 184.952 52.3192 185.15 51.8141C185.349 51.3091 185.393 50.7564 185.278 50.2261C185.162 49.6958 184.892 49.2117 184.501 48.835C183.978 48.3302 183.275 48.0539 182.548 48.0668C181.821 48.0798 181.129 48.3809 180.624 48.904Z" fill="#E0E0E0"/>
<path d="M146.858 51.2031C146.091 51.2031 145.026 51.2031 144.007 51.2031C142.788 51.2031 141.57 51.2031 140.719 51.2031C140.618 51.2031 140.52 51.1627 140.448 51.0908C140.376 51.019 140.336 50.9215 140.336 50.8199C140.335 50.7699 140.344 50.7203 140.362 50.6738C140.381 50.6274 140.408 50.5851 140.443 50.5494C140.478 50.5137 140.52 50.4853 140.566 50.466C140.612 50.4466 140.662 50.4367 140.711 50.4367C141.562 50.4367 142.796 50.4367 144.022 50.4367C145.248 50.4367 146.459 50.4827 147.31 50.4367C147.36 50.4357 147.409 50.4446 147.456 50.463C147.502 50.4815 147.545 50.509 147.58 50.5439C147.616 50.5789 147.644 50.6206 147.664 50.6667C147.683 50.7128 147.693 50.7622 147.693 50.8122C147.694 50.8625 147.685 50.9126 147.667 50.9594C147.648 51.0063 147.621 51.0491 147.586 51.0854C147.551 51.1217 147.51 51.1508 147.464 51.171C147.417 51.1912 147.368 51.2021 147.318 51.2031H146.858Z" fill="#263238"/>
<path d="M143.049 53.778C142.995 53.7769 142.942 53.7648 142.894 53.7424C142.845 53.72 142.801 53.6878 142.765 53.6477L140.466 51.0191C140.404 50.9467 140.369 50.8542 140.369 50.7586C140.369 50.6629 140.404 50.5704 140.466 50.498L142.765 48.107C142.799 48.0663 142.84 48.033 142.887 48.0091C142.934 47.9853 142.986 47.9714 143.039 47.9683C143.091 47.9652 143.144 47.973 143.193 47.9913C143.243 48.0095 143.288 48.0377 143.326 48.0742C143.364 48.1107 143.394 48.1546 143.414 48.2032C143.435 48.2519 143.445 48.3042 143.444 48.3569C143.443 48.4096 143.431 48.4616 143.41 48.5096C143.388 48.5575 143.356 48.6005 143.317 48.6357L141.286 50.7739L143.386 53.1419C143.435 53.1975 143.467 53.266 143.477 53.3392C143.488 53.4124 143.477 53.4871 143.447 53.5544C143.416 53.6216 143.366 53.6785 143.304 53.7182C143.241 53.7579 143.169 53.7787 143.095 53.778H143.049Z" fill="#263238"/>
<path d="M222.045 48.9729C222.701 48.9729 223.233 48.4411 223.233 47.7851C223.233 47.129 222.701 46.5972 222.045 46.5972C221.389 46.5972 220.857 47.129 220.857 47.7851C220.857 48.4411 221.389 48.9729 222.045 48.9729Z" fill="#263238"/>
<path d="M223.233 51.5402C223.235 51.7773 223.166 52.0095 223.035 52.2073C222.904 52.4051 222.718 52.5595 222.499 52.6509C222.28 52.7424 222.039 52.7667 221.806 52.7208C221.574 52.6749 221.36 52.5609 221.192 52.3932C221.025 52.2256 220.911 52.0119 220.865 51.7792C220.819 51.5466 220.843 51.3056 220.935 51.0868C221.026 50.8681 221.181 50.6814 221.378 50.5507C221.576 50.4199 221.808 50.3509 222.045 50.3524C222.36 50.3524 222.663 50.4775 222.885 50.7003C223.108 50.9231 223.233 51.2252 223.233 51.5402Z" fill="#263238"/>
<path d="M222.045 56.4833C222.701 56.4833 223.233 55.9514 223.233 55.2954C223.233 54.6394 222.701 54.1075 222.045 54.1075C221.389 54.1075 220.857 54.6394 220.857 55.2954C220.857 55.9514 221.389 56.4833 222.045 56.4833Z" fill="#263238"/>
<path d="M156.008 164.54C154.201 164.737 152.383 164.804 150.567 164.739C148.753 164.804 146.937 164.737 145.133 164.54C146.937 164.343 148.753 164.277 150.567 164.341C152.383 164.276 154.201 164.343 156.008 164.54Z" fill="#263238"/>
<path d="M175.527 177.262C175.527 177.369 168.845 177.461 160.606 177.461C152.368 177.461 145.685 177.369 145.685 177.262C145.685 177.154 152.36 177.062 160.606 177.062C168.852 177.062 175.527 177.154 175.527 177.262Z" fill="#263238"/>
<path d="M175.527 189.914C175.527 190.022 168.845 190.114 160.606 190.114C152.368 190.114 145.685 190.022 145.685 189.914C145.685 189.807 152.36 189.715 160.606 189.715C168.852 189.715 175.527 189.792 175.527 189.914Z" fill="#263238"/>
<path d="M214.972 172.487H204.059C201.422 172.487 199.284 174.623 199.284 177.258C199.284 179.893 201.422 182.028 204.059 182.028H214.972C217.609 182.028 219.746 179.893 219.746 177.258C219.746 174.623 217.609 172.487 214.972 172.487Z" fill="#EBEBEB"/>
<path d="M207.998 177.262C207.998 178.053 207.763 178.826 207.324 179.484C206.884 180.142 206.259 180.655 205.528 180.958C204.797 181.26 203.993 181.34 203.217 181.185C202.441 181.031 201.728 180.65 201.169 180.09C200.609 179.531 200.228 178.818 200.074 178.042C199.92 177.266 199.999 176.462 200.302 175.731C200.604 175 201.117 174.375 201.775 173.935C202.433 173.496 203.206 173.261 203.998 173.261C204.523 173.261 205.043 173.365 205.528 173.566C206.014 173.767 206.455 174.062 206.826 174.433C207.198 174.804 207.492 175.245 207.693 175.731C207.894 176.216 207.998 176.736 207.998 177.262Z" fill="#E0E0E0"/>
<path d="M214.98 194.673H204.059C202.793 194.673 201.578 194.17 200.683 193.275C199.787 192.38 199.284 191.165 199.284 189.899C199.284 188.633 199.787 187.418 200.683 186.523C201.578 185.628 202.793 185.125 204.059 185.125H214.98C216.246 185.125 217.46 185.628 218.356 186.523C219.251 187.418 219.754 188.633 219.754 189.899C219.754 191.165 219.251 192.38 218.356 193.275C217.46 194.17 216.246 194.673 214.98 194.673Z" fill="#EBEBEB"/>
<path d="M203.998 193.899C206.207 193.899 207.998 192.108 207.998 189.899C207.998 187.69 206.207 185.899 203.998 185.899C201.788 185.899 199.997 187.69 199.997 189.899C199.997 192.108 201.788 193.899 203.998 193.899Z" fill="#E0E0E0"/>
<path d="M175.527 202.621C175.527 202.736 168.845 202.82 160.606 202.82C152.368 202.82 145.685 202.736 145.685 202.621C145.685 202.506 152.36 202.421 160.606 202.421C168.852 202.421 175.527 202.513 175.527 202.621Z" fill="#263238"/>
<path d="M214.98 208.805H204.059C203.432 208.806 202.812 208.684 202.232 208.444C201.653 208.205 201.127 207.854 200.683 207.412C200.24 206.969 199.888 206.443 199.648 205.864C199.408 205.285 199.284 204.665 199.284 204.038C199.284 202.772 199.787 201.558 200.683 200.662C201.578 199.767 202.793 199.264 204.059 199.264H214.98C216.246 199.264 217.46 199.767 218.356 200.662C219.251 201.558 219.754 202.772 219.754 204.038C219.754 204.665 219.63 205.285 219.39 205.864C219.15 206.443 218.799 206.969 218.355 207.412C217.912 207.854 217.385 208.205 216.806 208.444C216.227 208.684 215.606 208.806 214.98 208.805Z" fill="#EBEBEB"/>
<path d="M203.998 208.039C206.207 208.039 207.998 206.248 207.998 204.038C207.998 201.829 206.207 200.038 203.998 200.038C201.788 200.038 199.997 201.829 199.997 204.038C199.997 206.248 201.788 208.039 203.998 208.039Z" fill="#E0E0E0"/>
<path d="M306.146 37.6059C307.246 30.7951 302.616 24.3826 295.805 23.2832C288.994 22.1837 282.582 26.8137 281.482 33.6245C280.383 40.4353 285.013 46.8478 291.824 47.9472C298.634 49.0467 305.047 44.4167 306.146 37.6059Z" fill="#407BFF"/>
<path d="M292.037 63.5491C291.968 63.5491 291.907 61.25 291.907 58.3915C291.907 55.533 291.968 53.2415 292.037 53.2415C292.17 54.9548 292.213 56.6737 292.167 58.3915C292.214 60.1118 292.17 61.8333 292.037 63.5491Z" fill="#407BFF"/>
<path d="M284.841 50.337C284.902 50.337 283.73 52.5288 282.22 55.1421C280.71 57.7554 279.43 59.8552 279.369 59.8169C279.308 59.7786 280.48 57.6328 281.99 55.0118C283.5 52.3909 284.78 50.2987 284.841 50.337Z" fill="#407BFF"/>
<path d="M277.453 45.7389C276.541 46.6332 275.568 47.4629 274.541 48.2219C273.569 49.0524 272.545 49.8203 271.476 50.521C272.388 49.6267 273.361 48.797 274.388 48.038C275.357 47.2034 276.381 46.4353 277.453 45.7389Z" fill="#407BFF"/>
<path d="M304.498 58.4681C304.349 58.058 304.238 57.6346 304.169 57.2036C303.992 56.4373 303.732 55.3337 303.402 54.1382C303.073 52.9427 302.758 51.8851 302.521 51.1187C302.361 50.7101 302.243 50.2865 302.168 49.8542C302.387 50.2355 302.564 50.6388 302.697 51.0574C302.981 51.8238 303.333 52.8737 303.655 54.0692C303.977 55.2647 304.199 56.3683 304.337 57.1346C304.438 57.5722 304.492 58.0192 304.498 58.4681Z" fill="#407BFF"/>
<path d="M317.166 49.4787C315.88 48.5245 314.647 47.5012 313.472 46.4133C312.241 45.3951 311.067 44.3104 309.955 43.1639C311.24 44.1181 312.474 45.1415 313.648 46.2294C314.879 47.2475 316.054 48.3323 317.166 49.4787Z" fill="#407BFF"/>
<path d="M322.017 37.125C321.501 37.0933 320.989 37.0215 320.484 36.9104C319.557 36.7571 318.277 36.5579 316.86 36.3969C315.442 36.236 314.147 36.1364 313.212 36.0751C312.698 36.074 312.185 36.0304 311.679 35.9448C312.187 35.8757 312.7 35.8577 313.212 35.8911C314.154 35.8911 315.457 35.9754 316.883 36.1364C318.308 36.2973 319.595 36.5272 320.515 36.7265C321.027 36.8128 321.53 36.9462 322.017 37.125Z" fill="#407BFF"/>
<path d="M322.032 24.9782C322.032 25.0548 319.35 25.7445 315.994 26.5875C312.637 27.4305 309.909 28.0053 309.863 27.9363C309.817 27.8673 312.553 27.17 315.902 26.3346C319.251 25.4993 322.017 24.9092 322.032 24.9782Z" fill="#407BFF"/>
<path d="M307.931 10.8311C307.985 10.8311 306.698 12.931 305.042 15.4293C303.387 17.9276 301.977 19.9355 301.931 19.8895C301.885 19.8435 303.165 17.7897 304.82 15.2914C305.781 13.7528 306.819 12.2642 307.931 10.8311Z" fill="#407BFF"/>
<path d="M293.915 7.87299C293.955 8.4445 293.955 9.01812 293.915 9.58964C293.915 10.6472 293.915 12.1033 293.915 13.7127C293.915 15.322 293.915 16.7781 293.961 17.851C294.001 18.42 294.001 18.991 293.961 19.56C293.852 18.9992 293.793 18.4299 293.784 17.8587C293.723 16.8011 293.669 15.3373 293.669 13.7203C293.669 12.1033 293.715 10.6549 293.777 9.58197C293.771 9.00931 293.817 8.4373 293.915 7.87299Z" fill="#407BFF"/>
<path d="M283.308 21.0774C283.247 21.1157 281.929 19.0772 280.373 16.5252C278.817 13.9732 277.591 11.8657 277.653 11.8274C277.714 11.7891 279.032 13.8353 280.595 16.4256C282.159 19.0159 283.408 21.0467 283.308 21.0774Z" fill="#407BFF"/>
<path d="M276.97 26.4649C276.522 26.4466 276.077 26.3772 275.645 26.258C274.832 26.0817 273.721 25.8135 272.503 25.4916C271.284 25.1698 270.203 24.7253 269.437 24.457C269.009 24.3208 268.595 24.1411 268.203 23.9206C268.646 24.0011 269.08 24.1243 269.498 24.2884C270.265 24.5337 271.376 24.8862 272.564 25.2387C273.752 25.5913 274.863 25.8978 275.675 26.1124C276.117 26.1887 276.551 26.3067 276.97 26.4649Z" fill="#407BFF"/>
<path d="M274.212 36.0598C272.897 36.3227 271.565 36.4942 270.226 36.5732C268.897 36.7442 267.559 36.8312 266.218 36.8338C267.533 36.5696 268.865 36.3955 270.203 36.3127C271.533 36.1461 272.872 36.0616 274.212 36.0598Z" fill="#407BFF"/>
<path d="M265.69 258.688L276.863 338.289L279.775 338.381C277.921 311.344 275.944 283.77 265.69 258.688Z" fill="#455A64"/>
<path d="M296.735 254.955C288.926 263.485 285.784 275.279 283.806 286.69C281.001 302.868 280.741 321.981 281.592 338.381L285.669 338.473C284.053 310.185 287.808 281.847 296.735 254.955Z" fill="#455A64"/>
<path d="M267.743 305.78C266.847 301.834 265.82 297.826 263.567 294.461C260.501 289.924 255.574 287.058 250.585 284.82C245.596 282.583 240.361 280.805 235.855 277.709C240.883 285.947 252.286 288.139 258.08 295.848C260.969 299.68 262.172 304.493 263.299 309.16C265.774 319.337 267.291 328.143 269.759 338.282H273.07C271.981 327.347 270.202 316.491 267.743 305.78Z" fill="#455A64"/>
<path d="M288.65 338.381C288.65 338.381 291.447 306.769 293.524 300.96C295.601 295.151 315.22 279.119 315.036 279.877C314.852 280.636 300.314 298.178 298.237 301.803C296.16 305.428 292.604 338.381 292.604 338.381H288.65Z" fill="#455A64"/>
<path d="M195.905 305.321C196.68 305.63 197.384 306.093 197.975 306.682C198.566 307.271 199.033 307.973 199.346 308.746C199.971 310.299 200.233 311.974 200.112 313.643C199.951 316.862 198.35 320.211 196.556 322.893C193.713 320.717 192.832 316.663 192.51 314.571C192.004 311.275 193.092 305.006 195.92 305.321" fill="#407BFF"/>
<path d="M200.013 327.959C199.77 327.057 199.771 326.107 200.015 325.205C200.258 324.303 200.736 323.482 201.4 322.824C202.072 322.179 202.866 321.674 203.736 321.34C204.606 321.006 205.534 320.849 206.465 320.878C206.888 320.85 207.312 320.913 207.708 321.062C208.105 321.212 208.465 321.444 208.764 321.744C208.999 322.075 209.14 322.463 209.173 322.868C209.205 323.273 209.128 323.679 208.948 324.043C208.587 324.766 208.04 325.38 207.362 325.821C205.124 327.438 202.664 328.587 199.974 327.967" fill="#407BFF"/>
<path d="M197.2 337.983C197.2 337.762 197.218 337.542 197.254 337.324C197.307 336.856 197.376 336.251 197.461 335.531C197.636 333.534 198.13 331.577 198.924 329.737C199.758 327.895 201.068 326.308 202.718 325.139C203.22 324.798 203.76 324.518 204.327 324.303C204.479 324.241 204.635 324.19 204.795 324.15L204.963 324.112C204.209 324.429 203.488 324.819 202.81 325.277C201.223 326.462 199.961 328.027 199.139 329.829C198.346 331.648 197.83 333.575 197.606 335.546C197.491 336.312 197.399 336.91 197.323 337.331C197.305 337.552 197.263 337.771 197.2 337.983Z" fill="#263238"/>
<path d="M195.491 310.164C195.521 310.256 195.539 310.351 195.545 310.448L195.644 311.268C195.736 311.988 195.843 313.015 195.966 314.295C196.219 316.854 196.51 320.387 196.732 324.296C196.955 328.204 197.108 331.752 197.169 334.32C197.169 335.607 197.215 336.619 197.215 337.385V338.213C197.215 338.404 197.215 338.504 197.215 338.504C197.207 338.407 197.207 338.31 197.215 338.213L197.177 337.385C197.177 336.619 197.108 335.615 197.054 334.32C196.947 331.752 196.794 328.189 196.556 324.303C196.319 320.418 196.05 316.862 195.843 314.302C195.736 313.046 195.66 312.003 195.598 311.275C195.598 310.938 195.552 310.662 195.537 310.448C195.515 310.354 195.5 310.259 195.491 310.164Z" fill="#263238"/>
<path d="M195.483 330.212C195.034 328.296 194.134 326.516 192.859 325.017C191.583 323.519 189.969 322.347 188.149 321.598C187.222 321.223 186.026 321.016 185.329 321.736C184.632 322.456 184.877 323.644 185.329 324.549C186.245 326.428 187.697 327.993 189.501 329.049C191.305 330.104 193.381 330.602 195.468 330.48" fill="#407BFF"/>
<path d="M188.778 324.595C188.981 324.646 189.179 324.718 189.368 324.809C189.552 324.886 189.782 324.978 190.034 325.108C190.287 325.238 190.586 325.376 190.893 325.576C191.232 325.77 191.56 325.985 191.874 326.219C192.241 326.481 192.594 326.762 192.931 327.062C193.703 327.748 194.395 328.519 194.993 329.361C195.58 330.219 196.063 331.142 196.434 332.113C196.59 332.534 196.723 332.964 196.832 333.4C196.931 333.782 197.01 334.168 197.07 334.557C197.124 334.877 197.16 335.199 197.177 335.523C197.196 335.778 197.196 336.034 197.177 336.289C197.196 336.496 197.196 336.704 197.177 336.91C197.123 336.91 197.177 336.021 196.909 334.611C196.842 334.228 196.755 333.85 196.648 333.477C196.531 333.048 196.39 332.626 196.227 332.212C195.853 331.263 195.375 330.358 194.801 329.515C194.214 328.68 193.541 327.909 192.793 327.216C192.464 326.914 192.119 326.63 191.759 326.365C191.437 326.104 191.1 325.905 190.801 325.706C189.59 324.962 188.762 324.641 188.778 324.595Z" fill="#263238"/>
<path d="M61.2169 296.285L39.6592 313.965L61.5235 340.887C63.9681 338.642 57.8219 320.518 57.8219 320.518L72.0992 309.788L61.2169 296.285Z" fill="#455A64"/>
<g opacity="0.6">
<path d="M52.2275 311.252C51.9391 311.058 51.5892 310.976 51.2444 311.022C50.8995 311.069 50.5839 311.241 50.3576 311.505C50.1512 311.787 50.0609 312.137 50.1051 312.484C50.1493 312.83 50.3247 313.146 50.5951 313.367C50.9049 313.566 51.2759 313.647 51.6404 313.595C52.0048 313.543 52.3384 313.362 52.58 313.084C52.7637 312.767 52.8175 312.391 52.7304 312.036C52.6433 311.68 52.4218 311.372 52.1125 311.176" fill="white"/>
</g>
<g opacity="0.6">
<path d="M39.7435 313.888L41.9123 312.095L61.9296 338.795C61.9296 338.795 62.3741 340.42 61.4162 340.964L39.7435 313.888Z" fill="white"/>
</g>
<path d="M58.3124 320.847C58.1821 320.954 57.546 320.341 56.6341 320.042C55.7221 319.743 54.8561 319.843 54.8101 319.675C54.7641 319.506 55.6838 319.092 56.8257 319.483C57.9675 319.874 58.458 320.778 58.3124 320.847Z" fill="#263238"/>
<path d="M59.439 324.625C59.3393 324.756 58.6726 324.372 57.73 324.372C56.7873 324.372 56.1206 324.725 56.021 324.595C55.9214 324.464 56.5958 323.767 57.7376 323.782C58.8795 323.798 59.5616 324.518 59.439 324.625Z" fill="#263238"/>
<path d="M57.3314 328.971C57.2012 328.879 57.7146 328.158 58.7109 327.913C59.7072 327.668 60.4888 328.051 60.4199 328.189C60.3509 328.327 59.6535 328.265 58.8871 328.48C58.1208 328.695 57.477 329.093 57.3314 328.971Z" fill="#263238"/>
<path d="M61.2935 318.035C61.1326 318.081 60.8261 317.329 60.167 316.624C59.5079 315.919 58.8105 315.536 58.8642 315.375C58.9178 315.214 59.8451 315.375 60.6038 316.226C61.3625 317.077 61.4545 318.019 61.2935 318.035Z" fill="#263238"/>
<path d="M63.9681 314.831C63.9145 314.877 63.4163 314.425 62.8799 313.475C62.5732 312.918 62.3339 312.326 62.1672 311.712C62.0693 311.35 61.9975 310.981 61.9526 310.608C61.9171 310.388 61.9171 310.163 61.9526 309.942C61.9804 309.781 62.0585 309.634 62.1756 309.521C62.2927 309.408 62.4428 309.335 62.604 309.313C62.7487 309.303 62.8938 309.328 63.0271 309.385C63.1604 309.443 63.278 309.531 63.3704 309.643C63.5106 309.815 63.6266 310.006 63.7152 310.21C63.8778 310.555 64.0087 310.914 64.1061 311.283C64.2717 311.902 64.3364 312.544 64.2977 313.183C64.328 313.779 64.1698 314.369 63.8455 314.869C63.7612 314.869 63.9221 314.21 63.8455 313.183C63.8215 312.588 63.7211 311.998 63.5466 311.428C63.4416 311.097 63.3109 310.774 63.1558 310.463C63.0025 310.118 62.8033 309.873 62.6193 309.903C62.4354 309.934 62.5274 309.903 62.4891 310.057C62.4669 310.217 62.4669 310.379 62.4891 310.54C62.5272 310.89 62.5835 311.237 62.6576 311.582C62.7909 312.167 62.9782 312.74 63.2171 313.291C63.5065 313.784 63.7576 314.299 63.9681 314.831Z" fill="#263238"/>
<path d="M63.6463 314.785C63.585 314.785 63.8455 314.111 64.6579 313.367C65.1389 312.941 65.6881 312.6 66.2825 312.356C66.6366 312.213 67.0036 312.105 67.3784 312.034C67.6154 311.963 67.8666 311.954 68.1081 312.008C68.3496 312.061 68.5733 312.176 68.7579 312.34C68.8533 312.463 68.9118 312.61 68.9268 312.765C68.9417 312.92 68.9124 313.075 68.8422 313.214C68.739 313.409 68.6102 313.59 68.459 313.751C68.1991 314.051 67.8941 314.31 67.5547 314.517C66.9895 314.854 66.3498 315.046 65.6925 315.076C64.5659 315.115 63.9605 314.693 63.9988 314.647C64.5502 314.676 65.1027 314.676 65.6541 314.647C66.2362 314.573 66.7955 314.374 67.2941 314.065C67.5826 313.887 67.8412 313.664 68.0605 313.406C68.3134 313.13 68.459 312.839 68.3441 312.754C68.2222 312.677 68.0854 312.627 67.9426 312.607C67.7999 312.588 67.6546 312.598 67.5164 312.639C67.1755 312.7 66.8398 312.787 66.5125 312.9C65.9652 313.106 65.4493 313.387 64.9797 313.735C64.0984 314.302 63.7229 314.831 63.6463 314.785Z" fill="#263238"/>
<path d="M51.4535 310.724L51.714 338.588L86.3995 338.443C86.1849 335.132 68.2061 328.549 68.2061 328.549L68.7732 310.685L51.4535 310.724Z" fill="#455A64"/>
<g opacity="0.6">
<path d="M57.4771 327.093C57.1431 327.196 56.859 327.419 56.6794 327.719C56.4997 328.019 56.4372 328.374 56.5038 328.718C56.5959 329.054 56.8132 329.342 57.111 329.523C57.4089 329.704 57.7647 329.764 58.1055 329.691C58.4524 329.574 58.746 329.336 58.9329 329.021C59.1199 328.706 59.1879 328.335 59.1247 327.974C58.9936 327.632 58.7353 327.354 58.4039 327.199C58.0725 327.043 57.6937 327.022 57.3468 327.139" fill="white"/>
</g>
<g opacity="0.6">
<path d="M51.7064 338.496V335.676L85.066 336.81C85.066 336.81 86.5988 337.485 86.4302 338.573L51.7064 338.496Z" fill="white"/>
</g>
<path d="M68.7732 328.388C68.7732 328.557 67.9225 328.641 67.0872 329.154C66.2519 329.668 65.8151 330.419 65.6618 330.35C65.5085 330.281 65.7537 329.308 66.773 328.656C67.7923 328.005 68.8269 328.235 68.7732 328.388Z" fill="#263238"/>
<path d="M72.4134 329.875C72.4134 330.043 71.7237 330.335 71.1489 331.055C70.5742 331.775 70.3826 332.526 70.2446 332.526C70.1067 332.526 69.9687 331.561 70.6968 330.679C71.4248 329.798 72.4134 329.714 72.4134 329.875Z" fill="#263238"/>
<path d="M74.4979 334.228C74.3447 334.228 74.1071 333.415 74.4979 332.488C74.8888 331.561 75.7241 331.185 75.7931 331.323C75.8621 331.461 75.3793 331.967 75.0267 332.733C74.6742 333.5 74.6665 334.205 74.4979 334.228Z" fill="#263238"/>
<path d="M68.4513 324.303C68.3747 324.457 67.6007 324.227 66.6427 324.303C65.6848 324.38 64.9414 324.679 64.8494 324.533C64.7575 324.388 65.4779 323.767 66.6044 323.713C67.731 323.66 68.528 324.165 68.4513 324.303Z" fill="#263238"/>
<path d="M67.6007 320.196C67.0339 320.352 66.4355 320.352 65.8687 320.196C64.8695 320.019 63.9127 319.655 63.0485 319.123C62.8534 319.014 62.6753 318.877 62.5197 318.717C62.4123 318.594 62.3469 318.44 62.3332 318.277C62.3194 318.114 62.3579 317.952 62.4431 317.812C62.5293 317.69 62.6442 317.59 62.7777 317.522C62.9113 317.454 63.0595 317.419 63.2094 317.421C63.4299 317.421 63.6492 317.452 63.8609 317.513C64.8637 317.745 65.7901 318.23 66.5508 318.924C67.3555 319.69 67.639 320.295 67.5777 320.326C67.5164 320.357 67.1102 319.859 66.2826 319.245C65.8124 318.89 65.297 318.599 64.7498 318.379C64.4241 318.25 64.0884 318.147 63.7459 318.073C63.378 317.981 63.0715 317.981 62.9795 318.142C62.8876 318.303 62.9795 318.226 63.0255 318.333C63.1365 318.453 63.2659 318.554 63.4087 318.632C63.7061 318.822 64.0131 318.996 64.3283 319.153C64.8691 319.418 65.4336 319.631 66.0143 319.79C66.5514 319.89 67.0814 320.026 67.6007 320.196Z" fill="#263238"/>
<path d="M67.3861 320.433C67.3248 320.433 66.9876 319.858 66.9186 318.755C66.8862 318.113 66.964 317.47 67.1485 316.854C67.2591 316.488 67.4054 316.134 67.5853 315.797C67.6775 315.567 67.8276 315.365 68.021 315.211C68.2144 315.056 68.4445 314.955 68.6889 314.915C68.8501 314.911 69.0091 314.954 69.1456 315.04C69.2821 315.126 69.3899 315.251 69.4553 315.398C69.5431 315.602 69.6049 315.815 69.6392 316.034C69.7147 316.555 69.6858 317.085 69.5542 317.594C69.4227 318.104 69.191 318.581 68.8728 319C68.1984 319.904 67.4934 320.111 67.4781 320.05C67.4627 319.989 68.0068 319.636 68.5203 318.77C68.8216 318.274 69.0076 317.716 69.0644 317.138C69.1139 316.805 69.1139 316.467 69.0644 316.134C69.0031 315.766 68.8652 315.467 68.7272 315.506C68.5893 315.544 68.2597 315.781 68.1218 316.08C67.9522 316.382 67.8086 316.697 67.6926 317.023C67.5018 317.582 67.3908 318.165 67.3631 318.755C67.2941 319.774 67.4781 320.41 67.3861 320.433Z" fill="#263238"/>
<path d="M54.4269 149.228C54.4269 149.228 49.5606 154.432 47.1772 159.421C44.7938 164.41 43.2611 176.281 43.2611 176.281C43.2611 176.281 36.5477 191.233 37.567 198.881C38.5863 206.529 45.4222 258.887 45.4222 258.887C45.4222 258.887 45.085 309.743 49.9284 318.809L51.009 323.706L70.5665 320.196L70.4439 317.261L75.042 217.542L86.8134 149.65L54.4269 149.228Z" fill="#263238"/>
<path d="M97.5807 164.057C97.5807 164.057 109.268 228.432 110.302 239.598C111.337 250.763 71.5321 309.681 71.5321 309.681L53.3387 290.729L79.4563 242.18L70.965 193.248L82.7746 150.018L95.1743 150.454L97.5807 164.057Z" fill="#263238"/>
<path d="M46.8936 302.968C46.9134 303.445 46.9595 303.921 47.0316 304.393C47.1542 305.328 47.3841 306.692 47.706 308.47C48.3574 312.011 49.4149 317.146 50.8327 323.56V323.698H50.9707L70.5359 320.265H70.6815V320.111C71.2256 306.692 71.877 290.652 72.5744 273.448C73.2947 254.94 73.9615 237.774 74.5133 223.696C75.977 212.384 77.1879 203.004 78.0385 196.482C78.4447 193.233 78.7666 190.681 78.9888 188.918C79.0884 188.06 79.1727 187.385 79.2264 186.933C79.28 186.481 79.2877 186.251 79.2877 186.251C79.2877 186.251 79.2417 186.473 79.1727 186.926C79.1038 187.378 79.0041 188.052 78.8815 188.903C78.6363 190.658 78.2838 193.21 77.8316 196.451C76.9733 202.942 75.7241 212.315 74.1914 223.634C73.6243 237.712 72.9269 254.879 72.1759 273.386C71.5015 290.591 70.873 306.631 70.3519 320.05L70.5052 319.874L50.963 323.391L51.1239 323.499C49.6678 317.092 48.572 311.965 47.8746 308.44C47.5297 306.669 47.2768 305.305 47.1082 304.378C47.0239 303.918 46.9779 303.566 46.9473 303.328C46.9356 303.207 46.9177 303.087 46.8936 302.968Z" fill="#455A64"/>
<path d="M24.1863 122.59C24.1863 122.59 36.2948 96.4873 39.1534 95.1002C42.0119 93.7131 50.2273 93.2456 51.3385 94.809L29.6352 126.061L24.1863 122.59Z" fill="#455A64"/>
<path d="M24.8148 119.064C24.28 118.768 23.6528 118.686 23.0598 118.834C19.297 119.769 5.54845 123.433 4.01573 127.364C2.23778 131.893 13.1124 190.75 14.5149 192.344C15.9173 193.938 37.544 191.263 38.2108 188.749C38.8775 186.236 31.1756 122.796 31.1756 122.796L24.8148 119.064Z" fill="#455A64"/>
<path d="M7.7479 159.153C7.7479 159.153 6.52173 159.229 5.30321 161.934C4.0847 164.64 6.23051 186.604 7.84753 188.849C9.46455 191.094 14.1853 191.57 14.1853 191.57L7.7479 159.153Z" fill="#455A64"/>
<path d="M31.8499 189.953C31.8063 189.91 31.77 189.861 31.7427 189.807L31.4514 189.355C31.1985 188.956 30.8613 188.351 30.4628 187.546C29.3664 185.266 28.5358 182.867 27.9875 180.396C27.1915 176.738 26.6182 173.035 26.2708 169.307C25.8264 165.107 25.3359 160.494 24.8148 155.65C23.7725 145.964 22.9065 137.181 22.7609 130.782C22.6843 127.586 22.7609 125.004 22.8452 123.218C22.8912 122.329 22.9448 121.632 22.9908 121.164C22.9908 120.95 23.0291 120.781 23.0445 120.635C23.0364 120.574 23.0364 120.512 23.0445 120.451C23.053 120.512 23.053 120.574 23.0445 120.635C23.0445 120.781 23.0445 120.957 23.0445 121.172C23.0445 121.67 23.0445 122.36 22.9755 123.226C22.9295 125.004 22.9065 127.586 23.0215 130.774C23.2361 137.15 24.148 145.925 25.1903 155.612C25.6961 160.448 26.1789 165.061 26.6157 169.261C26.9426 172.981 27.4851 176.678 28.2404 180.335C28.7604 182.795 29.5441 185.192 30.5778 187.485C30.9533 188.29 31.2675 188.903 31.4974 189.317L31.7503 189.784C31.827 189.914 31.8576 189.914 31.8499 189.953Z" fill="#263238"/>
<path d="M24.9527 155.045C24.1063 155.252 23.2493 155.413 22.3854 155.528C20.8067 155.796 18.6226 156.217 16.2545 156.808C13.8865 157.398 11.7483 158.041 10.2232 158.54C9.40896 158.844 8.57727 159.1 7.73257 159.306C7.92187 159.168 8.13121 159.059 8.35333 158.984C8.76716 158.8 9.37259 158.555 10.1313 158.271C14.0909 156.794 18.2039 155.766 22.3931 155.206C23.1594 155.106 23.8415 155.037 24.2936 155.014C24.5137 154.993 24.7356 155.003 24.9527 155.045Z" fill="#263238"/>
<path d="M7.46435 156.723C7.51313 156.838 7.54414 156.959 7.55631 157.083C7.60996 157.367 7.67127 157.712 7.7479 158.126L8.38398 161.958C8.9281 165.199 9.71745 169.675 10.6831 174.595C11.6487 179.515 12.6756 183.952 13.4266 187.155C13.7945 188.688 14.0934 189.991 14.3233 190.949L14.5532 191.984C14.5882 192.103 14.6062 192.227 14.6068 192.351C14.5449 192.244 14.5009 192.128 14.4766 192.007L14.17 190.987C13.9171 190.106 13.5646 188.818 13.1507 187.224C12.3307 184.036 11.2808 179.607 10.2922 174.679C9.30361 169.751 8.56025 165.261 8.0851 161.996C7.84753 160.371 7.67127 159.045 7.57164 158.164C7.52566 157.743 7.48734 157.398 7.45668 157.106C7.44453 156.979 7.4471 156.85 7.46435 156.723Z" fill="#263238"/>
<path d="M22.8452 130.222C22.8122 129.675 22.8534 129.126 22.9678 128.59C23.3561 125.987 24.032 123.434 24.9834 120.98C25.1496 120.459 25.3841 119.961 25.6807 119.501C25.788 119.547 24.9144 121.877 24.148 124.866C23.3817 127.854 22.9832 130.238 22.8452 130.222Z" fill="#263238"/>
<path d="M98.8222 74.3395C98.6996 72.1247 98.4237 61.3113 98.2934 59.702C98.1559 57.459 97.1889 55.3474 95.5805 53.778C94.7875 53.0008 93.7836 52.4739 92.6936 52.2627C91.6035 52.0515 90.4755 52.1654 89.4496 52.5902C88.8018 52.7539 88.2089 53.0862 87.731 53.5532C87.2532 54.0203 86.9075 54.6055 86.729 55.2494C82.1922 71.343 82.8972 88.5631 80.9047 105.239C86.8287 106.205 94.7988 105.814 100.784 105.5C100.769 92.1804 99.6422 88.7547 98.8222 74.3395Z" fill="#263238"/>
<path d="M96.3316 97.0774C96.2966 96.9371 96.2811 96.7927 96.2856 96.6482C96.2856 96.3264 96.2473 95.8819 96.2243 95.4144C96.2243 94.2878 96.14 92.7398 96.0863 90.8622C96.002 86.9691 95.8947 81.6659 95.7721 75.8492C95.7261 72.914 95.6802 70.1245 95.6418 67.5802C95.6418 66.308 95.6418 65.1048 95.6035 63.9706C95.6171 62.9446 95.5453 61.9193 95.3889 60.9052C95.2982 60.1653 95.045 59.4546 94.6476 58.824C94.2501 58.1933 93.7182 57.6583 93.0899 57.2573C92.6162 56.9972 92.0948 56.8356 91.5571 56.7821C91.5571 56.7821 91.5571 56.7821 91.6644 56.7821C91.7714 56.7704 91.8793 56.7704 91.9863 56.7821C92.4073 56.821 92.8163 56.9435 93.1895 57.1423C93.7792 57.4557 94.2881 57.9017 94.6762 58.4451C95.1916 59.1667 95.5398 59.9939 95.6955 60.8668C95.8756 61.907 95.9654 62.9609 95.9637 64.0166C95.9637 65.1508 96.0097 66.3617 96.0403 67.6261C96.0863 70.1705 96.14 72.9907 96.2013 75.8952C96.2779 81.7348 96.3469 87.0227 96.4005 90.9082C96.4005 92.7934 96.4005 94.3338 96.4005 95.4604C96.4005 95.9662 96.4005 96.3723 96.4005 96.7019C96.388 96.8287 96.3649 96.9543 96.3316 97.0774Z" fill="#455A64"/>
<path d="M90.944 90.9618C90.8924 90.6427 90.8693 90.3195 90.8751 89.9962C90.8751 89.3678 90.8367 88.4635 90.8367 87.3446C90.8367 85.1068 90.8827 81.9801 90.967 78.6004C91.0513 75.2208 91.1433 72.1783 91.2123 69.8639C91.2123 68.8063 91.2736 67.9174 91.2966 67.22C91.2895 66.8935 91.3177 66.5671 91.3808 66.2467C91.4326 66.5684 91.4557 66.8942 91.4498 67.22C91.4498 67.8407 91.4498 68.7527 91.4498 69.8716C91.4498 72.1094 91.4038 75.2361 91.3195 78.6081C91.2352 81.9801 91.1356 85.0302 91.0743 87.3446C91.036 88.4022 91.013 89.2912 90.99 89.9962C91.0095 90.3188 90.994 90.6426 90.944 90.9618Z" fill="#455A64"/>
<path d="M51.9209 95.1002C51.1546 95.1002 36.701 96.1271 33.3444 111.608C29.9877 127.088 29.0221 148.776 29.0221 148.776L44.6942 147.243L51.9209 95.1002Z" fill="#407BFF"/>
<path d="M59.0174 91.6746L61.5617 86.9768L83.7862 86.3714L85.3189 90.3718L98.416 95.1002L97.3201 153.129L107.022 206.705C107.022 206.705 106.923 214.438 81.0886 216.89L79.0424 188.887L66.1293 188.581L66.4818 215.932C66.4818 215.932 43.6902 215.564 36.4634 210.407C36.4634 210.407 34.2716 184.351 40.4945 165.582C45.9433 149.152 48.0661 144.891 48.0661 144.891L48.5106 95.652L59.0174 91.6746Z" fill="#407BFF"/>
<g opacity="0.3">
<path d="M52.1508 95.7669C47.6855 114.88 43.2151 134.001 38.7395 153.129L43.2841 157.949C45.6126 156.863 47.5853 155.139 48.973 152.977C50.3608 150.815 51.1066 148.303 51.1239 145.734C51.1239 143.082 50.2809 140.499 50.1736 137.848C49.9284 131.87 53.2391 126.391 54.7718 120.605C56.8793 112.412 55.3389 103.614 52.1508 95.7669Z" fill="black"/>
</g>
<path d="M95.5805 94.3568C100.945 95.3454 105.076 101.017 106.31 107.101C107.022 110.665 109.099 127.847 109.099 127.847L110.241 134.146C110.241 134.146 111.199 155.796 106.608 158.218C101.244 161.038 98.1785 157.942 96.4005 155.673C94.6226 153.405 92.7297 138.645 92.7297 138.645L94.7299 103.316L95.5805 94.3568Z" fill="#407BFF"/>
<path d="M98.1172 103.047C98.1156 103.256 98.0951 103.464 98.0559 103.668C97.9945 104.102 97.9102 104.692 97.803 105.438C97.5577 106.971 97.2205 109.217 96.799 111.929C96.3775 114.642 95.8334 117.945 95.2663 121.563C94.9674 123.371 94.6609 125.272 94.339 127.241C94.0171 129.211 93.6186 131.242 93.45 133.372C93.3467 134.576 93.3467 135.786 93.45 136.989C95.113 144.431 96.6687 150.999 97.8413 155.704C98.4314 158.003 98.9065 159.904 99.2514 161.245C99.4123 161.866 99.5426 162.356 99.6422 162.732C99.7017 162.903 99.7403 163.08 99.7572 163.26C99.6783 163.099 99.6167 162.929 99.5732 162.755L99.1134 161.283C98.7303 159.996 98.1938 158.118 97.5807 155.773C96.3392 151.083 94.7375 144.515 93.0668 137.081C92.9635 135.857 92.9635 134.627 93.0668 133.403C93.2354 131.272 93.634 129.234 93.9635 127.272C94.293 125.31 94.6149 123.44 94.9138 121.593C95.5269 117.984 96.0786 114.696 96.5385 111.975C96.9983 109.255 97.3968 107.071 97.6727 105.5C97.8106 104.772 97.9179 104.182 98.0022 103.745C98.0146 103.509 98.0532 103.275 98.1172 103.047Z" fill="#263238"/>
<path d="M41.2379 98.7174L45.2996 153.129C45.2996 153.129 52.9019 118.467 53.2084 109.6C53.4413 104.514 52.9248 99.4223 51.6757 94.4871C51.6757 94.4871 44.3033 93.2993 41.2379 98.7174Z" fill="#455A64"/>
<path d="M38.8928 95.2688C39.3947 95.424 39.8573 95.6854 40.2492 96.0352C40.7068 96.4011 41.0498 96.8904 41.2379 97.4453C41.4539 98.1009 41.5903 98.7802 41.644 99.4685C41.7743 100.909 41.7666 102.212 41.7666 103.155C41.7996 103.666 41.779 104.18 41.7053 104.687C41.5532 104.191 41.4783 103.674 41.4831 103.155C41.4064 102.22 41.3758 100.917 41.2455 99.4991C41.1152 98.0813 40.7934 96.8092 40.1036 96.2191C39.4139 95.629 38.8545 95.3301 38.8928 95.2688Z" fill="#263238"/>
<path d="M67.0796 97.2384C67.0796 97.2384 66.9033 97.0927 66.6197 96.7632C66.3362 96.4337 65.9377 95.9969 65.4395 95.3454H65.6694C65.1177 96.9471 64.2747 99.2692 63.3167 101.875L63.1788 102.243L62.9719 101.928C62.8569 101.752 62.719 101.576 62.6117 101.392C61.969 100.239 61.4378 99.0283 61.0253 97.7748C60.6191 96.6329 60.2589 95.606 59.9984 94.7094C59.7378 93.8127 59.4773 93.1766 59.301 92.6785C59.1953 92.4313 59.1132 92.1747 59.0558 91.9121C59.222 92.1226 59.3539 92.3579 59.4466 92.6095C59.6688 93.0693 59.9447 93.7591 60.2666 94.6097C60.5885 95.4604 60.964 96.5026 61.3702 97.6062C61.7967 98.8284 62.3248 100.013 62.9489 101.147C63.0562 101.323 63.1788 101.484 63.2861 101.645L62.9412 101.699C63.9145 99.1006 64.7958 96.7939 65.4242 95.2152L65.5085 94.9929L65.6541 95.1845C66.1759 95.8356 66.6521 96.5218 67.0796 97.2384Z" fill="#263238"/>
<path d="M84.7059 93.4985C84.647 93.7514 84.5569 93.9959 84.4376 94.2265C84.2384 94.6864 83.9318 95.3378 83.5487 96.1424C83.1655 96.9471 82.6903 97.8974 82.1309 98.9473C81.5437 100.099 80.8726 101.205 80.123 102.258L79.8701 102.603L79.7705 102.181L79.7322 102.005C79.1038 99.3305 78.5596 96.9011 78.1995 95.1079L78.4447 95.1692C77.9107 95.6793 77.3222 96.1291 76.6897 96.5103C76.2759 96.8092 76.0843 97.0238 76.0613 97.0008C76.0383 96.9778 76.1916 96.7402 76.5901 96.3877C77.1752 95.9643 77.7238 95.4926 78.2301 94.9776L78.4064 94.7707L78.483 95.0389C78.9275 96.7939 79.5176 99.2156 80.146 101.89V102.066L79.7935 101.99C80.5281 100.953 81.1962 99.8699 81.7937 98.7481L83.2804 95.9968L84.2844 94.1346C84.3978 93.9058 84.5394 93.6921 84.7059 93.4985Z" fill="#263238"/>
<path d="M67.4627 97.0238C67.4627 97.0238 65.3093 124.996 64.7498 128.598C64.1904 132.2 66.1063 188.581 66.1063 188.581L78.7053 189.393C78.7053 189.393 78.8355 142.837 78.7053 142.515C78.575 142.193 78.7666 109.646 78.7666 109.646L75.908 96.6789L71.034 102.45L67.4627 97.0238Z" fill="white"/>
<path d="M81.5255 123.616C81.5255 123.678 81.081 123.777 80.8587 124.383C80.7941 124.545 80.7654 124.72 80.7747 124.895C80.7839 125.069 80.8309 125.24 80.9124 125.394C81.0293 125.565 81.1953 125.696 81.3882 125.77C81.5812 125.843 81.7921 125.857 81.9929 125.808C82.1977 125.785 82.3902 125.699 82.5439 125.562C82.6977 125.424 82.805 125.243 82.8513 125.042C82.8735 124.868 82.8575 124.692 82.8046 124.525C82.7516 124.358 82.6629 124.205 82.5447 124.076C82.3008 123.831 81.9882 123.665 81.6481 123.601C81.6481 123.601 81.7477 123.525 81.9546 123.525C82.2432 123.555 82.5131 123.682 82.721 123.885C82.8883 124.037 83.0177 124.227 83.0989 124.439C83.18 124.65 83.2107 124.878 83.1885 125.103C83.1263 125.38 82.9841 125.633 82.7795 125.83C82.5748 126.027 82.3168 126.159 82.0375 126.211C81.7582 126.262 81.47 126.23 81.2086 126.119C80.9473 126.008 80.7243 125.823 80.5675 125.586C80.4645 125.383 80.4108 125.158 80.4108 124.931C80.4108 124.703 80.4645 124.479 80.5675 124.276C80.6932 124.005 80.9104 123.788 81.1806 123.662C81.4028 123.578 81.5178 123.593 81.5255 123.616Z" fill="#263238"/>
<path d="M81.5255 148.033C81.5255 148.094 81.081 148.201 80.8587 148.799C80.7941 148.962 80.7654 149.136 80.7747 149.311C80.7839 149.485 80.8309 149.656 80.9124 149.811C81.0361 149.974 81.2026 150.099 81.3934 150.173C81.5842 150.246 81.7917 150.266 81.9929 150.228C82.194 150.191 82.3807 150.098 82.5323 149.961C82.6839 149.824 82.7943 149.647 82.8513 149.45C82.874 149.277 82.8583 149.1 82.8053 148.934C82.7524 148.767 82.6634 148.614 82.5447 148.485C82.1155 148.002 81.6404 148.071 81.6481 148.002C81.6557 147.933 81.7477 147.925 81.9546 147.933C82.2427 147.96 82.513 148.084 82.721 148.286C82.8869 148.439 83.0153 148.629 83.0964 148.841C83.1774 149.052 83.2089 149.279 83.1885 149.504C83.1263 149.781 82.9841 150.034 82.7795 150.231C82.5748 150.428 82.3168 150.56 82.0375 150.612C81.7582 150.663 81.47 150.631 81.2086 150.52C80.9472 150.409 80.7243 150.224 80.5675 149.987C80.4646 149.785 80.4109 149.562 80.4109 149.336C80.4109 149.109 80.4646 148.886 80.5675 148.684C80.6932 148.414 80.9104 148.197 81.1806 148.071C81.4028 147.994 81.5178 148.017 81.5255 148.033Z" fill="#263238"/>
<path d="M82.6214 177.568C82.6214 177.63 82.1769 177.737 81.9546 178.335C81.89 178.497 81.8613 178.672 81.8706 178.846C81.8798 179.021 81.9268 179.191 82.0083 179.346C82.132 179.509 82.2985 179.634 82.4893 179.708C82.6801 179.782 82.8877 179.801 83.0888 179.764C83.2899 179.727 83.4767 179.634 83.6282 179.497C83.7798 179.359 83.8902 179.182 83.9472 178.986C83.9699 178.812 83.9542 178.636 83.9012 178.469C83.8483 178.302 83.7593 178.149 83.6406 178.02C83.2115 177.538 82.7363 177.607 82.744 177.538C82.7516 177.469 82.8436 177.461 83.0505 177.469C83.3393 177.493 83.6104 177.618 83.8169 177.821C83.9856 177.973 84.1165 178.162 84.199 178.374C84.2815 178.586 84.3133 178.814 84.292 179.04C84.2312 179.319 84.0893 179.574 83.8841 179.772C83.6788 179.971 83.4194 180.104 83.1384 180.156C82.8575 180.208 82.5676 180.175 82.3051 180.062C82.0427 179.95 81.8194 179.762 81.6634 179.522C81.5622 179.32 81.5096 179.097 81.5096 178.871C81.5096 178.645 81.5622 178.422 81.6634 178.22C81.7891 177.949 82.0063 177.732 82.2765 177.607C82.5217 177.53 82.6214 177.553 82.6214 177.568Z" fill="#263238"/>
<g opacity="0.3">
<path d="M98.9755 123.394C98.6996 121.164 98.1095 118.98 97.9639 116.735C97.78 114.052 98.2474 111.37 97.7186 108.695C95.8947 111.761 95.4809 115.416 95.4732 118.965C95.4655 122.513 95.7951 126.076 95.2893 129.586C94.9444 131.993 94.1627 134.882 93.8715 137.296C93.5803 139.71 94.27 141.036 94.9751 144.661C97.4044 137.802 99.8645 130.621 98.9755 123.394Z" fill="black"/>
</g>
<path d="M94.7222 117.693C96.1694 121.829 96.6381 126.244 96.0916 130.593C95.5451 134.941 93.9983 139.103 91.5724 142.753" fill="#407BFF"/>
<path d="M91.5724 142.753C91.5035 142.707 92.3388 141.496 93.3504 139.365C93.9336 138.124 94.4303 136.843 94.8371 135.533C95.3187 133.916 95.6723 132.263 95.8947 130.59C96.0907 128.915 96.1573 127.226 96.094 125.54C96.0282 124.164 95.8668 122.794 95.6112 121.44C95.159 119.141 94.6455 117.746 94.7222 117.716C94.8888 118.02 95.0224 118.341 95.1207 118.673C95.2356 118.988 95.3659 119.371 95.4885 119.823C95.6112 120.275 95.7798 120.796 95.8871 121.356C96.1854 122.721 96.3776 124.107 96.4618 125.502C96.6651 128.923 96.2338 132.353 95.1897 135.618C94.758 136.933 94.2277 138.214 93.6033 139.45C93.3504 139.994 93.0668 140.453 92.8369 140.86C92.6376 141.213 92.4202 141.556 92.1855 141.887C92.0124 142.196 91.8069 142.486 91.5724 142.753Z" fill="#263238"/>
<path d="M56.657 154.662C56.119 154.329 55.6247 153.93 55.1856 153.474C52.9462 151.398 50.9812 149.044 49.3383 146.469C48.9635 145.954 48.657 145.393 48.4263 144.799C48.8507 145.276 49.2327 145.788 49.5682 146.331C50.2503 147.274 51.2082 148.562 52.3424 149.926C53.4766 151.29 54.5725 152.455 55.4079 153.298C55.8617 153.717 56.2795 154.173 56.657 154.662Z" fill="#263238"/>
<path d="M51.6144 155.466C51.2904 155.026 51.0322 154.541 50.8481 154.026C49.7692 151.613 48.9968 149.074 48.549 146.469C48.4175 145.936 48.3633 145.386 48.388 144.837C48.503 144.837 48.9475 147.266 49.8441 150.202C50.7408 153.137 51.7217 155.428 51.6144 155.466Z" fill="#263238"/>
<path d="M76.2606 140.867C76.2606 140.921 75.7931 140.622 75.0344 140.323C74.0441 139.937 72.9801 139.775 71.9197 139.851C70.8593 139.926 69.829 140.237 68.9035 140.76C68.1984 141.166 67.8229 141.526 67.7693 141.465C68.0171 141.075 68.3565 140.751 68.7579 140.522C69.6894 139.901 70.7673 139.534 71.8846 139.457C73.0004 139.371 74.119 139.583 75.1263 140.07C75.5639 140.239 75.9534 140.513 76.2606 140.867Z" fill="#263238"/>
<path d="M33.7122 139.051C33.7122 139.051 28.0795 145.182 28.5086 149.458C28.9378 153.734 30.9303 163.145 36.1722 162.862C41.4141 162.578 46.2192 154.095 46.9013 147.366C47.5833 140.637 46.9013 124.804 46.9013 124.804L39.3833 126.498L33.7122 139.051Z" fill="#FFBE9D"/>
<path d="M22.5233 99.8133C26.4165 104.787 36.0649 116.781 36.0649 116.781L45.1463 114.481C45.4707 114.4 45.7629 114.223 45.9845 113.973C46.2061 113.722 46.3467 113.411 46.3878 113.079C46.4146 112.862 46.3979 112.642 46.3387 112.431C46.2795 112.221 46.1789 112.024 46.043 111.853L33.3137 95.7593C32.8387 95.1555 32.1838 94.7186 31.4439 94.5119C30.704 94.3052 29.9175 94.3395 29.1983 94.6097L23.3817 96.7939C23.0962 96.9017 22.84 97.0749 22.6336 97.2995C22.4271 97.5242 22.2761 97.7941 22.1927 98.0876C22.1092 98.3811 22.0957 98.69 22.1531 98.9897C22.2105 99.2894 22.3373 99.5714 22.5233 99.8133Z" fill="#263238"/>
<path d="M45.4222 112.443C45.1092 112.188 44.8171 111.909 44.5485 111.608C44.0044 111.041 43.2304 110.221 42.3031 109.186C40.4485 107.109 37.9655 104.159 35.4059 100.756C34.7698 99.9053 34.1567 99.0699 33.5743 98.2499C33.0927 97.4474 32.4446 96.7575 31.6737 96.2267C31.2992 96.0526 30.8912 95.9624 30.4782 95.9624C30.0652 95.9624 29.6571 96.0526 29.2826 96.2267L27.1368 96.9931L24.0024 98.0277C23.6252 98.1736 23.2352 98.2839 22.8375 98.3572C23.1955 98.1712 23.567 98.0124 23.9488 97.8821L27.0142 96.7249L29.1524 95.9585C29.5625 95.8054 29.9896 95.7025 30.4245 95.652C30.9103 95.6119 31.3973 95.713 31.827 95.9432C32.6564 96.489 33.3551 97.2113 33.8731 98.0584L35.7047 100.557C38.2491 103.952 40.6861 106.917 42.487 109.033C43.353 110.052 44.0811 110.895 44.6328 111.539C44.9197 111.819 45.1836 112.121 45.4222 112.443Z" fill="#455A64"/>
<path d="M27.6809 98.1426C27.8172 98.0756 27.9704 98.0505 28.1209 98.0707C28.2715 98.0908 28.4126 98.1552 28.5265 98.2558C28.6404 98.3563 28.7218 98.4884 28.7604 98.6353C28.7991 98.7822 28.7932 98.9372 28.7436 99.0808C28.6939 99.2243 28.6027 99.3499 28.4816 99.4415C28.3605 99.5331 28.2148 99.5867 28.0632 99.5954C27.9115 99.6041 27.7607 99.5675 27.6299 99.4903C27.4991 99.4131 27.3942 99.2988 27.3284 99.1619C27.241 98.9798 27.229 98.7706 27.295 98.5798C27.3611 98.3889 27.4997 98.2318 27.6809 98.1426Z" fill="white"/>
<path d="M35.4672 109.017L31.2675 109.715L29.7348 111.094C29.5181 111.281 29.3514 111.519 29.2497 111.787C29.1481 112.054 29.1146 112.343 29.1524 112.627C29.2717 113.382 29.601 114.088 30.1026 114.665C30.6436 115.337 31.2551 115.948 31.9266 116.489C31.9266 116.489 30.4552 118.88 32.7389 120.091C32.7389 120.091 32.5857 122.567 34.9844 122.819C34.9844 122.819 35.6818 125.172 37.4904 125.302L39.3526 127.149L38.7855 128.276L47.1159 128.537C47.1581 126.314 47.048 124.092 46.7863 121.885C46.6448 120.986 46.4269 120.102 46.1349 119.241C46.5564 116.895 44.8014 115.915 44.5332 116.083C44.5332 116.083 48.5106 115.041 48.0048 112.305L44.173 113.286L37.1762 114.742L41.667 111.746C41.8896 111.541 42.0853 111.31 42.2495 111.056C42.6326 110.45 43.1998 109.355 42.7169 108.711C42.51 108.443 36.9922 110.749 36.9922 110.749L33.5743 113.899L32.5014 112.366C32.5014 112.366 36.019 111.646 35.4672 109.017Z" fill="#FFBE9D"/>
<path d="M45.0697 116.114C45.0697 116.236 43.5906 116.443 41.8203 116.964C40.05 117.486 38.6706 118.091 38.6169 117.984C39.5365 117.319 40.5782 116.843 41.6824 116.581C42.7687 116.2 43.9206 116.041 45.0697 116.114Z" fill="#EB996E"/>
<path d="M43.1461 123.325C43.6469 122.87 44.1108 122.375 44.5332 121.846L44.6788 121.655L44.7785 121.877C44.9162 122.17 45.1599 122.4 45.4605 122.521C45.6185 122.6 45.7945 122.635 45.9707 122.625C46.147 122.614 46.3173 122.557 46.4645 122.459C46.5281 122.41 46.5753 122.343 46.5999 122.266C46.6246 122.189 46.6254 122.107 46.6024 122.03L46.4875 121.34C46.4299 120.861 46.3351 120.387 46.2039 119.923C46.141 119.725 46.0159 119.554 45.8474 119.434C45.6788 119.313 45.4759 119.251 45.2689 119.256C44.8358 119.275 44.4075 119.355 43.9968 119.493L41.7513 120.045C41.068 120.245 40.3676 120.381 39.6592 120.451C40.3123 120.165 40.9893 119.937 41.6824 119.769L43.8895 119.141C44.3369 118.976 44.8077 118.883 45.2843 118.865C45.5569 118.871 45.8225 118.953 46.0506 119.103C46.2823 119.276 46.4581 119.513 46.5564 119.785C46.695 120.274 46.7949 120.774 46.8553 121.279C46.8553 121.517 46.9243 121.754 46.9626 121.984C46.9908 122.127 46.9776 122.275 46.9247 122.411C46.8718 122.547 46.7812 122.664 46.6637 122.751C46.4638 122.884 46.2319 122.961 45.9921 122.974C45.7523 122.988 45.5132 122.937 45.2996 122.827C44.949 122.65 44.6761 122.35 44.5332 121.984H44.7708C44.4501 122.386 44.0733 122.74 43.6519 123.034C43.3377 123.241 43.1614 123.348 43.1461 123.325Z" fill="#EB996E"/>
<path d="M35.7814 111.746C35.2269 112.611 34.6014 113.429 33.9115 114.19C33.3295 115.037 32.6757 115.832 31.9572 116.566C32.3466 115.613 32.8932 114.732 33.5743 113.96C34.1733 113.097 34.9206 112.348 35.7814 111.746Z" fill="#EB996E"/>
<path d="M37.5134 114.635C37.5134 114.75 36.6397 115.026 35.9806 115.922C35.636 116.491 35.3778 117.109 35.2143 117.754C35.1606 117.754 35.084 117.524 35.0993 117.125C35.1465 116.606 35.3331 116.109 35.6392 115.687C35.9454 115.265 36.3599 114.933 36.839 114.727C37.2528 114.589 37.498 114.589 37.5134 114.635Z" fill="#EB996E"/>
<path d="M82.4681 52.8967C81.8243 51.2107 82.0772 49.3331 81.8243 47.5322C81.2726 43.6007 78.1075 40.4433 74.4443 38.9029C71.034 37.4775 66.8726 37.7841 62.7649 39.1022C59.9117 39.9639 57.3626 41.6199 55.4155 43.8766C54.1747 45.4072 53.3185 47.2126 52.9185 49.1419C52.5186 51.0712 52.5864 53.0682 53.1165 54.9659L73.2411 52.0614C75.1187 53.5941 77.0729 55.2111 79.3337 56.0848C79.9923 56.3782 80.7161 56.4944 81.4335 56.4219C81.7844 56.3738 82.1145 56.2273 82.3857 55.9995C82.6569 55.7717 82.8582 55.4718 82.9662 55.1345C83.1961 54.3758 82.7516 53.6324 82.4681 52.8967Z" fill="#263238"/>
<path d="M69.9611 37.899C74.3676 37.1327 78.2378 38.857 81.9469 41.3476C85.651 43.9071 88.4831 47.5387 90.0627 51.7548C91.7564 56.1461 92.1855 62.4839 90.8291 67.0131C90.2442 69.1396 89.1542 71.0933 87.6517 72.7079C86.1493 74.3224 84.2789 75.55 82.1999 76.286C76.1456 78.4318 69.1717 78.1636 64.0218 74.2858C58.8718 70.408 55.975 63.9936 55.7374 57.5715C55.5115 53.1138 56.6939 48.6979 59.1171 44.9495C60.3382 43.0959 61.9276 41.5134 63.7866 40.3004C65.6456 39.0875 67.7343 38.2701 69.9228 37.899" fill="#263238"/>
<path d="M62.9642 85.8196L63.1251 89.4062L71.034 103.392L82.5294 88.6781L82.9202 51.8928C82.9047 51.0708 82.581 50.2845 82.0133 49.6899C81.4456 49.0952 80.6752 48.7354 79.8548 48.6817L62.2975 44.9342C56.703 44.5587 53.2544 51.5556 53.1011 57.196C52.9479 63.4265 52.9938 71.0365 53.8675 75.6423C55.6991 84.9076 62.8876 85.8272 62.8876 85.8272" fill="#FFBE9D"/>
<path d="M55.6608 64.9132C55.6668 65.2256 55.7957 65.523 56.0194 65.7411C56.2432 65.9591 56.5439 66.0802 56.8563 66.0781C57.0092 66.0843 57.1617 66.0598 57.305 66.0063C57.4483 65.9527 57.5795 65.871 57.6908 65.7661C57.8022 65.6612 57.8915 65.5351 57.9535 65.3952C58.0154 65.2554 58.0489 65.1045 58.0518 64.9516C58.04 64.6418 57.909 64.3486 57.6863 64.133C57.4636 63.9174 57.1663 63.7961 56.8563 63.7944C56.7038 63.7872 56.5514 63.8106 56.4081 63.8633C56.2649 63.916 56.1336 63.9969 56.0222 64.1013C55.9107 64.2056 55.8213 64.3312 55.7592 64.4706C55.6972 64.6101 55.6637 64.7606 55.6608 64.9132Z" fill="#263238"/>
<path d="M54.9404 60.7826C55.0937 60.9358 55.975 60.2308 57.2395 60.1848C58.504 60.1388 59.4926 60.7443 59.6229 60.5833C59.7532 60.4224 59.5309 60.2385 59.1018 59.9549C58.5331 59.5863 57.8626 59.4066 57.1859 59.4414C56.5175 59.4628 55.8734 59.6963 55.3466 60.1082C54.9864 60.3994 54.8638 60.7136 54.9404 60.7826Z" fill="#263238"/>
<path d="M67.3325 64.691C67.3405 65.0041 67.471 65.3015 67.696 65.5193C67.921 65.7371 68.2225 65.858 68.5356 65.8559C68.6875 65.862 68.8391 65.8378 68.9814 65.7846C69.1238 65.7314 69.2541 65.6504 69.3648 65.5461C69.4754 65.4419 69.5641 65.3167 69.6257 65.1777C69.6873 65.0388 69.7206 64.889 69.7235 64.737C69.7175 64.4246 69.5886 64.1272 69.3648 63.9092C69.1411 63.6912 68.8404 63.5701 68.528 63.5721C68.3755 63.5649 68.2231 63.5884 68.0798 63.6411C67.9366 63.6938 67.8053 63.7747 67.6939 63.879C67.5824 63.9833 67.493 64.109 67.4309 64.2484C67.3688 64.3879 67.3354 64.5384 67.3325 64.691Z" fill="#263238"/>
<path d="M67.1562 60.4837C67.3095 60.637 68.1908 59.9319 69.4553 59.8859C70.7198 59.8399 71.7544 60.453 71.8463 60.2844C71.9383 60.1158 71.7544 59.9396 71.3252 59.656C70.7565 59.2874 70.0861 59.1078 69.4093 59.1426C68.741 59.1639 68.0968 59.3974 67.57 59.8093C67.2022 60.1312 67.0796 60.3994 67.1562 60.4837Z" fill="#263238"/>
<path d="M63.2784 70.2624C62.5936 70.0758 61.8882 69.9754 61.1786 69.9636C60.849 69.9636 60.5348 69.8869 60.4735 69.6647C60.4309 69.3265 60.4952 68.9835 60.6575 68.6837L61.5311 66.1471C62.7496 62.5375 63.6156 59.5717 63.47 59.5257C63.3244 59.4797 62.2208 62.3613 61.0023 65.9785L60.167 68.5305C59.9776 68.935 59.9342 69.3927 60.0444 69.8256C60.098 69.9387 60.176 70.0385 60.2727 70.118C60.3694 70.1975 60.4825 70.2547 60.6038 70.2854C60.7872 70.3274 60.9752 70.3454 61.1633 70.3391C61.8686 70.407 62.5798 70.3813 63.2784 70.2624Z" fill="#263238"/>
<path d="M62.9642 85.8196C67.3659 85.5243 71.6199 84.1133 75.3256 81.7195C75.3256 81.7195 72.4287 88.2873 63.0638 87.7661L62.9642 85.8196Z" fill="#EB996E"/>
<path d="M64.267 73.029C64.5005 72.7724 64.795 72.5788 65.1232 72.4663C65.4514 72.3538 65.8027 72.3259 66.1446 72.3853C66.3895 72.4083 66.6254 72.4899 66.8321 72.6233C67.0389 72.7567 67.2105 72.9379 67.3324 73.1516C67.5093 73.4104 67.6133 73.712 67.6336 74.0249C67.6538 74.3377 67.5895 74.6502 67.4474 74.9296C67.2516 75.1712 66.9869 75.3475 66.6885 75.4351C66.3901 75.5227 66.0721 75.5175 65.7767 75.4201C65.2199 75.293 64.6971 75.0473 64.244 74.6997C64.0978 74.5584 63.9965 74.3771 63.9528 74.1785C63.9222 73.974 63.938 73.7651 63.999 73.5675C64.06 73.3698 64.1647 73.1884 64.3053 73.0367" fill="#EB996E"/>
<path d="M67.2328 57.4719C67.3708 57.8167 68.6506 57.6022 70.1603 57.7324C71.6701 57.8627 72.9192 58.2229 73.1032 57.901C73.1875 57.7478 72.9652 57.4259 72.4594 57.1347C71.7913 56.7349 71.0371 56.501 70.26 56.4526C69.4758 56.3874 68.6875 56.5109 67.9609 56.8128C67.4398 57.0197 67.1715 57.3339 67.2328 57.4719Z" fill="#263238"/>
<path d="M55.1013 55.1421C55.3389 55.4257 56.2125 55.0885 57.2778 55.0348C58.343 54.9812 59.255 55.1575 59.4466 54.8432C59.5309 54.6976 59.3776 54.4064 58.9791 54.1459C58.4362 53.8338 57.8129 53.6898 57.1881 53.7321C56.5633 53.7744 55.9651 54.001 55.4692 54.3834C55.109 54.6976 55.0324 55.0348 55.1013 55.1421Z" fill="#263238"/>
<path d="M85.6868 50.1914C83.8705 44.8269 75.931 37.5388 70.2983 38.037L61.4008 43.6007C61.722 45.1311 62.4505 46.5463 63.5094 47.6969C64.5683 48.8475 65.9183 49.6908 67.4168 50.1378C69.0184 50.5899 70.9343 50.6896 71.9076 52.0384C72.8809 53.3872 72.3751 55.464 73.3024 56.8894C74.5822 58.8666 77.9849 58.7057 78.9658 60.8515C79.3873 61.7865 79.1957 62.913 79.6402 63.848C80.2303 65.0818 83.4184 66.6069 84.7212 66.1471C86.024 65.6873 85.978 63.4801 86.3842 62.3153C86.8968 60.99 86.9374 59.5286 86.4991 58.1769C85.886 55.5636 86.5604 52.7358 85.6868 50.1914Z" fill="#263238"/>
<path d="M80.8894 67.3426C80.8894 66.6452 81.6098 64.9822 82.2918 64.8443C84.1081 64.4917 87.4111 64.5147 87.6564 69.1665C87.9399 75.5197 81.5255 74.4851 81.4795 74.3088C81.4335 74.1325 80.9737 69.7413 80.8894 67.3426Z" fill="#FFBE9D"/>
<path d="M83.2804 71.8105C83.2804 71.8105 83.3954 71.8871 83.5793 71.9638C83.7117 72.0188 83.8536 72.0471 83.997 72.0471C84.1403 72.0471 84.2823 72.0188 84.4146 71.9638C85.0737 71.6879 85.5872 70.5996 85.5718 69.4578C85.5667 68.9116 85.4356 68.3739 85.1887 67.8867C85.1224 67.6904 85.0087 67.5136 84.8576 67.3718C84.7066 67.2301 84.5228 67.1279 84.3227 67.0744C84.1937 67.0442 84.0583 67.0608 83.9404 67.1212C83.8225 67.1815 83.7299 67.2817 83.6789 67.4039C83.6023 67.5878 83.6789 67.7105 83.6176 67.7181C83.5563 67.7258 83.472 67.6185 83.518 67.3579C83.5421 67.1967 83.6238 67.0497 83.7479 66.9441C83.9178 66.8058 84.1352 66.7397 84.3533 66.7602C84.6166 66.7988 84.8653 66.9054 85.0749 67.0693C85.2846 67.2332 85.4479 67.4489 85.5489 67.6951C85.8431 68.2342 86.0034 68.8361 86.0163 69.4501C86.0163 70.7299 85.4262 71.9561 84.4836 72.2626C84.3154 72.3197 84.1365 72.3384 83.9601 72.3171C83.7837 72.2959 83.6143 72.2354 83.4644 72.14C83.2958 71.9638 83.2574 71.8258 83.2804 71.8105Z" fill="#EB996E"/>
<path d="M91.4498 58.6521C91.6421 58.0351 91.7251 57.3893 91.6951 56.7438C91.7122 53.602 90.6761 50.545 88.7522 48.061C88.3863 47.5309 87.9328 47.067 87.4111 46.6892C87.2885 46.7658 89.419 48.881 90.5379 52.2913C91.1676 54.3519 91.4752 56.4975 91.4498 58.6521Z" fill="#407BFF"/>
<path d="M63.2554 41.6848C62.6653 44.2675 58.7339 47.5782 57.0019 49.5937C53.7065 53.4255 53.0858 53.9926 53.1088 65.5723C51.4037 61.9778 50.5015 58.0552 50.4648 54.0769C50.542 50.6941 51.853 47.4561 54.151 44.9725C55.3092 43.7557 56.7351 42.8257 58.3155 42.2564C59.8959 41.687 61.5873 41.4939 63.2554 41.6925" fill="#263238"/>
<path d="M88.9285 50.1072C88.5812 50.2339 88.2216 50.3238 87.8556 50.3754C87.5031 50.452 87.0892 50.5363 86.5681 50.5976C86.047 50.6589 85.4875 50.7662 84.8438 50.7969C83.3463 50.9065 81.8428 50.9065 80.3452 50.7969C78.5071 50.664 76.6825 50.3847 74.8888 49.9615C73.1008 49.5131 71.3527 48.9185 69.6622 48.1836C68.2856 47.5785 66.9561 46.8715 65.6848 46.0684C65.1253 45.7466 64.6655 45.394 64.2517 45.1028C63.8912 44.8656 63.5433 44.6098 63.2094 44.3365C62.9114 44.1032 62.6321 43.8469 62.3741 43.5701C62.7011 43.746 63.0115 43.9512 63.3014 44.1832C63.5849 44.3978 63.9375 44.6507 64.3666 44.9495C64.7958 45.2484 65.2633 45.555 65.8227 45.8615C67.1002 46.6269 68.4292 47.3029 69.8001 47.8847C71.471 48.6112 73.1953 49.2081 74.9577 49.6703C76.7224 50.0876 78.5155 50.3744 80.3223 50.5287C81.8065 50.6399 83.2965 50.6527 84.7825 50.567C85.4186 50.567 85.9933 50.4673 86.4915 50.429C86.9896 50.3907 87.4264 50.3217 87.7789 50.2681C88.1571 50.1835 88.5416 50.1297 88.9285 50.1072Z" fill="#455A64"/>
<path d="M89.5876 54.667C89.3408 54.7584 89.0832 54.8177 88.8212 54.8433C88.1449 54.9704 87.4616 55.0574 86.775 55.1038C82.2061 55.439 77.6314 54.5362 73.5323 52.4905C72.9133 52.1878 72.312 51.8501 71.7314 51.4789C71.5077 51.3564 71.3014 51.2043 71.1183 51.0268C71.1183 50.9731 72.0762 51.5326 73.6473 52.253C77.752 54.1398 82.2461 55.0249 86.7597 54.8356C88.5147 54.7666 89.5799 54.598 89.5876 54.667Z" fill="#455A64"/>
<path d="M91.1969 54.8203C91.3066 55.1299 91.3786 55.4515 91.4115 55.7782C91.5112 56.4066 91.6108 57.311 91.6721 58.4375C91.741 59.7573 91.741 61.0798 91.6721 62.3996C91.6118 64.0212 91.3936 65.633 91.0207 67.2123C90.2725 70.1146 88.5284 72.6616 86.093 74.4085C85.3538 74.9133 84.5624 75.3372 83.7326 75.673C83.4377 75.8156 83.1262 75.9212 82.8053 75.9872C83.0809 75.8126 83.3705 75.6613 83.6713 75.535C84.4625 75.1518 85.219 74.7005 85.9321 74.1862C86.9776 73.413 87.889 72.4732 88.6296 71.4043C89.5621 70.1141 90.2456 68.6613 90.6452 67.1204C91.0076 65.5618 91.2333 63.9745 91.3196 62.3766C91.4115 60.8975 91.4269 59.5641 91.4039 58.4452C91.3809 57.3263 91.3272 56.422 91.2659 55.8012C91.2137 55.477 91.1906 55.1487 91.1969 54.8203Z" fill="#455A64"/>
<path d="M65.8534 75.4047C66.1974 75.408 66.537 75.3264 66.842 75.1672C66.9913 75.0753 67.1191 74.9526 67.217 74.8072C67.3148 74.6617 67.3803 74.497 67.4091 74.3242C67.4435 74.1124 67.4311 73.8956 67.3728 73.6891C67.3146 73.4826 67.2119 73.2913 67.0719 73.1286C66.7739 72.8092 66.3658 72.6147 65.93 72.5845C65.5631 72.5625 65.1971 72.6421 64.8724 72.8144C64.3053 73.1133 64.1061 73.4812 64.0141 73.4429C63.9222 73.4045 64.1291 72.983 64.7268 72.5692C65.0865 72.328 65.5124 72.2047 65.9454 72.2167C66.2147 72.2228 66.48 72.2837 66.7251 72.3957C66.9701 72.5077 67.1898 72.6684 67.3708 72.8681C67.5516 73.0751 67.6818 73.3214 67.751 73.5874C67.8202 73.8534 67.8264 74.1319 67.7693 74.4008C67.7273 74.6177 67.6364 74.8222 67.5036 74.9988C67.3708 75.1754 67.1996 75.3194 67.0029 75.4201C66.2826 75.7266 65.8151 75.4354 65.8534 75.4047Z" fill="#263238"/>
<path d="M105.053 127.732L108.471 120.444C109.038 118.145 111.352 117.378 114.188 117.194L117.184 115.968C117.184 115.968 119.368 112.818 121.392 112.903C121.55 112.908 121.703 112.963 121.829 113.059C121.956 113.155 122.049 113.288 122.097 113.439C122.131 113.542 122.141 113.652 122.126 113.759C122.112 113.867 122.073 113.97 122.012 114.06L119.552 117.846L117.59 118.811C117.59 118.811 119.43 119.256 120.158 118.574C120.886 117.892 123.346 115.945 123.346 115.945C123.346 115.945 125.223 112.566 127.66 112.818C127.733 112.825 127.804 112.85 127.865 112.89C127.926 112.93 127.976 112.985 128.011 113.05C128.046 113.114 128.065 113.186 128.065 113.26C128.065 113.333 128.047 113.405 128.013 113.47L126.143 117.079C126.143 117.079 129.553 111.952 132.803 113.868L129.201 117.784C129.201 117.784 134.427 114.819 136.512 117.302L123.284 122.766L115.659 124.26L112.992 131.495L110.647 130.138L105.053 127.732Z" fill="#FFBE9D"/>
<path d="M112.977 137.196C112.977 137.196 113.383 150.148 110.992 153.719C108.601 157.29 104.156 162.149 98.6536 158.256L95.2126 145.228C95.2126 145.228 100.815 139.097 101.834 136.568C104.371 130.291 108.471 120.474 108.471 120.474L115.766 123.724L112.977 137.196Z" fill="#FFBE9D"/>
<path d="M102.662 135.38C102.436 135.951 102.159 136.5 101.834 137.02C101.298 138.009 100.577 139.388 99.8645 140.952C99.1517 142.515 98.577 143.963 98.1708 145.021C97.9936 145.607 97.76 146.174 97.4734 146.715C97.5452 146.104 97.6919 145.504 97.9102 144.929C98.3478 143.516 98.8778 142.134 99.4966 140.791C100.113 139.443 100.812 138.136 101.589 136.875C101.885 136.335 102.245 135.833 102.662 135.38Z" fill="#EB996E"/>
<path d="M119.552 117.807C119.028 118.267 118.423 118.623 117.767 118.857C117.168 119.21 116.507 119.444 115.82 119.547C116.342 119.089 116.945 118.733 117.598 118.497C118.2 118.145 118.863 117.911 119.552 117.807Z" fill="#EB996E"/>
<path d="M120.648 121.233C120.648 121.179 120.993 120.95 121.614 120.681L122.717 120.229L123.353 119.961C123.566 119.88 123.753 119.746 123.898 119.57C124.564 118.804 125.108 118.037 125.545 117.524C125.982 117.01 126.312 116.689 126.35 116.758C126.306 116.847 126.258 116.934 126.204 117.018L125.775 117.692C125.295 118.442 124.765 119.159 124.189 119.838C124.096 119.945 123.993 120.042 123.882 120.13C123.767 120.207 123.644 120.271 123.514 120.321L122.848 120.574C122.426 120.727 122.035 120.842 121.713 120.95C121.371 121.087 121.013 121.182 120.648 121.233Z" fill="#EB996E"/>
</svg>
