<svg width="300" height="248" viewBox="0 0 300 248" fill="none" xmlns="http://www.w3.org/2000/svg">
<path d="M227.516 11.0752C220.005 23.3319 227.094 35.3772 225.029 43.8205C223.77 48.9883 216.595 56.3077 216.48 61.8405C216.297 70.8985 224.164 71.5997 224.039 76.5274C223.876 83.5106 215.317 85.7391 217.114 96.4973C218.91 107.255 233.75 114.527 261.52 108.821C289.29 103.116 300.903 88.5439 298.982 79.5243C297.061 70.5047 287.273 70.4855 284.573 64.1554C282.844 60.1307 287.455 55.4528 285.217 47.7107C282.979 39.9687 274.766 39.8918 271.596 33.7347C268.426 27.5775 266.794 10.6814 254.623 5.70572C242.453 0.730049 231.215 5.03333 227.516 11.0752Z" fill="#263238"/>
<path d="M228.794 10.9215C226.552 13.9167 225.069 17.4102 224.471 21.1034C223.867 24.9984 223.722 28.9509 224.039 32.8798C224.292 35.2016 224.276 37.5449 223.991 39.863C223.611 41.8468 222.879 43.7466 221.83 45.4726C219.774 49.0363 216.96 52.1485 215.308 55.9331C213.742 59.5256 213.031 63.8769 215.241 67.3637C216.441 69.2848 218.353 70.5143 219.832 72.1665C221.311 73.8186 222.281 75.9126 221.206 77.9298C220.245 79.6588 218.526 80.8787 217.363 82.4348C216.196 83.9636 215.287 85.6737 214.674 87.4969C214.036 89.3073 213.783 91.2312 213.932 93.145C214.08 95.0589 214.628 96.9206 215.538 98.6105C219.803 106.439 229.169 108.658 237.352 109.311C238.496 109.398 239.639 109.484 240.782 109.551C240.964 109.551 241.022 109.301 240.839 109.282C232.54 108.379 222.896 107.284 217.488 100.08C216.286 98.5129 215.461 96.6907 215.074 94.7538C214.688 92.817 214.751 90.8173 215.26 88.9089C215.779 87.014 216.635 85.2278 217.786 83.6355C218.9 82.089 220.37 80.8883 221.523 79.3898C222.109 78.6847 222.497 77.8362 222.648 76.9314C222.798 76.0266 222.705 75.0981 222.377 74.2413C221.533 72.403 220.258 70.7952 218.66 69.5537C217.001 68.2612 215.772 66.4963 215.135 64.4916C214.724 62.4754 214.86 60.386 215.529 58.4401C216.758 54.5115 219.371 51.332 221.638 47.9509C223.905 44.5697 225.365 40.9484 225.25 36.8181C225.182 34.7241 224.894 32.6396 224.75 30.5552C224.606 28.6185 224.567 26.6753 224.635 24.7343C224.695 20.862 225.6 17.0496 227.286 13.563C227.747 12.6671 228.294 11.8178 228.919 11.0272C228.976 10.9503 228.861 10.8351 228.794 10.9215Z" fill="#263238"/>
<path d="M298.136 72.7428C297.349 71.4304 296.287 70.3033 295.024 69.4385C293.708 68.5644 292.258 67.9304 290.875 67.1715C289.503 66.5499 288.337 65.5504 287.513 64.2899C286.61 62.6858 286.802 60.8127 287.128 59.0741C287.555 57.2822 287.854 55.4621 288.022 53.6277C288.093 51.8308 287.892 50.0335 287.426 48.2967C286.435 44.7286 284.369 41.5524 281.509 39.2002C280.107 37.9899 278.627 36.9045 277.215 35.7134C275.669 34.4186 274.302 32.9229 273.152 31.266C270.645 27.6255 269.003 23.4471 266.697 19.6721C264.307 15.8164 261.53 12.2149 258.408 8.92355C258.331 8.8371 258.225 8.97158 258.302 9.04842C261.085 12.0389 263.551 15.3094 265.66 18.8077C267.668 22.1216 269.176 25.6756 270.981 29.0952C272.588 32.41 274.919 35.3217 277.801 37.6153C280.568 39.9783 283.382 42.2932 285.015 45.6359C286.623 48.9097 287.154 52.6081 286.533 56.202C285.985 59.3238 284.958 62.9259 287.196 65.6251C289.117 67.9304 292.123 68.6988 294.505 70.351C295.777 71.2703 296.841 72.4481 297.625 73.8072C298.41 75.1663 298.898 76.676 299.059 78.2371C300.019 86.2097 293.718 92.3669 286.792 95.018C286.756 95.04 286.728 95.074 286.714 95.1141C286.7 95.1542 286.701 95.198 286.715 95.2378C286.73 95.2777 286.758 95.3111 286.795 95.3324C286.832 95.3536 286.875 95.3613 286.917 95.3542C293.017 93.3082 298.809 88.4574 299.827 81.8008C300.329 78.6768 299.731 75.4754 298.136 72.7428Z" fill="#263238"/>
<path d="M279.252 242.722C278.397 239.908 232.021 174.936 228.688 173.563C227.43 173.034 224.971 171.075 213.271 178.903L188.633 157.281L174.628 203.052L235.7 229.063C235.7 229.063 264.575 245.998 268.359 247.103C272.144 248.207 280.116 245.537 279.252 242.722Z" fill="#AD6359"/>
<path d="M279.252 242.722C278.397 239.908 232.021 174.936 228.688 173.563C227.43 173.034 224.971 171.075 213.271 178.903L188.633 157.281L174.628 203.052L235.7 229.063C235.7 229.063 264.575 245.998 268.359 247.103C272.144 248.207 280.116 245.537 279.252 242.722Z" fill="#AD6359"/>
<path d="M210.784 218.468L235.643 229.035C235.643 229.035 264.527 245.959 268.302 247.064C272.077 248.169 280.078 245.498 279.213 242.694C278.349 239.889 231.983 174.907 228.659 173.534C227.392 173.005 224.942 171.046 213.243 178.874L210.726 176.588L210.784 218.468Z" fill="#C7C7C7"/>
<path d="M216.24 218.641C215.6 217.734 214.862 216.9 214.04 216.153C213.237 215.387 212.347 214.716 211.389 214.156C212.035 215.064 212.779 215.898 213.608 216.643C214.407 217.406 215.29 218.076 216.24 218.641Z" fill="#263238"/>
<path d="M216.297 214.3C215.655 213.394 214.917 212.56 214.097 211.812C213.29 211.05 212.401 210.38 211.446 209.814C212.078 210.728 212.817 211.563 213.646 212.302C214.452 213.065 215.341 213.736 216.297 214.3Z" fill="#263238"/>
<path d="M216.345 209.967C215.046 208.161 213.396 206.636 211.494 205.482C212.137 206.387 212.874 207.221 213.694 207.97C214.502 208.731 215.391 209.401 216.345 209.967Z" fill="#263238"/>
<path d="M216.403 205.626C215.118 203.825 213.485 202.299 211.6 201.14C212.234 202.052 212.973 202.887 213.8 203.628C214.59 204.389 215.464 205.059 216.403 205.626Z" fill="#263238"/>
<path d="M216.489 201.294C215.858 200.38 215.119 199.545 214.29 198.806C213.486 198.037 212.597 197.363 211.638 196.798C212.276 197.708 213.014 198.542 213.838 199.286C214.645 200.051 215.535 200.724 216.489 201.294Z" fill="#263238"/>
<path d="M216.489 196.952C215.849 196.045 215.112 195.21 214.29 194.464C213.484 193.701 212.595 193.03 211.638 192.466C212.273 193.378 213.011 194.213 213.838 194.954C214.644 195.718 215.533 196.388 216.489 196.952Z" fill="#263238"/>
<path d="M216.557 192.61C215.253 190.799 213.596 189.27 211.686 188.115C212.985 189.921 214.635 191.447 216.537 192.601L216.557 192.61Z" fill="#263238"/>
<path d="M216.614 188.278C215.974 187.371 215.237 186.537 214.415 185.79C213.611 185.024 212.722 184.353 211.763 183.792C212.398 184.704 213.136 185.539 213.963 186.28C214.769 187.044 215.658 187.714 216.614 188.278Z" fill="#263238"/>
<path d="M216.662 183.937C216.028 183.025 215.29 182.19 214.463 181.449C213.657 180.685 212.767 180.015 211.811 179.451C213.096 181.252 214.729 182.777 216.614 183.937H216.662Z" fill="#263238"/>
<path d="M93.1637 153.16C100.656 173.745 204.646 221.235 204.646 221.235L222.253 166.55L174.513 146.196L275.669 131.365L224.049 112.097C224.049 112.097 214.251 116.246 207.028 114.152C203.82 113.192 135.668 103.788 122.422 107.092C93.1541 114.373 86.2861 134.266 93.1637 153.16Z" fill="#455A64"/>
<path d="M150.711 133.719C152.731 134.551 154.694 135.513 156.589 136.6C158.616 137.619 160.662 138.608 162.689 139.636H162.756L161.392 138.531C159.826 137.292 158.385 135.928 156.704 134.833C156.69 134.817 156.682 134.797 156.68 134.775C156.679 134.754 156.685 134.732 156.697 134.715C156.709 134.697 156.727 134.684 156.747 134.678C156.768 134.671 156.79 134.672 156.81 134.679C158.51 135.746 160.316 136.668 161.92 137.888C162.679 138.464 163.409 139.059 164.129 139.674C164.523 140.01 164.927 140.347 165.301 140.702C165.489 140.863 165.666 141.036 165.83 141.221C166.79 141.701 167.674 142.181 168.577 142.7C170.594 143.833 172.515 145.13 174.542 146.244C174.648 146.312 174.542 146.465 174.436 146.408C172.448 145.399 170.363 144.583 168.366 143.593C166.368 142.604 164.341 141.518 162.352 140.423C160.364 139.328 158.51 138.253 156.589 137.177C154.55 136.188 152.576 135.068 150.682 133.824C150.595 133.796 150.634 133.69 150.711 133.719Z" fill="#263238"/>
<path d="M198.921 208.114C199.363 206.558 199.824 205.001 200.285 203.455C201.245 200.362 202.139 197.259 203.08 194.166C205.001 188.019 206.855 181.871 208.843 175.762C209.986 172.314 211.129 168.837 212.417 165.436C212.429 165.394 212.458 165.359 212.497 165.338C212.536 165.317 212.581 165.313 212.623 165.326C212.665 165.338 212.7 165.367 212.721 165.406C212.742 165.445 212.746 165.49 212.734 165.532C211.158 171.805 209.208 178.019 207.268 184.157C205.328 190.295 203.349 196.404 201.341 202.514C200.775 204.233 200.218 205.943 199.632 207.643C199.046 209.343 198.354 211.101 197.768 212.84C197.768 212.926 197.605 212.888 197.634 212.84C198.114 211.245 198.479 209.67 198.921 208.114Z" fill="#263238"/>
<path d="M254.143 63.7616C244.537 82.5692 228.967 104.105 223.934 106.987C217.565 110.608 181.391 111.04 179.652 110.829C175.358 110.195 174.59 77.9298 179.21 78.41C186.251 79.1497 211.264 84.0485 213.127 82.9054C214.991 81.7624 228.804 71.2059 243.27 59.0645C253.259 50.6116 260.118 52.1005 254.143 63.7616Z" fill="#AD6359"/>
<path d="M183.427 109.993C182.86 110.118 174.878 111.914 170.171 112.049C166.665 112.174 156.56 112.25 156.042 108.399C155.686 105.776 161.622 105.027 165.81 104.412C168.02 104.086 171.007 102.616 170.738 101.185C170.277 98.6777 164.571 99.6383 160.7 100.743C153.208 102.885 142.776 107.467 139.626 103.192C138.435 101.559 140.769 99.7247 143.891 98.1302C139.088 99.6863 134.103 100.704 132.71 98.9467C131.903 97.9381 132.124 96.8911 132.969 95.8441C132.384 95.9566 131.778 95.8925 131.229 95.6599C130.68 95.4273 130.212 95.0367 129.886 94.5377C128.925 92.7799 130.078 90.8588 132.105 89.0914C131.858 88.9985 131.637 88.8494 131.459 88.6559C131.28 88.4625 131.15 88.2301 131.077 87.9771C129.319 82.8862 146.811 73.9819 152.065 74.0587C167.511 74.2796 182.707 78.8134 182.707 78.8134C187.279 84.8361 183.437 109.983 183.427 109.993Z" fill="#AD6359"/>
<path d="M165.388 91.1566C161.78 90.8192 158.142 91.2547 154.716 92.4341C150.403 93.9422 147.233 96.1707 143.401 98.2647C143.386 98.2791 143.376 98.2981 143.372 98.3187C143.369 98.3394 143.373 98.3605 143.382 98.379C143.392 98.3974 143.408 98.4122 143.427 98.421C143.445 98.4299 143.467 98.4323 143.487 98.428C145.312 97.4674 152.728 93.8461 154.61 93.0777C158.011 91.6439 161.694 91.0065 165.378 91.2142C165.426 91.2142 165.426 91.1566 165.388 91.1566Z" fill="#263238"/>
<path d="M164.235 84.279C160.108 84.2118 155.985 84.5659 151.93 85.3357C147.541 86.2962 143.679 88.8033 139.895 91.1566C137.628 92.5654 135.386 94.0287 133.171 95.5463C133.075 95.604 133.171 95.7673 133.257 95.7C137.099 93.2602 141.022 90.9325 145.024 88.7168C148.719 86.6622 152.783 85.3566 156.983 84.8746C159.384 84.596 161.786 84.5 164.216 84.4039C164.274 84.3751 164.283 84.279 164.235 84.279Z" fill="#263238"/>
<path d="M161.507 77.8433C157.598 77.6608 154.178 77.4975 150.384 78.6598C145.351 80.1967 140.01 83.5778 138.137 84.7785C136.062 86.1041 134.035 87.5065 132.037 88.9377C131.951 88.9953 132.037 89.1394 132.133 89.0818C136.691 85.9834 141.447 83.1854 146.369 80.7058C148.69 79.4892 151.185 78.6371 153.765 78.1795C156.345 77.8576 158.948 77.7516 161.546 77.8625C161.546 77.8625 161.526 77.8433 161.507 77.8433Z" fill="#263238"/>
<path d="M240.253 91.2911L228.89 67.1715C234.215 62.8828 239.793 58.9182 245.594 55.2991C255.421 49.1419 260.223 52.5039 254.364 66.9986C250.835 75.7235 246.084 83.9027 240.253 91.2911Z" fill="#407BFF"/>
<path d="M232.415 65.5098C233.462 67.2004 234.259 69.0639 235.153 70.8313C236.046 72.5987 236.872 74.2124 237.679 75.9318C239.35 79.4987 240.951 83.0944 242.482 86.7188C242.482 86.7861 242.405 86.8341 242.376 86.7765C240.599 83.3089 238.87 79.8317 237.189 76.316C236.354 74.5774 235.566 72.8004 234.778 71.0426C233.991 69.2848 233.011 67.4405 232.338 65.5675C232.338 65.558 232.34 65.5485 232.344 65.5398C232.348 65.5312 232.354 65.5237 232.361 65.518C232.369 65.5123 232.378 65.5086 232.387 65.5071C232.397 65.5057 232.406 65.5066 232.415 65.5098Z" fill="#263238"/>
<path d="M296.475 141.153C294.044 142.114 222.714 125.285 222.714 125.285L229.783 100.455C229.783 100.455 225.288 92.8183 226.815 85.1723C228.842 74.952 246.68 57.4315 248.092 56.3557C253.788 52.1581 258.965 51.3416 263.969 53.6853C284.842 63.483 296.475 141.153 296.475 141.153Z" fill="#407BFF"/>
<path d="M238.889 65.6539C237.189 67.8536 235.345 69.9572 233.577 72.1088C234.375 70.5335 235.162 68.939 236.017 67.3925C236.017 67.3925 236.017 67.3253 235.969 67.3925C234.693 69.2364 233.596 71.1986 232.694 73.2519C231.37 74.8854 230.157 76.6054 229.063 78.4005C227.711 80.5401 226.737 82.8955 226.181 85.3645C225.721 87.8628 225.777 90.4288 226.345 92.9048C227.025 95.7464 227.961 98.5208 229.14 101.194C229.293 101.55 229.793 101.3 229.678 100.945C228.112 96.2476 226.364 91.3391 227.171 86.2674C227.977 81.1957 230.84 76.9788 233.635 72.9157C235.271 70.4336 237.064 68.0593 239.005 65.8076C239.13 65.6731 238.966 65.5579 238.889 65.6539Z" fill="#263238"/>
<path d="M201.581 108.581H123.565V112.077H201.581V108.581Z" fill="#C7C7C7"/>
<path d="M123.565 108.581V112.077H176.597L173.927 108.581H123.565Z" fill="#A6A6A6"/>
<path d="M170.556 112.077H94.5181L88.188 60.438H164.235L170.556 112.077Z" fill="#C7C7C7"/>
<path d="M134.007 86.2962C134.019 86.9013 133.911 87.5027 133.688 88.0652C133.464 88.6277 133.131 89.1398 132.706 89.5713C132.282 90.0028 131.776 90.3449 131.217 90.5776C130.658 90.8103 130.059 90.9288 129.453 90.9261C128.22 90.9213 127.037 90.4344 126.158 89.5693C125.278 88.7042 124.772 87.5296 124.747 86.2962C124.734 85.692 124.842 85.0913 125.065 84.5294C125.288 83.9676 125.62 83.456 126.044 83.0246C126.467 82.5933 126.972 82.2509 127.53 82.0176C128.087 81.7843 128.686 81.6649 129.29 81.6663C130.525 81.671 131.709 82.1576 132.59 83.0225C133.471 83.8873 133.979 85.062 134.007 86.2962Z" fill="white"/>
<path d="M273.162 63.4638C281.5 77.3438 298.357 124.488 288.531 131.096C278.704 137.705 234.067 118.801 222.061 110.31C218.487 107.784 237.477 86.0752 242.155 86.2962C245.997 86.4787 263.143 98.2743 263.902 97.2465C264.661 96.2187 262.807 86.4691 261.021 68.7372C259.013 48.2967 268.359 55.4816 273.162 63.4638Z" fill="#AD6359"/>
<path d="M224.174 75.1249C214.943 72.1664 212.119 72.8292 205.654 66.2014C201.409 61.8501 196.808 62.6858 198.613 68.7469C201.562 78.6598 212.666 84.9706 217.152 86.0368L224.174 75.1249Z" fill="#AD6359"/>
<path d="M247.717 88.5727C247.717 88.5727 238.111 80.8306 228.583 76.7098C221.993 73.8282 206.97 69.2655 189.651 81.8776C185.54 84.8745 181.813 92.0499 190.295 89.562C196.327 87.8138 199.622 84.8937 203.31 84.5191C203.31 84.5191 199.651 94.2111 202.801 98.207C205.565 101.703 208.573 105 211.802 108.072C212.498 107.604 213.166 107.094 213.8 106.545C213.8 106.545 217.104 110.003 224.366 110.56L247.717 88.5727Z" fill="#AD6359"/>
<path d="M221.859 75.0001C218.276 76.1431 210.726 78.6982 205.27 82.9342C199.219 87.6506 188.816 98.3512 192.341 102.789C194.925 106.045 199.257 102.299 199.257 102.299C199.257 102.299 195.885 107.63 198.863 110.06C201.572 112.27 204.751 109.177 204.751 109.177C204.751 109.177 203.262 112.759 206.288 114.392C209.929 116.313 212.436 108.514 217.815 107.313C219.044 107.044 221.859 75.0001 221.859 75.0001Z" fill="#AD6359"/>
<path d="M211.312 88.5055C208.123 90.1384 201.822 95.7 199.228 102.145C199.171 102.289 199.228 102.414 199.334 102.289C202.77 97.242 206.808 92.6326 211.36 88.5631C211.36 88.5631 211.35 88.4863 211.312 88.5055Z" fill="#263238"/>
<path d="M215.894 94.7587C213.281 96.4493 207.037 102.443 204.636 109.09C204.636 109.244 204.636 109.359 204.751 109.234C207.923 104.022 211.677 99.1884 215.942 94.8259C215.942 94.8259 215.923 94.7395 215.894 94.7587Z" fill="#263238"/>
<path d="M203.32 84.4904C200.073 84.865 197.807 86.0369 194.896 87.372C193.463 88.0655 191.991 88.6749 190.487 89.1971C189.113 89.6677 187.087 90.369 185.934 89.0722C185.679 88.6889 185.532 88.244 185.509 87.7843C185.485 87.3246 185.585 86.867 185.8 86.4595C186.394 85.2726 187.172 84.1867 188.105 83.2417C188.105 83.2417 188.105 83.1456 188.038 83.184C187.149 84.0335 186.348 84.9699 185.646 85.9792C185.183 86.6793 184.942 87.5029 184.954 88.3422C185.108 90.1192 187.077 90.6859 188.576 90.465C189.476 90.3034 190.357 90.0525 191.207 89.7158C192.034 89.4084 192.84 89.0722 193.638 88.7552C195.271 88.0156 196.865 87.1895 198.441 86.4307C200.021 85.7282 201.645 85.125 203.301 84.6249C203.407 84.5864 203.378 84.4904 203.32 84.4904Z" fill="#263238"/>
<path d="M194.982 94.2207C197.569 90.8424 200.37 87.6339 203.368 84.6152C203.368 84.6152 203.368 84.5095 203.31 84.548C200.515 86.4114 195.626 91.7905 194.377 93.5772C193.129 95.3638 191.707 97.6115 191.342 99.7439C190.785 102.962 192.812 103.942 193.57 104.239C194.484 104.561 195.481 104.561 196.394 104.239C197.475 103.8 198.455 103.146 199.276 102.318C199.276 102.318 199.276 102.213 199.219 102.251C197.883 103.327 195.809 104.259 194.099 103.721C193.719 103.615 193.363 103.435 193.053 103.191C192.743 102.947 192.485 102.644 192.293 102.299C191.954 101.442 191.93 100.492 192.226 99.6191C192.837 97.6785 193.769 95.8539 194.982 94.2207Z" fill="#263238"/>
<path d="M286.965 88.6592L260.54 85.1723C259.811 78.3713 259.491 71.5327 259.58 64.6933C259.714 53.0995 265.151 50.8806 274.161 63.6463C279.596 71.3331 283.907 79.7554 286.965 88.6592Z" fill="#407BFF"/>
<path d="M261.049 81.3109C263.038 81.3109 265.026 81.6759 267.005 81.8776C268.984 82.0793 270.78 82.2618 272.653 82.5116C276.562 83.0399 280.433 83.645 284.314 84.3366C284.381 84.3366 284.372 84.4615 284.314 84.4615C280.433 84.0773 276.566 83.6418 272.711 83.1552C270.789 82.915 268.868 82.6269 266.947 82.3387C265.026 82.0505 262.961 81.8776 261.021 81.4262C261.005 81.4223 260.992 81.4126 260.984 81.3991C260.976 81.3856 260.974 81.3694 260.977 81.3541C260.981 81.3388 260.991 81.3257 261.004 81.3176C261.018 81.3095 261.034 81.3071 261.049 81.3109Z" fill="#263238"/>
<path d="M259.926 82.454C259.82 81.4934 259.743 80.5329 259.685 79.5723C259.685 79.3706 259.685 79.1689 259.685 78.9768C259.368 77.8049 259.051 76.6234 258.85 75.4227C258.85 75.4227 258.907 75.3651 258.917 75.4227C259.205 76.3121 259.446 77.2163 259.637 78.1315C259.561 76.6426 259.512 75.1538 259.58 73.6745H259.657C259.897 75.5956 260.012 77.5167 260.195 79.4955C260.281 80.456 260.598 85.0667 260.646 85.0763C260.694 85.0859 262.846 85.4317 262.98 85.5085C263.115 85.5854 263.047 85.691 262.98 85.691L260.243 85.3356C260.243 85.3356 260.012 83.3089 259.926 82.454Z" fill="#263238"/>
<path d="M0.768041 212.129C3.27509 213.656 81.0992 231.407 84.4995 230.206C85.7867 229.755 88.9277 229.601 92.4721 215.971C93.231 213.032 142.892 189.287 142.892 189.287L91.3771 166.234L42.3888 193.379C42.3888 193.379 9.55709 199.911 5.97423 201.63C2.39136 203.349 -1.73901 210.592 0.768041 212.129Z" fill="#AD6359"/>
<path d="M0.768012 212.129C3.28466 213.666 81.0991 231.417 84.4995 230.216C85.7866 229.774 88.9373 229.611 92.4625 215.981C92.6834 215.174 96.9002 212.907 102.923 210.044L51.8599 188.115L42.4272 193.35C42.4272 193.35 9.5955 199.891 6.01263 201.591C2.42976 203.292 -1.73903 210.592 0.768012 212.129Z" fill="#C7C7C7"/>
<path d="M99.2056 210.054C98.129 210.323 97.0853 210.709 96.0934 211.207C95.0899 211.678 94.1426 212.262 93.2694 212.945C95.4227 212.396 97.4422 211.416 99.2056 210.064V210.054Z" fill="#263238"/>
<path d="M95.1809 208.431C94.1043 208.699 93.0606 209.086 92.0687 209.583C91.0631 210.055 90.1155 210.642 89.2447 211.332C90.3217 211.064 91.3656 210.678 92.3568 210.179C93.3624 209.707 94.3101 209.12 95.1809 208.431Z" fill="#263238"/>
<path d="M91.1658 206.817C89.0082 207.362 86.9848 208.343 85.2199 209.699C86.2983 209.435 87.3426 209.049 88.3321 208.546C89.3371 208.075 90.2873 207.495 91.1658 206.817Z" fill="#263238"/>
<path d="M87.1411 205.194C84.9835 205.739 82.9601 206.72 81.1952 208.075C82.2762 207.811 83.3236 207.424 84.317 206.923C85.3189 206.452 86.2659 205.872 87.1411 205.194Z" fill="#263238"/>
<path d="M83.1163 203.57C80.9587 204.116 78.9354 205.096 77.1705 206.452C78.2512 206.191 79.2986 205.807 80.2923 205.309C81.2944 204.834 82.2415 204.251 83.1163 203.57Z" fill="#263238"/>
<path d="M79.13 201.947C78.0517 202.21 77.0074 202.597 76.0178 203.1C74.9938 203.567 74.0269 204.15 73.1362 204.838C75.2938 204.293 77.3171 203.312 79.082 201.957L79.13 201.947Z" fill="#263238"/>
<path d="M75.0669 200.324C72.9176 200.884 70.9002 201.863 69.1307 203.205C70.2082 202.944 71.2524 202.561 72.2428 202.062C73.248 201.593 74.1956 201.01 75.0669 200.324Z" fill="#263238"/>
<path d="M71.0421 198.681C69.9651 198.948 68.9212 199.335 67.93 199.834C66.9253 200.3 65.9777 200.88 65.1059 201.563C66.183 201.296 67.2269 200.909 68.2181 200.41C69.2228 199.944 70.1704 199.364 71.0421 198.681Z" fill="#263238"/>
<path d="M67.0175 197.086C64.8642 197.636 62.8446 198.616 61.0812 199.968C62.1595 199.705 63.2039 199.318 64.1934 198.816C65.1965 198.347 66.1438 197.767 67.0175 197.086Z" fill="#263238"/>
<path d="M62.9927 195.463C61.9164 195.729 60.8727 196.112 59.8805 196.606C58.8749 197.078 57.9273 197.665 57.0565 198.354C58.1348 198.091 59.1792 197.705 60.1687 197.202C61.1722 196.73 62.1195 196.147 62.9927 195.463Z" fill="#263238"/>
<path d="M58.9584 193.878C57.8821 194.144 56.8384 194.527 55.8462 195.021C54.8424 195.497 53.8951 196.083 53.0222 196.77C54.1002 196.51 55.1446 196.126 56.1344 195.627C57.1381 195.151 58.0854 194.565 58.9584 193.878Z" fill="#263238"/>
<path d="M54.9529 192.216C53.8719 192.481 52.8245 192.868 51.8311 193.369C50.8287 193.843 49.8817 194.426 49.0071 195.108C50.0851 194.848 51.1295 194.465 52.1193 193.965C53.1269 193.491 54.0775 192.904 54.9529 192.216Z" fill="#263238"/>
<path d="M50.9282 190.593C49.8485 190.862 48.8016 191.248 47.8064 191.746C46.8018 192.22 45.8544 192.806 44.9823 193.494C46.062 193.225 47.1089 192.839 48.1041 192.341C49.1087 191.867 50.0561 191.281 50.9282 190.593Z" fill="#263238"/>
<path d="M55.4139 184.273L107.889 209.487L194.137 166.877C194.137 166.877 213.905 182.188 235.134 186.175C249.542 188.883 279.809 188.768 291.518 171.987C301.383 157.867 295.552 141.249 295.552 141.249L279.021 133.738C279.021 133.738 240.1 105.882 215.74 103.365C178.576 99.4366 55.4139 184.273 55.4139 184.273Z" fill="#455A64"/>
<path d="M264.517 124.046C266.88 125.458 269.176 126.976 271.5 128.436C273.825 129.896 276.149 131.193 278.349 132.777C280.549 134.362 282.71 136.13 284.833 137.888C285.851 138.733 286.869 139.588 287.858 140.462C288.89 141.308 289.853 142.232 290.74 143.228C290.817 143.324 290.682 143.449 290.586 143.401C289.48 142.717 288.418 141.963 287.407 141.144C286.283 140.327 285.188 139.501 284.074 138.675C281.932 137.09 279.751 135.553 277.619 133.969C275.487 132.384 273.508 130.635 271.395 129.031C269.281 127.427 266.784 125.737 264.45 124.123C264.411 124.094 264.44 124.017 264.517 124.046Z" fill="#263238"/>
<path d="M194.204 166.887C198.625 170.161 203.262 173.133 208.084 175.781L229.937 148.386L194.204 166.887Z" fill="#263238"/>
<path d="M68.0068 179.528C69.7262 180.2 71.4168 181.007 73.1074 181.766C74.7979 182.525 76.4405 183.264 78.1022 184.033C81.493 185.598 84.8261 187.222 88.2361 188.835C94.96 192.082 110.118 200.573 113.873 202.466C113.941 202.466 113.873 202.619 113.816 202.591C107.034 199.574 85.7963 188.931 79.082 185.56C77.2185 184.599 75.3647 183.639 73.5204 182.678C71.6761 181.718 69.7454 180.757 67.93 179.662C67.8531 179.633 67.9108 179.47 68.0068 179.528Z" fill="#263238"/>
<path d="M95.8052 157.896C97.2365 156.714 127.734 138.377 134.295 134.65C140.855 130.924 147.464 127.341 154.168 123.921C160.873 120.502 167.616 117.245 174.551 114.316C181.487 111.386 188.307 108.619 195.395 106.372C196.298 106.084 197.201 105.795 198.104 105.488C198.191 105.488 198.22 105.594 198.104 105.623C194.512 106.852 191.015 108.341 187.538 109.772C184.061 111.203 180.651 112.654 177.241 114.171C170.421 117.226 163.697 120.466 157.069 123.892C150.432 127.302 143.891 130.885 137.407 134.583C130.923 138.281 124.42 142.104 117.984 145.966C114.767 147.887 96.8522 157.829 96.0165 158.203C95.8436 158.232 95.6515 158.03 95.8052 157.896Z" fill="#263238"/>
<path d="M143.67 191.477C146.887 189.709 150.163 188.057 153.419 186.367C156.676 184.676 159.961 183.043 163.246 181.42C169.758 178.218 176.3 175.045 182.87 171.901C186.578 170.124 190.305 168.328 194.118 166.791C194.195 166.791 194.262 166.868 194.185 166.906C191.025 168.76 187.74 170.422 184.474 172.074C181.208 173.726 177.913 175.359 174.628 176.992C168.116 180.229 161.613 183.485 155.023 186.54C151.287 188.278 147.569 190.055 143.795 191.698C143.65 191.765 143.487 191.554 143.67 191.477Z" fill="#263238"/>
<path d="M260.982 55.0014C260.982 56.3077 256.861 65.7115 251.127 66.7201C249.263 67.0563 247.016 56.9321 247.016 56.9321L246.679 56.2309L241.982 46.2987L254.018 34.1957C254.018 34.1957 260.973 54.4538 260.982 55.0014Z" fill="#AD6359"/>
<path d="M241.982 46.2987L246.679 56.2212C249.26 54.5264 251.456 52.3096 253.127 49.7137C254.798 47.1179 255.907 44.2007 256.381 41.1502C255.19 37.6345 254.191 34.7144 254.047 34.2822L252.5 35.723L241.982 46.2987Z" fill="#263238"/>
<path d="M222.656 35.1563C225.355 54.2425 237.064 54.7804 241.204 54.1944C244.941 53.6565 257.591 51.3704 256.881 32.1017C256.17 12.833 246.449 8.08786 237.842 8.82749C229.236 9.56712 219.957 16.0605 222.656 35.1563Z" fill="#AD6359"/>
<path d="M224.99 33.0911C225.422 32.9374 225.797 32.7357 226.21 32.5436C226.665 32.4153 227.065 32.138 227.344 31.7559C227.408 31.6196 227.425 31.466 227.394 31.3187C227.363 31.1713 227.284 31.0382 227.171 30.9395C226.908 30.7858 226.61 30.7048 226.306 30.7048C226.002 30.7048 225.704 30.7858 225.442 30.9395C224.86 31.1543 224.38 31.5793 224.097 32.1306C224.048 32.2581 224.036 32.3969 224.061 32.5311C224.087 32.6653 224.151 32.7896 224.244 32.8897C224.337 32.9898 224.456 33.0617 224.588 33.0973C224.72 33.1329 224.859 33.1308 224.99 33.0911Z" fill="#263238"/>
<path d="M237.833 30.5264C237.391 30.5504 236.949 30.5504 236.507 30.5264C236.037 30.5881 235.558 30.4972 235.143 30.2671C235.029 30.1684 234.951 30.0352 234.92 29.8878C234.888 29.7405 234.906 29.587 234.97 29.4506C235.141 29.2006 235.375 29.0004 235.648 28.8705C235.922 28.7405 236.225 28.6855 236.526 28.711C237.146 28.671 237.759 28.8627 238.246 29.2489C238.354 29.3428 238.432 29.4663 238.47 29.6041C238.508 29.7419 238.505 29.8879 238.461 30.024C238.417 30.1601 238.334 30.2802 238.222 30.3695C238.111 30.4589 237.975 30.5134 237.833 30.5264Z" fill="#263238"/>
<path d="M235.335 33.8787C235.335 33.8211 235.441 33.8787 235.451 33.9748C235.652 35.2715 236.104 36.722 237.372 36.9237V37.0005C235.892 37.0678 235.316 35.1371 235.335 33.8787Z" fill="#263238"/>
<path d="M236.229 32.3131C238.275 31.7656 239.226 35.8863 237.333 36.3954C235.441 36.9045 234.519 32.7741 236.229 32.3131Z" fill="#263238"/>
<path d="M237.093 32.3419C237.506 32.4955 237.958 32.8221 238.4 32.7645C238.841 32.7069 239.197 32.1786 239.427 31.6887C239.427 31.6406 239.495 31.6887 239.504 31.6887C239.658 32.0519 239.667 32.4601 239.529 32.8297C239.392 33.1993 239.118 33.5024 238.765 33.677C238.015 33.9652 237.295 33.3889 236.92 32.6396C236.843 32.5051 236.92 32.2842 237.093 32.3419Z" fill="#263238"/>
<path d="M228.237 35.1851C228.237 35.1851 228.15 35.262 228.17 35.3196C228.515 36.5875 228.698 38.0956 227.641 38.7968V38.864C229.024 38.3261 228.765 36.3474 228.237 35.1851Z" fill="#263238"/>
<path d="M226.777 34.1189C224.692 34.4551 225.509 38.6047 227.449 38.2973C229.389 37.9899 228.535 33.8403 226.777 34.1189Z" fill="#263238"/>
<path d="M225.97 34.5608C225.682 34.8489 225.442 35.31 225.009 35.4157C224.577 35.5213 224.135 35.1563 223.761 34.7817C223.761 34.7817 223.693 34.7817 223.703 34.8393C223.838 35.6366 224.27 36.4146 225.057 36.4146C225.845 36.4146 226.162 35.6366 226.191 34.8009C226.239 34.6472 226.095 34.4263 225.97 34.5608Z" fill="#263238"/>
<path d="M231.637 41.4767C231.637 41.4767 231.791 43.4555 231.993 44.3584C231.993 44.4448 232.233 44.4352 232.55 44.3584C233.359 44.3355 234.146 44.0892 234.824 43.6467C235.502 43.2043 236.045 42.5829 236.392 41.8513C236.392 41.7457 236.305 41.6784 236.229 41.7553C235.249 42.7907 233.963 43.4843 232.559 43.734C232.434 43.4939 232.406 40.3433 232.262 40.3625C231.582 40.5972 230.936 40.9201 230.34 41.323C229.908 37.2215 230.129 33.0815 229.63 29.0087C229.63 28.8646 229.399 28.8646 229.39 29.0087C228.842 33.3312 229.245 38.0571 229.582 42.3028C229.601 42.7927 231.311 41.7169 231.637 41.4767Z" fill="#263238"/>
<path d="M232.992 43.955C233.627 44.5175 234.399 44.9049 235.23 45.0788C235.688 45.169 236.163 45.1084 236.584 44.9059C237.545 44.4641 237.343 43.5804 237.026 42.8599C236.847 42.4769 236.625 42.1158 236.363 41.7841C235.502 42.8519 234.32 43.6133 232.992 43.955Z" fill="#263238"/>
<path d="M235.23 45.0788C235.688 45.169 236.163 45.1084 236.584 44.9059C237.545 44.4641 237.343 43.5803 237.026 42.8599C236.521 42.9743 236.069 43.2553 235.743 43.6579C235.417 44.0604 235.236 44.5609 235.23 45.0788Z" fill="#FF98B9"/>
<path d="M256.833 32.1305C253.797 33.2256 251.29 26.9243 251.29 26.9243C251.29 26.9243 244.989 28.6821 240.407 20.2005C241.337 22.8675 243.027 25.2045 245.268 26.9243C245.268 26.9243 233.827 28.8454 226.585 20.8152C226.585 20.8152 229.755 25.032 231.973 26.2327C231.973 26.2327 226.95 26.2327 223.636 23.0629C223.636 23.0629 223.175 28.9703 222.089 30.8626C222.089 30.8626 217.171 11.2961 235.758 8.38564C235.758 8.38564 247.285 6.02268 253.759 13.832C260.233 21.6413 256.833 32.1305 256.833 32.1305Z" fill="#263238"/>
<path d="M257.611 30.7762C257.697 33.4945 260.098 20.0564 259.532 18.2889C258.965 16.5215 252.99 8.4913 244.345 6.79112C237.074 5.38871 229.812 9.78805 228.554 10.5757C227.145 11.4451 225.936 12.6042 225.009 13.9761C225.009 13.9761 234.5 8.21274 243.961 8.32801C248.495 8.40485 257.284 20.6039 257.611 30.7762Z" fill="#407BFF"/>
<path d="M247.362 5.07172C247.362 5.07172 243.855 0.211322 238.659 0C238.659 0 239.226 5.10054 241.166 6.65663C242.126 7.43468 246.199 7.49232 246.622 6.78151C246.929 6.23952 247.177 5.66635 247.362 5.07172Z" fill="#407BFF"/>
<path opacity="0.1" d="M247.362 5.07174C247.17 5.66391 246.922 6.23643 246.622 6.78152C246.608 6.81367 246.585 6.8406 246.555 6.85837C246.522 6.89456 246.483 6.92394 246.439 6.94482L246.343 6.99285C245.626 7.22972 244.869 7.32433 244.115 7.2714C244.173 6.50808 244.305 5.75217 244.509 5.01411C244.814 4.36665 245.319 3.83452 245.949 3.49643C246.464 3.98065 246.936 4.50764 247.362 5.07174Z" fill="#050400"/>
<path d="M248.677 5.67689C248.677 5.67689 255.786 4.04394 259.359 5.35029C259.359 5.35029 257.745 9.24054 254.21 10.422C252.625 10.9599 247.698 8.37604 247.89 7.54036C248.064 6.88545 248.329 6.2582 248.677 5.67689Z" fill="#407BFF"/>
<path opacity="0.1" d="M250.301 5.35989C250.528 6.14099 250.528 6.97057 250.301 7.75166C250.105 8.22265 249.814 8.64789 249.446 9.00039C248.485 8.42405 247.784 7.83812 247.851 7.50193C248.029 6.86047 248.294 6.24642 248.639 5.67688C248.639 5.67688 249.311 5.52319 250.301 5.35989Z" fill="#050400"/>
<path d="M249.542 7.25221C249.357 7.68383 249.048 8.05085 248.654 8.30681C248.261 8.56278 247.8 8.69615 247.33 8.69006C246.861 8.68397 246.404 8.53869 246.017 8.27261C245.63 8.00652 245.331 7.6316 245.157 7.19532C244.983 6.75905 244.943 6.28105 245.041 5.82184C245.139 5.36263 245.371 4.94287 245.708 4.61571C246.045 4.28855 246.471 4.06871 246.933 3.98403C247.395 3.89935 247.872 3.95363 248.303 4.14001C248.589 4.26239 248.848 4.44011 249.066 4.66296C249.283 4.88582 249.454 5.1494 249.569 5.43859C249.684 5.72778 249.741 6.03688 249.736 6.34811C249.732 6.65935 249.666 6.9666 249.542 7.25221Z" fill="#407BFF"/>
<path d="M254.057 34.0036C254.057 34.0036 256.804 27.1933 259.82 28.0482C262.836 28.9031 261.741 38.1052 258.859 39.9879C258.51 40.2546 258.11 40.4478 257.683 40.5558C257.257 40.6638 256.813 40.6843 256.379 40.6161C255.944 40.5478 255.528 40.3923 255.155 40.1589C254.783 39.9254 254.461 39.6189 254.21 39.2578L254.057 34.0036Z" fill="#AD6359"/>
<path d="M259.416 30.6801C259.416 30.6801 259.493 30.7281 259.416 30.7569C257.428 32.1497 256.746 34.4455 256.419 36.7412C256.497 36.4927 256.627 36.2638 256.801 36.0703C256.975 35.8769 257.189 35.7233 257.428 35.6202C257.667 35.5171 257.926 35.4669 258.186 35.4731C258.446 35.4792 258.702 35.5415 258.936 35.6558C259.003 35.6558 258.936 35.7807 258.936 35.7807C258.524 35.7499 258.111 35.8468 257.756 36.0581C257.4 36.2695 257.118 36.5851 256.948 36.9621C256.671 37.598 256.462 38.2612 256.323 38.9409C256.266 39.1618 255.882 39.133 255.91 38.9409V38.8832C255.209 36.0592 256.477 31.6503 259.416 30.6801Z" fill="#263238"/>
<g filter="url(#filter0_i_16_5353)">
<path d="M132.117 86.6309C132.115 86.6934 132.088 86.7526 132.043 86.7956C131.998 86.8385 131.937 86.8616 131.875 86.8599H128.966C128.8 87.546 128.256 88 127.518 88C126.645 88 126 87.3711 126 86.5026C126 85.634 126.633 85 127.511 85C128.169 85 128.721 85.3628 128.926 85.9026C128.935 85.9281 128.938 85.9556 128.935 85.9826C128.932 86.0097 128.922 86.0355 128.907 86.058C128.891 86.0805 128.871 86.0989 128.847 86.1118C128.823 86.1247 128.796 86.1316 128.769 86.1319H128.268C128.239 86.1321 128.212 86.1251 128.187 86.1115C128.162 86.0979 128.141 86.0782 128.126 86.0543C128.006 85.8587 127.776 85.7368 127.518 85.7368C127.091 85.7368 126.805 86.0462 126.805 86.5026C126.805 86.9589 127.087 87.2635 127.518 87.2635C127.605 87.2638 127.691 87.2511 127.773 87.2261C127.955 87.1699 127.909 86.898 127.72 86.898H127.625C127.58 86.898 127.537 86.8803 127.505 86.8488C127.473 86.8172 127.455 86.7744 127.455 86.7296C127.455 86.6426 127.489 86.5593 127.551 86.4978C127.612 86.4363 127.695 86.4018 127.782 86.4018H131.875C131.937 86.4001 131.998 86.4232 132.043 86.4662C132.088 86.5091 132.115 86.5683 132.117 86.6309Z" fill="#083674"/>
<path d="M132.117 86.1592C132.117 85.9396 131.901 85.762 131.636 85.762H130.479V86.1592H132.117Z" fill="#083674"/>
<path d="M132.117 87.1025C132.117 87.3221 131.901 87.4997 131.636 87.4997H130.479V87.1025H132.117Z" fill="#083674"/>
</g>
<defs>
<filter id="filter0_i_16_5353" x="126" y="85" width="6.11702" height="6.7" filterUnits="userSpaceOnUse" color-interpolation-filters="sRGB">
<feFlood flood-opacity="0" result="BackgroundImageFix"/>
<feBlend mode="normal" in="SourceGraphic" in2="BackgroundImageFix" result="shape"/>
<feColorMatrix in="SourceAlpha" type="matrix" values="0 0 0 0 0 0 0 0 0 0 0 0 0 0 0 0 0 0 127 0" result="hardAlpha"/>
<feOffset dy="3.7"/>
<feGaussianBlur stdDeviation="1.85"/>
<feComposite in2="hardAlpha" operator="arithmetic" k2="-1" k3="1"/>
<feColorMatrix type="matrix" values="0 0 0 0 0 0 0 0 0 0 0 0 0 0 0 0 0 0 0.25 0"/>
<feBlend mode="normal" in2="shape" result="effect1_innerShadow_16_5353"/>
</filter>
</defs>
</svg>
