<svg width="249" height="263" viewBox="0 0 249 263" fill="none" xmlns="http://www.w3.org/2000/svg">
<g clip-path="url(#clip0_21_8716)">
<path d="M172.652 220.304L172.695 220.254L172.744 220.198L172.787 220.148L172.837 220.091L172.886 220.042L172.929 219.985L172.978 219.935L173.021 219.878L173.07 219.829L173.12 219.772L173.163 219.722L173.212 219.666L173.255 219.616L173.304 219.559L173.354 219.51L173.396 219.453L173.446 219.403L173.489 219.346L173.538 219.297L173.588 219.24L173.63 219.19L173.68 219.134L173.722 219.084L173.772 219.027L173.822 218.977L173.864 218.921L173.914 218.871L173.956 218.814L174.006 218.765L174.056 218.708L174.098 218.658L174.148 218.602L174.19 218.552L174.24 218.495L174.289 218.445L174.332 218.389L174.382 218.339L174.424 218.282L174.474 218.233L174.523 218.176L174.566 218.126L174.615 218.07L174.658 218.02L174.708 217.963L174.757 217.913L174.8 217.857L174.849 217.807L174.892 217.75L174.941 217.701L174.991 217.644L175.034 217.594L175.083 217.538L175.126 217.488L175.175 217.431L175.225 217.381L175.267 217.325L175.317 217.275L175.36 217.218L175.409 217.169L175.459 217.112L175.501 217.062L175.551 217.005L175.593 216.956L175.643 216.899L175.693 216.849L175.735 216.793L175.785 216.743L175.827 216.686L175.877 216.637L175.926 216.58L175.969 216.53L176.019 216.473L176.061 216.424L176.111 216.367L176.16 216.317L176.203 216.261L176.252 216.211L176.295 216.154L176.345 216.105L176.394 216.048L176.437 215.998L176.486 215.941L176.529 215.892L176.578 215.835L176.628 215.785L176.671 215.729L176.72 215.679L176.763 215.622L176.812 215.573L176.862 215.516L176.904 215.466L176.954 215.409L176.997 215.36L177.046 215.303L177.096 215.253L177.138 215.197L177.188 215.147L177.23 215.09L177.28 215.041L177.33 214.984L177.372 214.934L177.422 214.877L177.464 214.828L177.514 214.771L177.564 214.721L177.606 214.665L177.656 214.615L177.698 214.558L177.748 214.509L177.797 214.452L177.84 214.402L177.89 214.345L177.932 214.296L177.982 214.239L178.031 214.189L178.074 214.133L178.123 214.083L178.166 214.026L178.216 213.977L178.265 213.92L178.308 213.87L178.357 213.813L178.4 213.764L178.449 213.707L178.499 213.657L178.542 213.601L178.591 213.551L178.634 213.494L178.683 213.445L178.733 213.388L178.775 213.338L178.825 213.281L178.868 213.232L178.917 213.175L178.967 213.125L179.009 213.069L179.059 213.019L179.101 212.962L179.151 212.913L179.201 212.856L179.243 212.806L179.293 212.749L179.335 212.7L179.385 212.643L179.435 212.593L179.477 212.537L179.527 212.487L179.569 212.43L179.619 212.38L179.668 212.324L179.711 212.274L179.761 212.217L179.803 212.168L179.853 212.111L179.902 212.061L179.945 212.005L179.994 211.955L180.037 211.898L180.087 211.848L180.136 211.792L180.179 211.742L180.228 211.685L180.271 211.636L180.32 211.579L180.37 211.529L180.413 211.473L180.462 211.423L180.505 211.366L180.554 211.316L180.597 211.26C180.615 211.245 180.632 211.228 180.646 211.21L180.696 211.153L180.739 211.104L180.788 211.047L180.831 210.997L180.88 210.941L180.93 210.891L180.972 210.834L181.022 210.784L181.065 210.728C181.083 210.713 181.099 210.696 181.114 210.678L181.164 210.621L181.206 210.572L181.256 210.515L181.298 210.465L181.348 210.408L181.398 210.359L181.44 210.302L181.49 210.252L181.532 210.196C181.551 210.181 181.567 210.164 181.582 210.146L181.631 210.089L181.674 210.04L181.724 209.983L181.766 209.933L181.816 209.876C181.83 209.858 181.847 209.842 181.865 209.827L181.908 209.77C182.95 208.555 183.718 207.13 184.162 205.592C184.606 204.053 184.715 202.437 184.48 200.854L162.922 32.7367C162.029 25.785 155.679 20.1527 148.748 20.1527H69.1119C67.5216 20.1226 65.9438 20.4388 64.4876 21.0794C63.0314 21.72 61.7317 22.6696 60.6785 23.8626L60.6289 23.9194L60.5863 23.969L60.5367 24.0258L60.4871 24.0754L60.4446 24.1322L60.395 24.1818L60.3525 24.2386L60.3029 24.2883L60.2533 24.345L60.2107 24.3947L60.1611 24.4514L60.1186 24.5011L60.069 24.5578L60.0265 24.6075L59.9769 24.6642L59.9273 24.7139L59.8847 24.7706L59.8351 24.8203L59.7926 24.877C59.7743 24.8917 59.7577 24.9084 59.743 24.9267L59.6934 24.9834L59.6509 25.0331L59.6013 25.0898L59.5587 25.1395L59.5091 25.1962C59.4944 25.2145 59.4778 25.2312 59.4595 25.2459L59.417 25.3026L59.3674 25.3523L59.3249 25.409L59.2753 25.4587L59.2257 25.5154L59.1831 25.5651L59.1335 25.6218L59.091 25.6715L59.0414 25.7282C59.0267 25.7465 59.0101 25.7632 58.9918 25.7779L58.9493 25.8346L58.8997 25.8843L58.8571 25.941C58.8389 25.9558 58.8222 25.9724 58.8075 25.9907L58.7579 26.0474L58.7154 26.0971L58.6658 26.1539L58.6233 26.2035L58.5737 26.2603C58.559 26.2785 58.5423 26.2952 58.524 26.3099L58.4815 26.3667L58.4319 26.4163L58.3894 26.4731C58.3711 26.4878 58.3545 26.5044 58.3398 26.5227L58.2902 26.5795L58.2477 26.6291L58.198 26.6859L58.1555 26.7355L58.1059 26.7923C58.0912 26.8106 58.0746 26.8272 58.0563 26.8419L58.0138 26.8987L57.9642 26.9483L57.9217 27.0051C57.9034 27.0198 57.8868 27.0364 57.872 27.0547L57.8224 27.1115L57.7799 27.1611L57.7303 27.2179L57.6878 27.2675L57.6382 27.3243C57.6235 27.3426 57.6068 27.3592 57.5886 27.3739L57.546 27.4307L57.4964 27.4803L57.4539 27.5371L57.4043 27.5867L57.3547 27.6435L57.3122 27.6931L57.2626 27.7499L57.22 27.7996L57.1704 27.8563C57.1557 27.8746 57.1391 27.8912 57.1208 27.906L57.0783 27.9627L57.0287 28.0124L56.9862 28.0691C56.9679 28.0838 56.9513 28.1005 56.9366 28.1188L56.887 28.1755L56.8444 28.2252L56.7948 28.2819L56.7523 28.3316L56.6956 28.3741C56.6809 28.3924 56.6643 28.4091 56.646 28.4238L56.6035 28.4805L56.5539 28.5302L56.5113 28.5869C56.4931 28.6017 56.4764 28.6183 56.4617 28.6366L56.4121 28.6933L56.3696 28.743L56.32 28.7997L56.2775 28.8494L56.2279 28.9061C56.2132 28.9244 56.1965 28.9411 56.1783 28.9558L56.1357 29.0125L56.0861 29.0622L56.0436 29.1189C56.0253 29.1337 56.0087 29.1503 55.994 29.1686L55.9444 29.2254L55.9019 29.275L55.8523 29.3318L55.8097 29.3814L55.7601 29.4382C55.7454 29.4564 55.7288 29.4731 55.7105 29.4878L55.668 29.5446L55.6184 29.5942L55.5759 29.651C55.5576 29.6657 55.541 29.6823 55.5263 29.7006L55.4767 29.7574L55.4341 29.807L55.3845 29.8638L55.342 29.9134L55.2924 29.9702C55.2777 29.9885 55.2611 30.0051 55.2428 30.0198L55.2003 30.0766L55.1507 30.1262L55.1081 30.183C55.0899 30.1977 55.0732 30.2143 55.0585 30.2326L55.0089 30.2894L54.9664 30.339L54.9168 30.3958L54.8743 30.4454L54.8247 30.5022C54.81 30.5205 54.7933 30.5371 54.775 30.5518L54.7325 30.6086L54.6829 30.6582L54.6404 30.715C54.6221 30.7297 54.6055 30.7464 54.5908 30.7647L54.5412 30.8214L54.4987 30.8711L54.449 30.9278L54.4065 30.9775L54.3569 31.0342C54.3422 31.0525 54.3256 31.0691 54.3073 31.0839L54.2648 31.1406L54.2152 31.1903L54.1727 31.247C54.1544 31.2617 54.1378 31.2784 54.1231 31.2967L54.0734 31.3534L54.0309 31.4031L53.9813 31.4598L53.9388 31.5095L53.8892 31.5662C53.8745 31.5845 53.8578 31.6012 53.8396 31.6159L53.7971 31.6726L53.7474 31.7223L53.7049 31.779C53.6866 31.7937 53.67 31.8104 53.6553 31.8287L53.6057 31.8854L53.5632 31.9351L53.5136 31.9918L53.471 32.0415L53.4214 32.0982L53.3789 32.1479L53.3293 32.2046L53.2797 32.2543L53.2372 32.311C53.2189 32.3258 53.2023 32.3424 53.1876 32.3607L53.138 32.4174L53.0954 32.4671L53.0458 32.5238L53.0033 32.5735L52.9537 32.6303C52.939 32.6485 52.9224 32.6652 52.9041 32.6799L52.8616 32.7367L52.812 32.7863L52.7694 32.8431L52.7198 32.8927L52.6702 32.9495L52.6277 32.9991L52.5781 33.0559L52.5356 33.1055L52.486 33.1623L52.4434 33.2119L52.3938 33.2687L52.3442 33.3183L52.3017 33.3751L52.2521 33.4247L52.2096 33.4815C52.1913 33.4962 52.1747 33.5128 52.16 33.5311L52.1104 33.5879L52.0678 33.6375L52.0182 33.6943L51.9757 33.7439L51.9261 33.8007C51.9114 33.819 51.8948 33.8356 51.8765 33.8503L51.834 33.9071L51.7844 33.9567L51.7418 34.0135C51.7388 34.0252 51.7365 34.037 51.7347 34.049L51.6851 34.1057L51.6426 34.1554L51.593 34.2121L51.5505 34.2618L51.5009 34.3185C51.4862 34.3368 51.4695 34.3535 51.4513 34.3682L51.4087 34.4249C50.3612 35.6374 49.5861 37.061 49.1362 38.5994C48.6862 40.1378 48.5718 41.755 48.8007 43.3415L70.3593 211.494C71.2522 218.438 77.6021 224.071 84.5332 224.071H164.169C165.76 224.101 167.337 223.785 168.794 223.144C170.25 222.503 171.549 221.554 172.603 220.361L172.652 220.304Z" fill="url(#paint0_linear_21_8716)"/>
<path d="M170.172 93.6701C169.365 93.6488 168.591 93.3433 167.987 92.8075C167.383 92.2716 166.987 91.5397 166.869 90.7405L164.828 74.8084C164.769 74.4422 164.791 74.0673 164.892 73.7105C164.994 73.3537 165.173 73.0237 165.417 72.744C165.66 72.4643 165.962 72.2418 166.302 72.0922C166.641 71.9427 167.009 71.8698 167.38 71.8788C168.186 71.9004 168.958 72.2061 169.561 72.7421C170.164 73.278 170.558 74.0098 170.675 74.8084L172.723 90.7405C172.783 91.1067 172.761 91.4816 172.659 91.8384C172.557 92.1952 172.378 92.5252 172.135 92.8049C171.891 93.0846 171.589 93.3071 171.25 93.4567C170.91 93.6062 170.542 93.6791 170.172 93.6701Z" fill="url(#paint1_linear_21_8716)"/>
<path d="M173.524 213.43H93.895C86.9498 213.43 80.607 207.798 79.7211 200.854L58.1555 32.7012C57.2696 25.7496 62.1738 20.1173 69.1119 20.1173H148.741C155.679 20.1173 162.029 25.7496 162.915 32.7012L184.473 200.854C185.366 207.798 180.462 213.43 173.524 213.43Z" fill="url(#paint2_linear_21_8716)"/>
<path d="M169.761 206.784H95.9502C93.5941 206.721 91.3355 205.829 89.5714 204.264C87.8074 202.699 86.6507 200.562 86.3049 198.229L65.4196 35.3187C65.2452 34.2487 65.3087 33.1533 65.6057 32.1107C65.9028 31.0681 66.4259 30.1039 67.138 29.2868C67.85 28.4698 68.7333 27.8201 69.725 27.384C70.7167 26.9479 71.7923 26.7362 72.8751 26.7639H146.7C149.056 26.8256 151.314 27.7176 153.077 29.2825C154.84 30.8475 155.995 32.9851 156.338 35.3187L177.223 198.229C177.399 199.3 177.337 200.396 177.04 201.44C176.743 202.484 176.219 203.449 175.506 204.266C174.793 205.084 173.908 205.733 172.915 206.168C171.922 206.604 170.845 206.814 169.761 206.784Z" fill="url(#paint3_linear_21_8716)"/>
<path d="M86.5813 26.7639L88.5585 30.3107C89.0551 31.2064 89.7765 31.9569 90.6514 32.4881C91.5264 33.0193 92.5247 33.3128 93.5477 33.3396H122.129C123.073 33.3706 124 33.0901 124.769 32.5415C125.537 31.9929 126.104 31.2065 126.382 30.3036L127.452 26.7568L86.5813 26.7639Z" fill="url(#paint4_linear_21_8716)"/>
<path d="M173.524 213.43H93.895C86.9498 213.43 80.607 207.798 79.7211 200.854L58.1555 32.7012C57.2696 25.7496 62.1738 20.1173 69.1119 20.1173H148.741C155.679 20.1173 162.029 25.7496 162.915 32.7012L184.473 200.854C185.366 207.798 180.462 213.43 173.524 213.43Z" fill="url(#paint5_linear_21_8716)"/>
<path d="M169.761 206.784H95.9502C93.5941 206.721 91.3355 205.829 89.5714 204.264C87.8074 202.699 86.6507 200.562 86.3049 198.229L65.4196 35.3187C65.2452 34.2487 65.3087 33.1533 65.6057 32.1107C65.9028 31.0681 66.4259 30.1039 67.138 29.2868C67.85 28.4698 68.7333 27.8201 69.725 27.384C70.7167 26.9479 71.7923 26.7362 72.8751 26.7639H146.7C149.056 26.8256 151.314 27.7176 153.077 29.2825C154.84 30.8475 155.995 32.9851 156.338 35.3187L177.223 198.229C177.399 199.3 177.337 200.396 177.04 201.44C176.743 202.484 176.219 203.449 175.506 204.266C174.793 205.084 173.908 205.733 172.915 206.168C171.922 206.604 170.845 206.814 169.761 206.784Z" fill="url(#paint6_linear_21_8716)"/>
<mask id="mask0_21_8716" style="mask-type:luminance" maskUnits="userSpaceOnUse" x="65" y="26" width="113" height="181">
<path d="M169.761 206.784H95.9502C93.5941 206.721 91.3355 205.829 89.5714 204.264C87.8074 202.699 86.6507 200.562 86.3049 198.229L65.4196 35.3187C65.2452 34.2487 65.3087 33.1533 65.6057 32.1107C65.9028 31.0681 66.4259 30.1039 67.138 29.2868C67.85 28.4698 68.7333 27.8201 69.725 27.384C70.7167 26.9479 71.7923 26.7362 72.8751 26.7639H146.7C149.056 26.8256 151.314 27.7176 153.077 29.2825C154.84 30.8475 155.995 32.9851 156.338 35.3187L177.223 198.229C177.399 199.3 177.337 200.396 177.04 201.44C176.743 202.484 176.219 203.449 175.506 204.266C174.793 205.084 173.908 205.733 172.915 206.168C171.922 206.604 170.845 206.814 169.761 206.784Z" fill="white"/>
</mask>
<g mask="url(#mask0_21_8716)">
<path d="M126.445 82.7815H83.3142L76.617 88.3358L74.8028 73.7727C74.6223 72.6474 74.6918 71.4961 75.0061 70.4006C75.3205 69.3051 75.8721 68.2924 76.6217 67.4345C77.3713 66.5765 78.3005 65.8943 79.3433 65.4365C80.386 64.9786 81.5168 64.7562 82.6551 64.7852H124.192C126.665 64.8485 129.036 65.7855 130.886 67.4303C132.735 69.0751 133.944 71.3218 134.298 73.7727C134.483 74.8999 134.417 76.054 134.105 77.1527C133.792 78.2514 133.242 79.2674 132.491 80.1282C131.741 80.9889 130.81 81.6731 129.765 82.1318C128.72 82.5905 127.586 82.8123 126.445 82.7815Z" fill="url(#paint7_linear_21_8716)"/>
<path d="M123.384 54.1307H80.2597L73.5625 59.6779L71.7412 45.1432C71.5642 44.0194 71.6363 42.8705 71.9522 41.7777C72.2682 40.6849 72.8203 39.6749 73.5695 38.8195C74.3187 37.964 75.2467 37.2838 76.2877 36.8272C77.3287 36.3705 78.4573 36.1486 79.5935 36.177H121.137C123.611 36.2403 125.982 37.1772 127.831 38.8221C129.681 40.4669 130.889 42.7135 131.243 45.1645C131.413 46.2877 131.335 47.4344 131.016 48.5244C130.696 49.6144 130.143 50.6216 129.395 51.4754C128.646 52.3293 127.721 53.0093 126.682 53.4679C125.644 53.9265 124.518 54.1527 123.384 54.1307Z" fill="url(#paint8_linear_21_8716)"/>
<path d="M108.615 111.092H151.746L159.832 116.639L158.039 102.104C157.685 99.6534 156.477 97.4068 154.627 95.7619C152.777 94.1171 150.406 93.1802 147.933 93.1169H106.361C105.225 93.0954 104.098 93.3228 103.059 93.7831C102.019 94.2434 101.093 94.9256 100.345 95.7818C99.5974 96.638 99.0454 97.6475 98.7281 98.7396C98.4108 99.8318 98.3359 100.98 98.5086 102.104C98.8624 104.555 100.071 106.802 101.921 108.447C103.77 110.092 106.141 111.029 108.615 111.092Z" fill="url(#paint9_linear_21_8716)"/>
<path d="M133.532 139.402H90.4082L83.7111 144.949L81.8897 130.415C81.7093 129.289 81.7787 128.138 82.0931 127.043C82.4075 125.947 82.959 124.934 83.7086 124.076C84.4582 123.218 85.3874 122.536 86.4302 122.078C87.473 121.621 88.6037 121.398 89.7421 121.427H131.286C133.759 121.492 136.129 122.429 137.978 124.074C139.828 125.718 141.037 127.964 141.392 130.415C141.565 131.54 141.49 132.689 141.172 133.781C140.854 134.874 140.301 135.884 139.553 136.74C138.804 137.596 137.877 138.278 136.837 138.738C135.797 139.198 134.669 139.425 133.532 139.402Z" fill="url(#paint10_linear_21_8716)"/>
<path d="M115.702 167.705H158.833L166.919 173.26L165.126 158.718C164.772 156.267 163.564 154.02 161.714 152.375C159.864 150.731 157.493 149.794 155.02 149.73H113.455C112.316 149.7 111.185 149.922 110.141 150.379C109.097 150.837 108.167 151.519 107.417 152.377C106.666 153.235 106.114 154.248 105.799 155.344C105.485 156.44 105.415 157.592 105.596 158.718C105.948 161.169 107.156 163.417 109.006 165.062C110.856 166.707 113.228 167.643 115.702 167.705Z" fill="url(#paint11_linear_21_8716)"/>
<path d="M95.199 179.857H160.555C162.292 179.91 163.954 180.575 165.25 181.733C166.546 182.892 167.393 184.47 167.642 186.191C167.769 186.984 167.72 187.796 167.499 188.568C167.277 189.34 166.888 190.054 166.36 190.659C165.831 191.264 165.176 191.744 164.441 192.067C163.706 192.39 162.909 192.546 162.107 192.526H96.7865C95.0489 192.475 93.3851 191.811 92.0886 190.652C90.792 189.493 89.9459 187.913 89.6995 186.191C89.5729 185.401 89.621 184.592 89.8406 183.823C90.0601 183.053 90.4457 182.341 90.9702 181.737C91.4946 181.133 92.1452 180.652 92.8759 180.327C93.6065 180.002 94.3996 179.841 95.199 179.857Z" fill="#DAF1F1" stroke="url(#paint12_linear_21_8716)" stroke-miterlimit="10"/>
<path d="M151.2 179.857H160.555C162.292 179.91 163.954 180.575 165.25 181.733C166.546 182.892 167.393 184.47 167.642 186.191C167.769 186.984 167.72 187.796 167.499 188.568C167.277 189.34 166.888 190.054 166.36 190.659C165.831 191.264 165.176 191.744 164.441 192.067C163.706 192.39 162.909 192.546 162.107 192.526H152.78L151.2 179.857Z" fill="url(#paint13_linear_21_8716)"/>
<path d="M78.4454 42.469L125.645 42.4193" stroke="#00BDB7" stroke-width="2" stroke-linecap="round" stroke-linejoin="round"/>
<path d="M79.3101 47.7395L126.502 47.6969" stroke="#00BDB7" stroke-width="2" stroke-linecap="round" stroke-linejoin="round"/>
<path d="M81.1101 70.8148L128.302 70.7722" stroke="#00BDB7" stroke-width="2" stroke-linecap="round" stroke-linejoin="round"/>
<path d="M81.9677 76.0924L129.167 76.0427" stroke="#00BDB7" stroke-width="2" stroke-linecap="round" stroke-linejoin="round"/>
<path d="M88.7924 127.911L135.984 127.868" stroke="#00BDB7" stroke-width="2" stroke-linecap="round" stroke-linejoin="round"/>
<path d="M89.6499 133.188L136.842 133.139" stroke="#00BDB7" stroke-width="2" stroke-linecap="round" stroke-linejoin="round"/>
<path d="M105.107 98.962L152.306 98.9194" stroke="#007AB7" stroke-width="2" stroke-linecap="round" stroke-linejoin="round"/>
<path d="M105.964 104.239L153.163 104.19" stroke="#007AB7" stroke-width="2" stroke-linecap="round" stroke-linejoin="round"/>
<path d="M112.201 155.689L159.393 155.639" stroke="#007AB7" stroke-width="2" stroke-linecap="round" stroke-linejoin="round"/>
<path d="M113.058 160.959L160.25 160.917" stroke="#007AB7" stroke-width="2" stroke-linecap="round" stroke-linejoin="round"/>
<path d="M60.154 38.2767L160.222 37.3687L156.012 22.7773L57.546 23.6711L60.154 38.2767Z" fill="url(#paint14_linear_21_8716)"/>
</g>
<path d="M86.5813 26.7639L88.5585 30.3107C89.0551 31.2064 89.7765 31.9569 90.6514 32.4881C91.5264 33.0193 92.5247 33.3128 93.5477 33.3396H122.129C123.073 33.3706 124 33.0901 124.769 32.5415C125.537 31.9929 126.104 31.2065 126.382 30.3036L127.452 26.7568L86.5813 26.7639Z" fill="url(#paint15_linear_21_8716)"/>
<path d="M146.7 26.7639H142.923C145.279 26.8268 147.537 27.719 149.301 29.2836C151.065 30.8482 152.222 32.9851 152.568 35.3187L173.446 198.229C173.622 199.299 173.559 200.394 173.263 201.436C172.967 202.479 172.444 203.443 171.733 204.261C171.021 205.078 170.139 205.728 169.147 206.164C168.156 206.6 167.08 206.812 165.998 206.784H169.775C170.858 206.812 171.933 206.6 172.924 206.164C173.916 205.728 174.799 205.078 175.51 204.261C176.222 203.443 176.744 202.479 177.04 201.436C177.337 200.394 177.399 199.299 177.223 198.229L156.324 35.3187C155.981 32.9874 154.829 30.8517 153.068 29.287C151.308 27.7224 149.053 26.829 146.7 26.7639Z" fill="url(#paint16_linear_21_8716)"/>
<path style="mix-blend-mode:overlay" d="M169.761 206.784H95.9502C93.5941 206.721 91.3355 205.829 89.5714 204.264C87.8074 202.699 86.6507 200.562 86.3049 198.229L65.4196 35.3187C65.2452 34.2487 65.3087 33.1533 65.6057 32.1107C65.9028 31.0681 66.4259 30.1039 67.138 29.2868C67.85 28.4698 68.7333 27.8201 69.725 27.384C70.7167 26.9479 71.7923 26.7362 72.8751 26.7639H146.7C149.056 26.8256 151.314 27.7176 153.077 29.2825C154.84 30.8475 155.995 32.9851 156.338 35.3187L177.223 198.229C177.399 199.3 177.337 200.396 177.04 201.44C176.743 202.484 176.219 203.449 175.506 204.266C174.793 205.084 173.908 205.733 172.915 206.168C171.922 206.604 170.845 206.814 169.761 206.784Z" fill="url(#paint17_linear_21_8716)"/>
<path d="M124.985 33.3396H96.3825C95.3616 33.305 94.3672 33.0049 93.4974 32.4689C92.6275 31.9328 91.9121 31.1792 91.4217 30.2823L85.7521 20.2095H132.292L129.223 30.2823C128.95 31.1868 128.387 31.9761 127.621 32.5286C126.855 33.0811 125.929 33.3661 124.985 33.3396Z" fill="url(#paint18_linear_21_8716)"/>
<path d="M117.771 29.1261H96.9849C96.6632 29.1145 96.3558 28.9903 96.1162 28.7751C95.8766 28.5599 95.7201 28.2674 95.6738 27.9486C95.6486 27.8006 95.6565 27.649 95.6969 27.5044C95.7373 27.3599 95.8093 27.2262 95.9076 27.1129C96.0059 26.9996 96.1281 26.9095 96.2654 26.8492C96.4026 26.7888 96.5516 26.7597 96.7014 26.764H117.48C117.806 26.7726 118.117 26.8963 118.36 27.1132C118.603 27.3301 118.76 27.6261 118.806 27.9486C118.83 28.0966 118.821 28.2481 118.78 28.3923C118.738 28.5364 118.665 28.6696 118.566 28.7822C118.468 28.8949 118.345 28.9841 118.207 29.0436C118.07 29.103 117.921 29.1312 117.771 29.1261Z" fill="url(#paint19_linear_21_8716)"/>
<path d="M123.975 29.1569C124.567 28.5254 124.466 27.4681 123.749 26.7955C123.033 26.1228 121.972 26.0895 121.38 26.7211C120.789 27.3526 120.89 28.4099 121.607 29.0825C122.323 29.7552 123.384 29.7885 123.975 29.1569Z" fill="url(#paint20_linear_21_8716)"/>
<path d="M146.7 26.7639H142.923C145.279 26.8268 147.537 27.719 149.301 29.2836C151.065 30.8482 152.222 32.9851 152.568 35.3187L173.446 198.229C173.622 199.299 173.559 200.394 173.263 201.436C172.967 202.479 172.444 203.443 171.733 204.261C171.021 205.078 170.139 205.728 169.147 206.164C168.156 206.6 167.08 206.812 165.998 206.784H169.775C170.858 206.812 171.933 206.6 172.924 206.164C173.916 205.728 174.799 205.078 175.51 204.261C176.222 203.443 176.744 202.479 177.04 201.436C177.337 200.394 177.399 199.299 177.223 198.229L156.324 35.3187C155.981 32.9874 154.829 30.8517 153.068 29.287C151.308 27.7224 149.053 26.829 146.7 26.7639Z" fill="url(#paint21_linear_21_8716)"/>
<path style="mix-blend-mode:overlay" d="M169.761 206.784H95.9502C93.5941 206.721 91.3355 205.829 89.5714 204.264C87.8074 202.699 86.6507 200.562 86.3049 198.229L65.4196 35.3187C65.2452 34.2487 65.3087 33.1533 65.6057 32.1107C65.9028 31.0681 66.4259 30.1039 67.138 29.2868C67.85 28.4698 68.7333 27.8201 69.725 27.384C70.7167 26.9479 71.7923 26.7362 72.8751 26.7639H146.7C149.056 26.8256 151.314 27.7176 153.077 29.2825C154.84 30.8475 155.995 32.9851 156.338 35.3187L177.223 198.229C177.399 199.3 177.337 200.396 177.04 201.44C176.743 202.484 176.219 203.449 175.506 204.266C174.793 205.084 173.908 205.733 172.915 206.168C171.922 206.604 170.845 206.814 169.761 206.784Z" fill="url(#paint22_linear_21_8716)"/>
<path style="mix-blend-mode:overlay" d="M169.761 206.784H95.9502C93.5941 206.721 91.3355 205.829 89.5714 204.264C87.8074 202.699 86.6507 200.562 86.3049 198.229L65.4196 35.3187C65.2452 34.2487 65.3087 33.1533 65.6057 32.1107C65.9028 31.0681 66.4259 30.1039 67.138 29.2868C67.85 28.4698 68.7333 27.8201 69.725 27.384C70.7167 26.9479 71.7923 26.7362 72.8751 26.7639H146.7C149.056 26.8256 151.314 27.7176 153.077 29.2825C154.84 30.8475 155.995 32.9851 156.338 35.3187L177.223 198.229C177.399 199.3 177.337 200.396 177.04 201.44C176.743 202.484 176.219 203.449 175.506 204.266C174.793 205.084 173.908 205.733 172.915 206.168C171.922 206.604 170.845 206.814 169.761 206.784Z" fill="url(#paint23_linear_21_8716)"/>
<path d="M124.985 33.3396H96.3825C95.3616 33.305 94.3672 33.0049 93.4974 32.4689C92.6275 31.9328 91.9121 31.1792 91.4217 30.2823L85.7521 20.2095H132.292L129.223 30.2823C128.95 31.1868 128.387 31.9761 127.621 32.5286C126.855 33.0811 125.929 33.3661 124.985 33.3396Z" fill="url(#paint24_linear_21_8716)"/>
<path d="M117.771 29.1261H96.9849C96.6632 29.1145 96.3558 28.9903 96.1162 28.7751C95.8766 28.5599 95.7201 28.2674 95.6738 27.9486C95.6486 27.8006 95.6565 27.649 95.6969 27.5044C95.7373 27.3599 95.8093 27.2262 95.9076 27.1129C96.0059 26.9996 96.1281 26.9095 96.2654 26.8492C96.4026 26.7888 96.5516 26.7597 96.7014 26.764H117.48C117.806 26.7726 118.117 26.8963 118.36 27.1132C118.603 27.3301 118.76 27.6261 118.806 27.9486C118.83 28.0966 118.821 28.2481 118.78 28.3923C118.738 28.5364 118.665 28.6696 118.566 28.7822C118.468 28.8949 118.345 28.9841 118.207 29.0436C118.07 29.103 117.921 29.1312 117.771 29.1261Z" fill="url(#paint25_linear_21_8716)"/>
<path d="M123.975 29.1569C124.567 28.5254 124.466 27.4681 123.749 26.7955C123.033 26.1228 121.972 26.0895 121.38 26.7211C120.789 27.3526 120.89 28.4099 121.607 29.0825C122.323 29.7552 123.384 29.7885 123.975 29.1569Z" fill="url(#paint26_linear_21_8716)"/>
<path d="M64.5267 119.171H62.4006C61.5937 119.15 60.8202 118.845 60.2162 118.309C59.6121 117.773 59.2162 117.041 59.0981 116.242L57.3263 102.424C57.2669 102.057 57.2888 101.682 57.3905 101.326C57.4922 100.969 57.6712 100.639 57.9148 100.359C58.1584 100.079 58.4605 99.8569 58.7998 99.7074C59.139 99.5578 59.507 99.4849 59.8776 99.4939H62.0037C62.8102 99.5166 63.5829 99.8226 64.1867 100.358C64.7905 100.894 65.1868 101.625 65.3062 102.424L67.078 116.242C67.1374 116.608 67.1155 116.983 67.0138 117.34C66.9121 117.696 66.7331 118.026 66.4895 118.306C66.246 118.586 65.9438 118.808 65.6045 118.958C65.2653 119.107 64.8973 119.18 64.5267 119.171Z" fill="url(#paint27_linear_21_8716)"/>
<path d="M62.4006 119.171C61.5937 119.15 60.8202 118.845 60.2162 118.309C59.6121 117.773 59.2162 117.041 59.0981 116.242L57.3263 102.424C57.2669 102.057 57.2888 101.682 57.3905 101.326C57.4922 100.969 57.6712 100.639 57.9148 100.359C58.1584 100.079 58.4605 99.8569 58.7998 99.7074C59.139 99.5578 59.507 99.4849 59.8776 99.4939C60.6841 99.5166 61.4569 99.8226 62.0606 100.358C62.6644 100.894 63.0607 101.625 63.1802 102.424L64.9519 116.242C65.0114 116.608 64.9895 116.983 64.8878 117.34C64.7861 117.696 64.607 118.026 64.3635 118.306C64.1199 118.586 63.8177 118.808 63.4785 118.958C63.1392 119.107 62.7712 119.18 62.4006 119.171Z" fill="url(#paint28_linear_21_8716)"/>
<path d="M60.9832 91.5563H58.8571C58.0507 91.5335 57.2779 91.2276 56.6741 90.692C56.0704 90.1564 55.6741 89.4253 55.5546 88.6266L53.7829 74.8084C53.7234 74.4422 53.7453 74.0673 53.847 73.7105C53.9487 73.3537 54.1277 73.0237 54.3713 72.744C54.6149 72.4643 54.917 72.2418 55.2563 72.0922C55.5956 71.9427 55.9636 71.8698 56.3342 71.8788H58.4603C59.2671 71.9001 60.0406 72.2056 60.6447 72.7415C61.2487 73.2773 61.6447 74.0092 61.7628 74.8084L63.5345 88.6266C63.594 88.9929 63.5721 89.3677 63.4704 89.7245C63.3687 90.0813 63.1897 90.4113 62.9461 90.691C62.7025 90.9707 62.4003 91.1933 62.0611 91.3428C61.7218 91.4924 61.3538 91.5652 60.9832 91.5563Z" fill="url(#paint29_linear_21_8716)"/>
<path d="M58.8571 91.5563C58.0507 91.5335 57.2779 91.2276 56.6741 90.692C56.0704 90.1564 55.6741 89.4253 55.5546 88.6266L53.7829 74.8084C53.7234 74.4422 53.7453 74.0673 53.847 73.7105C53.9487 73.3537 54.1277 73.0237 54.3713 72.744C54.6149 72.4643 54.917 72.2418 55.2563 72.0922C55.5956 71.9427 55.9636 71.8698 56.3342 71.8788C57.141 71.9001 57.9145 72.2056 58.5186 72.7415C59.1227 73.2773 59.5186 74.0092 59.6367 74.8084L61.4084 88.6266C61.4679 88.9929 61.446 89.3677 61.3443 89.7245C61.2426 90.0813 61.0636 90.4113 60.82 90.691C60.5764 90.9707 60.2742 91.1933 59.935 91.3428C59.5957 91.4924 59.2277 91.5652 58.8571 91.5563Z" fill="url(#paint30_linear_21_8716)"/>
<path style="mix-blend-mode:multiply" opacity="0.4" d="M169.591 84.7393H112.683C111.794 84.7178 110.912 84.8913 110.098 85.2476C109.284 85.604 108.558 86.1345 107.971 86.8019C107.384 87.4693 106.951 88.2573 106.7 89.1106C106.45 89.9639 106.39 90.8616 106.524 91.7407L114.1 156.916L125.049 144.985H177.315L169.591 84.7393Z" fill="url(#paint31_linear_21_8716)"/>
<path opacity="0.5" d="M217.761 74.1416H137.749C134.377 74.1416 131.143 75.4824 128.759 77.8689C126.375 80.2555 125.035 83.4923 125.035 86.8674V154.398L139.039 142.339H217.761C221.129 142.328 224.357 140.983 226.738 138.599C229.12 136.215 230.463 132.985 230.475 129.613V86.8674C230.475 83.4923 229.135 80.2555 226.751 77.8689C224.367 75.4824 221.133 74.1416 217.761 74.1416Z" fill="url(#paint32_linear_21_8716)"/>
<path d="M217.761 74.1416H137.749C134.377 74.1416 131.143 75.4824 128.759 77.8689C126.375 80.2555 125.035 83.4923 125.035 86.8674V154.398L139.039 142.339H217.761C221.129 142.328 224.357 140.983 226.738 138.599C229.12 136.215 230.463 132.985 230.475 129.613V86.8674C230.475 83.4923 229.135 80.2555 226.751 77.8689C224.367 75.4824 221.133 74.1416 217.761 74.1416Z" stroke="url(#paint33_linear_21_8716)" stroke-width="2" stroke-miterlimit="10"/>
<path d="M208.115 81.1997H142.377C138.514 81.1997 135.382 84.3343 135.382 88.201V126.641C135.382 130.508 138.514 133.642 142.377 133.642H208.115C211.979 133.642 215.11 130.508 215.11 126.641V88.201C215.11 84.3343 211.979 81.1997 208.115 81.1997Z" fill="url(#paint34_linear_21_8716)"/>
<path d="M212.438 81.1997H146.7C142.837 81.1997 139.705 84.3343 139.705 88.201V126.641C139.705 130.508 142.837 133.642 146.7 133.642H212.438C216.302 133.642 219.433 130.508 219.433 126.641V88.201C219.433 84.3343 216.302 81.1997 212.438 81.1997Z" fill="url(#paint35_linear_21_8716)"/>
<path d="M179.569 102.53L141.739 132.06C142.853 133.077 144.307 133.638 145.814 133.635H213.317C214.824 133.638 216.278 133.077 217.392 132.06L179.569 102.53Z" fill="url(#paint36_linear_21_8716)"/>
<path d="M179.569 112.305L217.413 82.7674C216.297 81.7562 214.844 81.1973 213.338 81.1997H145.793C144.287 81.1973 142.834 81.7562 141.718 82.7674L179.569 112.305Z" fill="url(#paint37_linear_21_8716)"/>
<path d="M141.718 82.7673L179.569 112.305L217.413 82.7673" stroke="#CC5833" stroke-width="1.44" stroke-miterlimit="10"/>
<path d="M212.786 96.841C221.416 96.841 228.412 89.8381 228.412 81.1997C228.412 72.5613 221.416 65.5585 212.786 65.5585C204.155 65.5585 197.159 72.5613 197.159 81.1997C197.159 89.8381 204.155 96.841 212.786 96.841Z" fill="#D4003C"/>
<path d="M214.841 96.841C223.471 96.841 230.468 89.8381 230.468 81.1997C230.468 72.5613 223.471 65.5585 214.841 65.5585C206.21 65.5585 199.214 72.5613 199.214 81.1997C199.214 89.8381 206.21 96.841 214.841 96.841Z" fill="#FF335B"/>
<path d="M218.448 88.9885H215.443V76.0924L212.609 76.1633V73.8579L218.448 73.2621V88.9885Z" fill="#D4003C"/>
<path d="M217.052 88.9884H214.068V76.22L211.269 76.2981V74.0069L217.052 73.4181V88.9884Z" fill="white"/>
<path d="M214.841 48.4276V57.9046" stroke="white" stroke-width="4" stroke-linecap="round" stroke-linejoin="round"/>
<path d="M237.994 58.0251L231.297 64.7285" stroke="white" stroke-width="4" stroke-linecap="round" stroke-linejoin="round"/>
<path d="M247.583 81.1997H238.114" stroke="white" stroke-width="4" stroke-linecap="round" stroke-linejoin="round"/>
<path d="M191.695 58.0251L198.392 64.7285" stroke="white" stroke-width="4" stroke-linecap="round" stroke-linejoin="round"/>
<path d="M37.5963 14.9036L45.3565 20.3372" stroke="white" stroke-width="4" stroke-linecap="round" stroke-linejoin="round"/>
<path d="M58.7225 1.4187L60.3737 10.7538" stroke="white" stroke-width="4" stroke-linecap="round" stroke-linejoin="round"/>
<path d="M83.1866 6.83105L77.7651 14.5985" stroke="white" stroke-width="4" stroke-linecap="round" stroke-linejoin="round"/>
<path d="M32.1889 39.3975L41.5154 37.7448" stroke="white" stroke-width="4" stroke-linecap="round" stroke-linejoin="round"/>
</g>
<defs>
<linearGradient id="paint0_linear_21_8716" x1="149.485" y1="29.0906" x2="81.636" y2="220.874" gradientUnits="userSpaceOnUse">
<stop stop-color="#007D73"/>
<stop offset="0.24" stop-color="#027875"/>
<stop offset="0.53" stop-color="#08687A"/>
<stop offset="0.85" stop-color="#114F81"/>
<stop offset="1" stop-color="#164186"/>
</linearGradient>
<linearGradient id="paint1_linear_21_8716" x1="168.776" y1="53.2228" x2="168.776" y2="105.573" gradientUnits="userSpaceOnUse">
<stop stop-color="#007D73"/>
<stop offset="0.24" stop-color="#027875"/>
<stop offset="0.53" stop-color="#08687A"/>
<stop offset="0.85" stop-color="#114F81"/>
<stop offset="1" stop-color="#164186"/>
</linearGradient>
<linearGradient id="paint2_linear_21_8716" x1="129.684" y1="25.2318" x2="113.659" y2="200.198" gradientUnits="userSpaceOnUse">
<stop stop-color="#4ADECE"/>
<stop offset="1" stop-color="#1697D7"/>
</linearGradient>
<linearGradient id="paint3_linear_21_8716" x1="139.322" y1="10.6616" x2="101.956" y2="230.507" gradientUnits="userSpaceOnUse">
<stop stop-color="#D3F7FF"/>
<stop offset="0.69" stop-color="#BCDDE6"/>
<stop offset="1" stop-color="#B0CFD9"/>
</linearGradient>
<linearGradient id="paint4_linear_21_8716" x1="136.055" y1="30.0411" x2="72.8468" y2="30.0411" gradientUnits="userSpaceOnUse">
<stop stop-color="#007D73"/>
<stop offset="0.24" stop-color="#027875"/>
<stop offset="0.53" stop-color="#08687A"/>
<stop offset="0.85" stop-color="#114F81"/>
<stop offset="1" stop-color="#164186"/>
</linearGradient>
<linearGradient id="paint5_linear_21_8716" x1="129.684" y1="25.2318" x2="113.659" y2="200.198" gradientUnits="userSpaceOnUse">
<stop stop-color="#4ADECE"/>
<stop offset="1" stop-color="#1697D7"/>
</linearGradient>
<linearGradient id="paint6_linear_21_8716" x1="139.322" y1="10.6616" x2="101.956" y2="230.507" gradientUnits="userSpaceOnUse">
<stop stop-color="#D3F7FF"/>
<stop offset="0.69" stop-color="#BCDDE6"/>
<stop offset="1" stop-color="#B0CFD9"/>
</linearGradient>
<linearGradient id="paint7_linear_21_8716" x1="88.2208" y1="76.5747" x2="266.519" y2="53.4175" gradientUnits="userSpaceOnUse">
<stop stop-color="#4ADECE"/>
<stop offset="1" stop-color="#1697D7"/>
</linearGradient>
<linearGradient id="paint8_linear_21_8716" x1="85.0303" y1="47.9168" x2="263.321" y2="24.7605" gradientUnits="userSpaceOnUse">
<stop stop-color="#4ADECE"/>
<stop offset="1" stop-color="#1697D7"/>
</linearGradient>
<linearGradient id="paint9_linear_21_8716" x1="33.9468" y1="104.878" x2="147.708" y2="90.1027" gradientUnits="userSpaceOnUse">
<stop stop-color="#4ADECE"/>
<stop offset="1" stop-color="#1697D7"/>
</linearGradient>
<linearGradient id="paint10_linear_21_8716" x1="95.5738" y1="133.188" x2="273.872" y2="110.031" gradientUnits="userSpaceOnUse">
<stop stop-color="#4ADECE"/>
<stop offset="1" stop-color="#1697D7"/>
</linearGradient>
<linearGradient id="paint11_linear_21_8716" x1="41.3007" y1="161.499" x2="155.062" y2="146.723" gradientUnits="userSpaceOnUse">
<stop stop-color="#4ADECE"/>
<stop offset="1" stop-color="#1697D7"/>
</linearGradient>
<linearGradient id="paint12_linear_21_8716" x1="168.161" y1="186.191" x2="93.9616" y2="204.724" gradientUnits="userSpaceOnUse">
<stop stop-color="#4ADECE"/>
<stop offset="1" stop-color="#1697D7"/>
</linearGradient>
<linearGradient id="paint13_linear_21_8716" x1="131.732" y1="233.129" x2="163.271" y2="177.569" gradientUnits="userSpaceOnUse">
<stop stop-color="#4ADECE"/>
<stop offset="1" stop-color="#1697D7"/>
</linearGradient>
<linearGradient id="paint14_linear_21_8716" x1="108.884" y1="86.8958" x2="108.884" y2="-2.7452" gradientUnits="userSpaceOnUse">
<stop stop-color="#007D73"/>
<stop offset="0.24" stop-color="#027875"/>
<stop offset="0.53" stop-color="#08687A"/>
<stop offset="0.85" stop-color="#114F81"/>
<stop offset="1" stop-color="#164186"/>
</linearGradient>
<linearGradient id="paint15_linear_21_8716" x1="136.055" y1="30.0411" x2="72.8468" y2="30.0411" gradientUnits="userSpaceOnUse">
<stop stop-color="#007D73"/>
<stop offset="0.24" stop-color="#027875"/>
<stop offset="0.53" stop-color="#08687A"/>
<stop offset="0.85" stop-color="#114F81"/>
<stop offset="1" stop-color="#164186"/>
</linearGradient>
<linearGradient id="paint16_linear_21_8716" x1="160.094" y1="21.7488" x2="160.094" y2="198.293" gradientUnits="userSpaceOnUse">
<stop stop-color="#007D73"/>
<stop offset="0.24" stop-color="#027875"/>
<stop offset="0.53" stop-color="#08687A"/>
<stop offset="0.85" stop-color="#114F81"/>
<stop offset="1" stop-color="#164186"/>
</linearGradient>
<linearGradient id="paint17_linear_21_8716" x1="222.7" y1="65.7996" x2="9.11897" y2="172.987" gradientUnits="userSpaceOnUse">
<stop stop-color="#FFECAD"/>
<stop offset="0.1" stop-color="#EDE4AD" stop-opacity="0.93"/>
<stop offset="0.31" stop-color="#BCCFAC" stop-opacity="0.74"/>
<stop offset="0.61" stop-color="#6FACAB" stop-opacity="0.44"/>
<stop offset="0.98" stop-color="#067DAA" stop-opacity="0.02"/>
<stop offset="1" stop-color="#007BAA" stop-opacity="0"/>
</linearGradient>
<linearGradient id="paint18_linear_21_8716" x1="108.728" y1="23.3164" x2="92.7032" y2="198.283" gradientUnits="userSpaceOnUse">
<stop stop-color="#4ADECE"/>
<stop offset="1" stop-color="#1697D7"/>
</linearGradient>
<linearGradient id="paint19_linear_21_8716" x1="136.055" y1="27.9486" x2="72.8468" y2="27.9486" gradientUnits="userSpaceOnUse">
<stop stop-color="#007D73"/>
<stop offset="0.24" stop-color="#027875"/>
<stop offset="0.53" stop-color="#08687A"/>
<stop offset="0.85" stop-color="#114F81"/>
<stop offset="1" stop-color="#164186"/>
</linearGradient>
<linearGradient id="paint20_linear_21_8716" x1="136.046" y1="27.9501" x2="72.8374" y2="27.9501" gradientUnits="userSpaceOnUse">
<stop stop-color="#007D73"/>
<stop offset="0.24" stop-color="#027875"/>
<stop offset="0.53" stop-color="#08687A"/>
<stop offset="0.85" stop-color="#114F81"/>
<stop offset="1" stop-color="#164186"/>
</linearGradient>
<linearGradient id="paint21_linear_21_8716" x1="160.094" y1="21.7488" x2="160.094" y2="198.293" gradientUnits="userSpaceOnUse">
<stop stop-color="#007D73"/>
<stop offset="0.24" stop-color="#027875"/>
<stop offset="0.53" stop-color="#08687A"/>
<stop offset="0.85" stop-color="#114F81"/>
<stop offset="1" stop-color="#164186"/>
</linearGradient>
<linearGradient id="paint22_linear_21_8716" x1="222.7" y1="65.7996" x2="9.11897" y2="172.987" gradientUnits="userSpaceOnUse">
<stop stop-color="#FFECAD"/>
<stop offset="0.1" stop-color="#EDE4AD" stop-opacity="0.93"/>
<stop offset="0.31" stop-color="#BCCFAC" stop-opacity="0.74"/>
<stop offset="0.61" stop-color="#6FACAB" stop-opacity="0.44"/>
<stop offset="0.98" stop-color="#067DAA" stop-opacity="0.02"/>
<stop offset="1" stop-color="#007BAA" stop-opacity="0"/>
</linearGradient>
<linearGradient id="paint23_linear_21_8716" x1="199.916" y1="220.446" x2="56.7537" y2="31.971" gradientUnits="userSpaceOnUse">
<stop stop-color="#CACDC2"/>
<stop offset="0.08" stop-color="#CDBCB3"/>
<stop offset="0.23" stop-color="#C59B9F"/>
<stop offset="0.39" stop-color="#BB6A81"/>
<stop offset="0.51" stop-color="#9E5574"/>
<stop offset="0.66" stop-color="#634A66"/>
<stop offset="0.86" stop-color="#253C4B"/>
<stop offset="1" stop-color="#052C35"/>
</linearGradient>
<linearGradient id="paint24_linear_21_8716" x1="108.728" y1="23.3164" x2="92.7032" y2="198.283" gradientUnits="userSpaceOnUse">
<stop stop-color="#4ADECE"/>
<stop offset="1" stop-color="#1697D7"/>
</linearGradient>
<linearGradient id="paint25_linear_21_8716" x1="136.055" y1="27.9486" x2="72.8468" y2="27.9486" gradientUnits="userSpaceOnUse">
<stop stop-color="#007D73"/>
<stop offset="0.24" stop-color="#027875"/>
<stop offset="0.53" stop-color="#08687A"/>
<stop offset="0.85" stop-color="#114F81"/>
<stop offset="1" stop-color="#164186"/>
</linearGradient>
<linearGradient id="paint26_linear_21_8716" x1="136.046" y1="27.9501" x2="72.8374" y2="27.9501" gradientUnits="userSpaceOnUse">
<stop stop-color="#007D73"/>
<stop offset="0.24" stop-color="#027875"/>
<stop offset="0.53" stop-color="#08687A"/>
<stop offset="0.85" stop-color="#114F81"/>
<stop offset="1" stop-color="#164186"/>
</linearGradient>
<linearGradient id="paint27_linear_21_8716" x1="62.2022" y1="32.9991" x2="62.2022" y2="184.503" gradientUnits="userSpaceOnUse">
<stop stop-color="#4ADECE"/>
<stop offset="1" stop-color="#1697D7"/>
</linearGradient>
<linearGradient id="paint28_linear_21_8716" x1="-19.5671" y1="109.354" x2="74.8169" y2="109.354" gradientUnits="userSpaceOnUse">
<stop stop-color="#007D73"/>
<stop offset="0.24" stop-color="#027875"/>
<stop offset="0.53" stop-color="#08687A"/>
<stop offset="0.85" stop-color="#114F81"/>
<stop offset="1" stop-color="#164186"/>
</linearGradient>
<linearGradient id="paint29_linear_21_8716" x1="58.6587" y1="32.9991" x2="58.6587" y2="184.503" gradientUnits="userSpaceOnUse">
<stop stop-color="#4ADECE"/>
<stop offset="1" stop-color="#1697D7"/>
</linearGradient>
<linearGradient id="paint30_linear_21_8716" x1="-19.5671" y1="81.7175" x2="74.8169" y2="81.7175" gradientUnits="userSpaceOnUse">
<stop stop-color="#007D73"/>
<stop offset="0.24" stop-color="#027875"/>
<stop offset="0.53" stop-color="#08687A"/>
<stop offset="0.85" stop-color="#114F81"/>
<stop offset="1" stop-color="#164186"/>
</linearGradient>
<linearGradient id="paint31_linear_21_8716" x1="110.415" y1="120.831" x2="189.271" y2="120.831" gradientUnits="userSpaceOnUse">
<stop stop-color="#CACDC2"/>
<stop offset="0.08" stop-color="#CDBCB3"/>
<stop offset="0.23" stop-color="#C59B9F"/>
<stop offset="0.39" stop-color="#BB6A81"/>
<stop offset="0.51" stop-color="#9E5574"/>
<stop offset="0.66" stop-color="#634A66"/>
<stop offset="0.86" stop-color="#253C4B"/>
<stop offset="1" stop-color="#052C35"/>
</linearGradient>
<linearGradient id="paint32_linear_21_8716" x1="125.035" y1="114.27" x2="230.475" y2="114.27" gradientUnits="userSpaceOnUse">
<stop stop-color="#E8E0E3"/>
<stop offset="0.81" stop-color="#C5EEFF"/>
</linearGradient>
<linearGradient id="paint33_linear_21_8716" x1="132.398" y1="73.2265" x2="212.811" y2="153.564" gradientUnits="userSpaceOnUse">
<stop stop-color="#1697D7"/>
<stop offset="1" stop-color="#4ADECE"/>
</linearGradient>
<linearGradient id="paint34_linear_21_8716" x1="179.668" y1="88.2365" x2="166.676" y2="144.497" gradientUnits="userSpaceOnUse">
<stop stop-color="#F88C57"/>
<stop offset="0.83" stop-color="#D65B2B"/>
<stop offset="1" stop-color="#CE5021"/>
</linearGradient>
<linearGradient id="paint35_linear_21_8716" x1="179.42" y1="152.107" x2="179.612" y2="93.6276" gradientUnits="userSpaceOnUse">
<stop stop-color="#F6DE55"/>
<stop offset="0.32" stop-color="#F6D355"/>
<stop offset="0.87" stop-color="#F5B654"/>
<stop offset="1" stop-color="#F5AE54"/>
</linearGradient>
<linearGradient id="paint36_linear_21_8716" x1="168.74" y1="188.284" x2="182.45" y2="117.24" gradientUnits="userSpaceOnUse">
<stop stop-color="#F6DE55"/>
<stop offset="0.32" stop-color="#F6D355"/>
<stop offset="0.87" stop-color="#F5B654"/>
<stop offset="1" stop-color="#F5AE54"/>
</linearGradient>
<linearGradient id="paint37_linear_21_8716" x1="179.824" y1="75.227" x2="177.936" y2="129.734" gradientUnits="userSpaceOnUse">
<stop stop-color="#F6DE55"/>
<stop offset="0.32" stop-color="#F6D355"/>
<stop offset="0.87" stop-color="#F5B654"/>
<stop offset="1" stop-color="#F5AE54"/>
</linearGradient>
<clipPath id="clip0_21_8716">
<rect width="249" height="263" fill="white"/>
</clipPath>
</defs>
</svg>
