<svg width="24" height="24" viewBox="0 0 24 24" fill="none" xmlns="http://www.w3.org/2000/svg">
<path d="M10.4727 3.9375H5.4132C5.02182 3.9375 4.64647 4.09297 4.36972 4.36972C4.09297 4.64647 3.9375 5.02182 3.9375 5.4132V10.4727C3.9375 10.6665 3.97567 10.8584 4.04983 11.0375C4.12399 11.2165 4.23269 11.3792 4.36972 11.5162C4.50675 11.6532 4.66943 11.7619 4.84847 11.8361C5.02751 11.9103 5.21941 11.9484 5.4132 11.9484H10.4727C10.6665 11.9484 10.8584 11.9103 11.0375 11.8361C11.2165 11.7619 11.3792 11.6532 11.5162 11.5162C11.6532 11.3792 11.7619 11.2165 11.8361 11.0375C11.9103 10.8584 11.9484 10.6665 11.9484 10.4727V5.4132C11.9484 5.21941 11.9103 5.02751 11.8361 4.84847C11.7619 4.66943 11.6532 4.50675 11.5162 4.36972C11.3792 4.23269 11.2165 4.12399 11.0375 4.04983C10.8584 3.97567 10.6665 3.9375 10.4727 3.9375ZM10.6835 10.4727C10.6835 10.5286 10.6613 10.5823 10.6218 10.6218C10.5823 10.6613 10.5286 10.6835 10.4727 10.6835H5.4132C5.35729 10.6835 5.30366 10.6613 5.26413 10.6218C5.22459 10.5823 5.20238 10.5286 5.20238 10.4727V5.4132C5.20238 5.35729 5.22459 5.30366 5.26413 5.26413C5.30366 5.22459 5.35729 5.20238 5.4132 5.20238H10.4727C10.5286 5.20238 10.5823 5.22459 10.6218 5.26413C10.6613 5.30366 10.6835 5.35729 10.6835 5.4132V10.4727ZM10.4727 14.0566H5.4132C5.02182 14.0566 4.64647 14.212 4.36972 14.4888C4.09297 14.7655 3.9375 15.1409 3.9375 15.5323V20.5918C3.9375 20.9832 4.09297 21.3585 4.36972 21.6353C4.64647 21.912 5.02182 22.0675 5.4132 22.0675H10.4727C10.6665 22.0675 10.8584 22.0293 11.0375 21.9552C11.2165 21.881 11.3792 21.7723 11.5162 21.6353C11.6532 21.4982 11.7619 21.3356 11.8361 21.1565C11.9103 20.9775 11.9484 20.7856 11.9484 20.5918V15.5323C11.9484 15.3385 11.9103 15.1466 11.8361 14.9675C11.7619 14.7885 11.6532 14.6258 11.5162 14.4888C11.3792 14.3518 11.2165 14.2431 11.0375 14.1689C10.8584 14.0947 10.6665 14.0566 10.4727 14.0566ZM10.6835 20.5918C10.6835 20.6477 10.6613 20.7013 10.6218 20.7409C10.5823 20.7804 10.5286 20.8026 10.4727 20.8026H5.4132C5.35729 20.8026 5.30366 20.7804 5.26413 20.7409C5.22459 20.7013 5.20238 20.6477 5.20238 20.5918V15.5323C5.20238 15.4764 5.22459 15.4227 5.26413 15.3832C5.30366 15.3437 5.35729 15.3215 5.4132 15.3215H10.4727C10.5286 15.3215 10.5823 15.3437 10.6218 15.3832C10.6613 15.4227 10.6835 15.4764 10.6835 15.5323V20.5918ZM20.5918 3.9375H15.5323C15.1409 3.9375 14.7655 4.09297 14.4888 4.36972C14.212 4.64647 14.0566 5.02182 14.0566 5.4132V10.4727C14.0566 10.6665 14.0947 10.8584 14.1689 11.0375C14.2431 11.2165 14.3518 11.3792 14.4888 11.5162C14.6258 11.6532 14.7885 11.7619 14.9675 11.8361C15.1466 11.9103 15.3385 11.9484 15.5323 11.9484H20.5918C20.7856 11.9484 20.9775 11.9103 21.1565 11.8361C21.3356 11.7619 21.4982 11.6532 21.6353 11.5162C21.7723 11.3792 21.881 11.2165 21.9552 11.0375C22.0293 10.8584 22.0675 10.6665 22.0675 10.4727V5.4132C22.0675 5.02182 21.912 4.64647 21.6353 4.36972C21.3585 4.09297 20.9832 3.9375 20.5918 3.9375ZM20.8026 10.4727C20.8026 10.5286 20.7804 10.5823 20.7409 10.6218C20.7013 10.6613 20.6477 10.6835 20.5918 10.6835H15.5323C15.4764 10.6835 15.4227 10.6613 15.3832 10.6218C15.3437 10.5823 15.3215 10.5286 15.3215 10.4727V5.4132C15.3215 5.35729 15.3437 5.30366 15.3832 5.26413C15.4227 5.22459 15.4764 5.20238 15.5323 5.20238H20.5918C20.6477 5.20238 20.7013 5.22459 20.7409 5.26413C20.7804 5.30366 20.8026 5.35729 20.8026 5.4132V10.4727ZM14.0566 18.062V14.689C14.0566 14.5213 14.1232 14.3604 14.2418 14.2418C14.3604 14.1232 14.5213 14.0566 14.689 14.0566C14.8567 14.0566 15.0176 14.1232 15.1362 14.2418C15.2548 14.3604 15.3215 14.5213 15.3215 14.689V18.062C15.3215 18.2298 15.2548 18.3906 15.1362 18.5092C15.0176 18.6278 14.8567 18.6945 14.689 18.6945C14.5213 18.6945 14.3604 18.6278 14.2418 18.5092C14.1232 18.3906 14.0566 18.2298 14.0566 18.062ZM22.0675 16.3755C22.0675 16.5433 22.0009 16.7041 21.8823 16.8227C21.7637 16.9413 21.6028 17.008 21.4351 17.008H18.6945V21.4351C18.6945 21.6028 18.6278 21.7637 18.5092 21.8823C18.3906 22.0009 18.2298 22.0675 18.062 22.0675H14.689C14.5213 22.0675 14.3604 22.0009 14.2418 21.8823C14.1232 21.7637 14.0566 21.6028 14.0566 21.4351C14.0566 21.2673 14.1232 21.1065 14.2418 20.9879C14.3604 20.8692 14.5213 20.8026 14.689 20.8026H17.4296V14.689C17.4296 14.5213 17.4962 14.3604 17.6148 14.2418C17.7334 14.1232 17.8943 14.0566 18.062 14.0566C18.2298 14.0566 18.3906 14.1232 18.5092 14.2418C18.6278 14.3604 18.6945 14.5213 18.6945 14.689V15.7431H21.4351C21.6028 15.7431 21.7637 15.8097 21.8823 15.9283C22.0009 16.0469 22.0675 16.2078 22.0675 16.3755ZM22.0675 19.7485V21.4351C22.0675 21.6028 22.0009 21.7637 21.8823 21.8823C21.7637 22.0009 21.6028 22.0675 21.4351 22.0675C21.2673 22.0675 21.1065 22.0009 20.9879 21.8823C20.8692 21.7637 20.8026 21.6028 20.8026 21.4351V19.7485C20.8026 19.5808 20.8692 19.4199 20.9879 19.3013C21.1065 19.1827 21.2673 19.1161 21.4351 19.1161C21.6028 19.1161 21.7637 19.1827 21.8823 19.3013C22.0009 19.4199 22.0675 19.5808 22.0675 19.7485Z" fill="#E68600"/>
</svg>
